<svg width="271" height="55" viewBox="0 0 271 55" fill="none" xmlns="http://www.w3.org/2000/svg">
<g clip-path="url(#clip0_2_1228)">
<rect x="269.379" y="53.5" width="268" height="52" rx="19" transform="rotate(-180 269.379 53.5)" fill="url(#paint0_linear_2_1228)" stroke="black" stroke-width="2"/>
<path d="M88.3676 34.5H78.1676C76.0796 34.5 75.4076 33.588 75.4076 31.668V21.084C75.4076 19.164 76.0796 18.252 78.1676 18.252H88.1996V21.492H79.7516C79.1036 21.492 78.9836 21.636 78.9836 22.38V30.66C78.9836 31.212 79.1516 31.38 79.7516 31.38H84.9596V27.684H81.7436V25.068H88.3676V34.5ZM102.852 34.5H93.0123C91.2603 34.5 90.7083 33.756 90.7083 32.124V24.732C90.7083 23.1 91.2603 22.356 93.0123 22.356H101.22C102.828 22.356 103.308 23.1 103.308 24.636V29.412H95.2203V27.396H100.116V25.764C100.116 25.26 99.9963 25.116 99.4923 25.116H94.6683C94.1163 25.116 94.0203 25.236 94.0203 25.788V31.02C94.0203 31.596 94.1163 31.74 94.6683 31.74H102.852V34.5ZM111.904 34.5H107.992C106.264 34.5 105.712 33.756 105.712 32.124V18.972H109.072V22.356H112V24.996H109.072V31.212C109.072 31.764 109.216 31.86 109.696 31.86H111.904V34.5ZM126.74 34.5H122.828C121.1 34.5 120.548 33.756 120.548 32.124V18.972H123.908V22.356H126.836V24.996H123.908V31.212C123.908 31.764 124.052 31.86 124.532 31.86H126.74V34.5ZM141.879 34.5H138.543V25.932C138.543 25.38 138.399 25.26 137.847 25.26H132.831C132.351 25.26 132.183 25.38 132.183 25.932V34.5H128.823V17.268H132.183V23.676C132.639 22.74 133.239 22.356 134.271 22.356H139.599C141.231 22.356 141.879 23.004 141.879 24.732V34.5ZM156.36 34.5H146.52C144.768 34.5 144.216 33.756 144.216 32.124V24.732C144.216 23.1 144.768 22.356 146.52 22.356H154.728C156.336 22.356 156.816 23.1 156.816 24.636V29.412H148.728V27.396H153.624V25.764C153.624 25.26 153.504 25.116 153 25.116H148.176C147.624 25.116 147.528 25.236 147.528 25.788V31.02C147.528 31.596 147.624 31.74 148.176 31.74H156.36V34.5ZM179.485 34.5H175.813L175.117 31.98H169.261L168.541 34.5H165.013L170.029 18.252H174.805L179.485 34.5ZM174.421 29.292L172.285 21.516L169.981 29.292H174.421ZM191.407 34.5H185.695V31.62H189.727C190.207 31.62 190.351 31.5 190.351 30.948V26.028C190.351 25.476 190.231 25.332 189.727 25.332H184.495V39.588H181.135V22.356H191.407C193.159 22.356 193.735 23.1 193.735 24.732V32.124C193.735 33.78 192.943 34.5 191.407 34.5ZM206.383 34.5H200.671V31.62H204.703C205.183 31.62 205.327 31.5 205.327 30.948V26.028C205.327 25.476 205.207 25.332 204.703 25.332H199.471V39.588H196.111V22.356H206.383C208.135 22.356 208.711 23.1 208.711 24.732V32.124C208.711 33.78 207.919 34.5 206.383 34.5Z" fill="black"/>
<path d="M43.1948 30.8652C43.2886 30.9854 43.4702 30.9854 43.5639 30.8652L46.8452 26.7139C46.9653 26.5615 46.8569 26.3359 46.6606 26.3359H44.4897V16.4219C44.4897 16.293 44.3843 16.1875 44.2554 16.1875H42.4975C42.3686 16.1875 42.2632 16.293 42.2632 16.4219V26.333H40.0981C39.9018 26.333 39.7934 26.5586 39.9136 26.7109L43.1948 30.8652Z" fill="black"/>
<path d="M54.1016 29.8398H52.3438C52.2148 29.8398 52.1094 29.9453 52.1094 30.0742V34.5859H34.6484V30.0742C34.6484 29.9453 34.543 29.8398 34.4141 29.8398H32.6562C32.5273 29.8398 32.4219 29.9453 32.4219 30.0742V35.875C32.4219 36.3936 32.8408 36.8125 33.3594 36.8125H53.3984C53.917 36.8125 54.3359 36.3936 54.3359 35.875V30.0742C54.3359 29.9453 54.2305 29.8398 54.1016 29.8398Z" fill="black"/>
</g>
<defs>
<linearGradient id="paint0_linear_2_1228" x1="544.421" y1="105.533" x2="292.685" y2="15.7544" gradientUnits="userSpaceOnUse">
<stop stop-color="#D9FC7E"/>
<stop offset="1" stop-color="#B2FF34"/>
</linearGradient>
<clipPath id="clip0_2_1228">
<rect width="270" height="54" fill="white" transform="translate(0.378906 0.5)"/>
</clipPath>
</defs>
</svg>
