<svg width="24" height="29" viewBox="0 0 24 29" fill="none" xmlns="http://www.w3.org/2000/svg">
<g clip-path="url(#clip0_2_1093)">
<g clip-path="url(#clip1_2_1093)">
<path d="M24.0005 12.59C24.0005 5.96275 18.6278 0.590027 12.0005 0.590027C5.37322 0.590027 0.000488281 5.96275 0.000488281 12.59C0.000488281 19.2173 5.37322 24.59 12.0005 24.59C18.6278 24.59 24.0005 19.2173 24.0005 12.59ZM8.77794 12.59V10.2937H10.1852V8.90494C10.1852 7.03185 10.7449 5.68239 12.7958 5.68239H15.235V7.9733H13.5179C12.6572 7.9733 12.4619 8.54494 12.4619 9.14385V10.2937H15.1085L14.7474 12.59H12.4619V19.5162H10.1852V12.59H8.77794Z" fill="black"/>
</g>
</g>
<defs>
<clipPath id="clip0_2_1093">
<rect width="24" height="28" fill="white" transform="translate(0.000488281 0.590027)"/>
</clipPath>
<clipPath id="clip1_2_1093">
<rect width="24" height="24" fill="white" transform="translate(0.000488281 0.590027)"/>
</clipPath>
</defs>
</svg>
