<svg width="192" height="233" viewBox="0 0 192 233" fill="none" xmlns="http://www.w3.org/2000/svg">
<g clip-path="url(#clip0_2_1600)">
<path d="M118.837 186.559L120.914 187.632C125.362 189.568 130.582 187.446 132.575 182.879C134.567 178.311 132.582 173.041 128.134 171.104L126.057 170.032" fill="#FF833D"/>
<path d="M118.837 186.559L120.914 187.632C125.362 189.568 130.582 187.446 132.575 182.879C134.567 178.311 132.582 173.041 128.134 171.104L126.057 170.032" stroke="black" stroke-width="2" stroke-linecap="round" stroke-linejoin="round"/>
<path d="M129.487 181.304C131.482 176.739 129.769 171.585 125.661 169.793C121.553 168.001 116.606 170.25 114.611 174.815C112.616 179.381 114.329 184.535 118.437 186.327C122.545 188.118 127.493 185.87 129.487 181.304Z" fill="#FAFC7D" stroke="black" stroke-width="2" stroke-linecap="round" stroke-linejoin="round"/>
<path d="M19.4756 139.068L25.5838 121.785L27.9082 122.464L19.4756 139.068Z" fill="#FAFC7D" stroke="#FAFC7D" stroke-width="2" stroke-linecap="round" stroke-linejoin="round"/>
<path d="M15.2598 119.169L21.368 101.885L23.6924 102.564L15.2598 119.169Z" fill="#FAFC7D" stroke="#FAFC7D" stroke-width="2" stroke-linecap="round" stroke-linejoin="round"/>
<path d="M142.412 151.753C139.995 151.429 137.879 153.273 137.733 155.48C136.791 155.58 135.848 155.58 134.906 155.495C131.964 155.217 129.084 154.083 126.505 152.648C120.705 149.423 116.412 144.67 116.335 144.585L114.381 146.321C114.474 146.421 115.817 147.926 118.018 149.839C119.416 151.051 121.161 152.432 123.153 153.713C124.412 154.523 125.647 155.21 126.883 155.804C129.261 156.946 131.586 157.679 133.818 157.995C135.416 158.219 136.968 158.226 138.474 158.026C138.721 158.381 139.007 158.697 139.339 158.959C141.161 160.41 143.872 159.862 145.161 157.918L148.698 152.602L142.412 151.753Z" fill="#B8AFE8"/>
<path d="M147.656 152.455L145.262 156.051C143.972 157.987 141.262 158.543 139.439 157.092C139.115 156.83 138.822 156.514 138.574 156.159C137.076 156.359 135.524 156.352 133.918 156.128C131.686 155.811 129.362 155.078 126.983 153.936C125.756 153.35 124.512 152.656 123.254 151.845C121.261 150.565 119.516 149.184 118.118 147.972C116.937 146.954 116.018 146.059 115.392 145.418L114.381 146.313C114.474 146.414 115.817 147.918 118.018 149.832C119.416 151.043 121.161 152.424 123.153 153.705C124.412 154.515 125.647 155.202 126.883 155.796C129.261 156.938 131.586 157.671 133.818 157.987C135.416 158.211 136.968 158.219 138.474 158.018C138.721 158.373 139.007 158.689 139.339 158.952C141.161 160.402 143.872 159.855 145.161 157.91L148.698 152.594L147.656 152.455Z" fill="#9F98E2"/>
<path d="M116.343 144.577C116.42 144.662 120.706 149.423 126.513 152.64C129.092 154.075 131.972 155.21 134.914 155.487C135.362 155.534 135.818 155.549 136.266 155.549C136.752 155.549 137.246 155.526 137.733 155.472C137.872 153.427 139.679 151.707 141.857 151.707C142.042 151.707 142.227 151.722 142.413 151.745L148.698 152.586L145.162 157.902C144.366 159.098 143.038 159.762 141.71 159.762C140.876 159.762 140.042 159.5 139.339 158.944C139.015 158.682 138.721 158.365 138.474 158.01C137.764 158.103 137.038 158.157 136.297 158.157C135.486 158.157 134.66 158.095 133.818 157.98C131.586 157.663 129.262 156.93 126.883 155.788C125.655 155.202 124.412 154.507 123.153 153.697C121.161 152.416 119.416 151.035 118.018 149.824C115.81 147.91 114.466 146.406 114.381 146.306L116.343 144.577ZM116.343 143.034C115.98 143.034 115.617 143.165 115.323 143.42L113.369 145.156C113.061 145.426 112.875 145.812 112.852 146.221C112.829 146.63 112.968 147.031 113.238 147.339C113.393 147.509 114.775 149.052 117.022 150.997C118.752 152.501 120.543 153.844 122.335 155.001C123.601 155.819 124.914 156.552 126.227 157.185C128.752 158.396 131.239 159.176 133.609 159.515C134.513 159.646 135.416 159.708 136.304 159.708C136.806 159.708 137.316 159.685 137.818 159.646C137.995 159.831 138.181 160.001 138.382 160.163C139.331 160.919 140.482 161.321 141.71 161.321C143.617 161.321 145.386 160.364 146.451 158.774L149.988 153.458C150.281 153.018 150.328 152.455 150.112 151.969C149.895 151.483 149.44 151.143 148.907 151.074L142.621 150.233C142.366 150.202 142.111 150.179 141.864 150.179C139.416 150.179 137.239 151.807 136.474 154.021C136.405 154.021 136.335 154.021 136.266 154.021C135.864 154.021 135.463 153.998 135.061 153.967C132.644 153.736 130.018 152.841 127.262 151.305C121.671 148.196 117.539 143.613 117.501 143.566C117.192 143.211 116.767 143.034 116.343 143.034Z" fill="black"/>
<path d="M73.1371 108.891C73.1371 108.891 26.6265 123.721 36.5803 142.656C44.8276 158.342 66.4111 129.801 77.7472 125.774" fill="#B8AFE8"/>
<path d="M73.1371 108.891C73.1371 108.891 26.6265 123.721 36.5803 142.656C44.8276 158.342 66.4111 129.801 77.7472 125.774" stroke="black" stroke-width="2" stroke-linecap="round" stroke-linejoin="round"/>
<path d="M35.9854 137.594C36.0703 139.122 36.495 140.681 37.3213 142.262C44.9971 156.923 66.3643 129.076 77.407 124.909L76.4804 121.499C64.6037 130.295 50.8274 137.949 35.9854 137.594Z" fill="#9F98E2"/>
<path d="M102.968 163.234C150.498 161.274 119.323 99.8407 119.323 99.8407L73.1369 108.891C73.1369 108.891 79.2065 133.381 73.7546 142.532C73.7546 142.532 57.7543 151.876 56.9435 166.49C56.9435 166.49 44.2328 176.081 54.7813 181.312C63.5537 185.664 78.3262 184.545 79.6775 177.308" fill="#B8AFE8"/>
<path d="M57.9785 182.578C65.6312 184.977 75.5387 184.059 78.7357 179.522C79.1836 166.521 80.5504 153.713 87.5544 142.401C71.307 148.296 62.1253 166.182 57.9785 182.578Z" fill="#9F98E2"/>
<path d="M117.068 100.273L73.1369 108.891C73.1369 108.891 79.2065 133.389 73.7546 142.532C73.7546 142.532 57.7543 151.876 56.9435 166.49C56.9435 166.49 44.2328 176.081 54.7813 181.312C55.7775 181.806 56.8508 182.223 57.9783 182.578C62.1328 166.182 71.3067 148.304 87.5464 142.401C80.5424 153.705 79.1756 166.521 78.7277 179.522C79.191 178.859 79.5231 178.126 79.6775 177.316L102.968 163.234C104.412 163.172 105.786 163.057 107.091 162.895C119.3 146.02 120.242 119.917 117.068 100.273Z" fill="#B8AFE8"/>
<path d="M119.323 99.833L117.068 100.273C127.146 126.854 125.346 154.994 105.315 157.563C101.23 158.088 110.396 160.017 107.091 162.887C148.629 157.586 119.323 99.833 119.323 99.833Z" fill="#9F98E2"/>
<path d="M75.8242 120.473C76.5887 127.564 76.3879 138.111 73.7546 142.532C73.7546 142.532 57.7543 151.876 56.9435 166.49C56.9435 166.49 44.2328 176.081 54.7813 181.312C63.5537 185.664 78.3262 184.545 79.6775 177.308" stroke="black" stroke-width="2" stroke-linecap="round" stroke-linejoin="round"/>
<path d="M102.967 163.234C150.497 161.274 119.323 99.8407 119.323 99.8407L73.1367 108.891" stroke="black" stroke-width="2" stroke-linecap="round" stroke-linejoin="round"/>
<path d="M149.826 108.436C149.826 108.436 130.474 108.436 130.01 119.115C129.547 129.794 143.061 135.202 157.192 127.502C169.031 121.052 160.683 104.555 142.628 98.6524C127.091 93.5754 114.721 95.08 114.721 95.08C114.721 95.08 108.396 108.143 117.122 115.265C117.122 115.265 127.833 116.576 130.01 119.123" fill="#B8AFE8"/>
<path d="M148.49 108.482C139.933 102.086 126.01 108.953 117.879 115.365C120.365 115.72 128.173 116.985 130.003 119.115C130.397 110.149 144.111 108.714 148.49 108.482Z" fill="#9F98E2"/>
<path d="M149.826 108.436C149.826 108.436 149.324 108.436 148.498 108.482C148.668 108.614 148.846 108.737 149.015 108.876L149.826 108.436Z" fill="#B8AFE8"/>
<path d="M148.49 108.482C144.111 108.714 130.389 110.141 130.003 119.115L149.007 108.876C148.837 108.737 148.667 108.614 148.49 108.482Z" fill="#B8AFE8"/>
<path d="M160.521 111.785C157.393 106.499 151.077 101.415 142.628 98.6524C127.091 93.5754 114.721 95.08 114.721 95.08C114.721 95.08 108.396 108.143 117.122 115.265C117.122 115.265 117.408 115.303 117.887 115.365C126.018 108.953 139.933 102.094 148.497 108.482C149.331 108.436 149.826 108.436 149.826 108.436L149.015 108.876C150.297 109.941 151.439 111.322 152.42 113.081C151.447 111.33 150.297 109.948 149.015 108.876L130.01 119.115C129.902 121.677 130.597 123.922 131.91 125.774C143.37 127.525 157.517 122.865 160.521 111.785Z" fill="#B8AFE8"/>
<path d="M160.521 111.785C157.517 122.872 143.37 127.525 131.91 125.774C136.072 131.63 146.451 133.358 157.193 127.502C163.486 124.068 164.073 117.795 160.521 111.785Z" fill="#9F98E2"/>
<path d="M121.941 95.5893L126.103 95.9056C126.103 95.9056 100.01 122.788 60.7041 114.632L68.5189 110.975" fill="#9F98E2"/>
<path d="M117.115 115.257C117.115 115.257 127.826 116.569 130.004 119.115" stroke="black" stroke-width="2" stroke-linecap="round" stroke-linejoin="round"/>
<path d="M149.826 108.436C149.826 108.436 134.42 105.898 130.011 119.115C126.628 129.253 145.949 134.493 157.193 127.502C168.884 120.226 162.127 105.28 142.629 98.6525C127.153 93.3903 114.721 95.08 114.721 95.08" stroke="black" stroke-width="2" stroke-linecap="round" stroke-linejoin="round"/>
<path d="M77.0984 159.747C77.0984 159.747 71.9709 163.365 70.4033 167.671C82.2955 172.061 92.3343 160.564 102.898 158.142L101.663 139.053C101.663 139.045 78.2568 137.309 77.0984 159.747Z" fill="#B8AFE8"/>
<path d="M70.403 167.671C69.793 169.337 69.7235 171.112 70.6965 172.817C74.1869 178.92 99.2222 178.697 100.767 172.817C102.311 166.938 102.967 159.307 102.967 159.307L102.89 158.134C92.334 160.557 82.2952 172.061 70.403 167.671Z" fill="#9F98E2"/>
<path d="M101.663 139.045C101.663 139.045 78.2567 137.301 77.0983 159.739C77.0983 159.739 67.214 166.714 70.7044 172.809C74.1948 178.905 99.2301 178.689 100.775 172.809C102.319 166.93 102.975 159.299 102.975 159.299" stroke="black" stroke-width="2" stroke-linecap="round" stroke-linejoin="round"/>
<path d="M88.5195 134.408L91.4694 139.778" stroke="black" stroke-width="2" stroke-linecap="round" stroke-linejoin="round"/>
<path d="M87.083 138.134L92.8746 136.128" stroke="black" stroke-width="2" stroke-linecap="round" stroke-linejoin="round"/>
<path d="M116.142 47.0412C115.602 47.0412 114.93 46.8946 114.15 46.6091C113.2 46.2541 112.119 45.714 110.937 44.9887C108.574 43.5382 105.987 41.4626 103.841 39.2944C102.142 37.5815 99.8946 34.9813 98.7826 32.2962C97.7324 29.7577 97.9486 27.7438 99.4236 26.3164C99.4545 26.2855 99.4854 26.2624 99.5162 26.2392C99.7634 26.0695 100.18 25.8303 100.798 25.5139C100.953 25.4368 102.041 24.9121 103.594 24.1714C107.872 22.1267 115.841 18.3228 116.991 17.6669C117.81 17.1963 118.451 16.7873 118.907 16.4401C119.154 16.2549 119.347 16.0852 119.486 15.9386C119.625 15.792 119.71 15.6685 119.748 15.5605C119.841 15.2905 119.787 14.8969 119.594 14.3954C119.416 13.9247 119.107 13.3538 118.659 12.6439C118.165 11.8569 117.524 10.9464 116.914 10.0745C116.474 9.44184 116.073 8.87087 115.694 8.31533C114.42 6.42495 113.725 5.11326 113.447 4.0639C113.262 3.37719 113.262 2.80622 113.439 2.33555C113.64 1.81088 114.065 1.41737 114.706 1.17046C115.123 1.00843 115.679 0.923553 116.351 0.923553C116.698 0.923553 117.069 0.946701 117.47 0.98528C118.621 1.10873 120.003 1.40965 121.47 1.85717C124.683 2.8448 128.119 4.44969 131.146 6.38637C135.803 9.36469 143.417 15.6685 142.143 24.4029C140.614 31.0076 135.409 36.1618 131.316 39.333C128.451 41.5475 122.521 44.6107 121.849 44.9579C119.771 46.0227 117.856 46.7634 116.598 46.9949C116.459 47.0257 116.304 47.0412 116.142 47.0412Z" fill="white"/>
<path d="M116.35 1.69515C116.659 1.69515 117.007 1.71058 117.385 1.75687C118.474 1.87261 119.787 2.1581 121.239 2.5979C124.142 3.48522 127.54 5.00524 130.721 7.04223C137.123 11.1393 142.405 17.1886 141.37 24.3026C140.034 30.0509 135.594 35.043 130.837 38.7389C128.459 40.583 123.625 43.191 121.493 44.2866C119.347 45.3823 117.555 46.0458 116.459 46.2464C116.366 46.2619 116.265 46.2696 116.15 46.2696C115.725 46.2696 115.146 46.1461 114.42 45.8838C113.524 45.552 112.474 45.0196 111.346 44.3252C109.092 42.944 106.574 40.9456 104.396 38.7466C102.211 36.5399 100.396 34.1557 99.5084 32.003C98.628 29.8657 98.6975 28.1065 99.9717 26.8719C100.18 26.7253 100.582 26.5016 101.161 26.2084C101.756 25.9075 115.794 19.2564 117.385 18.3459C118.173 17.8907 118.868 17.4586 119.385 17.0574C119.648 16.8568 119.872 16.6639 120.057 16.471C120.235 16.2858 120.397 16.062 120.482 15.8229C120.667 15.2905 120.528 14.6809 120.32 14.1254C120.096 13.5467 119.74 12.9063 119.323 12.2427C118.822 11.4403 118.188 10.5452 117.555 9.64247C117.146 9.05606 116.729 8.46966 116.343 7.89869C115.331 6.3941 114.497 4.99753 114.204 3.87873C114.057 3.33091 114.065 2.92197 114.173 2.62105C114.273 2.35099 114.505 2.09637 114.999 1.90347C115.3 1.76459 115.756 1.69515 116.35 1.69515ZM116.35 0.151978C115.586 0.151978 114.937 0.252284 114.428 0.44518C113.57 0.776961 112.999 1.31707 112.713 2.05008C112.474 2.66734 112.474 3.40806 112.698 4.24909C113.007 5.39875 113.709 6.74131 115.053 8.732C115.447 9.31069 115.864 9.91252 116.281 10.5066C116.922 11.4171 117.524 12.2736 118.003 13.0452C118.428 13.7164 118.706 14.2488 118.868 14.6655C119.022 15.0744 119.022 15.2519 119.015 15.2905C119.007 15.2982 118.976 15.3368 118.922 15.3985C118.806 15.5219 118.644 15.6608 118.435 15.8151C118.003 16.1469 117.385 16.5404 116.605 16.9879C115.486 17.6284 107.207 21.5789 103.238 23.477C101.478 24.318 100.62 24.7269 100.458 24.8118C99.5856 25.2516 99.2535 25.4677 99.0837 25.5911C99.0142 25.6374 98.9524 25.6914 98.8983 25.7454C97.7168 26.8951 96.6126 29.0092 98.0798 32.574C99.2381 35.3671 101.555 38.0599 103.3 39.8191C105.485 42.0259 108.126 44.1477 110.543 45.6292C111.771 46.3853 112.899 46.9486 113.887 47.3189C114.752 47.643 115.516 47.805 116.15 47.805C116.358 47.805 116.551 47.7896 116.737 47.751C118.065 47.5118 120.057 46.7402 122.204 45.6446C122.876 45.2974 128.86 42.211 131.795 39.9426C135.988 36.6942 141.316 31.4011 142.891 24.6344C142.899 24.5958 142.907 24.5495 142.915 24.5109C143.903 17.721 139.872 11.0468 131.571 5.73053C128.49 3.75528 124.984 2.1118 121.71 1.10874C120.173 0.638076 118.783 0.337158 117.571 0.205988C117.123 0.175125 116.713 0.151978 116.35 0.151978Z" fill="black"/>
<path opacity="0.2" d="M101.154 26.1929C100.574 26.4861 100.173 26.7099 99.9644 26.8565C98.6902 28.091 98.613 29.8503 99.5011 31.9875C100.389 34.1403 102.204 36.5245 104.389 38.7312C106.575 40.9379 109.092 42.9286 111.339 44.3097C112.467 45.0042 113.517 45.5366 114.413 45.8683C115.332 46.2078 116.011 46.3082 116.451 46.231C117.548 46.0304 119.347 45.3668 121.486 44.2712C123.617 43.1832 128.451 40.5676 130.83 38.7235C132.876 37.134 134.869 35.3054 136.575 33.2761C130.15 27.7438 123.424 22.6359 115.926 19.0635C111.926 21.0696 101.656 25.9383 101.154 26.1929Z" fill="#8A7CD8"/>
<path d="M119.224 32.8749C121.594 39.904 129.232 43.6848 136.266 41.316C143.301 38.9472 147.085 31.3163 144.715 24.2871L119.224 32.8749Z" fill="#B8AFE8"/>
<path d="M144.714 24.2871C147.085 31.3163 143.309 38.9472 136.266 41.316C134.838 41.7944 133.394 42.0259 131.965 42.0259C126.351 42.0259 121.115 38.4843 119.223 32.8826L144.714 24.2871ZM144.714 22.744C144.544 22.744 144.382 22.7671 144.22 22.8211L118.729 31.4166C117.918 31.6866 117.486 32.5662 117.756 33.3687C119.818 39.4642 125.525 43.569 131.965 43.569C133.594 43.569 135.208 43.3067 136.76 42.782C144.598 40.1432 148.815 31.6249 146.174 23.7933C146.043 23.4075 145.765 23.0835 145.394 22.906C145.185 22.798 144.954 22.744 144.714 22.744Z" fill="black"/>
<path d="M119.224 32.8749L127.255 30.1666C130.9 33.4072 133.981 41.8638 133.981 41.8638C127.556 42.9826 121.378 39.2404 119.224 32.8749Z" fill="#9F98E2"/>
<path d="M136.258 53.0132C139.856 66.6394 136.675 78.4292 128.945 87.7963C121.199 97.1864 108.875 104.154 94.1873 108.027C79.492 111.901 65.3759 112.07 54.0243 107.803C42.7114 103.544 34.1243 94.8563 30.4408 80.8983C27.3211 69.0699 30.7961 55.9298 38.4565 44.8344C46.1091 33.7391 57.9086 24.7501 71.2834 21.224C100.589 13.5004 130.003 29.3179 136.258 53.0132Z" fill="#B8AFE8"/>
<path d="M131.895 77.3644C124.15 86.7546 111.825 93.722 97.1378 97.5954C82.4426 101.469 68.3264 101.638 56.9749 97.3716C45.6619 93.1125 37.0671 84.4322 33.3837 70.4665C32.0863 65.5592 31.9473 60.4282 32.7427 55.3126C29.2986 63.7228 28.2484 72.6269 30.4338 80.8983C34.1173 94.8563 42.7043 103.544 54.025 107.803C65.3689 112.07 79.4927 111.901 94.188 108.027C108.876 104.154 121.208 97.1864 128.945 87.7963C133.556 82.2023 136.536 75.7364 137.432 68.5452C136.011 71.6779 134.15 74.6253 131.895 77.3644Z" fill="#9F98E2"/>
<path d="M136.258 53.0132C139.856 66.6394 136.675 78.4292 128.945 87.7963C121.199 97.1864 108.875 104.154 94.1873 108.027C79.492 111.901 65.3759 112.07 54.0243 107.803C42.7114 103.544 34.1243 94.8563 30.4408 80.8983C27.3211 69.0699 30.7961 55.9298 38.4565 44.8344C46.1091 33.7391 57.9086 24.7501 71.2834 21.224C100.589 13.5004 130.003 29.3179 136.258 53.0132Z" stroke="black" stroke-width="2"/>
<path d="M75.1831 225.169C75.1831 225.169 106.473 203.272 114.535 184.538C114.535 184.538 122.69 169.476 110.334 160.526C91.5309 146.907 82.4264 167.825 82.4264 167.825C74.3568 186.559 43.0743 208.457 43.0743 208.457C43.0743 208.457 35.0046 213.904 44.7114 221.851C54.4104 229.806 64.5574 230.879 75.1831 225.169Z" fill="#E8EECE" stroke="black" stroke-width="2" stroke-linecap="round" stroke-linejoin="round"/>
<path d="M77.6928 227.785C77.6928 227.785 108.983 205.887 117.045 187.153C117.045 187.153 125.2 172.092 112.844 163.141C94.0406 149.523 84.9362 170.441 84.9362 170.441C76.8666 189.175 45.5841 211.072 45.5841 211.072C45.5841 211.072 37.5144 216.52 47.2212 224.467C56.9279 232.414 67.0671 233.495 77.6928 227.785Z" fill="#BDFB52" stroke="black" stroke-width="2" stroke-linecap="round" stroke-linejoin="round"/>
<path d="M106.914 185.008L113.277 188.681C115.123 189.746 115.424 192.678 113.949 195.232C112.474 197.786 109.779 198.989 107.933 197.925L101.57 194.252" fill="#FF833D"/>
<path d="M106.914 185.008L113.277 188.681C115.123 189.746 115.424 192.678 113.949 195.232C112.474 197.786 109.779 198.989 107.933 197.925L101.57 194.252" stroke="black" stroke-width="2" stroke-linecap="round" stroke-linejoin="round"/>
<path d="M107.58 191.564C109.056 189.011 108.755 186.077 106.908 185.011C105.061 183.946 102.368 185.153 100.893 187.706C99.4169 190.26 99.7177 193.194 101.564 194.259C103.411 195.325 106.104 194.118 107.58 191.564Z" fill="#FAFC7D" stroke="black" stroke-width="2" stroke-linecap="round" stroke-linejoin="round"/>
<path d="M94.3729 181.513L103.585 187.246C104.165 187.578 104.257 188.503 103.794 189.306C103.331 190.108 102.481 190.486 101.902 190.155L92.6895 184.422" fill="#FF833D"/>
<path d="M94.3729 181.513L103.585 187.246C104.165 187.578 104.257 188.503 103.794 189.306C103.331 190.108 102.481 190.486 101.902 190.155L92.6895 184.422" stroke="black" stroke-width="2" stroke-linecap="round" stroke-linejoin="round"/>
<path d="M86.8974 173.465L93.2605 177.138C95.1061 178.203 95.4073 181.135 93.9323 183.689C92.4574 186.243 89.7624 187.446 87.9168 186.382L81.5537 182.709" fill="#FF833D"/>
<path d="M86.8974 173.465L93.2605 177.138C95.1061 178.203 95.4073 181.135 93.9323 183.689C92.4574 186.243 89.7624 187.446 87.9168 186.382L81.5537 182.709" stroke="black" stroke-width="2" stroke-linecap="round" stroke-linejoin="round"/>
<path d="M87.5712 180.015C89.0468 177.462 88.746 174.528 86.8993 173.462C85.0527 172.397 82.3594 173.604 80.8838 176.157C79.4082 178.711 79.7089 181.645 81.5556 182.71C83.4023 183.775 86.0955 182.569 87.5712 180.015Z" fill="#FAFC7D" stroke="black" stroke-width="2" stroke-linecap="round" stroke-linejoin="round"/>
<path d="M79.4767 214.344L85.554 218.464C87.3147 219.66 87.4073 222.607 85.7471 225.046C84.0868 227.484 81.3146 228.495 79.5539 227.291L73.4766 223.171" fill="#FF833D"/>
<path d="M79.4767 214.344L85.554 218.464C87.3147 219.66 87.4073 222.607 85.7471 225.046C84.0868 227.484 81.3146 228.495 79.5539 227.291L73.4766 223.171" stroke="black" stroke-width="2" stroke-linecap="round" stroke-linejoin="round"/>
<path d="M79.6765 220.922C81.3339 218.482 81.2472 215.534 79.4829 214.337C77.7185 213.141 74.9446 214.149 73.2872 216.588C71.6297 219.028 71.7164 221.976 73.4808 223.173C75.2452 224.369 78.0191 223.362 79.6765 220.922Z" fill="#FAFC7D" stroke="black" stroke-width="2" stroke-linecap="round" stroke-linejoin="round"/>
<path d="M67.2288 209.946L75.9935 216.335C76.5495 216.713 76.5727 217.638 76.0553 218.402C75.5379 219.166 74.6653 219.483 74.1093 219.112L65.3369 212.723" fill="#FF833D"/>
<path d="M67.2288 209.946L75.9935 216.335C76.5495 216.713 76.5727 217.638 76.0553 218.402C75.5379 219.166 74.6653 219.483 74.1093 219.112L65.3369 212.723" stroke="black" stroke-width="2" stroke-linecap="round" stroke-linejoin="round"/>
<path d="M60.3566 201.381L66.4339 205.501C68.1946 206.697 68.2872 209.645 66.627 212.083C64.9667 214.521 62.1944 215.532 60.4338 214.328L54.3564 210.208" fill="#FF833D"/>
<path d="M60.3566 201.381L66.4339 205.501C68.1946 206.697 68.2872 209.645 66.627 212.083C64.9667 214.521 62.1944 215.532 60.4338 214.328L54.3564 210.208" stroke="black" stroke-width="2" stroke-linecap="round" stroke-linejoin="round"/>
<path d="M60.5544 207.952C62.2119 205.512 62.1252 202.565 60.3608 201.368C58.5964 200.171 55.8225 201.179 54.1651 203.619C52.5077 206.059 52.5944 209.007 54.3587 210.204C56.1231 211.4 58.897 210.392 60.5544 207.952Z" fill="#FAFC7D" stroke="black" stroke-width="2" stroke-linecap="round" stroke-linejoin="round"/>
<path d="M20.3484 84.9259C17.1977 84.9259 14.3637 84.3781 11.9389 83.2979C4.52567 79.2239 4.10867 69.8492 4.51795 64.6178C4.7805 61.2229 5.52955 57.7044 6.6261 54.7107C7.13576 53.3218 7.68404 52.1336 8.25548 51.1846C8.84236 50.2046 9.42925 49.5334 9.98524 49.1862C10.3868 48.9392 10.7652 48.8158 11.1436 48.8158C11.3057 48.8158 11.4679 48.8389 11.6223 48.8852C12.0934 49.0241 12.5258 49.3559 12.9506 49.896C13.5838 50.7062 14.1861 51.987 14.8888 54.0317C15.0896 54.6258 15.2904 55.2508 15.4911 55.8681L15.522 55.9607C15.8464 56.9792 16.1553 57.9282 16.4641 58.7461C16.7499 59.4868 17.0047 60.0423 17.2518 60.4513C17.5144 60.8834 17.7769 61.138 18.024 61.2152C18.0626 61.2306 18.1321 61.246 18.248 61.246C18.3097 61.246 18.3792 61.2383 18.441 61.2383C18.6341 61.2152 18.8735 61.1689 19.1437 61.0917C19.6766 60.9451 20.3329 60.6982 21.1669 60.351C22.5183 59.78 24.2404 58.9467 26.5879 57.7276C27.7231 57.1412 28.8659 56.5316 29.9393 55.9684C29.9393 55.9684 31.422 55.1814 32.0552 54.8496C32.8583 54.4329 33.5687 54.0626 34.1479 53.7848C34.7348 53.4993 35.1595 53.3141 35.4298 53.2293C35.4684 53.2138 35.507 53.2061 35.5456 53.1984C35.7618 53.1675 35.978 53.1521 36.1865 53.1521C37.8623 53.1521 39.3063 54.1629 40.4801 56.1613C41.8778 58.5378 42.5573 61.7321 42.8894 64.0006C43.2987 66.8632 43.3913 70.0112 43.1365 72.6269C43.0052 73.9463 42.8044 75.0728 42.5264 75.991C42.233 76.9786 41.8546 77.6808 41.4222 78.082C40.5264 78.9076 38.8661 79.9338 36.8661 80.8906C35.2522 81.6699 32.6498 82.7732 29.4065 83.6528C26.225 84.4861 23.1824 84.9259 20.3484 84.9259Z" fill="white"/>
<path d="M11.1437 49.5797C11.2364 49.5797 11.329 49.5951 11.4063 49.6182C11.692 49.7031 12.0086 49.9346 12.3406 50.359C13.0125 51.2231 13.5994 52.6506 14.1554 54.2709C14.3716 54.8882 14.5801 55.544 14.7886 56.1844C15.1129 57.1875 15.4295 58.1751 15.7461 59.0084C16.0087 59.7029 16.2944 60.3433 16.6033 60.8448C16.8967 61.3232 17.2828 61.7707 17.7925 61.9405C17.9392 61.9867 18.1014 62.0022 18.2558 62.0022C18.3485 62.0022 18.4412 61.9945 18.5261 61.9867C18.7732 61.9636 19.0589 61.9019 19.3601 61.817C19.9547 61.6472 20.6806 61.3772 21.476 61.0377C23.0745 60.3587 25.0127 59.3942 26.951 58.3912C28.117 57.7893 29.2908 57.1643 30.3796 56.5857C31.0978 56.1999 31.7851 55.8372 32.4183 55.5132C33.2137 55.0965 33.9164 54.7338 34.4878 54.4561C35.0438 54.186 35.4376 54.0163 35.6693 53.9391C35.8469 53.9083 36.0245 53.9005 36.1944 53.9005C37.623 53.9005 38.8277 54.8342 39.8161 56.5239C40.9358 58.4297 41.7003 61.1611 42.125 64.0777C42.542 66.9866 42.6115 70.0267 42.3721 72.5189C42.2486 73.7688 42.0555 74.8645 41.793 75.7287C41.5227 76.616 41.2138 77.187 40.9049 77.4724C40.125 78.19 38.596 79.1622 36.5419 80.1576C34.4955 81.1452 31.9704 82.1251 29.2136 82.8658C26.3795 83.6297 23.337 84.1312 20.3563 84.1312C17.5299 84.1312 14.75 83.676 12.2634 82.5726C6.28647 79.2857 4.73432 71.8399 5.29804 64.6564C5.56831 61.1071 6.36369 57.6659 7.35213 54.9653C7.84635 53.6151 8.37918 52.4577 8.91973 51.5704C9.46028 50.6676 9.97767 50.0889 10.3947 49.8266C10.6881 49.6491 10.9352 49.5797 11.1437 49.5797ZM11.1437 48.0365C10.6263 48.0365 10.0935 48.1985 9.57611 48.5226C8.91201 48.9315 8.2479 49.6954 7.59152 50.7833C6.98919 51.7787 6.42547 53.0132 5.90036 54.4406C4.78065 57.4961 4.01616 61.0917 3.74588 64.5561C3.02 73.9 5.77681 80.7903 11.5144 83.946C11.553 83.9692 11.5916 83.9846 11.6302 84C14.1554 85.1266 17.0898 85.6975 20.3563 85.6975C23.2521 85.6975 26.3718 85.25 29.6151 84.3781C32.9202 83.4831 35.5689 82.3566 37.206 81.5696C39.2987 80.5588 40.9822 79.5171 41.9474 78.6298C42.4957 78.1283 42.9281 77.3258 43.2756 76.1916C43.5691 75.2271 43.7853 74.0466 43.9166 72.6809C44.1791 70.0035 44.0865 66.7937 43.6617 63.8694C43.3297 61.5392 42.6193 58.2368 41.1598 55.7523C39.5149 52.9515 37.5535 52.3651 36.2021 52.3651C35.955 52.3651 35.7002 52.3882 35.4454 52.4268C35.3681 52.4422 35.2832 52.4577 35.206 52.4808C35.0129 52.5426 34.6577 52.6737 33.816 53.0749C33.2909 53.3296 32.6191 53.6691 31.7078 54.1474C31.0746 54.4792 30.3873 54.8419 29.6615 55.2277C28.5726 55.8064 27.4066 56.4236 26.2405 57.0255C23.9085 58.2291 22.2019 59.0547 20.8736 59.6257C20.086 59.9575 19.4373 60.1967 18.9431 60.3356C18.7114 60.3973 18.5107 60.4436 18.3639 60.459C18.333 60.459 18.2944 60.4667 18.2558 60.4667C18.2172 60.4359 18.0937 60.3278 17.9161 60.0346C17.6921 59.6797 17.4604 59.1627 17.1902 58.4683C16.889 57.6659 16.5801 56.7245 16.2635 55.7215L16.2403 55.652C16.0396 55.0193 15.8311 54.3789 15.6226 53.7771C14.8812 51.6166 14.2635 50.3127 13.5608 49.4099C13.0434 48.7464 12.4642 48.322 11.8464 48.1368C11.6148 48.0674 11.3754 48.0365 11.1437 48.0365Z" fill="black"/>
<path d="M30.9351 56.3002C30.7497 56.4005 30.5644 56.4931 30.3791 56.5934C29.2825 57.1721 28.1165 57.797 26.9504 58.3989C25.0122 59.4019 23.0662 60.3664 21.4754 61.0454C20.68 61.3849 19.9541 61.655 19.3595 61.8247C19.0584 61.9096 18.7804 61.9713 18.5255 61.9945C18.2862 62.0176 18.0236 62.0176 17.7919 61.9482C17.2823 61.7784 16.8962 61.3309 16.6027 60.8525C16.2938 60.351 16.0158 59.7183 15.7456 59.0162C15.429 58.1751 15.1123 57.1875 14.788 56.1921C14.5795 55.544 14.371 54.8959 14.1548 54.2786C13.5988 52.6506 13.0119 51.2231 12.3401 50.3667C12.008 49.9423 11.6914 49.7108 11.4057 49.626C11.1432 49.5488 10.8188 49.572 10.3864 49.842C9.96939 50.1044 9.452 50.683 8.91145 51.5858C8.37862 52.4731 7.83807 53.6305 7.34385 54.9808C6.36314 57.6659 5.56775 61.1071 5.28976 64.6719C4.73376 71.8553 6.28591 79.3011 12.2551 82.5881C14.039 83.3828 15.9695 83.838 17.9618 84.0309C25.6454 76.5003 31.0818 67.5499 30.9351 56.3002Z" fill="white"/>
<path opacity="0.2" d="M42.1247 64.0855C41.7077 61.1689 40.9354 58.4375 39.8157 56.5316C38.7037 54.6413 37.3292 53.6922 35.6689 53.9468C35.4373 54.024 35.0434 54.1937 34.4874 54.4638C33.916 54.7416 33.2133 55.1042 32.4179 55.5132C31.9546 55.7523 31.4526 56.0224 30.9352 56.2925C31.082 67.5499 25.6456 76.5002 17.9697 84.0309C21.6841 84.3936 25.6147 83.8535 29.2055 82.8813C31.9546 82.1405 34.4874 81.1529 36.5338 80.173C38.5879 79.1854 40.1169 78.2055 40.8968 77.4879C41.2057 77.2024 41.5223 76.6314 41.7849 75.7441C42.0474 74.8799 42.2405 73.7766 42.364 72.5343C42.6112 70.0344 42.5417 66.9943 42.1247 64.0855Z" fill="#8A7CD8"/>
<path d="M116.796 60.0322C121.772 57.7289 123.012 49.8339 119.565 42.3981C116.118 34.9624 109.29 30.8017 104.313 33.105C99.3362 35.4082 98.0961 43.3033 101.543 50.739C104.99 58.1748 111.819 62.3355 116.796 60.0322Z" fill="white" stroke="black" stroke-width="2" stroke-linejoin="round"/>
<path d="M98.9062 40.7065L104.868 31.5246" stroke="black" stroke-width="4" stroke-miterlimit="10" stroke-linecap="round" stroke-linejoin="round"/>
<path d="M115.863 56.6619C119.266 55.4618 120.574 50.3843 118.785 45.3211C116.996 40.2578 112.788 37.1262 109.385 38.3263C105.983 39.5264 104.675 44.6039 106.464 49.6671C108.253 54.7304 112.461 57.862 115.863 56.6619Z" fill="black"/>
<path d="M114.168 45.1495C115.31 44.7466 115.897 43.4623 115.48 42.2809C115.062 41.0994 113.798 40.4683 112.656 40.8712C111.514 41.2741 110.926 42.5584 111.344 43.7398C111.761 44.9213 113.025 45.5524 114.168 45.1495Z" fill="white"/>
<path d="M79.7466 76.4247C85.5437 73.7518 87.4082 65.4465 83.9111 57.8743C80.414 50.302 72.8796 46.3303 67.0825 49.0032C61.2854 51.6761 59.4209 59.9815 62.918 67.5537C66.4151 75.1259 73.9495 79.0976 79.7466 76.4247Z" fill="white" stroke="black" stroke-width="2" stroke-linejoin="round"/>
<path d="M78.5982 73.6411C82.8113 72.4451 84.919 66.8766 83.3058 61.2036C81.6927 55.5306 76.9695 51.9013 72.7564 53.0974C68.5433 54.2935 66.4357 59.8619 68.0488 65.5349C69.662 71.2079 74.3851 74.8372 78.5982 73.6411Z" fill="black"/>
<path d="M77.5003 60.922C78.7755 60.922 79.8093 59.8891 79.8093 58.6149C79.8093 57.3408 78.7755 56.3079 77.5003 56.3079C76.2251 56.3079 75.1914 57.3408 75.1914 58.6149C75.1914 59.8891 76.2251 60.922 77.5003 60.922Z" fill="white"/>
<path fill-rule="evenodd" clip-rule="evenodd" d="M98.3502 55.2663C92.52 56.8017 88.5199 60.8371 89.4311 64.2784C89.9099 66.0993 91.6706 67.3878 94.0876 67.9665C93.8328 66.4542 94.7594 64.9728 96.273 64.5793C97.8715 64.1549 99.5086 65.1117 99.9256 66.7088C100.049 67.1718 100.049 67.6425 99.9564 68.0823C100.512 67.9897 101.068 67.8739 101.632 67.7196C102.196 67.573 102.744 67.3956 103.269 67.2027C102.968 66.8632 102.744 66.4542 102.621 65.9913C102.196 64.3941 103.153 62.7583 104.752 62.3417C106.258 61.9405 107.802 62.7738 108.327 64.2089C110.142 62.5114 111.038 60.5285 110.551 58.7075C109.648 55.274 104.18 53.7308 98.3502 55.2663Z" fill="black"/>
<path d="M110.304 68.985C110.922 72.3105 110.134 75.1345 105.833 76.9092C101.531 78.6838 97.2764 76.8629 95.4463 74.0312" stroke="black" stroke-width="2" stroke-miterlimit="10" stroke-linecap="round" stroke-linejoin="round"/>
<path d="M175.896 70.451L181.996 53.1675L184.32 53.8465L175.896 70.451Z" fill="#FAFC7D" stroke="#FAFC7D" stroke-width="2" stroke-linecap="round" stroke-linejoin="round"/>
<path d="M154.429 148.466L160.529 131.182L162.854 131.861L154.429 148.466Z" fill="#FAFC7D" stroke="#FAFC7D" stroke-width="2" stroke-linecap="round" stroke-linejoin="round"/>
<path d="M155.718 94.9411L161.826 77.6576L164.15 78.3289L155.718 94.9411Z" fill="#FAFC7D" stroke="#FAFC7D" stroke-width="2" stroke-linecap="round" stroke-linejoin="round"/>
<path d="M35.708 193.65L41.8162 176.366L44.1406 177.045L35.708 193.65Z" fill="#FAFC7D" stroke="#FAFC7D" stroke-width="2" stroke-linecap="round" stroke-linejoin="round"/>
<path d="M78.7509 49.5797L65.8857 48.2371" stroke="black" stroke-width="4" stroke-miterlimit="10" stroke-linecap="round" stroke-linejoin="round"/>
<path d="M7.33691 171.336L9.99334 173.203C15.7541 176.706 23.345 174.746 26.9435 168.828C30.542 162.91 28.7891 155.279 23.0283 151.776L20.3719 149.909" fill="#FF833D"/>
<path d="M7.33691 171.336L9.99334 173.203C15.7541 176.706 23.345 174.746 26.9435 168.828C30.542 162.91 28.7891 155.279 23.0283 151.776L20.3719 149.909" stroke="black" stroke-width="2" stroke-linecap="round" stroke-linejoin="round"/>
<mask id="mask0_2_1600" style="mask-type:luminance" maskUnits="userSpaceOnUse" x="7" y="149" width="22" height="26">
<path d="M7.33691 171.336L9.99334 173.203C15.7541 176.706 23.345 174.746 26.9435 168.828C30.542 162.91 28.7891 155.279 23.0283 151.776L20.3719 149.909" fill="white"/>
</mask>
<g mask="url(#mask0_2_1600)">
<path d="M13.916 170.317L21.4142 174.846" stroke="black" stroke-width="2" stroke-linecap="round" stroke-linejoin="round"/>
<path d="M16.7422 165.981L24.2404 170.502" stroke="black" stroke-width="2" stroke-linecap="round" stroke-linejoin="round"/>
<path d="M19.5762 161.645L27.0667 166.166" stroke="black" stroke-width="2" stroke-linecap="round" stroke-linejoin="round"/>
<path d="M22.4023 157.301L29.9006 161.822" stroke="black" stroke-width="2" stroke-linecap="round" stroke-linejoin="round"/>
</g>
<path d="M22.9824 166.1C26.582 160.182 25.1839 152.764 19.8595 149.531C14.5352 146.297 7.30092 148.472 3.70129 154.389C0.101667 160.306 1.49981 167.725 6.82413 170.958C12.1485 174.192 19.3827 172.017 22.9824 166.1Z" fill="#FAFC7D" stroke="black" stroke-width="2" stroke-linecap="round" stroke-linejoin="round"/>
<path d="M154.676 60.6133L156.684 62.0176C161.039 64.6641 166.769 63.1827 169.487 58.7152C172.205 54.2478 170.885 48.4763 166.529 45.8375L164.522 44.4332" fill="#FF833D"/>
<path d="M154.676 60.6133L156.684 62.0176C161.039 64.6641 166.769 63.1827 169.487 58.7152C172.205 54.2478 170.885 48.4763 166.529 45.8375L164.522 44.4332" stroke="black" stroke-width="2" stroke-linecap="round" stroke-linejoin="round"/>
<mask id="mask1_2_1600" style="mask-type:luminance" maskUnits="userSpaceOnUse" x="154" y="44" width="17" height="20">
<path d="M154.676 60.6133L156.684 62.0176C161.039 64.6641 166.769 63.1827 169.487 58.7152C172.205 54.2478 170.885 48.4763 166.529 45.8375L164.522 44.4332" fill="white"/>
</mask>
<g mask="url(#mask1_2_1600)">
<path d="M159.642 59.8417L165.302 63.2599" stroke="black" stroke-width="2" stroke-linecap="round" stroke-linejoin="round"/>
<path d="M161.78 56.5625L167.441 59.9806" stroke="black" stroke-width="2" stroke-linecap="round" stroke-linejoin="round"/>
<path d="M163.912 53.2833L169.58 56.7014" stroke="black" stroke-width="2" stroke-linecap="round" stroke-linejoin="round"/>
<path d="M166.051 50.0117L171.719 53.4222" stroke="black" stroke-width="2" stroke-linecap="round" stroke-linejoin="round"/>
</g>
<path d="M166.49 56.6598C169.21 52.1883 168.154 46.5825 164.131 44.139C160.107 41.6955 154.641 43.3395 151.92 47.811C149.2 52.2826 150.257 57.8883 154.28 60.3319C158.303 62.7754 163.77 61.1314 166.49 56.6598Z" fill="#FAFC7D" stroke="black" stroke-width="2" stroke-linecap="round" stroke-linejoin="round"/>
<path d="M174.119 133.999L176.127 135.403C180.482 138.05 186.212 136.568 188.93 132.101C191.648 127.633 190.328 121.862 185.973 119.223L183.965 117.819" fill="#FF833D"/>
<path d="M174.119 133.999L176.127 135.403C180.482 138.05 186.212 136.568 188.93 132.101C191.648 127.633 190.328 121.862 185.973 119.223L183.965 117.819" stroke="black" stroke-width="2" stroke-linecap="round" stroke-linejoin="round"/>
<mask id="mask2_2_1600" style="mask-type:luminance" maskUnits="userSpaceOnUse" x="174" y="117" width="17" height="20">
<path d="M174.119 133.999L176.127 135.403C180.482 138.05 186.212 136.568 188.93 132.101C191.648 127.633 190.328 121.862 185.973 119.223L183.965 117.819" fill="white"/>
</mask>
<g mask="url(#mask2_2_1600)">
<path d="M179.085 133.227L184.753 136.645" stroke="black" stroke-width="2" stroke-linecap="round" stroke-linejoin="round"/>
<path d="M181.224 129.956L186.892 133.366" stroke="black" stroke-width="2" stroke-linecap="round" stroke-linejoin="round"/>
<path d="M183.363 126.676L189.031 130.095" stroke="black" stroke-width="2" stroke-linecap="round" stroke-linejoin="round"/>
<path d="M185.502 123.397L191.162 126.815" stroke="black" stroke-width="2" stroke-linecap="round" stroke-linejoin="round"/>
</g>
<path d="M185.936 130.043C188.657 125.572 187.6 119.966 183.577 117.522C179.554 115.079 174.087 116.723 171.367 121.194C168.647 125.666 169.703 131.272 173.726 133.715C177.75 136.159 183.216 134.515 185.936 130.043Z" fill="#FAFC7D" stroke="black" stroke-width="2" stroke-linecap="round" stroke-linejoin="round"/>
<path d="M43.0443 69.7412C45.5231 76.3151 43.245 84.7794 37.9554 88.6527C32.6579 92.5261 23.7697 92.2251 21.2832 85.6512L43.0443 69.7412Z" fill="#B8AFE8" stroke="black" stroke-width="2"/>
<path d="M38.7737 73.8614L42.573 71.0837C44.797 76.9786 42.1097 84.463 37.3682 87.9351C36.5497 88.5293 35.6462 89.0231 34.7041 89.4089C38.5961 85.6898 40.6347 79.1777 38.7737 73.8614Z" fill="#9F98E2"/>
</g>
<defs>
<clipPath id="clip0_2_1600">
<rect width="191" height="232" fill="white" transform="translate(0.93457 0.151978)"/>
</clipPath>
</defs>
</svg>
