<svg width="321" height="253" viewBox="0 0 321 253" fill="none" xmlns="http://www.w3.org/2000/svg">
<g clip-path="url(#clip0_2_1733)">
<g clip-path="url(#clip1_2_1733)">
<path d="M88.0682 167.669C101.133 167.669 111.725 157.106 111.725 144.076C111.725 131.046 101.133 120.483 88.0682 120.483C75.003 120.483 64.4116 131.046 64.4116 144.076C64.4116 157.106 75.003 167.669 88.0682 167.669Z" fill="#D9FC7E" stroke="black" stroke-width="2"/>
<path d="M197.659 54.9159C203.079 54.9159 207.473 50.534 207.473 45.1286C207.473 39.7232 203.079 35.3413 197.659 35.3413C192.239 35.3413 187.845 39.7232 187.845 45.1286C187.845 50.534 192.239 54.9159 197.659 54.9159Z" fill="#B9F7EF" stroke="black" stroke-width="2"/>
<path d="M21.2896 204.625C15.475 204.625 10.7378 199.9 10.7378 194.102C10.7378 188.303 15.475 183.578 21.2896 183.578C27.1041 183.578 31.8413 188.303 31.8413 194.102C31.8413 199.9 27.1188 204.625 21.2896 204.625Z" fill="#00B272"/>
<path d="M21.2896 184.3C26.7057 184.3 31.1035 188.685 31.1035 194.087C31.1035 199.488 26.7057 203.874 21.2896 203.874C15.8736 203.874 11.4758 199.488 11.4758 194.087C11.4758 188.685 15.8736 184.3 21.2896 184.3ZM21.2896 182.828C15.0619 182.828 10 187.876 10 194.087C10 200.298 15.0619 205.346 21.2896 205.346C27.5174 205.346 32.5793 200.298 32.5793 194.087C32.5793 187.876 27.5174 182.828 21.2896 182.828Z" fill="black"/>
<path d="M99.2844 231.647L60.9438 221.094V175.778L99.2844 186.331V231.647Z" fill="#FAFC7D" stroke="black" stroke-width="2" stroke-miterlimit="10"/>
<path d="M88.068 199.621C87.6547 199.621 87.3301 199.297 87.3301 198.885V62.5838C87.3301 62.1718 87.6547 61.848 88.068 61.848H224.739C225.152 61.848 225.477 62.1718 225.477 62.5838V198.885C225.477 199.297 225.152 199.621 224.739 199.621H88.068Z" fill="#8A7CD8"/>
<path d="M224.739 62.5838V198.885H88.0681V62.5838H224.739ZM224.739 61.1121H88.0681C87.2564 61.1121 86.5923 61.7744 86.5923 62.5838V198.885C86.5923 199.694 87.2564 200.357 88.0681 200.357H224.739C225.551 200.357 226.215 199.694 226.215 198.885V62.5838C226.215 61.7744 225.551 61.1121 224.739 61.1121Z" fill="black"/>
<path d="M114.676 199.621C114.263 199.621 113.938 199.297 113.938 198.885V89.12C113.938 88.7079 114.263 88.3841 114.676 88.3841H224.739C225.153 88.3841 225.477 88.7079 225.477 89.12V198.885C225.477 199.297 225.153 199.621 224.739 199.621H114.676Z" fill="#FAFC7D"/>
<path d="M224.739 89.1199V198.885H114.691V89.1199H224.739ZM224.739 87.6482H114.691C113.879 87.6482 113.215 88.3105 113.215 89.1199V198.885C113.215 199.694 113.879 200.357 114.691 200.357H224.754C225.566 200.357 226.23 199.694 226.23 198.885V89.1199C226.215 88.3105 225.551 87.6482 224.739 87.6482Z" fill="black"/>
<path d="M142.539 199.621C142.125 199.621 141.801 199.297 141.801 198.885V116.907C141.801 116.495 142.125 116.171 142.539 116.171H224.739C225.152 116.171 225.477 116.495 225.477 116.907V198.885C225.477 199.297 225.152 199.621 224.739 199.621H142.539Z" fill="#00B272"/>
<path d="M224.739 116.907V198.885H142.539V116.907H224.739ZM224.739 115.435H142.539C141.727 115.435 141.063 116.098 141.063 116.907V198.885C141.063 199.694 141.727 200.357 142.539 200.357H224.739C225.551 200.357 226.215 199.694 226.215 198.885V116.907C226.215 116.083 225.551 115.435 224.739 115.435Z" fill="black"/>
<mask id="mask0_2_1733" style="mask-type:luminance" maskUnits="userSpaceOnUse" x="82" y="62" width="168" height="137">
<path d="M249.96 62.5838H82.5488V198.885H249.96V62.5838Z" fill="white"/>
</mask>
<g mask="url(#mask0_2_1733)">
<path d="M192.656 207.038C197.172 207.024 200.655 205.773 203.046 203.3C205.599 200.651 206.337 197.148 206.543 195.191C203.931 193.999 202.957 190.496 204.758 187.994L209.141 181.93L212.712 188.553C214.011 190.967 213.081 194.102 210.557 195.176C210.262 195.308 209.952 195.397 209.628 195.47C209.377 197.884 208.491 202.093 205.304 205.405C203.754 207.024 201.85 208.231 199.622 209.025C197.571 209.747 195.254 210.114 192.671 210.129L192.656 207.038Z" fill="#B8AFE8" stroke="black" stroke-width="2"/>
</g>
<mask id="mask1_2_1733" style="mask-type:luminance" maskUnits="userSpaceOnUse" x="82" y="62" width="168" height="137">
<path d="M249.96 62.5838H82.5488V198.885H249.96V62.5838Z" fill="white"/>
</mask>
<g mask="url(#mask1_2_1733)">
<path d="M148.958 185.286C146.848 185.109 97.2621 180.841 96.4062 167.198C96.1258 162.856 97.5573 158.779 100.42 155.747C103.593 152.377 108.198 150.522 113.378 150.522C117.997 150.522 122.852 152.038 127.427 154.894C142.701 164.431 158.315 169.803 158.477 169.847C158.698 169.92 158.861 170.097 158.935 170.303C159.008 170.524 158.979 170.759 158.861 170.951L149.667 184.962C149.534 185.168 149.298 185.3 149.047 185.3C148.988 185.3 148.973 185.3 148.958 185.286Z" fill="#B8AFE8"/>
<path d="M113.348 151.273C117.569 151.273 122.276 152.568 127.014 155.526C142.554 165.225 158.211 170.553 158.211 170.553L149.017 184.564C149.017 184.564 97.9705 180.326 97.1293 167.168C96.5538 158.014 103.711 151.273 113.348 151.273ZM113.348 149.801C107.961 149.801 103.165 151.744 99.8595 155.261C96.8637 158.455 95.3732 162.709 95.6535 167.256C96.539 181.282 143.528 185.58 148.885 186.036C148.929 186.036 148.973 186.036 149.003 186.036C149.504 186.036 149.962 185.786 150.242 185.374L159.436 171.363C159.687 170.98 159.746 170.509 159.599 170.082C159.451 169.655 159.112 169.317 158.684 169.17C158.521 169.111 142.996 163.783 127.796 154.29C123.103 151.347 118.115 149.801 113.348 149.801Z" fill="black"/>
</g>
<mask id="mask2_2_1733" style="mask-type:luminance" maskUnits="userSpaceOnUse" x="82" y="62" width="168" height="137">
<path d="M249.96 62.5838H82.5488V198.885H249.96V62.5838Z" fill="white"/>
</mask>
<g mask="url(#mask2_2_1733)">
<path d="M157.857 244.495C156.618 244.495 155.496 243.347 155.245 241.846C155.068 240.83 154.994 237.416 160.809 235.238V235.149C160.794 231.499 161.606 227.849 163.126 224.538C158.743 222.58 151.334 217.032 150.582 207.819C149.047 184.579 152.057 169.891 152.087 169.744C152.161 169.405 152.471 169.155 152.81 169.155C152.84 169.155 152.869 169.155 152.899 169.155L157.813 169.758C159.2 167.551 161.989 166.418 166.136 166.418C170.15 166.418 175.316 167.433 181.957 169.508C182.178 169.582 182.355 169.744 182.429 169.95C191.195 171.804 207.192 179.148 214.881 184.152C222.762 189.274 226.23 195.75 224.4 201.887C222.791 207.303 217.228 211.233 211.192 211.233C207.901 211.233 204.772 210.07 202.145 207.877C199.991 206.082 197.733 204.257 195.401 202.417C196.227 204.036 196.995 205.434 197.703 206.597C198.249 207.495 198.707 208.393 199.09 209.276L199.312 209.29C200.035 209.334 200.684 209.364 201.26 209.364C206.971 209.364 211.634 215.796 211.634 223.684C211.634 231.588 206.986 238.005 201.26 238.005C197.467 238.005 194.058 235.429 192.494 231.411C192.272 231.367 190.9 231.131 190.487 231.058C189.852 233.236 189.719 235.664 190.103 238.314C190.442 240.713 190.177 242.449 189.291 243.465C188.701 244.142 187.889 244.48 186.856 244.48H157.857V244.495Z" fill="#B8AFE8"/>
<path d="M166.136 167.153C171.154 167.153 177.352 168.831 181.735 170.215C181.765 170.332 181.809 170.465 181.839 170.597C190.531 172.305 206.986 179.914 214.483 184.785C232.03 196.206 222.378 210.512 211.192 210.512C208.284 210.512 205.274 209.555 202.617 207.318C199.504 204.713 196.36 202.211 193.32 199.871C194.634 202.608 195.917 205.052 197.083 206.994C197.718 208.039 198.205 209.04 198.589 210.011C199.592 210.07 200.507 210.129 201.26 210.129C206.573 210.129 210.897 216.208 210.897 223.714C210.897 231.22 206.587 237.298 201.26 237.298C197.792 237.298 194.471 234.855 193.054 230.822C193.025 230.749 191.697 230.557 189.985 230.234C189.276 232.279 188.878 234.987 189.38 238.431C189.719 240.83 189.616 243.759 186.871 243.759H157.887C155.776 243.759 153.696 238.446 161.576 235.753V235.149C161.562 231.352 162.447 227.599 164.144 224.199H164.262C164.262 224.199 164.262 224.199 164.247 224.199C160.204 222.654 152.117 217.253 151.349 207.76C149.8 184.373 152.84 169.891 152.84 169.891L158.241 170.553C159.481 168.036 162.506 167.153 166.136 167.153ZM166.136 165.682C161.96 165.682 159.053 166.785 157.459 168.964L152.987 168.419C152.928 168.404 152.869 168.404 152.81 168.404C152.117 168.404 151.512 168.89 151.364 169.582C151.231 170.185 148.309 184.52 149.844 207.848C150.597 216.944 157.533 222.595 162.167 224.891C160.838 227.997 160.115 231.367 160.071 234.737C155.422 236.651 154.124 239.668 154.507 241.964C154.817 243.862 156.234 245.231 157.843 245.231H186.827C188.391 245.231 189.321 244.539 189.823 243.965C190.87 242.758 191.195 240.889 190.797 238.225C190.472 235.944 190.531 233.825 190.988 231.911C191.136 231.941 191.284 231.956 191.416 231.985C191.593 232.014 191.771 232.044 191.933 232.073C193.674 236.165 197.246 238.755 201.23 238.755C207.355 238.755 212.343 232 212.343 223.699C212.343 218.739 210.557 214.324 207.827 211.586C208.919 211.851 210.041 211.984 211.177 211.984C217.538 211.984 223.382 207.833 225.093 202.123C226.008 199.061 226.879 191.114 215.28 183.564C207.635 178.589 191.815 171.304 182.901 169.332C182.724 169.096 182.473 168.92 182.178 168.831C175.463 166.712 170.224 165.682 166.136 165.682ZM199.563 208.584C199.208 207.804 198.795 207.024 198.323 206.229C198.131 205.92 197.939 205.581 197.747 205.243C199.09 206.317 200.389 207.392 201.658 208.451C201.747 208.525 201.85 208.599 201.939 208.687C201.702 208.672 201.481 208.657 201.245 208.657C200.758 208.643 200.182 208.613 199.563 208.584Z" fill="black"/>
</g>
<mask id="mask3_2_1733" style="mask-type:luminance" maskUnits="userSpaceOnUse" x="82" y="62" width="168" height="137">
<path d="M249.96 62.5838H82.5488V198.885H249.96V62.5838Z" fill="white"/>
</mask>
<g mask="url(#mask3_2_1733)">
<path opacity="0.2" d="M145.373 82.6588C145.402 82.806 145.432 82.9532 145.476 83.1004C145.653 83.8951 145.86 84.6163 146.096 85.205C146.317 85.779 146.627 86.3236 147.07 86.6474C148.206 87.4715 149.357 87.4863 150.464 87.3391C150.789 87.2949 151.143 87.2361 151.482 87.1772C151.689 87.1478 151.91 87.1036 152.102 87.0742C152.633 86.9859 153.179 86.927 153.74 86.9417C155.555 87.2361 156.662 88.6784 157.194 91.0185C157.71 93.3734 157.592 96.4641 157.046 99.6431C156.5 102.807 155.541 105.986 154.449 108.503C153.903 109.754 153.327 110.829 152.766 111.638C152.191 112.462 151.659 112.963 151.246 113.154C151.231 113.169 151.202 113.169 151.187 113.183C148.649 114.699 146.051 115.156 142.938 114.228C139.794 113.301 136.09 110.946 131.427 106.737C126.748 101.762 127.117 94.4036 129.523 87.6187C129.523 87.6187 134.85 85.5582 137.507 84.7488C140.119 83.9393 145.373 82.6588 145.373 82.6588Z" fill="#8A7CD8"/>
</g>
<mask id="mask4_2_1733" style="mask-type:luminance" maskUnits="userSpaceOnUse" x="82" y="62" width="168" height="137">
<path d="M249.96 62.5838H82.5488V198.885H249.96V62.5838Z" fill="white"/>
</mask>
<g mask="url(#mask4_2_1733)">
<path d="M170.298 184.564C169.191 182.739 186.399 193.778 202.603 207.318C215.531 218.121 236.575 199.164 214.468 184.785C206.897 179.855 190.133 172.113 181.514 170.538" fill="#B8AFE8"/>
</g>
<mask id="mask5_2_1733" style="mask-type:luminance" maskUnits="userSpaceOnUse" x="82" y="62" width="168" height="137">
<path d="M249.96 62.5838H82.5488V198.885H249.96V62.5838Z" fill="white"/>
</mask>
<g mask="url(#mask5_2_1733)">
<path d="M214.926 206.258C220.917 206.361 222.747 201.196 224.105 199.032C223.795 208.334 211.339 214.633 202.603 207.318C196.744 202.417 190.752 197.855 185.543 194.102C196.759 196.486 203.562 206.744 214.926 206.258Z" fill="#8A7CD8"/>
</g>
<mask id="mask6_2_1733" style="mask-type:luminance" maskUnits="userSpaceOnUse" x="82" y="62" width="168" height="137">
<path d="M249.96 62.5838H82.5488V198.885H249.96V62.5838Z" fill="white"/>
</mask>
<g mask="url(#mask6_2_1733)">
<path d="M170.446 184.373L170.298 184.55C170.195 184.388 170.254 184.329 170.446 184.373Z" fill="#B8AFE8"/>
</g>
<mask id="mask7_2_1733" style="mask-type:luminance" maskUnits="userSpaceOnUse" x="82" y="62" width="168" height="137">
<path d="M249.96 62.5838H82.5488V198.885H249.96V62.5838Z" fill="white"/>
</mask>
<g mask="url(#mask7_2_1733)">
<path d="M152.308 170.362C155.703 170.715 164.513 171.436 168.084 171.436C172.925 171.436 177.618 171.127 182.104 170.524L188.391 172.334C188.391 172.334 179.787 174.424 167.686 174.306C160.101 174.233 148.767 172.525 148.767 172.525L152.308 170.362Z" fill="#8A7CD8"/>
</g>
<mask id="mask8_2_1733" style="mask-type:luminance" maskUnits="userSpaceOnUse" x="82" y="62" width="168" height="137">
<path d="M249.96 62.5838H82.5488V198.885H249.96V62.5838Z" fill="white"/>
</mask>
<g mask="url(#mask8_2_1733)">
<path d="M130.024 143.311C131.687 143.311 133.035 141.966 133.035 140.308C133.035 138.65 131.687 137.306 130.024 137.306C128.362 137.306 127.014 138.65 127.014 140.308C127.014 141.966 128.362 143.311 130.024 143.311Z" fill="#B8AFE8"/>
</g>
<mask id="mask9_2_1733" style="mask-type:luminance" maskUnits="userSpaceOnUse" x="82" y="62" width="168" height="137">
<path d="M249.96 62.5838H82.5488V198.885H249.96V62.5838Z" fill="white"/>
</mask>
<g mask="url(#mask9_2_1733)">
<path d="M195.858 203.124C195.858 203.124 190.634 196.677 184.79 193.586L195.858 203.124Z" fill="#B8AFE8"/>
<path d="M195.858 203.124C195.858 203.124 190.634 196.677 184.79 193.586" stroke="black" stroke-width="2" stroke-linecap="round" stroke-linejoin="round"/>
</g>
<mask id="mask10_2_1733" style="mask-type:luminance" maskUnits="userSpaceOnUse" x="82" y="62" width="168" height="137">
<path d="M249.96 62.5838H82.5488V198.885H249.96V62.5838Z" fill="white"/>
</mask>
<g mask="url(#mask10_2_1733)">
<path d="M145.977 115.45C144.929 115.45 143.822 115.273 142.686 114.95C139.366 113.963 135.514 111.461 130.88 107.296C124.593 100.615 127.309 90.783 129.493 85.5141C130.909 82.0849 132.872 78.6851 135.027 75.9476C136.001 74.7113 136.99 73.6369 137.905 72.8421C138.834 72.0326 139.661 71.5322 140.34 71.3703C140.576 71.3115 140.812 71.282 141.033 71.282C141.432 71.282 141.815 71.3851 142.17 71.5617C142.671 71.8266 143.099 72.2828 143.498 72.9304C144.118 73.946 144.634 75.4472 145.121 77.6695C145.313 78.5526 145.49 79.4651 145.652 80.3482C145.829 81.3048 145.992 82.1585 146.169 82.9238C146.361 83.7921 146.553 84.425 146.744 84.9254C146.966 85.4847 147.202 85.8526 147.468 86.0439C148.058 86.4708 148.692 86.6621 149.475 86.6621C149.77 86.6621 150.05 86.6326 150.331 86.6032C150.64 86.5591 150.98 86.5002 151.319 86.4413L151.954 86.3383C152.382 86.2794 152.957 86.1911 153.577 86.1911C153.622 86.1911 153.784 86.1911 153.813 86.2058C155.894 86.5443 157.252 88.1044 157.857 90.8566C158.506 93.7855 158.137 97.3177 157.709 99.7609C157.178 102.866 156.204 106.148 155.053 108.783C154.477 110.107 153.887 111.197 153.297 112.05C152.662 112.963 152.057 113.551 151.482 113.816C149.696 114.905 147.881 115.45 145.977 115.45Z" fill="white"/>
<path d="M141.048 72.0179C141.343 72.0179 141.609 72.0915 141.83 72.2092C142.199 72.4153 142.553 72.7685 142.878 73.3131C143.542 74.4022 144.014 76.0211 144.413 77.8314C144.605 78.7145 144.782 79.6123 144.944 80.4953L144.959 80.5395C145.136 81.4373 145.298 82.3056 145.475 83.1004C145.653 83.8951 145.859 84.6163 146.095 85.205C146.317 85.779 146.627 86.3236 147.069 86.6474C147.881 87.2361 148.693 87.4127 149.504 87.4127C149.829 87.4127 150.139 87.3832 150.449 87.3391C150.773 87.2949 151.128 87.2361 151.467 87.1772C151.674 87.1478 151.895 87.1036 152.087 87.0742C152.589 87.0006 153.09 86.9417 153.607 86.9417C153.651 86.9417 153.681 86.9417 153.725 86.9417C155.54 87.2361 156.647 88.6784 157.178 91.0185C157.695 93.3734 157.577 96.4641 157.031 99.6431C156.485 102.807 155.525 105.986 154.433 108.503C153.887 109.754 153.312 110.829 152.751 111.638C152.175 112.462 151.644 112.963 151.231 113.154C151.216 113.169 151.187 113.169 151.172 113.183C149.519 114.17 147.837 114.699 146.007 114.699C145.033 114.699 144.014 114.552 142.922 114.228C139.779 113.301 136.075 110.946 131.411 106.737C126.305 101.306 127.205 93.0496 130.216 85.779C131.707 82.1584 133.699 78.8617 135.647 76.3891C136.621 75.1528 137.565 74.1373 138.421 73.3867C139.292 72.6361 140.015 72.2092 140.546 72.0768C140.709 72.0473 140.886 72.0179 141.048 72.0179ZM141.048 70.5461C140.768 70.5461 140.473 70.5903 140.177 70.6492C139.381 70.8405 138.466 71.3998 137.432 72.2828C136.488 73.107 135.484 74.1814 134.466 75.4913C132.282 78.273 130.29 81.7316 128.844 85.2197C124.962 94.6096 125.479 102.601 130.319 107.753C130.349 107.782 130.378 107.811 130.408 107.841C135.175 112.138 139.026 114.626 142.494 115.641C143.69 115.995 144.87 116.171 145.992 116.171C148.014 116.171 149.932 115.612 151.88 114.464C152.574 114.125 153.253 113.478 153.946 112.477C154.566 111.579 155.186 110.446 155.776 109.077C156.942 106.399 157.931 103.043 158.477 99.8786C158.92 97.3619 159.289 93.7266 158.61 90.68C157.754 86.8534 155.614 85.7349 153.961 85.4699C153.887 85.4552 153.828 85.4552 153.755 85.4552H153.607C152.943 85.4552 152.323 85.5435 151.866 85.6024C151.659 85.6318 151.438 85.676 151.216 85.7054C150.892 85.7643 150.567 85.8232 150.257 85.8526C149.962 85.8967 149.711 85.9115 149.49 85.9115C148.855 85.9115 148.383 85.7643 147.925 85.4258C147.881 85.3963 147.704 85.2344 147.468 84.631C147.291 84.1748 147.114 83.5566 146.922 82.7324C146.745 81.9671 146.582 81.1135 146.42 80.2451C146.243 79.2738 146.066 78.3613 145.874 77.4782C145.357 75.1528 144.826 73.6074 144.162 72.5183C143.705 71.7677 143.158 71.2232 142.553 70.8846C142.066 70.6786 141.565 70.5461 141.048 70.5461Z" fill="black"/>
<path d="M109.659 129.108C109.659 143.193 116.078 153.775 126.482 160.854C136.916 167.948 151.364 171.554 167.391 171.554C183.418 171.554 197.88 168.125 208.299 161.104C218.703 154.113 225.123 143.531 225.123 129.093C225.123 112.86 218.01 101.071 207.266 93.3145C196.493 85.5435 182.045 81.8199 167.391 81.8199C135.411 81.8347 109.659 104.618 109.659 129.108Z" fill="#B8AFE8" stroke="black" stroke-width="2"/>
<path d="M185.011 116.304C183.698 116.304 182.385 116.053 180.983 115.509C180.392 115.347 179.684 114.876 178.902 114.096C178.164 113.36 177.396 112.374 176.6 111.182C175.02 108.798 173.486 105.722 172.423 102.749C171.582 100.408 170.593 96.9939 170.726 94.0062C170.844 91.1951 171.921 89.4143 173.899 88.7226C174.651 88.5754 175.286 88.5459 175.758 88.5312H176.408C176.747 88.5312 177.101 88.5312 177.411 88.5165C178.341 88.4724 179.315 88.3252 180.127 87.4716C180.348 87.2508 180.51 86.8387 180.643 86.25C180.746 85.7201 180.82 85.0726 180.864 84.1748C180.909 83.38 180.909 82.497 180.924 81.5992C180.938 80.6278 180.953 79.7153 180.983 78.8175C181.071 76.5216 181.322 74.9909 181.765 73.8724C182.045 73.1806 182.399 72.6508 182.842 72.2976C183.27 71.9591 183.801 71.7824 184.392 71.7824C184.465 71.7824 184.539 71.7824 184.613 71.7824C185.307 71.8266 186.207 72.1798 187.269 72.8127C188.302 73.4308 189.468 74.3139 190.634 75.3736C193.217 77.6843 195.74 80.6867 197.747 83.8363C200.817 88.649 205.215 97.8623 200.212 105.486C196.345 110.431 192.981 113.566 189.881 115.111C188.229 115.906 186.649 116.304 185.011 116.304Z" fill="white"/>
<path d="M184.392 72.5036C184.451 72.5036 184.51 72.5036 184.554 72.5036C185.1 72.533 185.882 72.8274 186.871 73.4308C187.845 74.0195 188.952 74.8584 190.132 75.9034C192.479 78.008 195.002 80.9074 197.113 84.2042C201.348 90.8419 203.665 98.8189 199.592 105.059C195.725 110.004 192.493 112.963 189.557 114.42C187.992 115.2 186.502 115.553 185.026 115.553C183.772 115.553 182.532 115.288 181.248 114.817C181.233 114.802 181.204 114.802 181.189 114.802C180.746 114.685 180.141 114.287 179.433 113.581C178.739 112.874 177.987 111.918 177.219 110.784C175.699 108.503 174.209 105.53 173.117 102.513C172.025 99.4812 171.36 96.4641 171.464 94.0504C171.567 91.6514 172.408 90.0324 174.15 89.429C174.696 89.326 175.242 89.2966 175.788 89.2818C175.994 89.2818 176.201 89.2818 176.422 89.2818C176.777 89.2818 177.131 89.2818 177.455 89.2671C178.562 89.2082 179.699 89.0022 180.673 88.0014C181.056 87.604 181.248 87.0153 181.381 86.4119C181.514 85.779 181.573 85.0284 181.617 84.2336C181.661 83.4242 181.661 82.5264 181.676 81.6286V81.5845C181.691 80.6867 181.706 79.7742 181.735 78.8764C181.809 77.0367 182.001 75.3441 182.458 74.1667C182.694 73.578 182.975 73.1659 183.299 72.901C183.58 72.6361 183.919 72.5036 184.392 72.5036ZM184.392 71.0318C183.624 71.0318 182.945 71.2673 182.384 71.7088C181.838 72.1357 181.41 72.7685 181.086 73.5927C180.614 74.7996 180.363 76.3891 180.259 78.7734C180.215 79.6859 180.215 80.6131 180.2 81.5256L181.676 81.6139L180.2 81.5992C180.186 82.4822 180.171 83.3506 180.141 84.1306C180.097 84.9695 180.038 85.6171 179.935 86.0881C179.802 86.7062 179.654 86.8976 179.61 86.9417C179.005 87.5746 178.311 87.7217 177.382 87.7659C177.072 87.7806 176.747 87.7806 176.408 87.7806C176.186 87.7806 175.965 87.7806 175.758 87.7806C175.256 87.7953 174.578 87.8248 173.869 87.9572C173.795 87.972 173.736 87.9867 173.663 88.0161C172.084 88.5607 170.165 90.0472 169.988 93.9621C169.855 97.0675 170.859 100.585 171.729 102.999C172.821 106.016 174.371 109.151 175.994 111.579C176.821 112.816 177.618 113.831 178.385 114.611C179.256 115.479 180.038 116.009 180.761 116.215C182.237 116.775 183.624 117.039 185.011 117.039C186.753 117.039 188.45 116.613 190.206 115.744C193.453 114.125 196.803 111.02 200.743 105.972C200.773 105.942 200.787 105.913 200.817 105.869C204.683 99.9669 203.813 91.9899 198.352 83.4242C196.316 80.2304 193.748 77.1838 191.121 74.8143C189.896 73.7105 188.716 72.8274 187.638 72.1798C186.472 71.4881 185.469 71.1054 184.657 71.0466C184.569 71.0318 184.48 71.0318 184.392 71.0318Z" fill="black"/>
<path opacity="0.2" d="M171.464 94.0357C171.552 92.1224 172.113 90.7242 173.205 89.9294C177.131 100.085 187.122 105.074 197.659 107.429C194.619 110.976 191.992 113.213 189.557 114.434C186.649 115.877 184.022 115.877 181.248 114.832C181.233 114.817 181.204 114.817 181.189 114.817C180.746 114.699 180.141 114.302 179.433 113.596C178.739 112.889 177.987 111.932 177.219 110.799C175.699 108.518 174.209 105.545 173.117 102.528C172.024 99.4812 171.36 96.4494 171.464 94.0357Z" fill="#8A7CD8"/>
<path d="M199.813 116.951C194.5 133.891 176.732 124.03 181.794 126.15C174.415 123.059 170.504 113.905 173.072 105.736L200.625 114.331L199.813 116.951Z" fill="#8A7CD8"/>
<path d="M200.182 114.052C197.895 121.367 190.088 125.443 182.753 123.147C175.419 120.866 171.331 113.08 173.633 105.766L200.182 114.052Z" fill="#B8AFE8" stroke="black" stroke-width="2"/>
<path d="M164.046 126.03C167.941 118.742 166.084 110.168 159.898 106.88C153.713 103.591 145.54 106.834 141.645 114.122C137.75 121.41 139.606 129.984 145.792 133.272C151.978 136.56 160.15 133.318 164.046 126.03Z" fill="white" stroke="black" stroke-width="2" stroke-linejoin="round"/>
<path d="M155.955 122.473C157.85 116.977 156.275 111.455 152.436 110.139C148.598 108.822 143.951 112.21 142.055 117.706C140.16 123.202 141.735 128.724 145.574 130.04C149.412 131.357 154.059 127.969 155.955 122.473Z" fill="black"/>
<path d="M142.244 109.946L159.23 104.323L159.377 103.396" stroke="#8A7CD8" stroke-width="2" stroke-miterlimit="10" stroke-linecap="round" stroke-linejoin="round"/>
<path d="M160.13 102.204L142.244 109.946" stroke="black" stroke-width="2" stroke-miterlimit="10" stroke-linecap="round" stroke-linejoin="round"/>
<path d="M149.688 114.876C150.256 113.814 149.946 112.545 148.997 112.04C148.047 111.535 146.818 111.987 146.25 113.048C145.683 114.11 145.992 115.38 146.942 115.884C147.891 116.389 149.121 115.938 149.688 114.876Z" fill="white"/>
<path d="M128.051 115.593C130.31 108.48 129.767 101.963 126.837 101.038C123.908 100.113 119.702 105.13 117.444 112.243C115.185 119.356 115.728 125.873 118.657 126.798C121.587 127.723 125.792 122.707 128.051 115.593Z" fill="white" stroke="black" stroke-width="2" stroke-linejoin="round"/>
<path d="M127.048 116.312C128.686 110.989 128.643 106.254 126.952 105.737C125.261 105.22 122.563 109.115 120.925 114.438C119.288 119.761 119.331 124.496 121.022 125.013C122.713 125.53 125.411 121.635 127.048 116.312Z" fill="black"/>
<path d="M130.732 107.738L125.538 99.1869L126.822 97.9064" stroke="#8A7CD8" stroke-width="2" stroke-miterlimit="10" stroke-linecap="round" stroke-linejoin="round"/>
<path d="M126.423 97.0086L130.659 108.165" stroke="black" stroke-width="2" stroke-miterlimit="10" stroke-linecap="round" stroke-linejoin="round"/>
<path d="M127.464 110.348C127.829 109.261 127.767 108.261 127.326 108.114C126.886 107.967 126.233 108.729 125.869 109.816C125.504 110.903 125.566 111.903 126.006 112.05C126.447 112.197 127.1 111.435 127.464 110.348Z" fill="white"/>
<path fill-rule="evenodd" clip-rule="evenodd" d="M119.384 130.683C119.34 130.595 119.295 130.492 119.251 130.403C119.192 130.271 119.148 130.138 119.104 130.006C119.074 129.918 119.03 129.814 119.015 129.726C118.971 129.594 118.956 129.447 118.927 129.299C118.912 129.211 118.882 129.123 118.868 129.034C118.853 128.873 118.838 128.725 118.838 128.563C118.838 128.49 118.823 128.416 118.823 128.328C118.823 128.093 118.838 127.857 118.882 127.622C118.912 127.386 118.971 127.151 119.045 126.93C119.074 126.856 119.104 126.783 119.133 126.724C119.192 126.577 119.236 126.429 119.31 126.282C119.355 126.194 119.399 126.12 119.443 126.047C119.517 125.914 119.576 125.797 119.664 125.679C119.723 125.591 119.782 125.517 119.842 125.443C119.93 125.326 120.004 125.223 120.092 125.105C120.151 125.031 120.225 124.958 120.299 124.884C120.402 124.781 120.491 124.678 120.594 124.59C120.668 124.516 120.757 124.457 120.83 124.384C120.948 124.295 121.052 124.207 121.17 124.119C121.258 124.06 121.347 123.986 121.45 123.927C121.568 123.839 121.701 123.766 121.834 123.692C121.937 123.633 122.026 123.574 122.129 123.53C122.262 123.456 122.395 123.383 122.542 123.324C122.586 123.295 122.645 123.265 122.69 123.25C122.69 123.25 122.69 123.25 122.69 123.265C124.151 122.618 125.907 122.279 127.796 122.367C127.796 122.367 127.796 122.367 127.796 122.353C127.899 122.353 128.003 122.367 128.121 122.382C128.224 122.382 128.312 122.397 128.416 122.397C128.696 122.426 128.991 122.456 129.286 122.5C129.582 122.544 129.862 122.603 130.142 122.662C130.246 122.676 130.334 122.706 130.438 122.735C130.541 122.765 130.644 122.779 130.747 122.809C132.563 123.295 134.142 124.148 135.337 125.208C135.337 125.208 135.337 125.208 135.337 125.193C135.381 125.237 135.411 125.267 135.455 125.311C135.573 125.414 135.677 125.532 135.78 125.635C135.854 125.723 135.942 125.797 136.016 125.885C136.119 126.003 136.208 126.106 136.311 126.223C136.385 126.312 136.444 126.4 136.518 126.488C136.606 126.606 136.68 126.724 136.754 126.856C136.813 126.945 136.872 127.033 136.916 127.121C136.99 127.239 137.049 127.371 137.108 127.504C137.152 127.592 137.197 127.695 137.241 127.783C137.3 127.916 137.344 128.048 137.388 128.181C137.418 128.269 137.462 128.372 137.477 128.46C137.521 128.593 137.536 128.74 137.566 128.887C137.58 128.976 137.61 129.064 137.625 129.152C137.639 129.314 137.654 129.461 137.654 129.623C137.654 129.697 137.669 129.77 137.669 129.859C137.669 130.094 137.654 130.33 137.61 130.565C137.58 130.801 137.521 131.036 137.447 131.257C137.418 131.33 137.388 131.404 137.359 131.463C137.3 131.61 137.256 131.757 137.182 131.904C137.138 131.993 137.093 132.066 137.049 132.14C136.975 132.272 136.916 132.39 136.828 132.508C136.769 132.596 136.71 132.67 136.651 132.743C136.562 132.861 136.488 132.964 136.4 133.082C136.341 133.155 136.267 133.229 136.193 133.303C136.09 133.406 136.001 133.509 135.898 133.612C135.824 133.685 135.736 133.744 135.662 133.818C135.544 133.906 135.44 134.009 135.322 134.083C135.234 134.142 135.145 134.215 135.057 134.274C134.939 134.362 134.806 134.436 134.673 134.509C134.57 134.568 134.481 134.627 134.378 134.671C134.245 134.745 134.097 134.819 133.965 134.877C133.92 134.907 133.861 134.922 133.817 134.951C133.817 134.951 133.817 134.951 133.817 134.936C132.356 135.584 130.6 135.922 128.711 135.834C128.711 135.834 128.711 135.834 128.711 135.849C128.608 135.849 128.504 135.834 128.386 135.819C128.283 135.819 128.194 135.805 128.091 135.805C127.811 135.775 127.516 135.746 127.22 135.702C126.925 135.657 126.645 135.599 126.364 135.54C126.261 135.525 126.173 135.496 126.069 135.466C125.966 135.437 125.863 135.422 125.759 135.393C123.944 134.907 122.365 134.053 121.17 132.994C121.17 132.994 121.17 132.994 121.17 133.008C121.125 132.964 121.096 132.935 121.052 132.891C120.934 132.787 120.83 132.684 120.727 132.567C120.653 132.478 120.565 132.405 120.491 132.317C120.388 132.199 120.299 132.096 120.21 131.978C120.137 131.89 120.078 131.801 120.004 131.713C119.915 131.595 119.842 131.478 119.768 131.36C119.709 131.272 119.65 131.183 119.591 131.08C119.502 130.933 119.443 130.815 119.384 130.683Z" fill="black"/>
<path d="M139.174 148.374C142.125 155.438 140.65 159.75 137.89 159.75C135.13 159.75 129.153 155.335 126.202 148.271C123.25 141.206 128.179 142.957 130.939 142.957C133.699 142.957 136.222 141.309 139.174 148.374Z" fill="#F4C6ED" stroke="black" stroke-width="2" stroke-linecap="round" stroke-linejoin="round"/>
</g>
<mask id="mask11_2_1733" style="mask-type:luminance" maskUnits="userSpaceOnUse" x="82" y="62" width="168" height="137">
<path d="M249.96 62.5838H82.5488V198.885H249.96V62.5838Z" fill="white"/>
</mask>
<g mask="url(#mask11_2_1733)">
<path d="M118.735 158.676C115.281 158.676 111.887 157.984 108.685 156.601C102.427 153.922 97.5868 148.962 95.0484 142.663C92.5249 136.349 92.6134 129.432 95.2993 123.191C99.3282 113.831 108.537 107.767 118.764 107.767C122.217 107.767 125.612 108.459 128.814 109.843C135.071 112.521 139.912 117.481 142.45 123.78C144.974 130.094 144.885 137.011 142.199 143.252C138.17 152.627 128.962 158.676 118.735 158.676ZM118.764 112.771C110.544 112.771 103.15 117.628 99.9037 125.164C95.4469 135.525 100.273 147.579 110.662 152.024C113.245 153.127 115.96 153.687 118.735 153.687C126.955 153.687 134.348 148.83 137.595 141.294C139.75 136.276 139.823 130.712 137.787 125.649C135.75 120.586 131.869 116.598 126.837 114.434C124.269 113.331 121.539 112.771 118.764 112.771Z" fill="#D9FC7E"/>
<path d="M118.764 108.518C122.129 108.518 125.405 109.195 128.519 110.534C134.599 113.139 139.307 117.952 141.757 124.075C144.207 130.197 144.133 136.923 141.521 142.987C137.61 152.082 128.667 157.955 118.735 157.955C115.37 157.955 112.094 157.278 108.98 155.953C96.4211 150.581 90.5918 136.025 95.9784 123.501C99.9039 114.39 108.847 108.518 118.764 108.518ZM118.75 154.423C127.265 154.423 134.924 149.389 138.289 141.589C140.532 136.393 140.606 130.624 138.495 125.37C136.385 120.115 132.356 115.995 127.147 113.757C124.476 112.609 121.657 112.035 118.779 112.035C110.264 112.035 102.605 117.069 99.2398 124.869C96.9967 130.065 96.9229 135.834 99.0332 141.088C101.144 146.343 105.172 150.463 110.382 152.701C113.053 153.849 115.857 154.423 118.75 154.423ZM118.764 107.046C108.581 107.046 98.9004 112.992 94.6207 122.912C88.9094 136.202 95.0634 151.597 108.39 157.293C111.769 158.735 115.281 159.427 118.735 159.427C128.918 159.427 138.599 153.481 142.878 143.561C148.59 130.271 142.436 114.876 129.109 109.18C125.73 107.723 122.218 107.046 118.764 107.046ZM118.75 152.951C116.152 152.951 113.511 152.436 110.957 151.347C100.922 147.049 96.2735 135.466 100.583 125.458C103.8 117.981 111.09 113.507 118.764 113.507C121.362 113.507 124.003 114.022 126.556 115.111C136.592 119.409 141.24 130.992 136.931 141C133.714 148.477 126.409 152.951 118.75 152.951Z" fill="black"/>
<mask id="mask12_2_1733" style="mask-type:luminance" maskUnits="userSpaceOnUse" x="98" y="113" width="41" height="40">
<path d="M118.749 152.951C129.671 152.951 138.525 144.121 138.525 133.229C138.525 122.337 129.671 113.507 118.749 113.507C107.828 113.507 98.9741 122.337 98.9741 133.229C98.9741 144.121 107.828 152.951 118.749 152.951Z" fill="white"/>
</mask>
<g mask="url(#mask12_2_1733)">
<path d="M142.642 115.332C141.506 115.332 140.296 115.156 139.071 114.788C135.455 113.713 131.249 110.991 126.217 106.457C119.369 99.2016 122.35 88.4871 124.726 82.7472C126.276 79.0088 128.416 75.3 130.747 72.327C131.81 70.973 132.887 69.7955 133.876 68.9566C134.894 68.0736 135.78 67.5437 136.503 67.3671C136.754 67.3082 137.005 67.2788 137.256 67.2788C137.684 67.2788 138.082 67.3818 138.466 67.5879C138.997 67.8822 139.469 68.3532 139.897 69.0449C140.576 70.1488 141.137 71.7824 141.668 74.1961C141.875 75.1528 142.067 76.1389 142.244 77.0955C142.435 78.1405 142.627 79.0824 142.819 79.9361C143.041 80.8927 143.232 81.5845 143.454 82.129C143.705 82.7619 143.97 83.1593 144.251 83.38C144.9 83.851 145.608 84.0718 146.479 84.0718C146.789 84.0718 147.114 84.0423 147.424 83.9982C147.763 83.954 148.132 83.8951 148.486 83.8215L149.195 83.7038C149.667 83.6302 150.301 83.5419 150.965 83.5419C151.01 83.5419 151.172 83.5419 151.202 83.5566C153.445 83.9246 154.906 85.6171 155.57 88.5754C156.278 91.7544 155.88 95.6105 155.408 98.2744C154.817 101.659 153.769 105.251 152.515 108.106C151.895 109.533 151.246 110.74 150.596 111.668C149.918 112.654 149.254 113.286 148.634 113.566C146.656 114.758 144.693 115.332 142.642 115.332Z" fill="white"/>
<path d="M137.241 67.9853C137.565 67.9853 137.846 68.0589 138.097 68.206C138.495 68.4268 138.879 68.8242 139.248 69.4129C139.971 70.605 140.487 72.3712 140.915 74.3433C141.122 75.3 141.314 76.2861 141.491 77.2427L141.506 77.3016C141.698 78.273 141.875 79.2296 142.067 80.098C142.258 80.9516 142.48 81.7464 142.731 82.3939C142.982 83.0268 143.306 83.6155 143.793 83.9687C144.679 84.6016 145.579 84.7929 146.45 84.7929C146.804 84.7929 147.143 84.7635 147.483 84.7193C147.837 84.6752 148.221 84.6016 148.589 84.5427C148.826 84.4986 149.047 84.4691 149.268 84.425C149.814 84.3367 150.36 84.2778 150.921 84.2778C150.965 84.2778 151.01 84.2778 151.054 84.2778C153.046 84.6016 154.256 86.1764 154.817 88.7373C155.393 91.3129 155.245 94.698 154.655 98.1566C154.065 101.615 153.017 105.089 151.821 107.826C151.231 109.195 150.597 110.372 149.977 111.255C149.342 112.168 148.781 112.698 148.324 112.904C148.309 112.919 148.28 112.919 148.265 112.933C146.464 114.008 144.62 114.596 142.627 114.596C141.565 114.596 140.443 114.434 139.263 114.081C135.824 113.066 131.78 110.505 126.689 105.913C121.111 99.9964 122.099 90.9597 125.39 83.0268C127.028 79.0824 129.198 75.4766 131.308 72.7832C132.371 71.4292 133.404 70.3254 134.334 69.5159C135.293 68.6917 136.075 68.2207 136.65 68.0883C136.872 68.0147 137.064 67.9853 137.241 67.9853ZM137.241 66.5135C136.946 66.5135 136.636 66.5576 136.311 66.6312C135.47 66.8373 134.481 67.426 133.374 68.3826C132.341 69.2804 131.249 70.4431 130.142 71.856C127.766 74.8879 125.582 78.6409 124.018 82.4528C121.568 88.3546 118.528 99.3929 125.612 106.914C125.641 106.943 125.671 106.973 125.7 107.002C130.895 111.682 135.071 114.376 138.849 115.494C140.148 115.877 141.417 116.068 142.627 116.068C144.812 116.068 146.892 115.465 148.988 114.214C149.711 113.875 150.449 113.154 151.202 112.08C151.88 111.108 152.545 109.872 153.194 108.4C154.463 105.486 155.54 101.836 156.131 98.3921C156.603 95.6546 157.016 91.6955 156.278 88.3988C155.363 84.2925 153.076 83.0857 151.305 82.806C151.231 82.7913 151.172 82.7913 151.098 82.7913H150.951C150.228 82.7913 149.563 82.8796 149.062 82.9532C148.84 82.9826 148.604 83.0268 148.353 83.0709C147.999 83.1298 147.63 83.1887 147.306 83.2328C146.981 83.277 146.7 83.2917 146.45 83.2917C145.741 83.2917 145.18 83.1151 144.649 82.7472C144.575 82.6883 144.354 82.4822 144.103 81.8199C143.897 81.3195 143.705 80.6278 143.498 79.73C143.306 78.9058 143.129 77.9933 142.952 77.022L141.491 77.2133L142.937 76.9337C142.745 75.9623 142.568 74.9615 142.347 73.9901C141.786 71.4587 141.225 69.7955 140.487 68.6034C140 67.8087 139.425 67.2199 138.79 66.8814C138.318 66.6459 137.802 66.5135 137.241 66.5135Z" fill="black"/>
<path d="M102.974 130.315C102.974 145.695 109.984 157.248 121.347 164.99C132.74 172.746 148.516 176.676 166.019 176.676C183.521 176.676 199.312 172.937 210.69 165.27C222.039 157.631 229.064 146.078 229.064 130.315C229.064 112.58 221.301 99.702 209.569 91.2393C197.807 82.7619 182.031 78.6851 166.033 78.6851C131.087 78.6998 102.974 103.573 102.974 130.315Z" fill="#B8AFE8" stroke="black" stroke-width="2"/>
<path d="M162.356 126.961C166.608 119.006 164.58 109.646 157.826 106.056C151.072 102.466 142.15 106.004 137.898 113.959C133.646 121.915 135.674 131.274 142.428 134.864C149.182 138.455 158.105 134.916 162.356 126.961Z" fill="white" stroke="black" stroke-width="2" stroke-linejoin="round"/>
<path d="M153.539 123.086C155.61 117.083 153.889 111.051 149.696 109.613C145.504 108.175 140.427 111.875 138.357 117.878C136.287 123.881 138.007 129.913 142.2 131.351C146.393 132.789 151.469 129.089 153.539 123.086Z" fill="black"/>
<path d="M123.069 115.562C125.535 107.797 124.939 100.684 121.737 99.6726C118.536 98.6615 113.943 104.136 111.477 111.9C109.011 119.665 109.608 126.778 112.809 127.79C116.01 128.801 120.604 123.326 123.069 115.562Z" fill="white" stroke="black" stroke-width="2" stroke-linejoin="round"/>
<path d="M121.965 116.355C123.753 110.542 123.705 105.372 121.859 104.807C120.012 104.242 117.065 108.496 115.277 114.309C113.489 120.121 113.537 125.291 115.383 125.856C117.23 126.421 120.176 122.167 121.965 116.355Z" fill="black"/>
<path fill-rule="evenodd" clip-rule="evenodd" d="M113.584 132.052C113.54 131.949 113.481 131.846 113.437 131.743C113.378 131.595 113.333 131.463 113.274 131.316C113.245 131.213 113.2 131.11 113.171 131.007C113.127 130.859 113.097 130.698 113.068 130.55C113.053 130.447 113.023 130.359 113.009 130.256C112.979 130.079 112.979 129.918 112.979 129.741C112.979 129.653 112.964 129.579 112.964 129.491C112.964 129.24 112.979 128.976 113.023 128.725C113.068 128.475 113.127 128.225 113.2 127.975C113.23 127.901 113.26 127.828 113.289 127.739C113.348 127.577 113.407 127.415 113.481 127.254C113.525 127.165 113.584 127.077 113.628 126.989C113.702 126.856 113.776 126.709 113.865 126.577C113.924 126.488 113.997 126.4 114.056 126.312C114.145 126.194 114.234 126.061 114.337 125.944C114.411 125.855 114.484 125.782 114.573 125.694C114.676 125.576 114.78 125.473 114.898 125.37C114.986 125.296 115.075 125.223 115.163 125.149C115.281 125.046 115.399 124.943 115.532 124.855C115.636 124.781 115.724 124.722 115.827 124.649C115.96 124.56 116.093 124.472 116.241 124.384C116.344 124.325 116.462 124.266 116.565 124.207C116.713 124.133 116.86 124.045 117.023 123.986C117.082 123.957 117.126 123.927 117.185 123.898C117.185 123.898 117.185 123.898 117.185 123.913C118.779 123.206 120.697 122.838 122.749 122.927C122.749 122.927 122.749 122.927 122.749 122.912C122.867 122.912 122.985 122.927 123.103 122.941C123.206 122.941 123.324 122.956 123.428 122.971C123.737 123 124.047 123.03 124.372 123.088C124.682 123.133 124.992 123.191 125.302 123.265C125.405 123.295 125.508 123.309 125.626 123.339C125.745 123.368 125.863 123.398 125.966 123.427C125.966 123.427 125.966 123.427 125.966 123.442C127.958 123.972 129.67 124.899 130.984 126.061C130.984 126.061 130.984 126.061 130.984 126.047C131.028 126.091 131.072 126.135 131.116 126.179C131.234 126.297 131.367 126.415 131.485 126.532C131.574 126.621 131.662 126.709 131.736 126.797C131.839 126.915 131.958 127.048 132.046 127.165C132.12 127.254 132.194 127.357 132.267 127.445C132.356 127.577 132.445 127.71 132.533 127.842C132.592 127.945 132.666 128.034 132.725 128.137C132.799 128.269 132.873 128.416 132.932 128.549C132.976 128.652 133.035 128.755 133.079 128.858C133.138 129.005 133.182 129.152 133.241 129.285C133.271 129.388 133.315 129.491 133.345 129.594C133.389 129.741 133.419 129.903 133.448 130.05C133.463 130.153 133.492 130.241 133.507 130.344C133.537 130.521 133.537 130.683 133.537 130.859C133.537 130.948 133.551 131.021 133.551 131.11C133.551 131.36 133.537 131.625 133.492 131.875C133.448 132.125 133.389 132.375 133.315 132.626C133.286 132.699 133.256 132.773 133.227 132.861C133.168 133.023 133.109 133.185 133.035 133.347C132.991 133.435 132.932 133.523 132.887 133.612C132.813 133.744 132.74 133.891 132.651 134.024C132.592 134.112 132.518 134.2 132.459 134.289C132.371 134.406 132.282 134.539 132.179 134.657C132.105 134.745 132.031 134.819 131.943 134.907C131.839 135.025 131.736 135.128 131.618 135.231C131.53 135.304 131.441 135.378 131.352 135.451C131.234 135.554 131.116 135.657 130.984 135.746C130.88 135.819 130.792 135.878 130.688 135.952C130.556 136.04 130.423 136.128 130.275 136.217C130.172 136.276 130.054 136.334 129.95 136.393C129.803 136.467 129.655 136.555 129.493 136.629C129.434 136.658 129.39 136.688 129.331 136.717C129.331 136.717 129.331 136.717 129.331 136.702C127.737 137.409 125.818 137.777 123.767 137.688C123.767 137.688 123.767 137.688 123.767 137.703C123.649 137.703 123.531 137.688 123.413 137.674C123.31 137.674 123.191 137.659 123.088 137.644C122.778 137.615 122.468 137.585 122.144 137.527C121.834 137.482 121.524 137.424 121.214 137.35C121.111 137.321 121.007 137.306 120.889 137.276C120.771 137.247 120.653 137.218 120.55 137.188C120.55 137.188 120.55 137.188 120.55 137.173C118.558 136.644 116.846 135.716 115.532 134.554C115.532 134.554 115.532 134.554 115.532 134.568C115.488 134.524 115.444 134.48 115.399 134.436C115.281 134.318 115.149 134.2 115.045 134.083C114.957 133.994 114.868 133.906 114.78 133.803C114.676 133.685 114.573 133.553 114.47 133.435C114.396 133.347 114.322 133.244 114.248 133.141C114.16 133.008 114.071 132.876 113.983 132.743C113.924 132.64 113.85 132.552 113.791 132.449C113.732 132.316 113.658 132.184 113.584 132.052Z" fill="black"/>
<path d="M132.607 148.815C135.824 156.527 134.216 161.252 131.205 161.252C128.195 161.252 121.672 156.424 118.44 148.712C115.223 141 120.594 142.913 123.605 142.913C126.615 142.913 129.375 141.103 132.607 148.815Z" fill="#F4C6ED" stroke="black" stroke-width="2" stroke-linecap="round" stroke-linejoin="round"/>
</g>
<path d="M98.2511 183.52C97.8969 183.52 97.5427 183.446 97.2033 183.299C96.5539 183.019 96.0374 182.504 95.7865 181.842C95.5209 181.179 95.5357 180.458 95.816 179.811L105.246 157.881C105.674 156.895 106.633 156.277 107.696 156.277C108.05 156.277 108.404 156.351 108.744 156.498C110.102 157.072 110.721 158.647 110.146 159.986L100.701 181.915C100.288 182.887 99.3284 183.52 98.2511 183.52Z" fill="#D9FC7E"/>
<path d="M107.696 157.013C107.962 157.013 108.213 157.072 108.449 157.175C108.921 157.381 109.29 157.749 109.482 158.234C109.674 158.705 109.659 159.235 109.467 159.706L100.022 181.621C99.7123 182.327 99.0187 182.784 98.2513 182.784C97.9857 182.784 97.7348 182.725 97.4987 182.622C97.0264 182.416 96.6575 182.048 96.4656 181.562C96.2738 181.091 96.2885 180.561 96.4804 180.09L105.925 158.176C106.235 157.469 106.929 157.013 107.696 157.013ZM107.696 155.541C106.383 155.541 105.128 156.306 104.568 157.602L95.1374 179.531C94.3995 181.253 95.1965 183.255 96.9231 183.991C97.3659 184.182 97.8086 184.27 98.2661 184.27C99.5795 184.27 100.834 183.505 101.395 182.21L110.825 160.28C111.563 158.558 110.766 156.557 109.039 155.821C108.596 155.629 108.139 155.541 107.696 155.541Z" fill="black"/>
<path d="M118.853 114.17C129.39 114.17 137.964 122.721 137.964 133.229C137.964 143.737 129.39 152.288 118.853 152.288C108.316 152.288 99.7414 143.737 99.7414 133.229C99.7414 122.721 108.316 114.17 118.853 114.17ZM118.853 112.698C107.489 112.698 98.2656 121.896 98.2656 133.229C98.2656 144.562 107.489 153.76 118.853 153.76C130.216 153.76 139.425 144.562 139.425 133.229C139.425 121.882 130.216 112.698 118.853 112.698Z" fill="black"/>
</g>
<mask id="mask13_2_1733" style="mask-type:luminance" maskUnits="userSpaceOnUse" x="82" y="62" width="168" height="137">
<path d="M249.96 62.5838H82.5488V198.885H249.96V62.5838Z" fill="white"/>
</mask>
<g mask="url(#mask13_2_1733)">
<path d="M104.257 179.34C102.723 179.34 101.232 179.031 99.8154 178.427C95.0929 176.411 92.894 170.936 94.9306 166.211L98.1773 158.676C99.653 155.247 103.018 153.039 106.751 153.039C108.021 153.039 109.246 153.289 110.426 153.79C116.137 156.233 118.794 162.856 116.344 168.552L114.632 172.525C112.846 176.661 108.773 179.34 104.257 179.34Z" fill="#B8AFE8"/>
<path d="M106.752 153.775C107.888 153.775 109.024 153.996 110.131 154.467C115.473 156.748 117.953 162.929 115.651 168.257L113.939 172.231C112.227 176.205 108.345 178.589 104.258 178.589C102.87 178.589 101.468 178.309 100.111 177.735C95.7572 175.866 93.7354 170.833 95.6096 166.491L98.8563 158.956C100.244 155.718 103.416 153.775 106.752 153.775ZM106.752 152.303C102.723 152.303 99.0924 154.687 97.4986 158.382L94.2519 165.917C93.1893 168.375 93.1598 171.112 94.1486 173.6C95.1521 176.087 97.0558 178.045 99.5204 179.104C101.026 179.752 102.62 180.076 104.243 180.076C109.054 180.076 113.378 177.235 115.282 172.82L116.994 168.846C118.263 165.902 118.292 162.65 117.112 159.677C115.916 156.704 113.644 154.378 110.692 153.113C109.452 152.583 108.109 152.303 106.752 152.303Z" fill="black"/>
</g>
<path d="M238.361 196.501L277.616 187.081C286.412 184.977 291.828 176.146 289.703 167.374C287.592 158.602 278.738 153.201 269.942 155.32L230.687 164.74C221.891 166.844 216.475 175.675 218.6 184.447C220.725 193.219 229.565 198.605 238.361 196.501Z" fill="#AFA1FF" stroke="black" stroke-width="2" stroke-miterlimit="10"/>
<path d="M269.283 183.589L278.594 181.354L273.442 160.006L264.13 162.241L269.283 183.589Z" fill="#D9FC7E" stroke="black" stroke-width="2"/>
<path d="M256.57 186.641L265.881 184.406L262.521 170.483L253.21 172.719L256.57 186.641Z" fill="#D9FC7E" stroke="black" stroke-width="2"/>
<path d="M243.423 189.794L252.735 187.559L250.494 178.272L241.182 180.508L243.423 189.794Z" fill="#D9FC7E" stroke="black" stroke-width="2"/>
<path d="M231.167 192.736L240.478 190.501L239.356 185.851L230.044 188.086L231.167 192.736Z" fill="#D9FC7E" stroke="black" stroke-width="2"/>
<path d="M247.23 225.45C246.507 225.45 245.769 225.391 245.046 225.303L205.067 219.725C196.523 218.533 190.546 210.63 191.741 202.108C192.818 194.44 199.474 188.671 207.207 188.671C207.93 188.671 208.668 188.73 209.391 188.818L249.37 194.396C253.502 194.97 257.177 197.119 259.686 200.445C262.209 203.771 263.272 207.877 262.696 211.998C261.634 219.666 254.978 225.45 247.23 225.45Z" fill="#D9FC7E"/>
<path d="M207.207 189.392C207.901 189.392 208.609 189.436 209.288 189.539L249.267 195.117C257.398 196.25 263.095 203.786 261.958 211.895C260.94 219.195 254.594 224.7 247.215 224.7C246.522 224.7 245.813 224.656 245.134 224.553L205.171 218.975C197.039 217.841 191.343 210.306 192.479 202.196C193.497 194.896 199.843 189.392 207.207 189.392ZM207.207 187.92C199.164 187.92 192.154 193.822 191.003 201.99C189.749 210.924 195.991 219.181 204.949 220.432L244.928 226.01C245.695 226.113 246.463 226.172 247.215 226.172C255.258 226.172 262.268 220.27 263.419 212.101C264.674 203.168 258.431 194.911 249.473 193.66L209.495 188.082C208.742 187.979 207.974 187.92 207.207 187.92Z" fill="black"/>
<path d="M237.46 125.075L234.774 139.381L255.657 114.405L246.448 143.075L264.113 137.703L255.657 146.019C255.657 146.019 278.782 136.246 290.529 147.064" stroke="black" stroke-width="2" stroke-miterlimit="10" stroke-linecap="round" stroke-linejoin="round"/>
<path d="M64.1313 204.757C64.1313 204.757 79.9664 205.832 79.1252 225.848C79.1252 225.848 123.31 179.531 133.921 223.508" stroke="black" stroke-width="2" stroke-miterlimit="10" stroke-linecap="round" stroke-linejoin="round"/>
<path d="M255.952 199.429L236.796 200.857L240.752 205.817C221.699 215.001 203.075 207.892 202.795 207.789C201.275 207.186 199.563 207.922 198.958 209.423C198.353 210.924 199.09 212.646 200.596 213.249C201.186 213.485 208.934 216.502 219.722 216.502C227.027 216.502 235.719 215.104 244.515 210.541L248.499 215.531L255.952 199.429Z" fill="#FF833D" stroke="black" stroke-width="2" stroke-miterlimit="10"/>
<path d="M91.2705 63.0695L91.6395 68.206C91.8903 71.7236 98.3837 74.1226 106.117 73.5633C113.85 73.004 119.93 69.6925 119.664 66.175L119.295 61.0385" fill="#FF833D"/>
<path d="M91.2705 63.0695L91.6395 68.206C91.8903 71.7236 98.3837 74.1226 106.117 73.5633C113.85 73.004 119.93 69.6925 119.664 66.175L119.295 61.0385" stroke="black" stroke-width="2" stroke-linecap="round" stroke-linejoin="round"/>
<path d="M105.753 68.4299C113.492 67.8704 119.559 64.5645 119.303 61.046C119.047 57.5275 112.566 55.1287 104.827 55.6881C97.0882 56.2476 91.0218 59.5535 91.2775 63.072C91.5333 66.5906 98.0143 68.9894 105.753 68.4299Z" fill="#FAFC7D" stroke="black" stroke-width="2" stroke-linecap="round" stroke-linejoin="round"/>
<path d="M83.021 55.2102L84.6886 60.0818C85.8397 63.4227 92.7168 64.0998 100.051 61.583C107.401 59.081 112.418 54.3419 111.267 51.001L109.6 46.1294" fill="#FF833D"/>
<path d="M83.021 55.2102L84.6886 60.0818C85.8397 63.4227 92.7168 64.0998 100.051 61.583C107.401 59.081 112.418 54.3419 111.267 51.001L109.6 46.1294" stroke="black" stroke-width="2" stroke-linecap="round" stroke-linejoin="round"/>
<path d="M98.3824 56.7058C105.723 54.1986 110.745 49.4605 109.599 46.1229C108.453 42.7853 101.573 42.1122 94.232 44.6194C86.891 47.1266 81.869 51.8647 83.0151 55.2022C84.1612 58.5398 91.0413 59.213 98.3824 56.7058Z" fill="#FAFC7D" stroke="black" stroke-width="2" stroke-linecap="round" stroke-linejoin="round"/>
<path d="M68.854 50.1768L71.9531 54.857C74.0782 58.0655 81.4423 56.9469 88.408 52.355C95.3736 47.7631 99.2992 41.4492 97.174 38.2407L94.0749 33.5605" fill="#FF833D"/>
<path d="M68.854 50.1768L71.9531 54.857C74.0782 58.0655 81.4423 56.9469 88.408 52.355C95.3736 47.7631 99.2992 41.4492 97.174 38.2407L94.0749 33.5605" stroke="black" stroke-width="2" stroke-linecap="round" stroke-linejoin="round"/>
<path d="M85.3199 47.6824C92.2847 43.0962 96.2088 36.7774 94.0846 33.5689C91.9604 30.3605 84.5923 31.4774 77.6275 36.0637C70.6627 40.6499 66.7386 46.9687 68.8628 50.1771C70.987 53.3856 78.3551 52.2686 85.3199 47.6824Z" fill="#FAFC7D" stroke="black" stroke-width="2" stroke-linecap="round" stroke-linejoin="round"/>
<path d="M53.063 49.6175L59.4088 52.9879C63.7476 55.2986 71.3478 49.5587 76.3507 40.1835C81.3535 30.8083 81.9143 21.33 77.5608 19.0193L71.215 15.649" fill="#FF833D"/>
<path d="M53.063 49.6175L59.4088 52.9879C63.7476 55.2986 71.3478 49.5587 76.3507 40.1835C81.3535 30.8083 81.9143 21.33 77.5608 19.0193L71.215 15.649" stroke="black" stroke-width="2" stroke-linecap="round" stroke-linejoin="round"/>
<path d="M70.0066 36.8106C75.0215 27.428 75.5649 17.9496 71.2205 15.6402C66.8761 13.3307 59.2889 19.0647 54.274 28.4474C49.2592 37.8301 48.7157 47.3084 53.0601 49.6178C57.4046 51.9273 64.9918 46.1933 70.0066 36.8106Z" fill="#FAFC7D" stroke="black" stroke-width="2" stroke-linecap="round" stroke-linejoin="round"/>
</g>
</g>
<defs>
<clipPath id="clip0_2_1733">
<rect width="300" height="245" fill="white" transform="translate(0.0898438 0.151978)"/>
</clipPath>
<clipPath id="clip1_2_1733">
<rect width="281.267" height="230.833" fill="white" transform="translate(10 14.3979)"/>
</clipPath>
</defs>
</svg>
