<svg width="206" height="199" viewBox="0 0 206 199" fill="none" xmlns="http://www.w3.org/2000/svg">
<g clip-path="url(#clip0_2_1942)">
<path d="M82.8604 130.866C71.4097 126.39 46.0196 113.236 40.4821 109.307C34.7815 105.822 25.2594 96.8423 32.7892 88.8033C35.1006 86.3392 46.8775 79.2198 61.2848 91.8709C71.0197 100.413 76.8054 104.019 76.8054 104.019" fill="#B8AFE8"/>
<path d="M37.6956 85.8148C35.2424 86.7559 33.5336 88.0203 32.7962 88.8033C25.2593 96.8495 34.7815 105.822 40.4891 109.307C46.0195 113.229 71.4097 126.39 82.8675 130.866L83.1298 130.241C67.5029 122.913 38.9506 104.429 37.6956 85.8148Z" fill="#9F98E2"/>
<path d="M83.1229 130.248L93.5598 111.167C93.5598 111.167 71.0199 100.42 61.2921 91.8782C51.4934 83.2717 42.9071 83.8177 37.6958 85.822C38.9508 104.429 67.5032 122.913 83.1229 130.248Z" fill="#B8AFE8"/>
<path d="M82.8604 130.866C71.4097 126.39 46.0196 113.236 40.4821 109.307C34.7815 105.822 25.2594 96.8423 32.7892 88.8033C35.1006 86.3392 46.8775 79.2198 61.2848 91.8709C71.0197 100.413 76.8054 104.019 76.8054 104.019" stroke="black" stroke-width="2" stroke-miterlimit="10" stroke-linecap="round" stroke-linejoin="round"/>
<path d="M35.2705 176.356L38.5037 178.654C45.5159 182.972 54.7474 180.558 59.1221 173.259C63.5038 165.96 61.3697 156.542 54.3574 152.224L51.1243 149.925" fill="#FF833D"/>
<path d="M35.2705 176.356L38.5037 178.654C45.5159 182.972 54.7474 180.558 59.1221 173.259C63.5038 165.96 61.3697 156.542 54.3574 152.224L51.1243 149.925" stroke="black" stroke-width="2" stroke-linecap="round" stroke-linejoin="round"/>
<mask id="mask0_2_1942" style="mask-type:luminance" maskUnits="userSpaceOnUse" x="35" y="149" width="27" height="32">
<path d="M35.2705 176.356L38.5037 178.654C45.5159 182.972 54.7474 180.558 59.1221 173.259C63.5038 165.96 61.3697 156.542 54.3574 152.224L51.1243 149.925" fill="white"/>
</mask>
<g mask="url(#mask0_2_1942)">
<path d="M43.2681 175.105L52.3861 180.68" stroke="black" stroke-width="2" stroke-linecap="round" stroke-linejoin="round"/>
<path d="M46.7139 169.753L55.8319 175.328" stroke="black" stroke-width="2" stroke-linecap="round" stroke-linejoin="round"/>
<path d="M50.1528 164.401L59.2709 169.976" stroke="black" stroke-width="2" stroke-linecap="round" stroke-linejoin="round"/>
<path d="M53.5913 159.049L62.7094 164.624" stroke="black" stroke-width="2" stroke-linecap="round" stroke-linejoin="round"/>
</g>
<path d="M54.298 169.892C58.6769 162.592 56.978 153.442 50.5033 149.455C44.0287 145.467 35.2301 148.152 30.8511 155.451C26.4722 162.751 28.1711 171.901 34.6458 175.888C41.1204 179.876 49.919 177.191 54.298 169.892Z" fill="#FAFC7D" stroke="black" stroke-width="2" stroke-linecap="round" stroke-linejoin="round"/>
<path d="M60.1151 46.834C57.3428 46.7837 51.8692 46.5395 48.9267 45.9288C43.7579 44.8512 36.6961 42.4446 32.371 37.0781C27.259 29.5348 31.3855 20.2386 34.2996 15.3678C36.1927 12.1925 38.6104 9.13924 41.1062 6.7685C42.2406 5.6837 43.368 4.77851 44.3606 4.14631C45.3887 3.49256 46.2537 3.12617 46.9415 3.06152C47.0407 3.05433 47.1329 3.04715 47.218 3.04715C47.771 3.04715 48.2248 3.21238 48.5722 3.54285C48.9409 3.88768 49.182 4.39775 49.3238 5.10898C49.5365 6.20095 49.4939 7.72398 49.1749 10.0516C49.0756 10.7628 48.9622 11.5028 48.8487 12.2428C48.6786 13.3347 48.5013 14.4698 48.402 15.4325C48.3099 16.3017 48.2886 16.9842 48.3382 17.5015C48.3879 18.0834 48.5226 18.4857 48.7424 18.7084C48.8275 18.7946 48.9764 18.8808 49.1749 18.9527C49.3734 19.0317 49.6357 19.0963 49.9406 19.161C50.522 19.276 51.2807 19.3693 52.2591 19.434C52.6137 19.4556 53.5637 19.4699 55.081 19.4699C58.4915 19.4699 64.1069 19.4124 67.4606 19.3693C69.0488 19.355 70.2045 19.3406 70.5307 19.3406H70.6158C71.3248 19.3478 71.814 19.3765 72.1047 19.4268C72.1402 19.434 72.1756 19.4412 72.2111 19.4556C74.168 20.1021 75.2528 21.8478 75.4371 24.6496C75.6286 27.631 74.7423 31.065 73.9623 33.4214C72.9768 36.41 71.5446 39.5063 70.0344 41.9273C69.2828 43.1342 68.5383 44.1328 67.8364 44.8871C67.0848 45.6846 66.4042 46.1731 65.8157 46.3455C64.6812 46.676 62.8874 46.8556 60.7674 46.8556C60.5476 46.8412 60.3349 46.8412 60.1151 46.834Z" fill="white"/>
<path d="M47.2109 3.76555C47.6292 3.76555 47.8916 3.88768 48.0759 4.06728C48.3099 4.28998 48.5013 4.67074 48.6148 5.24547C48.8416 6.41647 48.714 8.09754 48.4588 9.95103C48.3595 10.6551 48.2461 11.395 48.1326 12.1278C47.9554 13.2629 47.7852 14.3764 47.6859 15.3534C47.6009 16.1652 47.5654 16.9268 47.6221 17.559C47.6718 18.1696 47.8206 18.7946 48.2319 19.2113C48.4162 19.3981 48.6715 19.5274 48.9125 19.6208C49.1678 19.7142 49.4656 19.7932 49.7917 19.865C50.444 19.9944 51.2736 20.0877 52.2024 20.1452C52.6066 20.174 53.6559 20.1811 55.0669 20.1811C60.0513 20.1811 69.4955 20.0518 70.5307 20.0518C70.559 20.0518 70.5874 20.0518 70.6016 20.0518C71.2681 20.059 71.736 20.0877 71.9913 20.1308C73.7142 20.6984 74.5721 22.2933 74.7281 24.6855C74.8841 27.0922 74.2956 30.1311 73.2888 33.1843C72.282 36.2232 70.871 39.2261 69.4317 41.5394C68.7085 42.696 67.9924 43.6658 67.3188 44.3843C66.631 45.117 66.0496 45.5265 65.6171 45.6487C64.6174 45.936 62.9158 46.13 60.7603 46.13C60.5476 46.13 60.3349 46.13 60.1222 46.1228C57.6761 46.0797 52.0677 45.857 49.0614 45.232C43.0347 43.9748 36.7244 41.3598 32.9099 36.6255C28.755 30.4903 30.875 22.4657 34.8951 15.7414C36.8946 12.4008 39.3265 9.44096 41.5812 7.29292C42.7086 6.2225 43.7863 5.35323 44.7293 4.74977C45.6936 4.13194 46.4593 3.82302 46.9911 3.77273C47.0762 3.76555 47.1471 3.76555 47.2109 3.76555ZM47.2109 2.32874C47.1045 2.32874 46.9911 2.33592 46.8706 2.3431C46.0694 2.41494 45.098 2.81725 43.9777 3.53566C42.9284 4.20378 41.801 5.11615 40.617 6.24405C38.0787 8.6579 35.6184 11.7686 33.6898 14.9942C28.5139 23.6654 27.8191 31.6325 31.7471 37.4373C31.7684 37.4732 31.7896 37.5019 31.818 37.5307C36.2707 43.0624 43.5027 45.5337 48.7778 46.6329C52.4648 47.4016 59.3281 47.5381 60.0938 47.5524C60.3207 47.5596 60.5405 47.5596 60.7603 47.5596C62.9441 47.5596 64.8089 47.3728 66.0071 47.028C66.7232 46.8197 67.5173 46.2665 68.354 45.3685C69.0914 44.5854 69.8571 43.5509 70.637 42.3009C72.1756 39.8296 73.6362 36.6758 74.6359 33.6369C75.4371 31.2159 76.3518 27.6885 76.1461 24.5922C75.898 20.7056 73.9907 19.2759 72.4309 18.7659C72.36 18.7443 72.2891 18.7228 72.2182 18.7156C72.0054 18.6797 71.6155 18.6366 70.6299 18.6222H70.5378C70.2116 18.6222 69.063 18.6366 67.4748 18.6509C64.114 18.6869 58.4915 18.7515 55.074 18.7515C53.2021 18.7515 52.5286 18.73 52.2946 18.7156C51.3658 18.6581 50.6142 18.5647 50.0683 18.457C49.7988 18.3995 49.579 18.342 49.4089 18.2774C49.2671 18.2199 49.2174 18.184 49.2174 18.184C49.2103 18.1768 49.0827 18.0331 49.026 17.4368C48.9834 16.9627 49.0047 16.3305 49.0898 15.5043C49.1891 14.5704 49.3521 13.4928 49.5294 12.3577C49.6428 11.6105 49.7634 10.8706 49.8555 10.1522C50.1888 7.7096 50.2313 6.15784 49.9973 4.97247C49.8272 4.11038 49.5152 3.471 49.0331 3.02559C48.5651 2.55863 47.9483 2.32874 47.2109 2.32874Z" fill="black"/>
<path opacity="0.2" d="M71.9982 20.1236C71.7429 20.0805 71.275 20.059 70.6085 20.0446C70.3391 20.0374 62.9936 20.0734 59.7817 20.1093C57.8461 21.6108 56.031 23.2415 54.3435 24.9801C48.8131 30.6842 45.5942 37.1427 43.6089 44.4848C44.1477 44.6213 48.5224 45.117 49.0613 45.2248C52.0675 45.8498 57.6759 46.0725 60.122 46.1156C62.5824 46.1587 64.5251 45.9575 65.617 45.6414C66.0495 45.5193 66.6309 45.1098 67.3186 44.3771C67.9922 43.6586 68.7083 42.6888 69.4315 41.5322C70.8708 39.2189 72.2818 36.2231 73.2886 33.1771C74.2954 30.1239 74.8839 27.085 74.7279 24.6783C74.579 22.2861 73.7211 20.6912 71.9982 20.1236Z" fill="#8A7CD8"/>
<path d="M58.3357 39.2261C58.4988 46.9059 52.4933 53.271 44.9139 53.4362C37.3344 53.6014 31.0596 47.5165 30.8965 39.8368L58.3357 39.2261Z" fill="#B8AFE8"/>
<path d="M58.3354 39.2261L48.3169 39.4488C45.9417 43.8886 44.9136 53.4362 44.9136 53.4362C51.465 52.258 58.4843 46.1803 58.3354 39.2261Z" fill="#9F98E2"/>
<path d="M58.3357 39.2261C58.4988 46.9059 52.4933 53.271 44.9139 53.4362C37.3344 53.6014 31.0596 47.5165 30.8965 39.8368L58.3357 39.2261Z" stroke="black" stroke-width="2"/>
<path d="M171.857 159.164C169 159.99 167.546 163.115 168.461 165.687C167.461 166.262 166.412 166.736 165.32 167.095C161.902 168.23 158.138 168.367 154.564 168.022C146.524 167.239 139.426 163.977 139.299 163.92L137.966 166.844C138.115 166.916 140.348 167.95 143.737 169.021C145.886 169.703 148.502 170.393 151.352 170.867C153.146 171.161 154.869 171.327 156.521 171.391C159.726 171.506 162.675 171.197 165.32 170.45C167.213 169.919 168.95 169.157 170.524 168.194C170.971 168.475 171.446 168.69 171.942 168.827C174.679 169.567 177.43 167.605 177.926 164.782L179.281 157.03L171.857 159.164Z" fill="#B8AFE8"/>
<path d="M178.033 157.368L177.118 162.612C176.622 165.443 173.871 167.404 171.134 166.657C170.637 166.521 170.162 166.312 169.716 166.025C168.142 166.995 166.405 167.749 164.511 168.281C161.867 169.028 158.924 169.337 155.712 169.222C154.053 169.164 152.337 168.992 150.544 168.697C147.7 168.23 145.077 167.534 142.929 166.851C141.121 166.276 139.653 165.723 138.646 165.306L137.958 166.815C138.107 166.887 140.341 167.921 143.73 168.999C145.878 169.682 148.495 170.371 151.345 170.845C153.139 171.14 154.862 171.305 156.514 171.37C159.718 171.485 162.668 171.176 165.313 170.429C167.206 169.897 168.943 169.136 170.517 168.173C170.964 168.453 171.439 168.669 171.935 168.805C174.672 169.545 177.423 167.584 177.919 164.76L179.273 157.009L178.033 157.368Z" fill="#8A7CD8"/>
<path d="M179.266 157.016L177.912 164.768C177.487 167.189 175.416 168.97 173.112 168.97C172.722 168.97 172.325 168.92 171.935 168.812C171.439 168.676 170.964 168.467 170.517 168.18C168.943 169.15 167.206 169.904 165.313 170.436C163.03 171.082 160.513 171.399 157.804 171.399C157.379 171.399 156.953 171.391 156.514 171.377C154.855 171.32 153.139 171.147 151.345 170.853C148.502 170.386 145.878 169.689 143.73 169.006C140.341 167.936 138.108 166.894 137.959 166.829L139.292 163.906C139.419 163.963 146.517 167.225 154.557 168.008C155.656 168.115 156.776 168.173 157.896 168.173C160.413 168.173 162.945 167.864 165.313 167.081C166.405 166.722 167.454 166.255 168.454 165.673C167.539 163.101 168.993 159.976 171.85 159.15L179.266 157.016ZM179.266 155.579C179.245 155.579 179.224 155.579 179.203 155.579C179.075 155.586 178.954 155.608 178.841 155.644L171.46 157.785C169.723 158.288 168.312 159.466 167.482 161.111C166.873 162.311 166.653 163.654 166.823 164.94C166.192 165.249 165.54 165.515 164.873 165.737C162.831 166.413 160.484 166.758 157.896 166.758C156.868 166.758 155.791 166.7 154.692 166.592C146.85 165.831 139.958 162.648 139.887 162.612C139.696 162.526 139.49 162.483 139.292 162.483C138.753 162.483 138.242 162.792 138.001 163.316L136.668 166.24C136.512 166.585 136.491 166.98 136.626 167.34C136.753 167.699 137.023 167.986 137.363 168.151C137.611 168.266 139.887 169.315 143.305 170.4C145.949 171.233 148.573 171.873 151.111 172.289C152.905 172.584 154.699 172.764 156.457 172.828C156.904 172.843 157.358 172.85 157.797 172.85C160.633 172.85 163.292 172.505 165.689 171.83C167.411 171.341 169.042 170.673 170.538 169.832C170.872 169.99 171.212 170.113 171.559 170.206C172.063 170.342 172.587 170.414 173.105 170.414C176.104 170.414 178.77 168.094 179.302 165.026L180.642 157.354C180.663 157.246 180.677 157.138 180.677 157.03C180.677 156.24 180.046 155.601 179.266 155.594C179.273 155.579 179.273 155.579 179.266 155.579Z" fill="black"/>
<path d="M145.403 165.314C146.041 173.403 145.694 197.434 145.694 197.434H110.236C111.93 188.576 113.49 170.608 106.166 169.631H105.358C97.7781 170.615 94.6584 188.576 94.0416 197.434H54.3646C53.5776 193.511 58.0515 189.531 60.3842 188.03C60.3842 188.03 62.412 173.044 65.3687 164.559C65.3687 164.559 86.8379 108.215 101.919 102.252C111.115 98.6096 124.92 99.407 133.024 102.978C144.715 117.762 145.403 165.314 145.403 165.314Z" fill="#B8AFE8"/>
<path d="M58.8174 91.3321C58.8174 91.3321 79.6981 121.196 115.05 122.806C150.402 124.415 137.455 110.988 137.455 110.988L58.8174 91.3321Z" fill="#9F98E2"/>
<path d="M94.942 170.457C92.6306 174.883 91.1771 181.212 90.383 186.643C89.8867 190.02 86.8379 192.735 83.5055 192.735H55.5628C54.6198 194.194 54.0455 195.817 54.3646 197.434H94.0345C94.5662 189.811 96.9486 175.458 102.422 170.967C103.316 170.235 96.5373 167.397 94.942 170.457Z" fill="#9F98E2"/>
<path d="M145.403 165.314C145.403 165.314 144.715 117.762 133.017 102.977C132.463 102.733 131.875 102.503 131.265 102.281C137.802 114.551 133.087 134.681 129.464 146.154C126.323 156.089 125.799 166.715 128.138 176.873C131.166 189.977 136.547 192.735 133.484 192.735H110.98C110.753 194.459 110.498 196.054 110.229 197.434H145.687C145.687 197.434 146.041 173.403 145.403 165.314Z" fill="#9F98E2"/>
<path d="M101.912 102.252C111.108 98.6096 124.912 99.407 133.017 102.978C144.708 117.762 145.403 165.314 145.403 165.314C146.041 173.403 145.694 197.434 145.694 197.434H110.236C111.93 188.576 113.49 170.608 106.166 169.631H105.358C97.7781 170.615 94.6584 188.576 94.0416 197.434H54.3646C53.5776 193.511 58.0515 189.531 60.3842 188.03C60.3842 188.03 62.412 173.044 65.3687 164.559C65.3687 164.559 74.5222 140.536 85.0724 122.202" stroke="black" stroke-width="2" stroke-miterlimit="10" stroke-linecap="round" stroke-linejoin="round"/>
<path d="M65.2837 187.031C69.0273 186.097 78.1666 185.02 84.7606 188.202L65.2837 187.031Z" fill="#B8AFE8"/>
<path d="M65.2837 187.031C69.0273 186.097 78.1666 185.02 84.7606 188.202" stroke="black" stroke-width="2" stroke-linecap="round" stroke-linejoin="round"/>
<path d="M115.752 187.139C123.381 184.775 131.925 186.866 135.25 188.209L115.752 187.139Z" fill="#B8AFE8"/>
<path d="M115.752 187.139C123.381 184.775 131.925 186.866 135.25 188.209" stroke="black" stroke-width="2" stroke-linecap="round" stroke-linejoin="round"/>
<path d="M88.0361 168.439C88.0361 168.439 94.1479 171.636 106.364 171.636C118.588 171.636 124.487 168.439 124.487 168.439" fill="#B8AFE8"/>
<path d="M81.6621 168.942C81.6621 168.942 87.7739 172.138 99.9904 172.138C112.214 172.138 118.113 168.942 118.113 168.942" fill="#B8AFE8"/>
<path d="M81.6621 168.942C81.6621 168.942 87.7739 172.138 99.9904 172.138C112.214 172.138 118.113 168.942 118.113 168.942" stroke="black" stroke-width="2" stroke-miterlimit="10" stroke-linecap="round" stroke-linejoin="round"/>
<path d="M94.9067 157.548H100.168" stroke="black" stroke-width="2" stroke-linecap="round" stroke-linejoin="round"/>
<path d="M97.8848 154.89L97.1899 160.22" stroke="black" stroke-width="2" stroke-linecap="round" stroke-linejoin="round"/>
<path d="M182.315 60.0383C182.315 77.51 174.878 90.6425 162.817 99.4286C150.735 108.236 133.981 112.705 115.405 112.705C96.8212 112.705 80.0741 108.452 67.9923 99.7447C55.9389 91.0663 48.4941 77.9338 48.4941 60.0383C48.4941 44.8728 56.6975 30.2173 69.2189 19.3262C81.7332 8.44239 98.4803 1.38763 115.398 1.38763C152.48 1.38763 182.315 29.6497 182.315 60.0383Z" fill="#B8AFE8"/>
<path d="M138.448 5.16644C156.883 14.8793 169.255 32.7389 169.255 51.4821C169.255 67.5313 162.42 79.6005 151.338 87.6754C140.235 95.7719 124.842 99.874 107.776 99.874C90.7025 99.874 75.3096 95.9658 64.2133 87.97C57.3145 82.9986 52.0536 76.4396 49.0757 68.221C51.0113 81.9928 57.8676 92.4457 67.9924 99.7447C80.0742 108.445 96.8213 112.705 115.405 112.705C133.981 112.705 150.728 108.236 162.817 99.4286C174.878 90.6353 182.315 77.51 182.315 60.0383C182.315 36.295 164.101 13.8448 138.448 5.16644Z" fill="#9F98E2"/>
<path d="M182.315 60.0383C182.315 77.51 174.878 90.6425 162.817 99.4286C150.735 108.236 133.981 112.705 115.405 112.705C96.8212 112.705 80.0741 108.452 67.9923 99.7447C55.9389 91.0663 48.4941 77.9338 48.4941 60.0383C48.4941 44.8728 56.6975 30.2173 69.2189 19.3262C81.7332 8.44239 98.4803 1.38763 115.398 1.38763C152.48 1.38763 182.315 29.6497 182.315 60.0383Z" stroke="black" stroke-width="2" stroke-miterlimit="10" stroke-linecap="round" stroke-linejoin="round"/>
<path d="M167.085 42.6816C167.185 48.7809 175.679 60.182 181.415 59.4349C181.415 59.4349 181.223 54.2336 180.748 51.6402C179.444 46.8987 183.017 44.9374 180.607 40.9144L167.085 42.6816Z" fill="#8A7CD8"/>
<path d="M174.239 47.4088C173.239 47.4088 172.403 47.3441 171.757 47.222C171.133 47.0998 170.382 46.6616 169.538 45.9073C168.744 45.1961 167.886 44.2406 166.993 43.0552C165.206 40.6917 163.441 37.6169 162.143 34.6211C161.122 32.2576 159.881 28.7877 159.81 25.6842C159.739 22.7818 160.697 20.878 162.653 20.0303C162.689 20.0159 162.724 20.0016 162.76 19.9944C163.065 19.9153 163.561 19.8435 164.291 19.7645C165 19.6855 165.894 19.6136 166.901 19.5418C167.695 19.4843 168.567 19.4196 169.474 19.355L169.644 19.3406C170.977 19.2472 172.395 19.1467 173.792 19.0389C176.756 18.8018 178.89 18.5719 180.514 18.3205C181.499 18.1624 182.301 17.9972 182.896 17.8176C183.215 17.7242 183.478 17.6236 183.676 17.5302C183.882 17.4297 184.023 17.3291 184.109 17.2285C184.321 16.9771 184.428 16.5388 184.428 15.9282C184.428 15.3822 184.343 14.6782 184.172 13.7873C183.981 12.8031 183.711 11.6968 183.421 10.5258L183.4 10.4467C183.222 9.72116 183.038 8.98838 182.882 8.28435C182.343 5.90642 182.159 4.33311 182.279 3.18366C182.357 2.4437 182.563 1.89771 182.903 1.50977C183.279 1.08591 183.825 0.870392 184.52 0.870392C185.229 0.870392 186.158 1.16494 187.278 1.74685C188.363 2.3072 189.611 3.14056 190.887 4.15351C193.687 6.37339 196.467 9.30448 198.722 12.4152C202.182 17.1854 207.301 26.4097 202.742 34.6355C198.729 40.6486 191.638 43.8095 186.392 45.4044C182.79 46.5036 179.677 46.9921 177.692 47.2004C176.451 47.3441 175.288 47.4088 174.239 47.4088Z" fill="white"/>
<path d="M184.534 1.58879C185.087 1.58879 185.917 1.84023 186.966 2.38622C188.001 2.92503 189.192 3.71527 190.462 4.72104C192.993 6.73258 195.786 9.57029 198.162 12.839C202.94 19.4268 205.876 27.5376 202.139 34.2835C198.63 39.5422 192.326 42.8469 186.2 44.7219C183.144 45.6558 180.159 46.2234 177.628 46.4964C176.352 46.6329 175.211 46.6975 174.239 46.6975C173.268 46.6975 172.474 46.6329 171.892 46.5251C171.431 46.4389 170.793 46.0725 170.013 45.3757C169.248 44.6932 168.418 43.7593 167.56 42.6242C165.858 40.3612 164.121 37.3942 162.796 34.3338C161.47 31.2733 160.583 28.177 160.52 25.6698C160.463 23.1769 161.207 21.4455 162.937 20.6912C163.2 20.6266 163.682 20.5547 164.37 20.4829C165.079 20.411 165.958 20.332 166.957 20.2602C167.752 20.2027 168.617 20.138 169.531 20.0734C170.914 19.98 172.396 19.8722 173.856 19.7573C176.288 19.5633 178.713 19.3334 180.627 19.0317C181.585 18.8808 182.435 18.7084 183.102 18.5144C183.435 18.4139 183.74 18.3061 183.995 18.184C184.243 18.0619 184.485 17.911 184.662 17.6955C185.052 17.2285 185.144 16.5676 185.144 15.9282C185.144 15.2673 185.03 14.4842 184.875 13.6508C184.683 12.6523 184.399 11.51 184.116 10.3533C183.931 9.60621 183.747 8.85188 183.584 8.13347C183.152 6.2297 182.861 4.50552 182.996 3.26986C183.059 2.65922 183.222 2.24972 183.442 1.99828C183.641 1.76121 183.967 1.58879 184.534 1.58879ZM184.534 0.151978C183.627 0.151978 182.903 0.446524 182.386 1.02843C181.939 1.53132 181.677 2.2138 181.585 3.10463C181.45 4.35466 181.634 5.94952 182.201 8.44239C182.365 9.15361 182.542 9.89357 182.726 10.6263L182.74 10.691C183.031 11.8548 183.3 12.954 183.485 13.9166C183.648 14.7644 183.726 15.4253 183.733 15.921C183.733 16.546 183.605 16.7256 183.584 16.7615C183.584 16.7615 183.534 16.8046 183.386 16.8837C183.215 16.9627 182.989 17.0489 182.712 17.1351C182.152 17.3003 181.379 17.4656 180.422 17.6164C178.812 17.8679 176.692 18.0978 173.757 18.3277C172.296 18.4426 170.822 18.5432 169.446 18.6438C168.51 18.7084 167.652 18.7659 166.865 18.8305C165.717 18.9168 164.88 18.9886 164.235 19.0604C163.221 19.1682 162.817 19.2544 162.604 19.3047C162.533 19.3262 162.462 19.3478 162.391 19.3765C160.846 20.0447 159.016 21.6898 159.116 25.7129C159.194 28.9313 160.463 32.4946 161.512 34.9229C162.831 37.9689 164.632 41.1011 166.447 43.5078C167.369 44.7291 168.255 45.7205 169.085 46.4605C170.028 47.301 170.885 47.7967 171.637 47.9404C172.325 48.0697 173.204 48.1415 174.246 48.1415C175.317 48.1415 176.508 48.0697 177.784 47.9332C179.798 47.7177 182.96 47.222 186.612 46.1084C191.972 44.4705 199.218 41.2376 203.316 35.1025C203.337 35.0665 203.359 35.0378 203.38 35.0019C205.422 31.3165 207.606 23.4355 199.31 11.9985C197.02 8.8447 194.191 5.85613 191.341 3.60033C190.008 2.54427 188.76 1.71092 187.618 1.11464C186.392 0.47526 185.357 0.151978 184.534 0.151978Z" fill="black"/>
<path opacity="0.2" d="M166.071 20.3248C165.433 20.3751 164.859 20.4254 164.376 20.4757C163.689 20.5475 163.207 20.6194 162.944 20.684C161.214 21.4312 160.47 23.1697 160.526 25.6626C160.583 28.1698 161.477 31.2662 162.802 34.3266C164.121 37.3798 165.858 40.354 167.567 42.617C168.418 43.7449 169.255 44.686 170.02 45.3685C170.8 46.0653 171.438 46.4317 171.899 46.5179C173.062 46.7406 175.097 46.7694 177.635 46.4892C180.159 46.2162 183.151 45.6487 186.2 44.7147C192.326 42.8469 198.622 39.5422 202.139 34.2763C202.976 32.7604 203.479 31.18 203.692 29.5564C203.869 28.2489 175.019 41.8627 166.071 20.3248Z" fill="#8A7CD8"/>
<path d="M190.462 4.72103C189.193 3.71526 188.001 2.92501 186.966 2.38621C185.91 1.84022 185.087 1.58878 184.527 1.58878C183.96 1.58878 183.641 1.76119 183.435 1.99108C183.208 2.24253 183.052 2.65202 182.989 3.26266C182.861 4.49832 183.145 6.2225 183.577 8.12628C183.74 8.85187 183.925 9.60619 184.109 10.3462C184.392 11.5028 184.676 12.6451 184.868 13.6436C185.031 14.477 185.137 15.2601 185.137 15.921C185.137 16.5604 185.038 17.2213 184.655 17.6883C184.478 17.9038 184.229 18.0547 183.988 18.1768C183.733 18.2989 183.435 18.4139 183.095 18.5072C182.428 18.7084 181.578 18.8736 180.62 19.0245C178.706 19.3262 176.281 19.5561 173.849 19.7501C172.389 19.865 170.907 19.9728 169.524 20.0662C168.61 20.1308 167.745 20.1883 166.95 20.253C166.639 20.2745 166.348 20.2961 166.057 20.3248C177.763 26.0074 191.802 28.4931 203.685 25.5548C203.153 21.1797 200.984 16.74 198.155 12.839C195.786 9.56309 192.993 6.73257 190.462 4.72103Z" fill="white"/>
<path d="M165.206 40.3755C167.206 48.5151 175.09 55.2825 182.811 55.4908C190.532 55.6992 198.948 49.37 196.942 41.2376L165.206 40.3755Z" fill="#B8AFE8" stroke="black" stroke-width="2"/>
<path d="M172.105 41.5178L166.561 41.3669C168.354 48.666 175.969 54.1905 182.896 54.3773C184.088 54.406 185.293 54.2839 186.463 54.0181C180.202 53.0195 173.863 48.005 172.105 41.5178Z" fill="#9F98E2"/>
<path d="M107.648 74.622C106.393 78.6882 102.323 82.7544 96.6582 82.7544C90.9931 82.7544 87.4621 78.6882 87.1289 74.622" stroke="black" stroke-width="2" stroke-miterlimit="10" stroke-linecap="round" stroke-linejoin="round"/>
<path d="M91.8965 53.1821C95.3941 43.6506 91.7194 33.4712 83.6888 30.4458C75.6581 27.4204 66.3126 32.6946 62.815 42.2261C59.3173 51.7576 62.992 61.9369 71.0227 64.9624C79.0533 67.9878 88.3988 62.7135 91.8965 53.1821Z" fill="white" stroke="black" stroke-width="2" stroke-miterlimit="10" stroke-linecap="round" stroke-linejoin="round"/>
<path d="M140.542 60.9549C148.457 54.1418 149.898 42.6866 143.762 35.3692C137.626 28.0517 126.236 27.6429 118.322 34.456C110.408 41.2691 108.966 52.7242 115.102 60.0417C121.238 67.3592 132.628 67.768 140.542 60.9549Z" fill="white" stroke="black" stroke-width="2" stroke-miterlimit="10" stroke-linecap="round" stroke-linejoin="round"/>
<path fill-rule="evenodd" clip-rule="evenodd" d="M98.1047 54.5856C90.7309 54.5856 84.4276 58.1202 84.0306 62.4881C83.825 64.8014 85.3139 66.8776 87.8522 68.3216C88.1855 66.4537 89.8871 64.9882 91.7944 64.9882C93.8151 64.9882 95.3041 66.6261 95.1197 68.652C95.063 69.2411 94.8716 69.7943 94.5809 70.29C95.2615 70.3547 95.9564 70.3906 96.6725 70.3906C97.3886 70.3906 98.0905 70.3547 98.7783 70.29C98.5727 69.7943 98.4805 69.2411 98.5372 68.652C98.7216 66.6261 100.508 64.9882 102.529 64.9882C104.436 64.9882 105.869 66.4537 105.869 68.3216C108.669 66.8776 110.534 64.8014 110.747 62.4881C111.144 58.1202 105.479 54.5856 98.1047 54.5856Z" fill="black"/>
<path d="M145.403 197.434H105.733C104.946 193.511 109.42 189.531 111.753 188.03" fill="#B8AFE8"/>
<path d="M145.403 197.434H105.733C104.946 193.511 109.42 189.531 111.753 188.03" stroke="black" stroke-width="2" stroke-miterlimit="10" stroke-linecap="round" stroke-linejoin="round"/>
<path d="M135.704 192.735H107.506C107.506 192.735 106.279 194.071 106.627 196.313L144.524 196.536" fill="#9F98E2"/>
<path d="M83.7785 56.7075C88.9425 51.7251 89.5147 43.8403 85.0564 39.0964C80.5981 34.3524 72.7977 34.5458 67.6336 39.5282C62.4695 44.5106 61.8974 52.3954 66.3556 57.1393C70.8139 61.8832 78.6144 61.6899 83.7785 56.7075Z" fill="black"/>
<path d="M65.3687 47.3154C70.3318 47.3297 73.9762 51.3097 73.6926 56.2954C73.6997 56.2954 73.7068 56.2954 73.7139 56.2954C73.721 56.2954 73.728 56.2954 73.7351 56.2954C74.4087 51.3097 78.8259 47.3297 83.7891 47.3225C78.7054 47.3154 74.983 43.1342 75.4864 37.9761C74.983 43.1199 70.4594 47.301 65.3687 47.3154Z" fill="#FCFD8A"/>
<path d="M133.863 57.8569C139.027 52.8745 139.599 44.9897 135.141 40.2458C130.683 35.5018 122.882 35.6952 117.718 40.6776C112.554 45.66 111.982 53.5448 116.44 58.2887C120.898 63.0327 128.699 62.8393 133.863 57.8569Z" fill="black"/>
<path d="M115.454 48.4648C120.417 48.4792 124.062 52.4591 123.778 57.4449C123.785 57.4449 123.792 57.4449 123.799 57.4449C123.806 57.4449 123.813 57.4449 123.821 57.4449C124.494 52.4591 128.911 48.4792 133.875 48.472C128.791 48.4648 125.068 44.2837 125.572 39.1255C125.068 44.2765 120.545 48.4576 115.454 48.4648Z" fill="#FCFD8A"/>
<path d="M91.8718 30.088C91.8718 30.088 91.7725 25.1813 86.1145 24.0821C84.1364 23.7013 82.4276 24.2832 81.1514 25.0304" stroke="black" stroke-width="2" stroke-miterlimit="10" stroke-linecap="round" stroke-linejoin="round"/>
<path d="M113.611 30.8854C113.611 30.8854 114.157 24.858 121.219 24.0246C123.686 23.7301 125.735 24.5993 127.238 25.641" stroke="black" stroke-width="2" stroke-miterlimit="10" stroke-linecap="round" stroke-linejoin="round"/>
<path d="M56.7612 68.9466C55.8466 58.2926 46.5583 50.3758 36.0435 51.3025C25.5287 52.2221 17.7153 61.6404 18.6299 72.2944C19.4311 81.648 26.6986 88.8896 35.5756 89.8881L36.8164 104.378L32.6331 104.745C30.5628 104.924 29.0384 106.771 29.2156 108.868C29.3929 110.966 31.2151 112.511 33.2854 112.331L37.4687 111.965L37.9012 117.015L33.7179 117.382C31.6476 117.561 30.1232 119.407 30.3004 121.505C30.4777 123.603 32.2999 125.148 34.3702 124.968L42.2971 124.271C44.3675 124.091 45.8919 122.245 45.7146 120.147L43.0558 89.2344C51.6279 86.6984 57.5624 78.3003 56.7612 68.9466ZM38.6953 82.3521C32.307 82.9124 26.6631 78.1063 26.1101 71.6334C25.5571 65.1606 30.3004 59.4421 36.6887 58.8817C43.077 58.3214 48.7209 63.1275 49.2739 69.6003C49.8269 76.0732 45.0836 81.7917 38.6953 82.3521Z" fill="#FAFC7D" stroke="black" stroke-width="2" stroke-linecap="round" stroke-linejoin="round"/>
<path d="M50.7414 90.7287C50.7414 90.7287 46.0973 85.5921 43.3179 88.2789C40.5385 90.9657 45.2393 98.624 45.2393 98.624" fill="#B8AFE8"/>
<path d="M50.7414 90.7287C50.7414 90.7287 46.0973 85.5921 43.3179 88.2789C40.5385 90.9657 45.2393 98.624 45.2393 98.624" stroke="black" stroke-width="2" stroke-miterlimit="10" stroke-linecap="round" stroke-linejoin="round"/>
<path d="M129.741 117.216L132.811 120.923C132.811 120.923 131.669 119.307 129.741 117.216Z" fill="#B8AFE8"/>
<path d="M131.5 135.026C136.463 128.323 132.691 120.887 127.869 115.305C123.587 111.182 117.028 106.584 110.229 108.308C98.6009 111.254 98.5583 130.327 121.517 140.141C122.842 140.708 124.133 141.161 125.388 141.527C127.827 139.803 129.926 137.684 131.5 135.026Z" fill="#B8AFE8"/>
<path d="M137.455 110.988L125.997 112.705L129.734 117.216C131.662 119.307 132.804 120.923 132.804 120.923L129.734 117.216C129.173 116.613 128.549 115.966 127.862 115.305C132.676 120.887 136.448 128.323 131.492 135.026C129.918 137.684 127.819 139.803 125.387 141.527C145.878 147.547 156.45 128.129 137.455 110.988Z" fill="#9F98E2"/>
<path d="M132.811 120.931C132.811 120.931 121.864 105.37 110.228 108.316C98.5934 111.261 98.5579 130.335 121.516 140.148C144.474 149.954 157.613 129.185 137.455 110.995L125.997 112.712" stroke="black" stroke-width="2" stroke-miterlimit="10" stroke-linecap="round" stroke-linejoin="round"/>
<path d="M49.1959 183.252L49.4369 190.4C49.4369 193.102 42.8643 195.293 34.7601 195.293C26.656 195.293 20.0834 193.102 20.0834 190.4L19.8423 183.252" fill="#FF833D"/>
<path d="M49.1959 183.252L49.4369 190.4C49.4369 193.102 42.8643 195.293 34.7601 195.293C26.656 195.293 20.0834 193.102 20.0834 190.4L19.8423 183.252" stroke="black" stroke-width="2" stroke-linecap="round" stroke-linejoin="round"/>
<mask id="mask1_2_1942" style="mask-type:luminance" maskUnits="userSpaceOnUse" x="19" y="183" width="31" height="13">
<path d="M49.1959 183.252L49.4369 190.4C49.4369 193.102 42.8643 195.293 34.7601 195.293C26.656 195.293 20.0834 193.102 20.0834 190.4L19.8423 183.252" fill="white"/>
</mask>
<g mask="url(#mask1_2_1942)">
<path d="M45.1898 194.352L45.1401 187.52" stroke="black" stroke-width="2" stroke-linecap="round" stroke-linejoin="round"/>
<path d="M39.8722 194.129L39.8154 187.024" stroke="black" stroke-width="2" stroke-linecap="round" stroke-linejoin="round"/>
<path d="M34.5543 193.906L34.4976 186.535" stroke="black" stroke-width="2" stroke-linecap="round" stroke-linejoin="round"/>
<path d="M29.2367 193.683L29.1729 186.047" stroke="black" stroke-width="2" stroke-linecap="round" stroke-linejoin="round"/>
<path d="M23.919 193.461L23.8481 185.551" stroke="black" stroke-width="2" stroke-linecap="round" stroke-linejoin="round"/>
</g>
<path d="M34.5191 188.145C42.6248 188.145 49.1959 185.954 49.1959 183.252C49.1959 180.55 42.6248 178.36 34.5191 178.36C26.4133 178.36 19.8423 180.55 19.8423 183.252C19.8423 185.954 26.4133 188.145 34.5191 188.145Z" fill="#FAFC7D" stroke="black" stroke-width="2" stroke-linecap="round" stroke-linejoin="round"/>
<path d="M25.1883 171.786L29.4779 177.469C31.0236 179.675 26.9325 185.321 20.3315 190.084C13.7305 194.847 7.12237 196.924 5.5767 194.725L1.28711 189.043" fill="#FF833D"/>
<path d="M25.1883 171.786L29.4779 177.469C31.0236 179.675 26.9325 185.321 20.3315 190.084C13.7305 194.847 7.12237 196.924 5.5767 194.725L1.28711 189.043" stroke="black" stroke-width="2" stroke-linecap="round" stroke-linejoin="round"/>
<mask id="mask2_2_1942" style="mask-type:luminance" maskUnits="userSpaceOnUse" x="1" y="171" width="29" height="25">
<path d="M25.1883 171.786L29.4779 177.469C31.0236 179.675 26.9325 185.321 20.3315 190.084C13.7305 194.847 7.12237 196.924 5.5767 194.725L1.28711 189.043" fill="white"/>
</mask>
<g mask="url(#mask2_2_1942)">
<path d="M28.2869 183.18L24.3306 177.641" stroke="black" stroke-width="2" stroke-linecap="round" stroke-linejoin="round"/>
<path d="M23.8272 186.126L19.7148 180.371" stroke="black" stroke-width="2" stroke-linecap="round" stroke-linejoin="round"/>
<path d="M19.3672 189.071L15.0918 183.101" stroke="black" stroke-width="2" stroke-linecap="round" stroke-linejoin="round"/>
<path d="M14.9075 192.017L10.4761 185.831" stroke="black" stroke-width="2" stroke-linecap="round" stroke-linejoin="round"/>
<path d="M10.4477 194.955L5.86035 188.561" stroke="black" stroke-width="2" stroke-linecap="round" stroke-linejoin="round"/>
</g>
<path d="M16.0386 184.393C22.6408 179.628 26.7386 173.981 25.1914 171.78C23.6442 169.58 17.0378 171.659 10.4357 176.424C3.83354 181.189 -0.264296 186.836 1.28291 189.037C2.83012 191.237 9.43648 189.159 16.0386 184.393Z" fill="#FAFC7D" stroke="black" stroke-width="2" stroke-linecap="round" stroke-linejoin="round"/>
<path d="M168.284 183.252L168.042 190.4C168.042 193.102 174.615 195.293 182.719 195.293C190.823 195.293 197.396 193.102 197.396 190.4L197.637 183.252" fill="#FF833D"/>
<path d="M168.284 183.252L168.042 190.4C168.042 193.102 174.615 195.293 182.719 195.293C190.823 195.293 197.396 193.102 197.396 190.4L197.637 183.252" stroke="black" stroke-width="2" stroke-linecap="round" stroke-linejoin="round"/>
<mask id="mask3_2_1942" style="mask-type:luminance" maskUnits="userSpaceOnUse" x="168" y="183" width="30" height="13">
<path d="M168.284 183.252L168.042 190.4C168.042 193.102 174.615 195.293 182.719 195.293C190.823 195.293 197.396 193.102 197.396 190.4L197.637 183.252" fill="white"/>
</mask>
<g mask="url(#mask3_2_1942)">
<path d="M172.29 194.352L172.332 187.52" stroke="black" stroke-width="2" stroke-linecap="round" stroke-linejoin="round"/>
<path d="M177.607 194.129L177.657 187.024" stroke="black" stroke-width="2" stroke-linecap="round" stroke-linejoin="round"/>
<path d="M182.925 193.906L182.982 186.535" stroke="black" stroke-width="2" stroke-linecap="round" stroke-linejoin="round"/>
<path d="M188.243 193.683L188.306 186.047" stroke="black" stroke-width="2" stroke-linecap="round" stroke-linejoin="round"/>
<path d="M193.56 193.461L193.631 185.551" stroke="black" stroke-width="2" stroke-linecap="round" stroke-linejoin="round"/>
</g>
<path d="M182.96 188.145C191.066 188.145 197.637 185.954 197.637 183.252C197.637 180.55 191.066 178.36 182.96 178.36C174.855 178.36 168.284 180.55 168.284 183.252C168.284 185.954 174.855 188.145 182.96 188.145Z" fill="#FAFC7D" stroke="black" stroke-width="2" stroke-linecap="round" stroke-linejoin="round"/>
</g>
<defs>
<clipPath id="clip0_2_1942">
<rect width="205" height="198" fill="white" transform="translate(0.244629 0.151978)"/>
</clipPath>
</defs>
</svg>
