<svg width="595" height="415" viewBox="0 0 595 415" fill="none" xmlns="http://www.w3.org/2000/svg">
<path d="M449.359 304.356L364.516 312.112C351.22 313.332 338.506 307.355 331.626 296.648L368.75 70.4464L469.471 49.0863C481.622 53.7021 489.021 65.4133 487.682 77.9456L465.207 289.35C464.373 297.268 457.683 303.601 449.359 304.356Z" fill="black" stroke="black" stroke-width="2"/>
<path d="M439.439 291.931L342.506 300.797C335.378 301.455 329.526 295.83 330.236 289.056L353.659 68.7628C354.216 63.5463 358.551 59.3404 364.022 58.7376L461.159 47.8489C468.366 47.0457 474.402 52.6776 473.662 59.5664L450.023 281.895C449.461 287.2 444.984 291.432 439.415 291.958L439.439 291.931Z" fill="#FFF7B1" stroke="black" stroke-width="2"/>
<path d="M429.264 61.7223L384.815 66.0305C382.577 66.2475 380.912 68.0762 381.095 70.1151L381.322 72.6322C381.506 74.6711 383.469 76.1481 385.707 75.9312L430.156 71.6229C432.394 71.406 434.06 69.5773 433.876 67.5384L433.649 65.0213C433.465 62.9823 431.502 61.5053 429.264 61.7223Z" fill="black" stroke="black" stroke-width="2"/>
<path d="M334.655 180.072C334.655 180.072 316.194 126.847 301.491 116.662C286.777 106.491 257.332 126.401 275.767 149.846C294.202 173.292 333.176 207.428 333.176 207.428C333.176 207.428 314.551 268.405 347.744 300.541C347.744 300.541 409.071 297.718 442.137 293.342C442.137 293.342 412.856 230.508 399.73 213.785" fill="#B8AFE8"/>
<path d="M334.655 180.072C334.655 180.072 316.194 126.847 301.491 116.662C286.777 106.491 257.332 126.401 275.767 149.846C294.202 173.292 333.176 207.428 333.176 207.428C333.176 207.428 314.551 268.405 347.744 300.541C347.744 300.541 409.071 297.718 442.137 293.342C442.137 293.342 412.856 230.508 399.73 213.785" stroke="black" stroke-width="2"/>
<path d="M360.004 128.66C359.78 128.484 359.541 128.297 359.315 128.096C356.032 125.222 353.008 120.345 350.077 113.197C346.695 102.34 355.664 92.7188 361.323 87.9445C365.006 84.837 369.293 82.0659 373.403 80.1208C375.277 79.2474 377.063 78.557 378.572 78.1555C380.133 77.7488 381.378 77.6227 382.269 77.7935C382.854 77.9082 383.331 78.1209 383.737 78.4402C383.934 78.5943 384.106 78.7757 384.255 78.9844C384.683 79.55 384.917 80.2846 384.997 81.2211C385.113 82.7133 384.845 84.6173 384.105 87.4143C383.807 88.5134 383.472 89.6287 383.16 90.7168C382.805 91.9087 382.489 92.9475 382.244 93.9045C381.959 94.99 381.807 95.8132 381.733 96.4671C381.655 97.2332 381.727 97.7727 381.915 98.1266C382.179 98.6095 382.5 98.9995 382.921 99.3298C383.426 99.7261 384.041 100.024 384.94 100.294C385.316 100.405 385.718 100.513 386.094 100.624L386.978 100.858C387.567 101.022 388.333 101.255 389.112 101.636C389.346 101.774 389.472 101.873 389.584 101.961C391.507 103.469 392.04 105.864 391.19 109.057C390.221 112.685 387.709 116.482 385.768 119.003C383.311 122.223 380.249 125.404 377.351 127.748C375.908 128.914 374.575 129.844 373.375 130.488C372.113 131.175 371.056 131.518 370.244 131.501C366.233 131.87 362.975 130.945 360.014 128.622L360.004 128.66Z" fill="white"/>
<path d="M383.159 79.1292C383.299 79.2393 383.427 79.363 383.532 79.514C383.844 79.9424 384.038 80.5317 384.106 81.3204C384.242 82.8977 383.834 84.99 383.229 87.2266C382.943 88.3122 382.607 89.4276 382.281 90.5047L382.246 90.5457C381.936 91.6585 381.61 92.7356 381.356 93.7309C381.087 94.7152 380.892 95.6424 380.817 96.4331C380.739 97.1993 380.767 97.9796 381.105 98.5668C381.446 99.1787 381.868 99.6704 382.331 100.034C383.018 100.573 383.818 100.902 384.638 101.155C385.042 101.288 385.484 101.405 385.926 101.522C386.194 101.594 386.462 101.666 386.715 101.728C387.399 101.919 388.059 102.138 388.688 102.448C388.786 102.525 388.884 102.602 388.982 102.679C390.666 104 391.021 106.139 390.29 108.898C389.509 111.824 387.528 115.256 385.024 118.531C382.519 121.805 379.526 124.88 376.763 127.124C375.381 128.246 374.072 129.149 372.948 129.76C371.785 130.387 370.88 130.666 370.277 130.652C370.263 130.641 370.225 130.657 370.199 130.66C366.615 130.973 363.505 130.257 360.615 127.989C360.404 127.824 360.18 127.647 359.967 127.458C356.841 124.729 353.918 120.115 350.952 112.87C348.201 104.025 354.139 95.1949 361.944 88.6118C365.822 85.3352 370.095 82.6899 373.815 80.9209C375.675 80.0364 377.387 79.4031 378.832 79.0205C380.303 78.6353 381.395 78.5496 382.086 78.6785C382.552 78.768 382.892 78.92 383.173 79.1402M384.364 77.7766C383.858 77.3803 383.232 77.0957 382.501 76.9584C381.475 76.7515 380.087 76.8798 378.386 77.3379C376.787 77.7609 374.988 78.4403 373.052 79.3574C368.866 81.3351 364.502 84.1389 360.76 87.3148C354.942 92.2173 345.698 102.153 349.206 113.408C349.21 113.457 349.24 113.504 349.256 113.539C352.273 120.916 355.281 125.757 358.718 128.753C358.971 128.951 359.197 129.152 359.436 129.339C362.537 131.772 366.09 132.767 370.284 132.404C371.252 132.405 372.448 132.011 373.824 131.275C375.074 130.601 376.457 129.641 377.95 128.445C380.896 126.046 384.006 122.81 386.51 119.536C388.497 116.936 391.08 113.057 392.089 109.275C393.264 104.843 391.7 102.491 390.185 101.302C390.059 101.203 389.918 101.092 389.78 101.007C389.71 100.952 389.628 100.911 389.56 100.88C388.727 100.48 387.908 100.227 387.278 100.055C387.036 99.9798 386.768 99.9075 386.5 99.8352C386.058 99.7183 385.642 99.5989 385.266 99.4878C384.487 99.2436 383.954 98.9867 383.533 98.6565C383.211 98.4033 382.961 98.0929 382.746 97.7169C382.685 97.6236 382.594 97.3221 382.67 96.5314C382.735 95.9157 382.888 95.117 383.152 94.0834C383.397 93.1264 383.713 92.0875 384.027 91.024L382.279 90.4801L384.044 90.9228C384.368 89.821 384.704 88.7056 385.013 87.5928C385.785 84.7054 386.07 82.7001 385.946 81.1092C385.853 80.0248 385.54 79.1366 385.05 78.4529C384.857 78.1865 384.614 77.9501 384.347 77.7409L384.364 77.7766Z" fill="black"/>
<path opacity="0.2" d="M381.55 93.111C381.501 93.3027 381.438 93.4833 381.401 93.6613C381.132 94.647 380.937 95.5754 380.861 96.3673C380.784 97.1345 380.812 97.9159 381.151 98.5041C381.991 100.037 383.33 100.674 384.69 101.097C385.094 101.23 385.537 101.347 385.979 101.464C386.248 101.537 386.516 101.609 386.77 101.671C387.455 101.863 388.116 102.082 388.76 102.403C390.706 103.7 391.148 105.933 390.378 108.849C389.596 111.779 387.613 115.216 385.106 118.495C382.598 121.773 379.601 124.852 376.834 127.098C375.451 128.222 374.14 129.126 373.014 129.738C371.849 130.366 370.943 130.644 370.339 130.631C370.325 130.62 370.287 130.636 370.261 130.638C366.4 130.991 363.101 130.105 360.011 127.405C356.879 124.672 353.951 120.051 350.979 112.795C348.444 104.686 353.233 96.571 360.072 90.2031C360.072 90.2031 367.507 90.7213 371.1 91.217C374.694 91.7127 381.573 93.0837 381.573 93.0837L381.55 93.111Z" fill="#8A7CD8"/>
<path d="M312.871 126.512C304.522 142.43 305.775 157.839 313.758 171.408C321.758 185.013 336.533 196.836 355.279 205.414C374.04 214.004 392.969 217.863 409.328 215.511C425.635 213.165 439.427 204.651 447.964 188.327C457.585 169.974 456.249 152.84 448.263 138.324C440.26 123.772 425.567 111.829 408.418 103.974C370.993 86.8476 327.381 98.8121 312.883 126.499L312.871 126.512Z" fill="#B8AFE8" stroke="black" stroke-width="2"/>
<path d="M324.381 160.507C331.58 165.396 341.703 161.508 344.991 158.449" stroke="black" stroke-width="2" stroke-linecap="round" stroke-linejoin="round"/>
<path d="M373.885 150.877C381.689 143.556 382.855 132.654 376.488 126.526C370.122 120.399 358.635 121.366 350.831 128.687C343.027 136.009 341.861 146.911 348.227 153.038C354.594 159.165 366.081 158.198 373.885 150.877Z" fill="white" stroke="black" stroke-width="2" stroke-linejoin="round"/>
<path d="M349.306 149.073C353.538 152.014 360.683 149.61 365.264 143.705C369.845 137.8 370.127 130.628 365.894 127.687C361.662 124.746 354.517 127.149 349.936 133.055C345.355 138.96 345.073 146.132 349.306 149.073Z" fill="black"/>
<path d="M353.588 124.194L374.862 123.048L375.797 121.273" stroke="black" stroke-width="2" stroke-linecap="round" stroke-linejoin="round"/>
<path d="M378.468 121.039L353.073 123.947" stroke="black" stroke-width="2" stroke-linecap="round" stroke-linejoin="round"/>
<path d="M316.916 135.211C320.165 137.354 327.388 132.86 333.049 125.172C338.71 117.485 340.666 109.516 337.416 107.373C334.167 105.23 326.944 109.725 321.283 117.412C315.622 125.099 313.667 133.068 316.916 135.211Z" fill="white" stroke="black" stroke-width="2" stroke-linejoin="round"/>
<path d="M320.551 133.948C322.435 135.168 327.339 131.482 331.505 125.715C335.67 119.949 337.519 114.286 335.635 113.066C333.751 111.847 328.847 115.533 324.681 121.299C320.516 127.065 318.667 132.729 320.551 133.948Z" fill="black"/>
<path d="M347.83 132.239C351.363 134.528 351.482 140.158 348.183 144.991C351.746 140.343 357.375 138.418 360.906 140.683C357.289 138.327 357.229 132.467 360.796 127.569C357.243 132.478 351.431 134.558 347.79 132.23L347.83 132.239Z" fill="#FFCB27"/>
<path d="M324.653 119.329C326.881 120.779 326.417 125.094 323.652 129.073C326.583 125.202 330.684 123.235 332.909 124.66C330.626 123.166 331.166 118.682 334.095 114.625C331.155 118.695 326.907 120.776 324.614 119.321L324.653 119.329Z" fill="#FFCB27"/>
<path d="M339.46 116.892L336.477 106.169L338.587 105.083" stroke="black" stroke-width="2" stroke-linecap="round" stroke-linejoin="round"/>
<path d="M338.434 102.515L339.19 117.374" stroke="black" stroke-width="2" stroke-linecap="round" stroke-linejoin="round"/>
<path fill-rule="evenodd" clip-rule="evenodd" d="M316.393 140.163C316.382 140.039 316.357 139.904 316.347 139.781C316.332 139.608 316.329 139.421 316.328 139.259C316.317 139.135 316.32 139.022 316.322 138.885C316.333 138.709 316.356 138.52 316.381 138.355C316.384 138.242 316.414 138.127 316.417 138.015C316.452 137.811 316.515 137.63 316.564 137.438C316.596 137.348 316.613 137.246 316.645 137.156C316.74 136.884 316.86 136.61 317.007 136.333C317.142 136.07 317.303 135.804 317.492 135.561C317.552 135.492 317.623 135.41 317.683 135.342C317.815 135.191 317.946 135.041 318.089 134.876C318.161 134.794 318.259 134.71 318.345 134.639C318.478 134.513 318.612 134.387 318.759 134.272C318.857 134.188 318.969 134.114 319.069 134.054C319.216 133.939 319.366 133.849 319.528 133.745C319.64 133.672 319.766 133.609 319.892 133.547C320.055 133.468 320.217 133.364 320.395 133.296C320.521 133.233 320.661 133.182 320.775 133.133C320.953 133.065 321.131 132.997 321.309 132.929C321.449 132.878 321.577 132.84 321.731 132.799C321.923 132.742 322.103 132.699 322.295 132.642C322.437 132.616 322.591 132.575 322.733 132.548C322.928 132.516 323.134 132.47 323.328 132.438C323.406 132.43 323.47 132.411 323.548 132.403C325.626 132.143 327.958 132.382 330.282 133.145C330.417 133.181 330.539 133.231 330.676 133.292C330.798 133.342 330.919 133.367 331.041 133.417C331.381 133.545 331.734 133.684 332.089 133.848C332.445 134.012 332.76 134.167 333.092 134.358C333.203 134.422 333.313 134.485 333.424 134.549C333.548 134.624 333.671 134.674 333.783 134.762C335.86 135.999 337.479 137.57 338.532 139.272C338.577 139.33 338.595 139.39 338.64 139.448C338.733 139.614 338.84 139.79 338.933 139.955C339.01 140.085 339.061 140.217 339.123 140.335C339.204 140.514 339.271 140.682 339.338 140.85C339.389 140.982 339.44 141.114 339.477 141.235C339.544 141.403 339.585 141.573 339.64 141.755C339.677 141.876 339.715 142.022 339.738 142.132C339.779 142.302 339.808 142.486 339.823 142.66C339.834 142.783 339.859 142.918 339.869 143.042C339.884 143.215 339.887 143.402 339.888 143.564C339.899 143.687 339.895 143.8 339.894 143.937C339.883 144.113 339.86 144.303 339.835 144.467C339.831 144.58 339.802 144.695 339.799 144.808C339.764 145.011 339.7 145.192 339.651 145.384C339.62 145.475 339.602 145.576 339.571 145.667C339.476 145.938 339.355 146.212 339.209 146.489C339.074 146.752 338.913 147.018 338.724 147.262C338.664 147.33 338.592 147.412 338.533 147.481C338.401 147.631 338.27 147.782 338.126 147.946C338.055 148.028 337.957 148.113 337.871 148.184C337.738 148.31 337.604 148.435 337.456 148.55C337.359 148.635 337.247 148.709 337.147 148.769C336.999 148.883 336.85 148.973 336.688 149.077C336.576 149.151 336.45 149.213 336.336 149.262C336.172 149.341 336.011 149.445 335.833 149.513C335.707 149.575 335.579 149.613 335.453 149.676C335.275 149.744 335.097 149.812 334.919 149.88C334.779 149.931 334.651 149.969 334.497 150.01C334.305 150.066 334.113 150.123 333.933 150.166C333.791 150.193 333.637 150.234 333.494 150.261C333.3 150.293 333.094 150.339 332.886 150.36C332.808 150.367 332.744 150.386 332.666 150.394C330.587 150.654 328.256 150.416 325.931 149.653C325.797 149.617 325.674 149.567 325.538 149.506C325.415 149.456 325.295 149.43 325.172 149.38C324.833 149.252 324.48 149.113 324.124 148.95C323.769 148.786 323.453 148.631 323.122 148.44C323.011 148.376 322.901 148.313 322.79 148.249C322.665 148.174 322.543 148.124 322.43 148.036C320.354 146.798 318.734 145.228 317.681 143.526C317.637 143.468 317.618 143.407 317.574 143.349C317.481 143.184 317.388 143.019 317.295 142.854C317.218 142.724 317.167 142.592 317.104 142.474C317.023 142.295 316.956 142.127 316.889 141.959C316.839 141.827 316.788 141.695 316.737 141.563C316.67 141.395 316.629 141.224 316.574 141.043C316.537 140.922 316.498 140.776 316.462 140.655C316.421 140.484 316.406 140.311 316.377 140.127L316.393 140.163Z" fill="black"/>
<path d="M327.458 152.422C329.12 153.725 331.609 153.474 333.019 151.859C334.429 150.245 334.224 147.88 332.562 146.576C330.901 145.272 328.411 145.524 327.001 147.138C325.592 148.752 325.796 151.118 327.458 152.422Z" fill="#B8AFE8"/>
<path d="M405.658 151.166C405.125 150.748 404.614 150.277 404.112 149.769C403.495 149.285 402.971 148.368 402.533 147.083C402.113 145.857 401.8 144.348 401.569 142.581C401.134 139.046 401.172 134.779 401.67 130.85C402.072 127.764 402.951 123.399 404.853 120.112C406.653 117.021 408.938 115.596 411.63 115.871C412.591 116.096 413.338 116.406 413.894 116.636L414.642 116.97C415.036 117.141 415.444 117.324 415.825 117.484C416.949 117.93 418.182 118.277 419.655 117.755C420.061 117.614 420.501 117.247 420.984 116.638C421.423 116.109 421.898 115.402 422.468 114.425C422.981 113.54 423.513 112.579 424.054 111.579C424.64 110.476 425.205 109.449 425.787 108.458C427.243 105.924 428.427 104.325 429.595 103.312C430.324 102.666 431.037 102.283 431.755 102.111C432.539 101.945 433.334 102.063 434.088 102.472C434.267 102.565 434.461 102.695 434.657 102.849C435.275 103.333 435.913 104.064 436.559 105.03C437.398 106.263 438.231 107.881 438.977 109.708C440.616 113.705 441.795 118.421 442.27 123.021C442.995 130.07 442.691 142.791 432.381 148.695C424.965 152.206 419.189 153.947 414.67 154.032C411.117 154.093 408.172 153.161 405.632 151.169L405.658 151.166Z" fill="white"/>
<path d="M434.074 103.542C434.594 103.949 435.174 104.611 435.79 105.531C436.584 106.706 437.385 108.253 438.129 110.055C439.617 113.658 440.867 118.292 441.363 123.14C442.386 132.881 440.376 143.115 431.937 147.96C424.508 151.485 418.981 153.076 414.697 153.162C411.235 153.227 408.525 152.296 406.238 150.501C405.733 150.105 405.25 149.657 404.764 149.184C404.75 149.173 404.722 149.151 404.694 149.129C404.231 148.765 403.772 147.992 403.368 146.802C402.967 145.637 402.656 144.152 402.445 142.47C402.023 139.082 402.033 134.954 402.54 130.963C403.046 126.971 404.069 123.2 405.618 120.533C407.155 117.878 409.079 116.515 411.468 116.758C412.163 116.936 412.826 117.18 413.452 117.464C413.696 117.564 413.942 117.688 414.2 117.799C414.608 117.981 415.031 118.175 415.411 118.335C416.739 118.872 418.197 119.234 419.91 118.625C420.584 118.395 421.164 117.839 421.66 117.217C422.182 116.593 422.712 115.768 423.225 114.883C423.749 113.985 424.291 112.985 424.845 111.972L424.892 111.918C425.42 110.907 425.986 109.88 426.554 108.878C427.739 106.844 428.932 105.045 430.186 103.961C430.794 103.427 431.381 103.106 431.919 102.977C432.446 102.862 432.987 102.919 433.592 103.255C433.73 103.341 433.868 103.426 434.023 103.547M435.213 102.184C434.989 102.007 434.752 101.845 434.52 101.732C433.559 101.207 432.538 101.05 431.537 101.276C430.664 101.463 429.802 101.936 428.949 102.669C427.683 103.767 426.452 105.42 424.938 108.047C424.359 109.063 423.793 110.09 423.253 111.114L424.845 111.972L423.208 111.193C422.678 112.179 422.146 113.141 421.645 114.012C421.097 114.937 420.633 115.631 420.231 116.119C419.723 116.755 419.422 116.909 419.321 116.945C418.217 117.342 417.309 117.136 416.171 116.679C415.805 116.53 415.411 116.359 415.042 116.185C414.77 116.063 414.512 115.952 414.28 115.839C413.696 115.588 412.895 115.258 412 115.038C411.92 115.022 411.826 114.994 411.734 114.991C409.583 114.774 406.524 115.407 404.026 119.675C402.032 123.096 401.137 127.587 400.728 130.736C400.219 134.703 400.176 139.058 400.618 142.668C400.841 144.497 401.172 146.067 401.622 147.339C402.111 148.756 402.709 149.777 403.429 150.388C403.959 150.919 404.484 151.4 405.031 151.829C407.739 153.954 410.887 154.953 414.662 154.881C419.377 154.789 425.104 153.078 432.697 149.499C432.747 149.469 432.785 149.453 432.835 149.423C443.581 143.263 443.931 130.164 443.174 122.906C442.693 118.232 441.494 113.431 439.822 109.361C439.044 107.464 438.211 105.845 437.314 104.544C436.61 103.509 435.913 102.709 435.225 102.17L435.213 102.184Z" fill="black"/>
<path opacity="0.2" d="M405.699 120.367C406.921 118.26 408.411 116.962 410.182 116.646C408.757 130.234 417.503 141.222 428.432 149.52C422.784 151.912 418.366 153.032 414.801 153.093C410.555 153.173 407.467 151.764 404.86 149.097C404.846 149.086 404.818 149.064 404.79 149.042C404.325 148.677 403.865 147.901 403.459 146.707C403.057 145.538 402.744 144.048 402.533 142.361C402.108 138.962 402.117 134.821 402.625 130.816C403.132 126.812 404.157 123.029 405.711 120.353L405.699 120.367Z" fill="#8A7CD8"/>
<path d="M425.545 161.352C409.278 177.669 394.295 156.981 398.984 162.114C392.175 154.647 393.018 142.199 400.88 134.311L428.073 158.811L425.557 161.338L425.545 161.352Z" fill="#8A7CD8"/>
<path d="M427.69 158.289C420.656 165.337 409.093 165.781 401.846 159.239C394.598 152.697 394.425 141.703 401.47 134.641L427.702 158.275L427.69 158.289Z" fill="#B8AFE8" stroke="black" stroke-width="2"/>
<path d="M410.607 276.906C410.607 276.906 403.131 255.527 388.425 232.764L410.607 276.906Z" fill="#B8AFE8"/>
<path d="M410.607 276.906C410.607 276.906 403.131 255.527 388.425 232.764" stroke="black" stroke-width="2" stroke-linecap="round" stroke-linejoin="round"/>
<path d="M376.494 283.806C376.494 283.806 365.164 264.522 357.521 239.377L376.494 283.806Z" fill="#B8AFE8"/>
<path d="M376.494 283.806C376.494 283.806 365.164 264.522 357.521 239.377" stroke="black" stroke-width="2" stroke-linecap="round" stroke-linejoin="round"/>
<path d="M410.071 275.081C410.071 275.081 419.204 298.6 393.784 301.582C379.561 303.256 366.603 301.967 365.412 293.274C364.22 284.58 373.31 274.477 387.502 272.618" fill="#B8AFE8"/>
<path d="M410.071 275.081C410.071 275.081 419.204 298.6 393.784 301.582C379.561 303.256 366.603 301.967 365.412 293.274C364.22 284.58 373.31 274.477 387.502 272.618" stroke="black" stroke-width="2" stroke-linecap="round" stroke-linejoin="round"/>
<path d="M438.966 268.56C432.476 267.614 428.025 260.837 430.355 254.533L436.004 239.267L445.487 248.442C448.063 250.943 449.882 254.091 450.498 257.513C451.499 263.069 449.093 265.72 445.92 267.338C446.962 272.542 447.749 281.863 442.919 290.676L442.896 290.703C442.061 292.216 439.749 292.07 438.979 290.516C438.524 289.57 438.017 288.629 437.497 287.701C437.188 287.141 437.157 286.484 437.423 285.902C440.354 279.324 439.736 272.442 438.964 268.535L438.966 268.56Z" fill="#B8AFE8" stroke="black" stroke-width="2"/>
<path d="M265.765 112.299L262.19 117.24C259.732 120.628 263.892 127.339 271.461 132.215C279.045 137.103 287.167 138.321 289.625 134.933L293.2 129.992" fill="#FF833D"/>
<path d="M265.765 112.299L262.19 117.24C259.732 120.628 263.892 127.339 271.461 132.215C279.045 137.103 287.167 138.321 289.625 134.933L293.2 129.992" stroke="black" stroke-width="2" stroke-linecap="round" stroke-linejoin="round"/>
<path d="M274.952 127.365C282.519 132.26 290.642 133.478 293.095 130.085C295.547 126.691 291.401 119.972 283.834 115.077C276.266 110.182 268.144 108.964 265.691 112.357C263.239 115.75 267.385 122.47 274.952 127.365Z" fill="#FAFC7D" stroke="black" stroke-width="2" stroke-linecap="round" stroke-linejoin="round"/>
<path d="M192.271 153.64L187.779 157.859C184.699 160.76 187.414 168.117 193.833 174.31C200.252 180.504 207.948 183.191 211.028 180.29L215.52 176.07" fill="#FF833D"/>
<path d="M192.271 153.64L187.779 157.859C184.699 160.76 187.414 168.117 193.833 174.31C200.252 180.504 207.948 183.191 211.028 180.29L215.52 176.07" stroke="black" stroke-width="2" stroke-linecap="round" stroke-linejoin="round"/>
<path d="M215.47 176.122C218.552 173.231 215.838 165.87 209.406 159.68C202.975 153.491 195.263 150.817 192.181 153.708C189.099 156.599 191.814 163.961 198.245 170.15C204.676 176.34 212.388 179.013 215.47 176.122Z" fill="#FAFC7D" stroke="black" stroke-width="2" stroke-linecap="round" stroke-linejoin="round"/>
<path d="M204.041 144.68L199.189 148.521C195.864 151.158 197.861 158.733 203.665 165.46C209.469 172.187 216.873 175.501 220.186 172.878L225.038 169.037" fill="#FF833D"/>
<path d="M204.041 144.68L199.189 148.521C195.864 151.158 197.861 158.733 203.665 165.46C209.469 172.187 216.873 175.501 220.186 172.878L225.038 169.037" stroke="black" stroke-width="2" stroke-linecap="round" stroke-linejoin="round"/>
<path d="M225.027 169.058C228.365 166.435 226.352 158.867 220.53 152.155C214.709 145.442 207.285 142.127 203.947 144.75C200.609 147.373 202.622 154.941 208.443 161.654C214.265 168.366 221.689 171.681 225.027 169.058Z" fill="#FAFC7D" stroke="black" stroke-width="2" stroke-linecap="round" stroke-linejoin="round"/>
<path d="M216.099 135.215L211.247 139.056C207.923 141.693 209.919 149.267 215.723 155.994C221.528 162.722 228.932 166.036 232.244 163.413L237.096 159.572" fill="#FF833D"/>
<path d="M216.099 135.215L211.247 139.056C207.923 141.693 209.919 149.267 215.723 155.994C221.528 162.722 228.932 166.036 232.244 163.413L237.096 159.572" stroke="black" stroke-width="2" stroke-linecap="round" stroke-linejoin="round"/>
<path d="M237.089 159.587C240.426 156.964 238.413 149.396 232.592 142.683C226.771 135.971 219.346 132.656 216.008 135.279C212.671 137.902 214.684 145.47 220.505 152.182C226.326 158.895 233.751 162.21 237.089 159.587Z" fill="#FAFC7D" stroke="black" stroke-width="2" stroke-linecap="round" stroke-linejoin="round"/>
<path d="M234.191 125.338L226.953 128.867C224.263 130.288 225.608 137.644 229.951 145.322C234.295 153 239.987 158.044 242.677 156.623L249.916 153.094" fill="#FF833D"/>
<path d="M234.191 125.338L226.953 128.867C224.263 130.288 225.608 137.644 229.951 145.322C234.295 153 239.987 158.044 242.677 156.623L249.916 153.094" stroke="black" stroke-width="2" stroke-linecap="round" stroke-linejoin="round"/>
<path d="M249.952 153.122C252.664 151.702 251.31 144.347 246.928 136.694C242.545 129.04 236.794 123.986 234.081 125.406C231.369 126.826 232.723 134.181 237.105 141.835C241.487 149.488 247.239 154.542 249.952 153.122Z" fill="#FAFC7D" stroke="black" stroke-width="2" stroke-linecap="round" stroke-linejoin="round"/>
<path d="M250.771 120.19L243.003 122.347C240.102 123.251 239.91 130.753 242.599 139.086C245.288 147.419 249.813 153.459 252.714 152.554L260.482 150.397" fill="#FF833D"/>
<path d="M250.771 120.19L243.003 122.347C240.102 123.251 239.91 130.753 242.599 139.086C245.288 147.419 249.813 153.459 252.714 152.554L260.482 150.397" stroke="black" stroke-width="2" stroke-linecap="round" stroke-linejoin="round"/>
<path d="M260.527 150.422C263.483 149.517 263.669 142.037 260.943 133.716C258.216 125.394 253.61 119.381 250.653 120.286C247.697 121.191 247.511 128.671 250.237 136.992C252.964 145.314 257.57 151.327 260.527 150.422Z" fill="#FAFC7D" stroke="black" stroke-width="2" stroke-linecap="round" stroke-linejoin="round"/>
<path d="M183.009 266.899L182.787 259.148C182.644 253.831 172.716 250.003 160.625 250.58C148.533 251.157 138.851 255.95 138.994 261.267L139.216 269.017" fill="#7665A4"/>
<path d="M183.009 266.899L182.787 259.148C182.644 253.831 172.716 250.003 160.625 250.58C148.533 251.157 138.851 255.95 138.994 261.267L139.216 269.017" stroke="black" stroke-width="2" stroke-linecap="round" stroke-linejoin="round"/>
<path d="M161.454 277.332C173.612 276.761 183.348 272.102 183.2 266.925C183.052 261.749 173.076 258.016 160.918 258.587C148.759 259.158 139.023 263.817 139.171 268.993C139.319 274.169 149.296 277.903 161.454 277.332Z" fill="#AFA1FF" stroke="black" stroke-width="2" stroke-linecap="round" stroke-linejoin="round"/>
<path d="M186.255 279.76L185.009 272.132C184.152 266.904 173.776 264.309 161.834 266.352C149.893 268.396 140.904 274.297 141.76 279.525L143.007 287.152" fill="#7665A4"/>
<path d="M186.255 279.76L185.009 272.132C184.152 266.904 173.776 264.309 161.834 266.352C149.893 268.396 140.904 274.297 141.76 279.525L143.007 287.152" stroke="black" stroke-width="2" stroke-linecap="round" stroke-linejoin="round"/>
<path d="M166.234 292.781C178.232 290.776 187.261 284.991 186.401 279.86C185.542 274.729 175.119 272.195 163.122 274.2C151.124 276.205 142.095 281.989 142.955 287.121C143.814 292.252 154.237 294.786 166.234 292.781Z" fill="#AFA1FF" stroke="black" stroke-width="2" stroke-linecap="round" stroke-linejoin="round"/>
<path d="M189.809 288.302L186.738 281.207C184.631 276.338 173.863 276.136 162.699 280.746C151.534 285.357 144.191 293.035 146.298 297.904L149.368 304.999" fill="#7665A4"/>
<path d="M189.809 288.302L186.738 281.207C184.631 276.338 173.863 276.136 162.699 280.746C151.534 285.357 144.191 293.035 146.298 297.904L149.368 304.999" stroke="black" stroke-width="2" stroke-linecap="round" stroke-linejoin="round"/>
<path d="M173.474 305.422C184.678 300.861 192.046 293.267 189.931 288.459C187.816 283.65 177.018 283.449 165.814 288.009C154.609 292.569 147.241 300.164 149.356 304.972C151.472 309.78 162.269 309.982 173.474 305.422Z" fill="#AFA1FF" stroke="black" stroke-width="2" stroke-linecap="round" stroke-linejoin="round"/>
<path d="M201.149 306.526L196.905 300.029C194 295.569 183.308 297.024 173.027 303.255C162.747 309.485 156.765 318.148 159.683 322.594L163.927 329.091" fill="#7665A4"/>
<path d="M201.149 306.526L196.905 300.029C194 295.569 183.308 297.024 173.027 303.255C162.747 309.485 156.765 318.148 159.683 322.594L163.927 329.091" stroke="black" stroke-width="2" stroke-linecap="round" stroke-linejoin="round"/>
<path d="M187.897 325.846C198.2 319.654 204.191 311.049 201.278 306.627C198.365 302.206 187.652 303.641 177.349 309.834C167.046 316.026 161.055 324.631 163.968 329.053C166.881 333.475 177.594 332.039 187.897 325.846Z" fill="#AFA1FF" stroke="black" stroke-width="2" stroke-linecap="round" stroke-linejoin="round"/>
<path d="M215.416 310.336L207.957 307.442C202.848 305.453 194.831 312.471 190.041 323.122C185.262 333.759 185.53 343.996 190.639 345.986L198.099 348.88" fill="#7665A4"/>
<path d="M215.416 310.336L207.957 307.442C202.848 305.453 194.831 312.471 190.041 323.122C185.262 333.759 185.53 343.996 190.639 345.986L198.099 348.88" stroke="black" stroke-width="2" stroke-linecap="round" stroke-linejoin="round"/>
<path d="M198.184 348.993C203.254 350.98 211.215 343.946 215.965 333.281C220.715 322.617 220.456 312.36 215.385 310.372C210.315 308.384 202.354 315.418 197.605 326.083C192.855 336.748 193.114 347.005 198.184 348.993Z" fill="#AFA1FF" stroke="black" stroke-width="2" stroke-linecap="round" stroke-linejoin="round"/>
<path d="M221.936 314.022L214.13 316.497C208.789 318.185 207.348 328.419 210.915 339.356C214.483 350.293 221.716 357.766 227.057 356.078L234.863 353.603" fill="#7665A4"/>
<path d="M221.936 314.022L214.13 316.497C208.789 318.185 207.348 328.419 210.915 339.356C214.483 350.293 221.716 357.766 227.057 356.078L234.863 353.603" stroke="black" stroke-width="2" stroke-linecap="round" stroke-linejoin="round"/>
<path d="M234.905 353.601C240.315 351.914 241.769 341.725 238.153 330.843C234.536 319.961 227.219 312.506 221.809 314.193C216.398 315.879 214.944 326.068 218.561 336.95C222.177 347.832 229.495 355.287 234.905 353.601Z" fill="#AFA1FF" stroke="black" stroke-width="2" stroke-linecap="round" stroke-linejoin="round"/>
<path d="M250.441 315.918L242.479 315.12C239.454 314.954 236.17 324.241 235.169 335.871C234.169 347.501 235.766 357.077 238.777 357.233L246.739 358.03" fill="#7665A4"/>
<path d="M250.441 315.918L242.479 315.12C239.454 314.954 236.17 324.241 235.169 335.871C234.169 347.501 235.766 357.077 238.777 357.233L246.739 358.03" stroke="black" stroke-width="2" stroke-linecap="round" stroke-linejoin="round"/>
<path d="M246.861 358.102C249.778 358.273 252.944 348.964 253.933 337.309C254.922 325.654 253.359 316.066 250.442 315.895C247.525 315.724 244.359 325.033 243.37 336.688C242.381 348.344 243.945 357.931 246.861 358.102Z" fill="#AFA1FF" stroke="black" stroke-width="2" stroke-linecap="round" stroke-linejoin="round"/>
<path d="M265.287 313.156L257.497 315.255C254.597 316.185 255.172 325.907 258.792 336.98C262.411 348.053 267.692 356.301 270.606 355.382L278.395 353.283" fill="#7665A4"/>
<path d="M265.287 313.156L257.497 315.255C254.597 316.185 255.172 325.907 258.792 336.98C262.411 348.053 267.692 356.301 270.606 355.382L278.395 353.283" stroke="black" stroke-width="2" stroke-linecap="round" stroke-linejoin="round"/>
<path d="M278.497 353.316C281.458 352.396 280.868 342.69 277.178 331.635C273.489 320.58 268.097 312.364 265.136 313.283C262.174 314.202 262.764 323.909 266.454 334.964C270.143 346.018 275.535 354.235 278.497 353.316Z" fill="#AFA1FF" stroke="black" stroke-width="2" stroke-linecap="round" stroke-linejoin="round"/>
<path d="M283.628 306.504L276.353 309.99C273.676 311.423 276.209 320.827 282.031 331.009C287.839 341.18 294.737 348.279 297.415 346.846L304.69 343.36" fill="#7665A4"/>
<path d="M283.628 306.504L276.353 309.99C273.676 311.423 276.209 320.827 282.031 331.009C287.839 341.18 294.737 348.279 297.415 346.846L304.69 343.36" stroke="black" stroke-width="2" stroke-linecap="round" stroke-linejoin="round"/>
<path d="M304.757 343.406C307.47 341.975 304.905 332.577 299.028 322.416C293.151 312.255 286.188 305.178 283.475 306.609C280.763 308.041 283.328 317.438 289.205 327.599C295.081 337.761 302.045 344.838 304.757 343.406Z" fill="#AFA1FF" stroke="black" stroke-width="2" stroke-linecap="round" stroke-linejoin="round"/>
<path d="M304.838 296.597L297.563 300.083C294.886 301.516 297.419 310.92 303.241 321.102C309.063 331.284 315.947 338.372 318.625 336.939L325.9 333.453" fill="#7665A4"/>
<path d="M304.838 296.597L297.563 300.083C294.886 301.516 297.419 310.92 303.241 321.102C309.063 331.284 315.947 338.372 318.625 336.939L325.9 333.453" stroke="black" stroke-width="2" stroke-linecap="round" stroke-linejoin="round"/>
<path d="M325.974 333.495C328.687 332.064 326.122 322.666 320.245 312.505C314.368 302.344 307.405 295.267 304.692 296.698C301.979 298.129 304.544 307.527 310.421 317.688C316.298 327.849 323.261 334.926 325.974 333.495Z" fill="#AFA1FF" stroke="black" stroke-width="2" stroke-linecap="round" stroke-linejoin="round"/>
<path d="M319.997 288.388L313.764 293.428C311.498 295.424 316.37 303.949 324.641 312.455C332.911 320.961 341.442 326.221 343.708 324.226L349.942 319.185" fill="#7665A4"/>
<path d="M319.997 288.388L313.764 293.428C311.498 295.424 316.37 303.949 324.641 312.455C332.911 320.961 341.442 326.221 343.708 324.226L349.942 319.185" stroke="black" stroke-width="2" stroke-linecap="round" stroke-linejoin="round"/>
<path d="M349.929 319.263C352.199 317.261 347.312 308.747 339.014 300.247C330.716 291.748 322.149 286.481 319.879 288.483C317.609 290.486 322.496 298.999 330.794 307.499C339.092 315.999 347.659 321.266 349.929 319.263Z" fill="#AFA1FF" stroke="black" stroke-width="2" stroke-linecap="round" stroke-linejoin="round"/>
<path d="M300.408 124.208C300.408 124.208 286.186 118.902 285.448 126.473C284.711 134.044 293.451 139.758 293.451 139.758" fill="#B8AFE8"/>
<path d="M300.408 124.208C300.408 124.208 286.186 118.902 285.448 126.473C284.711 134.044 293.451 139.758 293.451 139.758" stroke="black" stroke-width="2" stroke-linecap="round" stroke-linejoin="round"/>
<path d="M288.041 287.317L224.933 237.69C222.159 235.508 220.782 230.847 221.834 227.285L234.616 184.419C235.68 180.844 238.778 179.724 241.552 181.905L304.66 231.532C307.434 233.714 308.81 238.375 307.758 241.937L294.977 284.803C293.913 288.378 290.815 289.498 288.041 287.317Z" fill="#FAFC7D" stroke="black" stroke-width="2" stroke-linecap="round" stroke-linejoin="round"/>
<path d="M164.906 260.721L45.3146 153.062C42.3492 150.73 41.1593 146.939 42.2862 143.44L52.268 74.2672C54.2637 68.1161 69.2925 66.1153 78.7306 73.5372L211.448 177.904C214.414 180.236 215.603 184.027 214.477 187.527L193.189 253.131C189.409 265.577 170.126 264.849 164.894 260.735L164.906 260.721Z" fill="black" stroke="black" stroke-width="2"/>
<path d="M161.791 259.697L29.2105 155.438C26.2478 153.108 25.0544 149.326 26.1729 145.838L47.304 80.4519C49.285 74.3211 57.2184 72.0751 62.4316 76.1747L195.026 180.445C197.989 182.775 199.182 186.557 198.064 190.045L176.933 255.431C174.952 261.562 167.018 263.808 161.805 259.708L161.791 259.697Z" fill="#BDFB52" stroke="black" stroke-width="2"/>
<path d="M169.539 195.531L155.363 184.383C152.909 182.454 151.938 179.283 152.89 176.373C154.582 171.23 161.201 169.302 165.533 172.709L179.71 183.857C182.164 185.787 183.134 188.958 182.183 191.867C180.49 197.01 173.872 198.939 169.539 195.531Z" fill="black" stroke="black" stroke-width="2"/>
<path d="M251.298 244.854C250.763 244.434 250.409 243.834 250.299 243.171L247.087 222.714C246.971 221.977 247.158 221.247 247.629 220.626C248.089 220.018 248.776 219.612 249.552 219.483C250.381 219.35 251.226 219.551 251.873 220.059C252.409 220.479 252.762 221.08 252.872 221.742L255.63 239.377L288.209 233.052C289.074 232.877 289.959 233.087 290.62 233.607C291.142 234.015 291.491 234.566 291.599 235.204C291.873 236.711 290.831 238.176 289.23 238.487L253.681 245.387C252.906 245.54 252.092 245.385 251.465 244.962L251.282 244.818L251.298 244.854Z" fill="#00D889"/>
<path d="M290.037 234.3C290.29 234.499 290.609 234.841 290.71 235.404C290.904 236.432 290.19 237.44 289.105 237.649L253.559 244.548C253.028 244.639 252.469 244.546 252.051 244.264C252.008 244.231 251.966 244.198 251.91 244.154C251.544 243.866 251.297 243.442 251.232 243L248.021 222.544C247.853 221.513 248.621 220.525 249.708 220.34C250.278 220.257 250.854 220.386 251.291 220.729C251.657 221.016 251.903 221.44 251.968 221.883L254.597 238.631L254.883 240.423L256.768 240.058L288.414 233.902C289.008 233.792 289.598 233.932 290.063 234.297M291.258 232.929C290.413 232.266 289.257 231.959 288.082 232.19L256.436 238.345L253.808 221.597C253.662 220.676 253.189 219.913 252.499 219.372C251.682 218.731 250.593 218.429 249.44 218.608C247.342 218.945 245.892 220.85 246.195 222.84L249.407 243.296C249.548 244.168 250.011 244.969 250.715 245.522C250.8 245.588 250.87 245.643 250.955 245.71C251.803 246.26 252.858 246.465 253.879 246.275L289.425 239.376C291.517 238.965 292.898 237.029 292.531 235.058C292.364 234.189 291.882 233.465 291.234 232.956L291.258 232.929Z" fill="black"/>
<path d="M229.909 202.258L215.635 201.913L226.434 214.983" fill="#FAFC7D"/>
<path d="M229.909 202.258L215.635 201.913L226.434 214.983" stroke="black" stroke-width="2" stroke-linecap="round" stroke-linejoin="round"/>
</svg>
