<svg width="24" height="25" viewBox="0 0 24 25" fill="none" xmlns="http://www.w3.org/2000/svg">
<g clip-path="url(#clip0_2_1090)">
<path d="M12.0018 0.93158C18.63 0.93158 24.0032 6.15044 24.0032 12.59C24.0032 19.0282 18.63 24.2485 12.0018 24.2485C5.37362 24.2485 0.000488281 19.0282 0.000488281 12.59C0.000488281 6.15044 5.37367 0.93158 12.0018 0.93158ZM12.9818 6.4179H12.344C11.4923 6.4179 10.6474 6.41105 9.79702 6.45905C8.80878 6.50637 7.93167 6.732 7.20885 7.45411C6.48463 8.17833 6.26107 9.05408 6.21307 10.0423C6.18171 10.6787 6.16822 11.3158 6.17261 11.9529V12.59C6.17261 13.4404 6.16576 14.2867 6.21376 15.1377C6.26107 16.126 6.4867 17.0031 7.20882 17.7259C7.93304 18.4501 8.80878 18.6737 9.79702 18.7217C10.4362 18.7573 11.0712 18.7621 11.7076 18.7621H12.3447C13.1972 18.7621 14.0414 18.769 14.8924 18.721C15.88 18.6737 16.7578 18.4481 17.4799 17.7259C18.2041 17.0017 18.4284 16.126 18.4757 15.1377C18.5258 14.2874 18.5161 13.4425 18.5161 12.59C18.5161 11.7376 18.5237 10.8934 18.4757 10.0423C18.4277 9.05408 18.2028 8.17696 17.4799 7.45414C16.7557 6.72995 15.8807 6.50637 14.8924 6.45839C14.2561 6.42702 13.619 6.41352 12.9818 6.4179ZM12.3433 9.42305C12.7594 9.4225 13.1714 9.50405 13.5558 9.66302C13.9403 9.82199 14.2896 10.0553 14.5837 10.3495C14.8779 10.6437 15.111 10.993 15.2699 11.3775C15.4288 11.762 15.5103 12.174 15.5097 12.59C15.5103 13.006 15.4288 13.4181 15.2699 13.8026C15.111 14.187 14.8779 14.5364 14.5837 14.8306C14.2896 15.1248 13.9403 15.3581 13.5558 15.517C13.1714 15.676 12.7594 15.7575 12.3433 15.757C11.9273 15.7576 11.5152 15.6761 11.1306 15.5172C10.7461 15.3583 10.3967 15.125 10.1025 14.8308C9.80834 14.5366 9.57508 14.1872 9.41615 13.8027C9.25722 13.4182 9.17573 13.0061 9.17637 12.59C9.17573 12.174 9.25722 11.7618 9.41615 11.3773C9.57508 10.9928 9.80834 10.6434 10.1025 10.3492C10.3967 10.055 10.7461 9.82176 11.1306 9.66283C11.5152 9.5039 11.9273 9.42242 12.3433 9.42305ZM12.3433 10.532C11.7978 10.5331 11.2749 10.7502 10.889 11.1359C10.5032 11.5216 10.2859 12.0445 10.2846 12.59C10.2859 13.1356 10.5032 13.6584 10.889 14.0441C11.2749 14.4298 11.7978 14.647 12.3433 14.6481C12.8887 14.6466 13.4112 14.4293 13.7968 14.0436C14.1823 13.658 14.3994 13.1353 14.4007 12.59C14.3994 12.0447 14.1823 11.5221 13.7968 11.1364C13.4112 10.7507 12.8887 10.5334 12.3433 10.532ZM15.6393 8.55413C15.7858 8.5536 15.9291 8.59665 16.0511 8.67782C16.1731 8.75898 16.2682 8.87459 16.3243 9.00994C16.3804 9.14529 16.3949 9.29426 16.3661 9.43792C16.3373 9.58157 16.2665 9.71342 16.1625 9.81668C16.0593 9.92061 15.9274 9.99149 15.7838 10.0203C15.6401 10.0491 15.4911 10.0345 15.3558 9.97842C15.2204 9.92232 15.1048 9.82724 15.0237 9.70527C14.9425 9.58329 14.8994 9.43993 14.9 9.29342C14.9 8.88401 15.2305 8.55415 15.6393 8.55415V8.55413Z" fill="black"/>
</g>
<defs>
<clipPath id="clip0_2_1090">
<rect width="24" height="24" fill="white" transform="translate(0.000488281 0.590027)"/>
</clipPath>
</defs>
</svg>
