<svg width="24" height="25" viewBox="0 0 24 25" fill="none" xmlns="http://www.w3.org/2000/svg">
<g clip-path="url(#clip0_2_1097)">
<g clip-path="url(#clip1_2_1097)">
<path d="M19.9692 0.590027H4.03174C1.81474 0.590027 0.000488281 2.40428 0.000488281 4.62128V20.5588C0.000488281 22.7758 1.81474 24.59 4.03174 24.59H19.9692C22.1862 24.59 24.0005 22.7758 24.0005 20.5588V4.62128C24.0005 2.40428 22.1862 0.590027 19.9692 0.590027ZM9.00049 20.09H6.00049V9.59003H9.00049V20.09ZM7.50049 8.09003C6.67174 8.09003 6.00049 7.41878 6.00049 6.59003C6.00049 5.76128 6.67174 5.09003 7.50049 5.09003C8.32924 5.09003 9.00049 5.76128 9.00049 6.59003C9.00049 7.41878 8.32924 8.09003 7.50049 8.09003ZM19.5005 20.09H16.5005V14.09C16.5005 13.2613 15.8292 12.59 15.0005 12.59C14.1717 12.59 13.5005 13.2613 13.5005 14.09V20.09H10.5005V9.59003H13.5005V11.4523C14.1192 10.6025 15.065 9.59003 16.1255 9.59003C17.9892 9.59003 19.5005 11.2693 19.5005 13.34V20.09Z" fill="black"/>
</g>
</g>
<defs>
<clipPath id="clip0_2_1097">
<rect width="24" height="24.41" fill="white" transform="translate(0.000488281 0.590027)"/>
</clipPath>
<clipPath id="clip1_2_1097">
<rect width="24" height="24" fill="white" transform="translate(0.000488281 0.590027)"/>
</clipPath>
</defs>
</svg>
