<svg width="156" height="51" viewBox="0 0 156 51" fill="none" xmlns="http://www.w3.org/2000/svg">
<g clip-path="url(#clip0_2_1045)">
<path d="M33.2502 38.985L8.99023 18.545L19.6302 7.585L33.4702 19.445L47.9202 5.955L41.9202 1.125H74.0602L33.2502 38.985Z" fill="#B29FFF"/>
<path d="M48.6799 29.855L44.1699 49.895H60.7799L69.5299 10.255L48.6799 29.855Z" fill="black"/>
<path d="M11.33 1.125L0.5 49.745H17.33L28.3 1.125H11.33Z" fill="black"/>
<path d="M150.28 10.135C142.53 0.434989 128.57 -1.73501 117.96 4.67499C112.15 7.78499 110 11.635 107.77 16.355C106.72 18.825 106.07 21.465 105.87 24.185H105.86L105.78 25.325C105.69 28.615 104.08 31.705 101.38 33.805C96.4399 37.645 89.3899 36.975 85.6599 32.305C83.9399 30.155 83.1799 27.455 83.5099 24.695C83.8599 21.735 85.3999 19.065 87.8399 17.165C92.4099 13.605 98.7899 13.915 102.67 17.685C103.71 14.765 107.09 8.36499 109.27 5.44499C100.57 -0.655011 88.3699 -0.605011 79.4399 6.34499C74.0799 10.505 70.6999 16.455 69.9199 23.095C69.1599 29.535 70.9599 35.845 74.9799 40.885C79.8299 46.955 87.0999 50.075 94.4699 49.995C99.0599 49.945 103.67 48.655 107.76 46.065C111.83 43.255 115.29 40.065 118.04 33.285C118.81 31.125 119.28 28.845 119.42 26.505H119.43L119.48 25.705H119.49C119.58 22.415 121.18 19.325 123.89 17.225C128.83 13.385 135.88 14.055 139.61 18.725C141.33 20.865 142.09 23.575 141.76 26.335C141.41 29.295 139.87 31.965 137.43 33.865C132.87 37.405 126.53 37.115 122.65 33.395C121.36 36.795 118.88 41.425 115.39 45.155C119.77 48.435 125.11 50.095 130.5 50.035C135.86 49.975 141.26 48.225 145.81 44.685C151.17 40.525 154.55 34.575 155.33 27.935C156.1 21.485 154.31 15.165 150.28 10.135Z" fill="black"/>
</g>
<defs>
<clipPath id="clip0_2_1045">
<rect width="155" height="49.03" fill="white" transform="translate(0.5 0.984985)"/>
</clipPath>
</defs>
</svg>
