<svg width="214" height="220" viewBox="0 0 214 220" fill="none" xmlns="http://www.w3.org/2000/svg">
<g clip-path="url(#clip0_2_3147)">
<path d="M10.5998 218.221C13.026 215.392 16.3107 213.81 19.7353 213.81H182.532C185.957 213.81 189.241 215.401 191.668 218.221C191.994 218.602 191.761 219.254 191.304 219.254H10.9638C10.5065 219.254 10.2732 218.602 10.5998 218.221Z" fill="black"/>
<path d="M92.0449 29.7355L99.4261 8.88989L102.235 9.70883L92.0449 29.7355Z" fill="#FAFC7D" stroke="#FAFC7D" stroke-width="2" stroke-linecap="round" stroke-linejoin="round"/>
<path d="M56.4639 22.1231L58.974 23.4166C64.349 25.7524 70.657 23.1933 73.0645 17.6841C75.4721 12.1749 73.0739 5.81882 67.6989 3.483L65.1888 2.18945" fill="#FF833D"/>
<path d="M56.4639 22.1231L58.974 23.4166C64.349 25.7524 70.657 23.1933 73.0645 17.6841C75.4721 12.1749 73.0739 5.81882 67.6989 3.483L65.1888 2.18945" stroke="black" stroke-width="2" stroke-linecap="round" stroke-linejoin="round"/>
<path d="M69.3362 15.8083C71.7471 10.3022 69.6776 4.08616 64.7138 1.92444C59.75 -0.237269 53.7715 2.4739 51.3606 7.98001C48.9496 13.4861 51.0191 19.7021 55.9829 21.8638C60.9467 24.0255 66.9252 21.3144 69.3362 15.8083Z" fill="#FAFC7D" stroke="black" stroke-width="2" stroke-linecap="round" stroke-linejoin="round"/>
<path d="M55.5594 68.6351C52.7973 68.5886 47.3477 68.3466 44.399 67.7417C39.2293 66.6808 32.1561 64.3078 27.817 59.0033C22.6567 51.5026 26.7905 42.3268 29.7112 37.5156C31.6055 34.398 34.0224 31.3922 36.5139 29.0563C37.6523 27.9861 38.7814 27.0927 39.7799 26.4599C40.8343 25.7992 41.7302 25.427 42.4487 25.3711C42.5513 25.3711 42.654 25.3618 42.7473 25.3618C43.3538 25.3618 43.8577 25.5479 44.2403 25.9016C44.6416 26.2738 44.9029 26.8136 45.0522 27.5581C45.2668 28.6562 45.2295 30.1638 44.9122 32.4717C44.8189 33.1696 44.6976 33.8955 44.5856 34.6121C44.4083 35.7474 44.2403 36.799 44.147 37.7203C44.063 38.5578 44.035 39.2 44.0817 39.7025C44.1284 40.2143 44.2403 40.5586 44.4176 40.7355C44.455 40.7727 44.5483 40.8471 44.7629 40.9309C44.9495 41.0053 45.2015 41.0705 45.4907 41.1263C46.0506 41.238 46.8158 41.3217 47.7676 41.3869C48.0102 41.4055 48.6821 41.4241 50.5484 41.4241C53.9451 41.4241 59.5439 41.3683 62.8846 41.3311C64.4523 41.3124 65.6001 41.3031 65.9173 41.3031C66.7292 41.3124 67.2051 41.3404 67.513 41.3869C67.5597 41.3869 67.6063 41.4055 67.653 41.4241C69.062 41.8801 70.779 43.1644 71.0123 46.7007C71.2083 49.6507 70.3124 53.0381 69.5379 55.3646C68.5488 58.3053 67.1211 61.3484 65.6094 63.7308C64.8535 64.9313 64.107 65.9177 63.3978 66.6622C62.6233 67.4718 61.9141 67.9744 61.2889 68.1512C60.1411 68.4769 58.3402 68.6537 56.2126 68.6537C55.998 68.6537 55.774 68.6537 55.5501 68.6537L55.5594 68.6351Z" fill="white"/>
<path d="M42.7562 26.283C43.1668 26.283 43.4374 26.404 43.6147 26.5808C43.848 26.7949 44.0346 27.1671 44.1466 27.7348C44.3706 28.8794 44.2493 30.5173 43.9973 32.3413C43.904 33.0299 43.792 33.7558 43.68 34.4724C43.5027 35.5798 43.3348 36.6686 43.2321 37.6271C43.1481 38.4182 43.1108 39.1626 43.1668 39.7862C43.2228 40.3817 43.3628 40.9959 43.7733 41.3961C43.96 41.5822 44.2119 41.7032 44.4545 41.7963C44.7065 41.8893 45.0051 41.9638 45.3317 42.0289C45.9849 42.1592 46.8061 42.243 47.7299 42.3081C48.1311 42.336 49.1763 42.3453 50.5853 42.3453C55.5403 42.3453 64.9184 42.2243 65.9449 42.2243C65.9729 42.2243 66.0009 42.2243 66.0102 42.2243C66.6728 42.2337 67.13 42.2616 67.3913 42.2988C69.0989 42.8572 69.9574 44.4113 70.1067 46.7564C70.2654 49.1108 69.6775 52.0795 68.6697 55.0667C67.6712 58.0447 66.2715 60.9761 64.8345 63.2375C64.1159 64.3728 63.4067 65.322 62.7349 66.02C62.0537 66.7366 61.4751 67.1367 61.0459 67.2577C60.0568 67.5369 58.3584 67.723 56.2215 67.723C56.0162 67.723 55.8016 67.723 55.587 67.723C53.1608 67.6858 47.5899 67.4624 44.6038 66.8482C38.6224 65.6198 32.3423 63.0607 28.5631 58.4355C24.4386 52.4424 26.5475 44.5881 30.532 38.0087C32.5196 34.7423 34.9271 31.8481 37.176 29.7449C38.2958 28.6933 39.3689 27.8558 40.302 27.2602C41.2539 26.6553 42.019 26.3575 42.5509 26.311C42.6256 26.311 42.7002 26.3016 42.7655 26.3016M42.7655 24.4404C42.6442 24.4404 42.5229 24.4404 42.3923 24.459C41.5245 24.5335 40.4887 24.9523 39.3129 25.6874C38.2491 26.3575 37.1013 27.2695 35.8976 28.3862C33.3408 30.7779 30.8773 33.8489 28.9363 37.0409C23.692 45.6769 23.0108 53.6522 27.0234 59.4778C27.0514 59.5244 27.0794 59.5616 27.1167 59.5988C31.6238 65.108 38.9117 67.5648 44.2306 68.6629C47.9352 69.426 54.7938 69.5563 55.559 69.5749C55.7829 69.5749 56.0069 69.5749 56.2309 69.5749C58.4424 69.5749 60.3367 69.3795 61.5684 69.0352C62.371 68.8118 63.2015 68.2348 64.1066 67.2949C64.8625 66.5039 65.6463 65.4709 66.4301 64.2239C67.9978 61.7485 69.4255 58.6961 70.452 55.653C71.2638 53.2521 72.1783 49.7344 71.9824 46.6354C71.7118 42.578 69.6588 41.0797 67.9792 40.5306C67.8858 40.5027 67.7925 40.4748 67.6899 40.4655C67.4659 40.4283 67.0554 40.3817 66.0476 40.3631H65.9542C65.637 40.3631 64.4892 40.3724 62.9122 40.3911C59.5715 40.4283 53.9913 40.4841 50.5946 40.4841C48.6444 40.4841 48.0472 40.4655 47.8605 40.4562C46.9554 40.4004 46.2275 40.3166 45.705 40.2142C45.397 40.1584 45.2197 40.1026 45.1264 40.0653C45.1264 40.0653 45.1264 40.0653 45.1171 40.0653C45.0984 39.9909 45.0611 39.8606 45.0424 39.6373C45.0051 39.1999 45.0238 38.6136 45.1077 37.8319C45.2011 36.9292 45.369 35.8869 45.537 34.7795C45.649 34.0443 45.7703 33.3091 45.8636 32.6112C46.1995 30.173 46.2369 28.6096 45.9942 27.3905C45.8076 26.4598 45.4437 25.7433 44.9025 25.2408C44.5105 24.8778 43.8293 24.4497 42.7655 24.4497V24.4404Z" fill="black"/>
<path opacity="0.2" d="M67.3817 42.2895C67.1297 42.2523 66.6632 42.2244 66.0006 42.2151C65.73 42.2151 63.1079 42.243 59.9165 42.2709C57.9942 43.7413 56.1933 45.3326 54.5136 47.0356C49.0174 52.61 43.9504 58.9288 41.9814 66.1131C42.5133 66.2434 44.0624 66.7273 44.5943 66.839C47.5803 67.4532 53.1512 67.6672 55.5774 67.7137C58.0222 67.751 59.9538 67.5555 61.0363 67.2484C61.4655 67.1275 62.0441 66.7273 62.7253 66.0107C63.3972 65.3128 64.1064 64.3543 64.8249 63.2282C66.2526 60.9668 67.6523 58.0354 68.6601 55.0575C69.6679 52.0795 70.2465 49.1016 70.0971 46.7471C69.9478 44.4113 69.0894 42.8479 67.3817 42.2895Z" fill="#8A7CD8"/>
<path d="M53.8046 60.9668C53.9726 68.4768 48.0005 74.6933 40.47 74.8608C32.9395 75.0283 26.7061 69.0724 26.5381 61.5624L53.8046 60.9668Z" fill="#B8AFE8"/>
<path d="M53.8049 60.9668L43.8483 61.1808C41.4874 65.5175 40.4609 74.8608 40.4609 74.8608C46.965 73.7068 53.9449 67.7602 53.7956 60.9668H53.8049Z" fill="#8A7CD8"/>
<path d="M53.8046 60.9668C53.9726 68.4768 48.0005 74.6933 40.47 74.8608C32.9395 75.0283 26.7061 69.0724 26.5381 61.5624L53.8046 60.9668Z" stroke="black" stroke-width="2"/>
<path d="M38.2211 205.565L37.9785 212.554C37.9785 215.196 44.5105 217.337 52.5543 217.337C60.598 217.337 67.13 215.196 67.13 212.554L67.3726 205.565" fill="#FF833D"/>
<path d="M38.2211 205.565L37.9785 212.554C37.9785 215.196 44.5105 217.337 52.5543 217.337C60.598 217.337 67.13 215.196 67.13 212.554L67.3726 205.565" stroke="black" stroke-width="2" stroke-linecap="round" stroke-linejoin="round"/>
<path d="M52.8062 210.348C60.8562 210.348 67.382 208.206 67.382 205.565C67.382 202.923 60.8562 200.781 52.8062 200.781C44.7563 200.781 38.2305 202.923 38.2305 205.565C38.2305 208.206 44.7563 210.348 52.8062 210.348Z" fill="#FAFC7D" stroke="black" stroke-width="2" stroke-linecap="round" stroke-linejoin="round"/>
<path d="M43.8481 195.579L43.6055 202.568C43.6055 205.211 50.1375 207.351 58.1812 207.351C66.2249 207.351 72.757 205.211 72.757 202.568L72.9996 195.579" fill="#FF833D"/>
<path d="M43.8481 195.579L43.6055 202.568C43.6055 205.211 50.1375 207.351 58.1812 207.351C66.2249 207.351 72.757 205.211 72.757 202.568L72.9996 195.579" stroke="black" stroke-width="2" stroke-linecap="round" stroke-linejoin="round"/>
<path d="M58.4234 200.363C66.4734 200.363 72.9991 198.221 72.9991 195.579C72.9991 192.937 66.4734 190.796 58.4234 190.796C50.3734 190.796 43.8477 192.937 43.8477 195.579C43.8477 198.221 50.3734 200.363 58.4234 200.363Z" fill="#FAFC7D" stroke="black" stroke-width="2" stroke-linecap="round" stroke-linejoin="round"/>
<path d="M154.892 206.514L154.649 213.503C154.649 216.145 161.181 218.286 169.225 218.286C177.269 218.286 183.801 216.145 183.801 213.503L184.044 206.514" fill="#FF833D"/>
<path d="M154.892 206.514L154.649 213.503C154.649 216.145 161.181 218.286 169.225 218.286C177.269 218.286 183.801 216.145 183.801 213.503L184.044 206.514" stroke="black" stroke-width="2" stroke-linecap="round" stroke-linejoin="round"/>
<path d="M169.477 211.297C177.527 211.297 184.053 209.156 184.053 206.514C184.053 203.872 177.527 201.73 169.477 201.73C161.427 201.73 154.901 203.872 154.901 206.514C154.901 209.156 161.427 211.297 169.477 211.297Z" fill="#FAFC7D" stroke="black" stroke-width="2" stroke-linecap="round" stroke-linejoin="round"/>
<path d="M154.892 199.469L154.649 206.458C154.649 209.101 161.181 211.241 169.225 211.241C177.269 211.241 183.801 209.101 183.801 206.458L184.044 199.469" fill="#FF833D"/>
<path d="M154.892 199.469L154.649 206.458C154.649 209.101 161.181 211.241 169.225 211.241C177.269 211.241 183.801 209.101 183.801 206.458L184.044 199.469" stroke="black" stroke-width="2" stroke-linecap="round" stroke-linejoin="round"/>
<path d="M169.477 204.252C177.527 204.252 184.053 202.111 184.053 199.469C184.053 196.827 177.527 194.686 169.477 194.686C161.427 194.686 154.901 196.827 154.901 199.469C154.901 202.111 161.427 204.252 169.477 204.252Z" fill="#FAFC7D" stroke="black" stroke-width="2" stroke-linecap="round" stroke-linejoin="round"/>
<path d="M156.619 187.055L154.864 193.83C154.286 196.408 160.193 199.916 168.059 201.656C175.916 203.396 182.756 202.717 183.335 200.13L185.089 193.355" fill="#FF833D"/>
<path d="M156.619 187.055L154.864 193.83C154.286 196.408 160.193 199.916 168.059 201.656C175.916 203.396 182.756 202.717 183.335 200.13L185.089 193.355" stroke="black" stroke-width="2" stroke-linecap="round" stroke-linejoin="round"/>
<path d="M185.088 193.372C185.662 190.793 179.757 187.292 171.898 185.551C164.04 183.811 157.204 184.491 156.63 187.07C156.055 189.649 161.96 193.15 169.819 194.891C177.678 196.631 184.514 195.951 185.088 193.372Z" fill="#FAFC7D" stroke="black" stroke-width="2" stroke-linecap="round" stroke-linejoin="round"/>
<path d="M181.375 178.056C178.538 178.865 177.092 181.918 177.997 184.43C176.999 184.998 175.963 185.454 174.88 185.808C171.484 186.915 167.751 187.055 164.196 186.71C156.208 185.947 149.153 182.755 149.032 182.7L147.707 185.556C147.856 185.622 150.068 186.636 153.437 187.688C155.573 188.358 158.177 189.028 161.004 189.493C162.787 189.781 164.494 189.949 166.137 190.005C169.319 190.116 172.249 189.809 174.871 189.083C176.756 188.562 178.473 187.818 180.041 186.878C180.488 187.157 180.955 187.362 181.45 187.492C184.174 188.218 186.899 186.301 187.394 183.537L188.737 175.962L181.375 178.065V178.056Z" fill="#B8AFE8"/>
<path d="M187.516 176.306L186.601 181.434C186.107 184.198 183.382 186.115 180.657 185.389C180.172 185.259 179.696 185.045 179.248 184.775C177.69 185.724 175.963 186.459 174.078 186.98C171.456 187.706 168.526 188.013 165.344 187.902C163.702 187.846 161.985 187.678 160.212 187.39C157.384 186.934 154.781 186.254 152.644 185.584C150.843 185.026 149.387 184.477 148.389 184.077L147.698 185.556C147.848 185.622 150.059 186.636 153.428 187.688C155.565 188.358 158.168 189.028 160.996 189.493C162.778 189.781 164.486 189.949 166.128 190.005C169.31 190.116 172.24 189.809 174.862 189.083C176.747 188.562 178.464 187.818 180.032 186.878C180.48 187.157 180.946 187.362 181.441 187.492C184.166 188.218 186.89 186.301 187.385 183.537L188.729 175.962L187.506 176.316L187.516 176.306Z" fill="#8A7CD8"/>
<path d="M188.738 175.953L187.394 183.528C186.974 185.891 184.912 187.641 182.626 187.641C182.243 187.641 181.842 187.594 181.45 187.483C180.965 187.353 180.489 187.138 180.041 186.869C178.483 187.818 176.756 188.553 174.871 189.074C172.604 189.707 170.103 190.014 167.416 190.014C166.996 190.014 166.566 190.014 166.137 189.995C164.495 189.94 162.778 189.772 161.005 189.484C158.177 189.028 155.574 188.348 153.437 187.678C150.068 186.627 147.857 185.612 147.707 185.547L149.033 182.69C149.154 182.746 156.208 185.938 164.196 186.701C165.288 186.803 166.398 186.869 167.509 186.869C170.01 186.869 172.529 186.571 174.881 185.798C175.963 185.445 177.008 184.989 177.997 184.421C177.092 181.908 178.539 178.856 181.375 178.046L188.738 175.943M188.738 174.082C188.738 174.082 188.682 174.082 188.645 174.082C188.486 174.082 188.327 174.119 188.178 174.166L180.853 176.26C179.005 176.79 177.503 178.019 176.616 179.74C176.028 180.894 175.776 182.169 175.879 183.416C175.366 183.649 174.834 183.853 174.293 184.03C172.305 184.682 170.019 185.007 167.509 185.007C166.501 185.007 165.447 184.952 164.373 184.849C156.684 184.114 149.882 181.034 149.816 180.996C149.564 180.885 149.294 180.829 149.033 180.829C148.323 180.829 147.651 181.229 147.334 181.908L146.009 184.765C145.804 185.212 145.776 185.724 145.953 186.189C146.121 186.655 146.476 187.027 146.924 187.241C147.176 187.353 149.471 188.395 152.877 189.456C155.518 190.284 158.149 190.907 160.697 191.317C162.498 191.605 164.299 191.792 166.062 191.847C166.52 191.866 166.968 191.875 167.406 191.875C170.271 191.875 172.949 191.531 175.366 190.861C177.036 190.396 178.623 189.763 180.088 188.972C180.377 189.093 180.666 189.195 180.955 189.27C181.497 189.418 182.057 189.484 182.607 189.484C185.808 189.484 188.645 187.055 189.214 183.835L190.539 176.353C190.567 176.213 190.586 176.074 190.586 175.934C190.586 174.91 189.755 174.082 188.729 174.073H188.71L188.738 174.082Z" fill="black"/>
<path d="M153.12 184.393C154.799 192.303 155.378 215.476 155.378 215.476H120.152C120.684 206.812 119.909 189.251 112.509 188.292H111.707C104.307 189.251 103.532 206.821 104.064 215.476H64.6482C63.3604 211.641 67.289 207.742 69.4072 206.281C69.4072 206.281 69.4819 191.633 71.3202 183.332C71.3202 183.332 85.3547 128.24 99.5665 122.405C108.226 118.85 122.046 119.623 130.556 123.113C144.087 137.565 153.11 184.393 153.11 184.393H153.12Z" fill="#B8AFE8"/>
<path d="M101.47 189.093C99.7439 193.42 99.1281 199.609 99.0348 204.922C98.9788 208.226 96.3006 210.878 92.9973 210.878H65.2362C64.4897 212.302 64.1257 213.893 64.6576 215.476H104.074C103.617 208.021 104.12 193.988 108.982 189.595C109.775 188.879 102.674 186.106 101.48 189.093H101.47Z" fill="#8A7CD8"/>
<path d="M153.12 184.393C153.12 184.393 144.096 137.565 130.566 123.113C129.978 122.871 129.371 122.647 128.737 122.433C140.55 139.966 148.221 179.796 148.221 179.796C149.266 184.719 149.891 195.542 150.208 203.024C150.395 207.314 146.952 210.878 142.65 210.878H120.292C120.292 212.563 120.245 214.126 120.161 215.476H155.387C155.387 215.476 154.809 192.303 153.129 184.393H153.12Z" fill="#8A7CD8"/>
<path d="M153.12 184.393C154.799 192.303 155.378 215.476 155.378 215.476H120.152C120.684 206.812 119.909 189.251 112.509 188.292H111.707C104.307 189.251 103.532 206.821 104.064 215.476H64.6482C63.3604 211.641 67.289 207.742 69.4072 206.281C69.4072 206.281 69.4819 191.633 71.3202 183.332C71.3202 183.332 85.3547 128.24 99.5665 122.405C108.226 118.85 122.046 119.623 130.556 123.113C144.087 137.565 153.11 184.393 153.11 184.393H153.12Z" stroke="black" stroke-width="2" stroke-linecap="round" stroke-linejoin="round"/>
<path d="M103.29 122.889C98.624 121.996 94.0049 122.201 89.6751 123.327L73.9609 177.023C78.3467 181.806 84.1976 185.259 90.9909 186.562C108.151 189.856 124.808 178.27 128.205 160.691C131.601 143.112 120.441 126.184 103.29 122.889Z" fill="#8A7CD8"/>
<path d="M74.1475 205.304C77.7494 204.392 86.6796 203.331 93.6502 206.449L74.1475 205.304Z" fill="#B8AFE8"/>
<path d="M74.1475 205.304C77.7494 204.392 86.6796 203.331 93.6502 206.449" stroke="black" stroke-width="2" stroke-linecap="round" stroke-linejoin="round"/>
<path d="M124.304 205.406C131.573 203.089 140.335 205.137 143.806 206.449L124.304 205.406Z" fill="#B8AFE8"/>
<path d="M124.304 205.406C131.573 203.089 140.335 205.137 143.806 206.449" stroke="black" stroke-width="2" stroke-linecap="round" stroke-linejoin="round"/>
<path d="M94.3496 187.129C94.3496 187.129 100.835 190.256 112.975 190.256C125.115 190.256 130.565 187.129 130.565 187.129" fill="#B8AFE8"/>
<path d="M88.0879 187.623C88.0879 187.623 94.5733 190.749 106.713 190.749C118.854 190.749 124.303 187.623 124.303 187.623" fill="#B8AFE8"/>
<path d="M88.0879 187.623C88.0879 187.623 94.5733 190.749 106.713 190.749C118.854 190.749 124.303 187.623 124.303 187.623" stroke="black" stroke-width="2" stroke-linecap="round" stroke-linejoin="round"/>
<path d="M99.7617 176.483H104.987" stroke="black" stroke-width="2" stroke-linecap="round" stroke-linejoin="round"/>
<path d="M102.375 173.877V179.089" stroke="black" stroke-width="2" stroke-linecap="round" stroke-linejoin="round"/>
<path d="M177.904 81.1236C177.904 98.2096 170.513 111.043 158.532 119.642C146.522 128.259 129.884 132.623 111.427 132.623C92.9689 132.623 76.3216 128.464 64.3213 119.949C52.3491 111.461 44.9492 98.6284 44.9492 81.1236C44.9492 66.2897 53.1049 51.9584 65.5438 41.3122C77.9733 30.6661 94.6206 23.7703 111.427 23.7703C148.258 23.7703 177.904 51.4 177.904 81.1143V81.1236Z" fill="#B8AFE8"/>
<path d="M134.316 27.4741C152.634 36.9756 164.923 54.4338 164.923 72.7668C164.923 88.4662 158.13 100.257 147.128 108.158C136.099 116.077 120.804 120.088 103.849 120.088C86.8937 120.088 71.5995 116.263 60.5697 108.446C53.711 103.589 48.4947 97.1674 45.5273 89.1362C47.4496 102.602 54.2616 112.829 64.3209 119.958C76.3212 128.464 92.9685 132.633 111.426 132.633C129.884 132.633 146.522 128.268 158.531 119.651C170.513 111.052 177.904 98.219 177.904 81.133C177.904 57.9143 159.8 35.9706 134.316 27.4834V27.4741Z" fill="#8A7CD8"/>
<path d="M177.904 81.1236C177.904 98.2096 170.513 111.043 158.532 119.641C146.522 128.259 129.884 132.623 111.427 132.623C92.9689 132.623 76.3216 128.464 64.3213 119.949C52.3491 111.461 44.9492 98.6284 44.9492 81.1236C44.9492 66.2897 53.1049 51.9584 65.5438 41.3122C77.9733 30.6661 94.6206 23.7703 111.427 23.7703C148.258 23.7703 177.904 51.4 177.904 81.1143V81.1236Z" stroke="black" stroke-width="2" stroke-linecap="round" stroke-linejoin="round"/>
<path d="M104.773 85.7583C103.532 89.732 99.4825 93.7057 93.8557 93.7057C88.2288 93.7057 84.7202 89.732 84.3936 85.7583" stroke="black" stroke-width="2" stroke-linecap="round" stroke-linejoin="round"/>
<path d="M89.1178 64.7857C92.5904 55.4685 88.9362 45.5174 80.9558 42.5592C72.9755 39.6009 63.691 44.7559 60.2184 54.0731C56.7458 63.3903 60.4 73.3415 68.3803 76.2997C76.3607 79.2579 85.6451 74.1029 89.1178 64.7857Z" fill="white" stroke="black" stroke-width="2" stroke-linecap="round" stroke-linejoin="round"/>
<path d="M137.451 72.3989C145.314 65.7369 146.747 54.5351 140.651 47.3789C134.554 40.2227 123.238 39.8221 115.375 46.484C107.512 53.146 106.08 64.3479 112.176 71.5041C118.272 78.6603 129.588 79.0609 137.451 72.3989Z" fill="white" stroke="black" stroke-width="2" stroke-linecap="round" stroke-linejoin="round"/>
<path fill-rule="evenodd" clip-rule="evenodd" d="M95.2924 66.1597C87.9672 66.1597 81.7058 69.6215 81.3139 73.8837C81.1086 76.1451 82.583 78.1738 85.1118 79.5883C85.4477 77.7644 87.1274 76.3219 89.031 76.3219C91.0373 76.3219 92.521 77.9226 92.3343 79.9047C92.2784 80.4817 92.0917 81.0215 91.8024 81.5054C92.4743 81.5705 93.1648 81.5985 93.874 81.5985C94.5832 81.5985 95.2831 81.5612 95.9643 81.5054C95.759 81.0215 95.675 80.4817 95.7217 79.9047C95.899 77.9226 97.6813 76.3219 99.6875 76.3219C101.582 76.3219 103.01 77.755 103.01 79.5883C105.79 78.1738 107.647 76.1451 107.853 73.8837C108.244 69.6215 102.618 66.1597 95.2924 66.1597Z" fill="black"/>
<path d="M155.089 215.476H115.673C114.385 211.642 118.313 207.742 120.432 206.281" fill="#B8AFE8"/>
<path d="M155.089 215.476H115.673C114.385 211.642 118.313 207.742 120.432 206.281" stroke="black" stroke-width="2" stroke-linecap="round" stroke-linejoin="round"/>
<path d="M124.995 54.6665L113.125 59.8686L123.856 67.1087" stroke="black" stroke-width="4" stroke-linecap="round" stroke-linejoin="round"/>
<path d="M70.7878 50.5718L83.8799 57.7468L68.0537 63.9818" stroke="black" stroke-width="4" stroke-linecap="round" stroke-linejoin="round"/>
<path d="M83.0771 41.7312L88.6574 51.1583" stroke="black" stroke-width="5" stroke-linecap="round" stroke-linejoin="round"/>
<path d="M119.283 43.1084L111.071 51.8189" stroke="black" stroke-width="5" stroke-linecap="round" stroke-linejoin="round"/>
<path d="M80.2217 177.414L88.3587 179.536C105.519 182.83 122.176 171.244 125.573 153.665C128.969 136.086 117.809 119.158 100.658 115.863L92.5205 113.742" fill="#FF833D"/>
<path d="M80.2217 177.414L88.3587 179.536C105.519 182.83 122.176 171.244 125.573 153.665C128.969 136.086 117.809 119.158 100.658 115.863L92.5205 113.742" stroke="black" stroke-width="2" stroke-linecap="round" stroke-linejoin="round"/>
<path d="M118.207 151.535C121.602 133.952 110.447 117.027 93.2918 113.733C76.1362 110.438 59.4765 122.021 56.0812 139.604C52.686 157.188 63.8409 174.113 80.9965 177.407C98.1521 180.702 114.812 169.119 118.207 151.535Z" fill="#FAFC7D" stroke="black" stroke-width="2" stroke-linecap="round" stroke-linejoin="round"/>
<path d="M11.1885 172.77L14.5478 173.645C21.6211 175.003 28.489 170.229 29.8887 162.98C31.2885 155.731 26.688 148.751 19.6148 147.392L16.2555 146.518" fill="#FF833D"/>
<path d="M11.1885 172.77L14.5478 173.645C21.6211 175.003 28.489 170.229 29.8887 162.98C31.2885 155.731 26.688 148.751 19.6148 147.392L16.2555 146.518" stroke="black" stroke-width="2" stroke-linecap="round" stroke-linejoin="round"/>
<path d="M24.9075 161.736C26.3079 154.484 22.1427 147.587 15.6044 146.331C9.06601 145.076 2.63037 149.937 1.22998 157.189C-0.170419 164.442 3.99473 171.339 10.5331 172.594C17.0714 173.85 23.5071 168.989 24.9075 161.736Z" fill="#FAFC7D" stroke="black" stroke-width="2" stroke-linecap="round" stroke-linejoin="round"/>
<path d="M22.2266 216.136L25.5859 217.011C32.6591 218.37 39.5271 213.596 40.9268 206.346C42.3265 199.097 37.7261 192.117 30.6529 190.759L27.2935 189.884" fill="#FF833D"/>
<path d="M22.2266 216.136L25.5859 217.011C32.6591 218.37 39.5271 213.596 40.9268 206.346C42.3265 199.097 37.7261 192.117 30.6529 190.759L27.2935 189.884" stroke="black" stroke-width="2" stroke-linecap="round" stroke-linejoin="round"/>
<path d="M35.9534 205.1C37.3538 197.848 33.1886 190.951 26.6503 189.695C20.1119 188.44 13.6763 193.301 12.2759 200.553C10.8755 207.806 15.0406 214.703 21.579 215.958C28.1173 217.214 34.553 212.353 35.9534 205.1Z" fill="#FAFC7D" stroke="black" stroke-width="2" stroke-linecap="round" stroke-linejoin="round"/>
<path d="M127.813 162.71C116.438 158.336 105.417 152.334 99.9209 148.5C94.2567 145.094 84.7946 136.309 92.2784 128.445C94.5739 126.035 106.276 119.074 120.59 131.442C130.257 139.799 136.006 143.326 136.006 143.326" fill="#B8AFE8"/>
<path d="M97.1401 125.523C94.7046 126.444 93.0063 127.673 92.2784 128.445C84.7946 136.309 94.2567 145.094 99.9209 148.5C105.417 152.334 116.438 158.336 127.813 162.71L128.074 162.105C112.556 154.939 98.3998 143.726 97.1494 125.523H97.1401Z" fill="#8A7CD8"/>
<path d="M128.064 162.096L135.996 143.326C135.996 143.326 130.248 139.799 120.58 131.442C110.838 123.029 102.319 123.559 97.1396 125.514C98.3901 143.716 112.546 154.921 128.064 162.096Z" fill="#B8AFE8"/>
<path d="M127.813 162.71C116.438 158.336 105.417 152.334 99.9209 148.5C94.2567 145.094 84.7946 136.309 92.2784 128.445C94.5739 126.035 106.276 119.074 120.59 131.442C130.257 139.799 136.006 143.326 136.006 143.326" stroke="black" stroke-width="2" stroke-linecap="round" stroke-linejoin="round"/>
<path d="M66.3369 119.558C72.1038 122.545 70.7414 130.195 66.0943 139.11C61.4473 148.034 55.2885 154.846 49.5216 151.859C43.7548 148.872 40.5821 137.221 45.2292 128.306C49.8762 119.39 60.5794 116.571 66.3463 119.558H66.3369Z" fill="#B8AFE8"/>
<path d="M68.0445 131.246C63.6867 139.622 58.1904 146.183 53.6274 143.819C49.0643 141.455 47.1513 131.06 51.5091 122.685C51.8824 121.968 52.293 121.307 52.7315 120.675C49.7455 122.312 47.03 124.844 45.229 128.306C40.582 137.23 43.764 148.881 49.5215 151.859C55.2884 154.847 61.4471 148.025 66.0942 139.11C68.483 134.531 69.9854 130.288 70.1254 126.835C69.5375 128.25 68.8376 129.72 68.0445 131.246Z" fill="#8A7CD8"/>
<path d="M66.3369 119.558C72.1038 122.545 70.7414 130.195 66.0943 139.11C61.4473 148.034 55.2885 154.846 49.5216 151.859C43.7548 148.872 40.5821 137.221 45.2292 128.306C49.8762 119.39 60.5794 116.571 66.3463 119.558H66.3369Z" stroke="black" stroke-width="2" stroke-linecap="round" stroke-linejoin="round"/>
<path d="M145.458 210.878H117.445C117.445 210.878 116.232 212.191 116.577 214.377L154.23 214.601" fill="#8A7CD8"/>
<path d="M163.626 65.5455C162.955 65.5176 162.115 65.1826 161.144 64.5498C160.248 63.9635 159.259 63.1446 158.205 62.1209C156.105 60.0735 153.922 57.3376 152.214 54.6016C150.861 52.4426 149.144 49.232 148.631 46.2075C148.015 42.5967 149.433 40.8937 150.74 40.0934C150.777 40.0655 150.824 40.0469 150.87 40.0282C151.169 39.9073 151.654 39.7584 152.373 39.5815C153.063 39.4047 153.931 39.2093 154.911 38.9953C155.545 38.8557 157.421 38.4555 157.421 38.4555C158.765 38.167 160.202 37.8599 161.62 37.5342C164.476 36.8921 166.538 36.371 168.106 35.887C169.048 35.5985 169.804 35.3287 170.345 35.0774C170.634 34.9471 170.868 34.8168 171.036 34.7052C171.232 34.5749 171.316 34.4725 171.353 34.4167C171.493 34.184 171.53 33.8025 171.446 33.2627C171.372 32.7509 171.194 32.0995 170.905 31.2712C170.588 30.3685 170.168 29.3449 169.72 28.2654L170.541 27.8187L169.673 28.1723C169.393 27.4929 169.113 26.8043 168.852 26.1436C167.975 23.8915 167.564 22.3746 167.527 21.2207C167.499 20.4482 167.639 19.8433 167.947 19.378C168.292 18.8569 168.852 18.5405 169.608 18.4288C169.757 18.4102 169.916 18.3916 170.084 18.3916C170.756 18.3916 171.577 18.5591 172.547 18.8848C173.723 19.285 175.048 19.8992 176.476 20.7181C179.555 22.477 182.728 24.9338 185.387 27.6325C189.493 31.7924 195.895 40.0748 192.517 48.8039C189.381 55.2716 182.812 59.3663 177.838 61.6742C174.442 63.2562 171.428 64.1775 169.496 64.6707C167.275 65.2384 165.297 65.5455 163.925 65.5455C163.925 65.5455 163.692 65.5455 163.589 65.5455H163.626Z" fill="white"/>
<path d="M170.112 19.3128C170.644 19.3128 171.372 19.4524 172.277 19.7595C173.369 20.1318 174.656 20.7273 176.047 21.5184C178.818 23.1004 181.963 25.4548 184.762 28.2839C190.389 33.9792 194.411 41.4148 191.686 48.4688C188.971 54.0617 183.241 58.1564 177.484 60.8365C174.61 62.1766 171.754 63.1445 169.309 63.768C167.042 64.3449 165.166 64.6148 163.972 64.6148C163.869 64.6148 163.766 64.6148 163.673 64.6148C163.207 64.5962 162.525 64.3356 161.667 63.768C160.818 63.2189 159.866 62.4279 158.867 61.4601C156.871 59.5151 154.752 56.8815 153.017 54.1176C151.281 51.3443 149.975 48.4781 149.564 46.0585C149.153 43.6575 149.639 41.8708 151.244 40.9029C151.496 40.8006 151.953 40.661 152.625 40.4935C153.306 40.3166 154.164 40.1212 155.135 39.9072C155.909 39.7397 156.749 39.5535 157.636 39.3674C158.979 39.0789 160.426 38.7625 161.844 38.4461C164.214 37.9157 166.557 37.348 168.404 36.7803C169.319 36.5011 170.131 36.2127 170.765 35.9242C171.082 35.7846 171.362 35.6357 171.596 35.4775C171.82 35.3286 172.043 35.1425 172.183 34.9098C172.501 34.4073 172.501 33.7466 172.407 33.1323C172.314 32.4902 172.09 31.7457 171.82 30.964C171.493 30.0241 171.054 28.9632 170.606 27.8837C170.317 27.1858 170.028 26.4878 169.767 25.8085C169.076 24.031 168.544 22.4024 168.498 21.1926C168.479 20.5971 168.572 20.1783 168.759 19.8991C168.927 19.6478 169.216 19.4338 169.776 19.35C169.879 19.3314 169.991 19.3314 170.121 19.3314M170.121 17.4702C169.907 17.4702 169.701 17.4888 169.505 17.5167C168.227 17.7029 167.546 18.3543 167.2 18.8754C166.781 19.4989 166.594 20.3086 166.631 21.2764C166.678 22.5606 167.098 24.1148 168.022 26.4971C168.283 27.1578 168.563 27.8465 168.843 28.5258L168.871 28.6003C169.319 29.6798 169.739 30.7035 170.047 31.5968C170.317 32.3692 170.485 32.9648 170.55 33.4208C170.588 33.6907 170.588 33.8489 170.578 33.9234C170.569 33.9234 170.55 33.942 170.541 33.9513C170.448 34.0164 170.28 34.1188 169.981 34.2491C169.468 34.4817 168.749 34.7423 167.854 35.0215C166.314 35.4961 164.28 36.0079 161.434 36.65C160.015 36.9665 158.578 37.2829 157.244 37.5713C156.339 37.7668 155.499 37.9436 154.734 38.1204C153.623 38.3624 152.802 38.5578 152.167 38.716C151.15 38.9766 150.749 39.1162 150.534 39.2092C150.441 39.2464 150.357 39.293 150.273 39.3395C148.724 40.2794 147.026 42.2709 147.726 46.4028C148.267 49.5762 150.04 52.9078 151.44 55.1412C153.213 57.9703 155.387 60.7063 157.57 62.828C158.671 63.8982 159.707 64.7544 160.65 65.3686C161.779 66.1038 162.74 66.476 163.598 66.5133C163.72 66.5133 163.841 66.5133 163.972 66.5133C165.427 66.5133 167.49 66.1875 169.776 65.6106C171.745 65.108 174.815 64.1681 178.277 62.5582C183.381 60.1851 190.147 55.9602 193.366 49.3156C193.385 49.2691 193.413 49.2226 193.431 49.176C196.072 42.3454 193.459 34.4724 186.087 27.0183C183.363 24.2637 180.125 21.751 176.97 19.9456C175.487 19.0988 174.115 18.4567 172.883 18.0379C171.82 17.6749 170.886 17.4888 170.121 17.4888V17.4702Z" fill="black"/>
<path d="M156.227 59.6174C156.329 65.5826 165.287 76.4707 170.98 75.7355C171.959 75.6052 174.992 73.4462 175.879 72.9809C174.582 68.3465 172.053 61.8229 169.664 57.8958L156.227 59.6267V59.6174Z" fill="#8A7CD8"/>
<path d="M156.227 59.6174C159.343 67.2111 168.04 72.6366 175.664 71.7339C183.288 70.8405 190.669 63.5166 187.552 55.9229L156.227 59.6081V59.6174Z" fill="#B8AFE8" stroke="black" stroke-width="2"/>
<path d="M182.084 164.711L189.465 143.865L192.274 144.684L182.084 164.711Z" fill="#FAFC7D" stroke="#FAFC7D" stroke-width="2" stroke-linecap="round" stroke-linejoin="round"/>
<path d="M19.0166 124.155L26.3885 103.309L29.1972 104.128L19.0166 124.155Z" fill="#FAFC7D" stroke="#FAFC7D" stroke-width="2" stroke-linecap="round" stroke-linejoin="round"/>
<path d="M13.9219 100.155L21.2937 79.3091L24.1118 80.128L13.9219 100.155Z" fill="#FAFC7D" stroke="#FAFC7D" stroke-width="2" stroke-linecap="round" stroke-linejoin="round"/>
<path d="M183.643 100.155L191.024 79.3091L193.833 80.128L183.643 100.155Z" fill="#FAFC7D" stroke="#FAFC7D" stroke-width="2" stroke-linecap="round" stroke-linejoin="round"/>
</g>
<defs>
<clipPath id="clip0_2_3147">
<rect width="213" height="219" fill="white" transform="translate(0.0273438 0.253906)"/>
</clipPath>
</defs>
</svg>
