<svg width="287" height="222" viewBox="0 0 287 222" fill="none" xmlns="http://www.w3.org/2000/svg">
<g clip-path="url(#clip0_2_3052)">
<path d="M23.7391 219.985C26.1132 217.197 29.3274 215.623 32.6786 215.623H254.376C257.727 215.623 260.941 217.197 263.315 219.985C263.635 220.363 263.406 221.007 262.959 221.007H24.0952C23.6478 221.007 23.4195 220.363 23.7391 219.985Z" fill="black"/>
<path d="M117.399 152.531C106.268 148.206 81.5768 135.477 76.1985 131.685C70.6559 128.317 61.3968 119.629 68.72 111.852C70.9663 109.468 82.4169 102.584 96.4242 114.816C105.884 123.08 111.509 126.568 111.509 126.568" fill="#B8AFE8"/>
<path d="M73.4862 108.961C71.1029 109.873 69.4411 111.087 68.7288 111.851C61.4056 119.628 70.6646 128.316 76.2073 131.685C81.5856 135.476 106.267 148.205 117.407 152.53L117.663 151.932C102.478 144.846 74.728 126.972 73.4953 108.961H73.4862Z" fill="#8A7CD8"/>
<path d="M117.645 151.932L127.79 133.479C127.79 133.479 105.884 123.088 96.4152 114.824C86.8822 106.504 78.5454 107.028 73.4775 108.961C74.7011 126.963 102.451 144.836 117.645 151.932Z" fill="#B8AFE8"/>
<path d="M117.399 152.531C106.268 148.206 81.5768 135.477 76.1985 131.685C70.6559 128.317 61.3968 119.629 68.72 111.852C70.9663 109.468 82.4169 102.584 96.4242 114.816C105.884 123.08 111.509 126.568 111.509 126.568" stroke="black" stroke-width="2" stroke-linecap="round" stroke-linejoin="round"/>
<path d="M63.8341 207.098L63.5967 214.009C63.5967 216.623 69.9885 218.74 77.8597 218.74C85.7399 218.74 92.1226 216.623 92.1226 214.009L92.36 207.098" fill="#FF833D"/>
<path d="M63.8341 207.098L63.5967 214.009C63.5967 216.623 69.9885 218.74 77.8597 218.74C85.7399 218.74 92.1226 216.623 92.1226 214.009L92.36 207.098" stroke="black" stroke-width="2" stroke-linecap="round" stroke-linejoin="round"/>
<path d="M78.1058 211.828C85.983 211.828 92.3687 209.71 92.3687 207.097C92.3687 204.484 85.983 202.366 78.1058 202.366C70.2285 202.366 63.8428 204.484 63.8428 207.097C63.8428 209.71 70.2285 211.828 78.1058 211.828Z" fill="#FAFC7D" stroke="black" stroke-width="2" stroke-linecap="round" stroke-linejoin="round"/>
<path d="M69.3321 197.221L69.0947 204.133C69.0947 206.747 75.4866 208.864 83.3577 208.864C91.238 208.864 97.6207 206.747 97.6207 204.133L97.8581 197.221" fill="#FF833D"/>
<path d="M69.3321 197.221L69.0947 204.133C69.0947 206.747 75.4866 208.864 83.3577 208.864C91.238 208.864 97.6207 206.747 97.6207 204.133L97.8581 197.221" stroke="black" stroke-width="2" stroke-linecap="round" stroke-linejoin="round"/>
<path d="M83.6038 201.951C91.481 201.951 97.8668 199.833 97.8668 197.221C97.8668 194.608 91.481 192.49 83.6038 192.49C75.7266 192.49 69.3408 194.608 69.3408 197.221C69.3408 199.833 75.7266 201.951 83.6038 201.951Z" fill="#FAFC7D" stroke="black" stroke-width="2" stroke-linecap="round" stroke-linejoin="round"/>
<path d="M29.3097 208.376L29.0723 215.288C29.0723 217.902 35.4641 220.019 43.3352 220.019C51.2155 220.019 57.5982 217.902 57.5982 215.288L57.8356 208.376" fill="#FF833D"/>
<path d="M29.3097 208.376L29.0723 215.288C29.0723 217.902 35.4641 220.019 43.3352 220.019C51.2155 220.019 57.5982 217.902 57.5982 215.288L57.8356 208.376" stroke="black" stroke-width="2" stroke-linecap="round" stroke-linejoin="round"/>
<path d="M43.5725 213.106C51.4498 213.106 57.8355 210.988 57.8355 208.376C57.8355 205.763 51.4498 203.645 43.5725 203.645C35.6953 203.645 29.3096 205.763 29.3096 208.376C29.3096 210.988 35.6953 213.106 43.5725 213.106Z" fill="#FAFC7D" stroke="black" stroke-width="2" stroke-linecap="round" stroke-linejoin="round"/>
<path d="M180.285 186.167C180.906 193.99 178.468 216.907 178.468 216.907H143.998C145.642 208.338 147.157 190.972 140.044 190.024H139.259C131.89 190.972 128.858 208.348 128.256 216.907H89.6854C88.9275 213.115 93.2649 209.259 95.5385 207.814C95.5385 207.814 97.5109 193.328 100.387 185.118C100.387 185.118 121.261 130.634 135.917 124.863C144.856 121.348 158.279 122.112 166.15 125.563C177.519 139.856 180.285 186.167 180.285 186.167Z" fill="#B8AFE8"/>
<path d="M94.0234 114.3C94.0234 114.3 114.322 143.18 148.692 144.735C183.062 146.291 170.479 133.305 170.479 133.305L94.0326 114.3H94.0234Z" fill="#8A7CD8"/>
<path d="M129.142 190.818C126.896 195.097 125.489 201.217 124.713 206.473C124.229 209.74 121.271 212.363 118.029 212.363H90.8637C89.9415 213.771 89.3845 215.345 89.704 216.909H128.274C128.786 209.537 131.105 195.659 136.429 191.315C137.296 190.606 130.703 187.863 129.151 190.818H129.142Z" fill="#8A7CD8"/>
<path d="M180.286 186.17C180.286 186.17 177.519 139.859 166.15 125.566C165.612 125.326 165.036 125.105 164.452 124.894C170.807 136.766 166.223 156.222 162.699 167.322C159.649 176.93 159.128 187.21 161.411 197.03C164.352 209.703 169.584 212.372 166.607 212.372H144.729C144.509 214.038 144.254 215.584 143.998 216.919H178.468C178.468 216.919 180.906 194.002 180.286 186.179V186.17Z" fill="#8A7CD8"/>
<path d="M135.917 124.856C144.856 121.341 158.279 122.105 166.15 125.556C177.519 139.849 180.285 186.16 180.285 186.16C180.906 193.983 178.468 216.9 178.468 216.9H143.998C145.642 208.331 147.157 190.965 140.044 190.017H139.259C131.89 190.965 128.858 208.341 128.256 216.9H89.6854C88.9275 213.108 93.2649 209.252 95.5385 207.807C95.5385 207.807 97.5109 193.321 100.387 185.111C100.387 185.111 109.281 161.882 119.545 144.147" stroke="black" stroke-width="2" stroke-linecap="round" stroke-linejoin="round"/>
<path d="M100.305 206.838C103.948 205.937 112.824 204.887 119.243 207.97L100.305 206.838Z" fill="#B8AFE8"/>
<path d="M100.305 206.838C103.948 205.937 112.824 204.887 119.243 207.97" stroke="black" stroke-width="2" stroke-linecap="round" stroke-linejoin="round"/>
<path d="M149.367 206.939C156.782 204.647 165.091 206.672 168.324 207.97L149.367 206.939Z" fill="#B8AFE8"/>
<path d="M149.367 206.939C156.782 204.647 165.091 206.672 168.324 207.97" stroke="black" stroke-width="2" stroke-linecap="round" stroke-linejoin="round"/>
<path d="M122.431 188.866C122.431 188.866 128.375 191.958 140.255 191.958C152.135 191.958 157.869 188.866 157.869 188.866" fill="#B8AFE8"/>
<path d="M116.23 189.351C116.23 189.351 122.175 192.443 134.055 192.443C145.934 192.443 151.669 189.351 151.669 189.351" fill="#B8AFE8"/>
<path d="M116.23 189.351C116.23 189.351 122.175 192.443 134.055 192.443C145.934 192.443 151.669 189.351 151.669 189.351" stroke="black" stroke-width="2" stroke-linecap="round" stroke-linejoin="round"/>
<path d="M129.104 178.334H134.218" stroke="black" stroke-width="2" stroke-linecap="round" stroke-linejoin="round"/>
<path d="M131.999 175.757L131.323 180.911" stroke="black" stroke-width="2" stroke-linecap="round" stroke-linejoin="round"/>
<path d="M178.194 216.898H139.624C138.866 213.106 143.203 209.25 145.477 207.805" fill="#B8AFE8"/>
<path d="M178.194 216.898H139.624C138.866 213.106 143.203 209.25 145.477 207.805" stroke="black" stroke-width="2" stroke-linecap="round" stroke-linejoin="round"/>
<path d="M168.771 212.352H141.359C141.359 212.352 140.172 213.65 140.51 215.813L177.354 216.034" fill="#8A7CD8"/>
<path d="M58.9756 115.487L61.8884 117.991C68.2712 122.777 77.4024 121.304 82.2785 114.696C87.1637 108.088 85.9401 98.8477 79.5665 94.0619L76.6536 91.5586" fill="#FF833D"/>
<path d="M58.9756 115.487L61.8884 117.991C68.2712 122.777 77.4024 121.304 82.2785 114.696C87.1637 108.088 85.9401 98.8477 79.5665 94.0619L76.6536 91.5586" stroke="black" stroke-width="2" stroke-linecap="round" stroke-linejoin="round"/>
<path d="M77.919 111.023C82.7999 104.413 81.9783 95.4704 76.084 91.0487C70.1898 86.6269 61.4548 88.4005 56.5739 95.0101C51.6931 101.62 52.5146 110.562 58.4089 114.984C64.3031 119.406 73.0381 117.632 77.919 111.023Z" fill="#FAFC7D" stroke="black" stroke-width="2" stroke-linecap="round" stroke-linejoin="round"/>
<path d="M88.0866 114.297C88.0866 114.297 83.5758 109.327 80.8639 111.923C78.1519 114.518 82.7358 121.927 82.7358 121.927" fill="#B8AFE8"/>
<path d="M88.0866 114.297C88.0866 114.297 83.5758 109.327 80.8639 111.923C78.1519 114.518 82.7358 121.927 82.7358 121.927" stroke="black" stroke-width="2" stroke-linecap="round" stroke-linejoin="round"/>
<path d="M96.971 71.8571C94.2682 71.8111 88.9355 71.5718 86.0501 70.9735C80.9914 69.9244 74.0699 67.5775 69.8239 62.3315C64.7743 54.9136 68.8194 45.8298 71.6775 41.0717C73.5312 37.9885 75.8961 35.0158 78.3342 32.7058C79.4482 31.6474 80.5531 30.7638 81.5301 30.138C82.5528 29.4846 83.4294 29.1256 84.1325 29.0612C84.233 29.0612 84.3334 29.052 84.4156 29.052C85.0091 29.052 85.5022 29.2361 85.8857 29.595C86.2783 29.9631 86.534 30.4969 86.6801 31.224C86.8901 32.31 86.8536 33.801 86.5432 36.0834C86.4518 36.7645 86.3423 37.4731 86.2327 38.1818C86.0592 39.323 85.8948 40.363 85.7944 41.2833C85.7122 42.1116 85.6848 42.7559 85.7305 43.2437C85.7761 43.7499 85.8857 44.0904 86.0592 44.2652C86.0957 44.3021 86.187 44.3757 86.4062 44.4585C86.5888 44.5321 86.8262 44.5966 87.1184 44.6518C87.6754 44.7622 88.4059 44.8451 89.3464 44.9095C89.5839 44.9279 90.2413 44.9463 92.0675 44.9463C95.3913 44.9463 100.87 44.8911 104.139 44.8543C105.673 44.8359 106.796 44.8266 107.107 44.8266C107.883 44.8359 108.367 44.8635 108.668 44.9095C108.714 44.9095 108.759 44.9279 108.805 44.9463C110.184 45.3973 111.864 46.6673 112.092 50.1646C112.284 53.0821 111.407 56.4321 110.64 58.733C109.673 61.6321 108.275 64.6508 106.796 67.0069C106.057 68.1849 105.326 69.1605 104.632 69.9059C103.874 70.7066 103.18 71.2036 102.559 71.3785C101.436 71.7006 99.6739 71.8755 97.5828 71.8755C97.3728 71.8755 97.1628 71.8755 96.9436 71.8755L96.971 71.8571Z" fill="white"/>
<path d="M84.4426 29.9723C84.8444 29.9723 85.1001 30.0919 85.2827 30.2668C85.511 30.4785 85.6936 30.8466 85.8032 31.408C86.0223 32.54 85.9036 34.1598 85.6571 35.9637C85.5658 36.6447 85.4562 37.3626 85.3466 38.0713C85.1731 39.1665 85.0088 40.2433 84.9083 41.1912C84.8261 41.9735 84.7896 42.7098 84.8444 43.3264C84.8992 43.9154 85.0362 44.5229 85.4379 44.9186C85.6206 45.1027 85.8671 45.2223 86.1045 45.3144C86.3511 45.4064 86.6433 45.48 86.9629 45.5444C87.602 45.6733 88.4056 45.7561 89.3096 45.8205C89.7022 45.8482 90.7249 45.8574 92.0946 45.8574C96.9342 45.8574 106.12 45.7377 107.125 45.7377C107.152 45.7377 107.179 45.7377 107.189 45.7377C107.837 45.7469 108.284 45.7745 108.54 45.8113C110.211 46.3636 111.051 47.9005 111.197 50.2198C111.352 52.5482 110.777 55.4841 109.791 58.4384C108.814 61.3835 107.444 64.2826 106.038 66.519C105.335 67.6418 104.641 68.5806 103.983 69.2708C103.317 69.9795 102.751 70.3753 102.331 70.4949C101.363 70.771 99.7009 70.9551 97.6099 70.9551C97.409 70.9551 97.199 70.9551 96.9889 70.9551C94.6148 70.9183 89.1635 70.6974 86.2415 70.0899C80.3884 68.8751 74.2431 66.3442 70.5449 61.7701C66.5089 55.8155 68.5634 48.057 72.4716 41.5502C74.4166 38.3198 76.7724 35.4575 78.973 33.3775C80.0688 32.3376 81.1189 31.5092 82.032 30.9202C82.9634 30.322 83.7121 30.0275 84.2326 29.9815C84.3057 29.9815 84.3787 29.9723 84.4426 29.9723ZM84.4426 28.1316C84.3239 28.1316 84.2052 28.1316 84.0774 28.15C83.2282 28.2236 82.2146 28.6378 81.0641 29.3648C80.0231 30.0275 78.9 30.9294 77.7221 32.0338C75.2292 34.3991 72.8095 37.4362 70.9102 40.593C65.7784 49.143 65.1118 57.0303 69.0383 62.7916C69.0657 62.8377 69.093 62.8745 69.1296 62.9113C73.54 68.3597 80.6714 70.7894 85.8762 71.8662C89.5013 72.6209 96.2128 72.7497 96.9615 72.7681C97.1807 72.7681 97.3998 72.7681 97.6099 72.7681C99.774 72.7681 101.628 72.5749 102.833 72.2343C103.618 72.0135 104.431 71.4429 105.317 70.5133C106.056 69.731 106.823 68.7094 107.59 67.4762C109.124 65.0281 110.521 62.0186 111.526 58.9998C112.32 56.6254 113.215 53.1465 113.023 50.0817C112.759 46.069 110.75 44.5873 109.106 44.0443C109.015 44.0167 108.923 43.9891 108.832 43.9799C108.613 43.9431 108.211 43.897 107.225 43.8786H107.134C106.814 43.8786 105.7 43.8878 104.157 43.9062C100.888 43.9431 95.4184 43.9983 92.1037 43.9983C90.2044 43.9983 89.6109 43.9799 89.4374 43.9707C88.5517 43.9154 87.8486 43.8326 87.3281 43.7314C87.0268 43.6762 86.8533 43.6209 86.762 43.5841C86.762 43.5841 86.762 43.5841 86.7528 43.5841C86.7346 43.5105 86.698 43.3816 86.6798 43.1608C86.6433 42.7282 86.6615 42.1484 86.7437 41.3753C86.835 40.4826 86.9994 39.4426 87.1637 38.3566C87.2733 37.6295 87.392 36.9116 87.4833 36.2214C87.8121 33.8101 87.8486 32.2639 87.6112 31.0583C87.4285 30.1379 87.0724 29.4293 86.5428 28.9323C86.1593 28.5734 85.4927 28.15 84.4518 28.15L84.4426 28.1316Z" fill="black"/>
<path opacity="0.2" d="M108.531 45.8034C108.284 45.7665 107.828 45.7389 107.18 45.7297C106.915 45.7297 104.349 45.7573 101.226 45.785C99.345 47.2391 97.5826 48.8129 95.939 50.4971C90.5607 56.0099 85.6025 62.2591 83.6758 69.3641C84.1963 69.4929 85.712 69.9715 86.2325 70.082C89.1545 70.6894 94.6059 70.9011 96.98 70.9471C99.3724 70.9839 101.263 70.7906 102.322 70.4869C102.742 70.3673 103.308 69.9715 103.975 69.2629C104.632 68.5726 105.326 67.6247 106.029 66.511C107.426 64.2746 108.796 61.3755 109.782 58.4304C110.768 55.4854 111.334 52.5403 111.188 50.2118C111.042 47.9017 110.202 46.3556 108.531 45.8034Z" fill="#8A7CD8"/>
<path d="M95.2537 64.2732C95.4181 71.7003 89.5741 77.8482 82.2052 78.0139C74.8363 78.1795 68.7366 72.2894 68.5723 64.8622L95.2537 64.2732Z" fill="#B8AFE8"/>
<path d="M95.2539 64.2732L85.5109 64.4849C83.2007 68.7737 82.1963 78.0139 82.1963 78.0139C88.5608 76.8727 95.3909 70.9917 95.2448 64.2732H95.2539Z" fill="#8A7CD8"/>
<path d="M95.2537 64.2732C95.4181 71.7003 89.5741 77.8482 82.2052 78.0139C74.8363 78.1795 68.7366 72.2894 68.5723 64.8622L95.2537 64.2732Z" stroke="black" stroke-width="2"/>
<path d="M215.786 84.3906C215.786 101.288 208.554 113.98 196.83 122.484C185.078 131.006 168.797 135.322 150.735 135.322C132.674 135.322 116.384 131.208 104.641 122.787C92.9256 114.394 85.6846 101.702 85.6846 84.3906C85.6846 69.7204 93.6653 55.5471 105.837 45.0184C118.009 34.4989 134.29 27.6792 150.735 27.6792C186.776 27.6792 215.786 55.0041 215.786 84.3906Z" fill="#B8AFE8"/>
<path d="M173.135 31.3318C191.059 40.7285 203.085 57.9941 203.085 76.1248C203.085 91.6509 196.438 103.312 185.672 111.125C174.879 118.957 159.913 122.924 143.321 122.924C126.73 122.924 111.764 119.142 100.971 111.411C94.2591 106.606 89.1547 100.256 86.251 92.3136C88.132 105.631 94.7978 115.745 104.641 122.795C116.384 131.207 132.674 135.33 150.736 135.33C168.797 135.33 185.078 131.014 196.83 122.492C208.555 113.988 215.787 101.296 215.787 84.3987C215.787 61.4361 198.072 39.7345 173.135 31.341V31.3318Z" fill="#8A7CD8"/>
<path d="M215.786 84.3906C215.786 101.288 208.554 113.98 196.83 122.484C185.078 131.006 168.797 135.322 150.735 135.322C132.674 135.322 116.384 131.208 104.641 122.787C92.9256 114.394 85.6846 101.702 85.6846 84.3906C85.6846 69.7204 93.6653 55.5471 105.837 45.0184C118.009 34.4989 134.29 27.6792 150.735 27.6792C186.776 27.6792 215.786 55.0041 215.786 84.3906Z" stroke="black" stroke-width="2" stroke-linecap="round" stroke-linejoin="round"/>
<path d="M207.924 72.4085C206.938 72.4085 206.116 72.3441 205.477 72.2245C204.829 72.1048 204.071 71.6539 203.212 70.8992C202.427 70.1997 201.587 69.261 200.711 68.1105C198.966 65.8097 197.241 62.8186 195.971 59.9011C194.967 57.591 193.753 54.2134 193.679 51.1763C193.588 47.5501 195.214 46.0868 196.583 45.4978C196.629 45.4793 196.675 45.4609 196.72 45.4517C197.021 45.3781 197.524 45.2953 198.236 45.2217C198.93 45.148 199.797 45.0744 200.784 45.0008C201.551 44.9456 203.404 44.8167 203.404 44.8167C204.71 44.7247 206.107 44.6234 207.486 44.5222C210.353 44.2921 212.417 44.0712 214.006 43.8319C214.973 43.6755 215.722 43.519 216.288 43.3534C216.581 43.2705 216.827 43.1785 217.019 43.0865C217.229 42.9852 217.32 42.9024 217.366 42.8472C217.539 42.6447 217.622 42.2674 217.622 41.7336C217.622 41.2182 217.539 40.5555 217.375 39.7088C217.192 38.7609 216.918 37.6472 216.644 36.5704L216.617 36.4784C216.444 35.779 216.27 35.0795 216.115 34.4076C215.585 32.0884 215.403 30.5422 215.521 29.401C215.604 28.6371 215.823 28.0665 216.188 27.6523C216.599 27.1922 217.183 26.9621 217.932 26.9529C218.662 26.9529 219.594 27.2474 220.717 27.8272C221.795 28.3794 222.991 29.1709 224.26 30.1741C226.999 32.3369 229.72 35.1899 231.921 38.2087C235.318 42.8656 240.34 51.8757 235.847 59.9471C231.903 65.8281 224.954 68.9112 219.822 70.4666C216.307 71.5342 213.266 72.0036 211.33 72.2153C210.107 72.3441 208.965 72.4177 207.933 72.4177L207.924 72.4085Z" fill="white"/>
<path d="M217.932 27.8732C218.471 27.8732 219.274 28.1124 220.297 28.6462C221.301 29.1616 222.461 29.9347 223.694 30.9011C226.159 32.843 228.871 35.5856 231.181 38.7516C235.829 45.1203 238.678 52.9709 235.044 59.4869C231.629 64.5764 225.502 67.7699 219.548 69.5738C216.58 70.4757 213.677 71.0187 211.22 71.2856C209.979 71.4237 208.874 71.4789 207.924 71.4789C206.974 71.4789 206.207 71.4145 205.641 71.3133C205.194 71.2304 204.573 70.8715 203.815 70.1996C203.075 69.5462 202.263 68.6351 201.432 67.5399C199.77 65.3494 198.09 62.478 196.802 59.5237C195.515 56.5602 194.647 53.5691 194.592 51.1486C194.538 48.7373 195.259 47.0623 196.939 46.3352C197.195 46.2708 197.661 46.1971 198.327 46.1327C199.012 46.0591 199.87 45.9855 200.847 45.921C201.614 45.8658 202.464 45.8014 203.349 45.7462C204.692 45.6541 206.134 45.5529 207.559 45.4425C209.924 45.2584 212.28 45.0283 214.142 44.743C215.074 44.5958 215.896 44.4301 216.544 44.2368C216.863 44.1448 217.165 44.0343 217.411 43.9147C217.649 43.7951 217.886 43.6478 218.06 43.4453C218.434 42.9944 218.534 42.3501 218.525 41.7335C218.525 41.0893 218.416 40.3346 218.261 39.5339C218.069 38.5675 217.795 37.4631 217.521 36.3495C217.338 35.6316 217.165 34.8954 217 34.1959C216.58 32.3552 216.297 30.6894 216.425 29.493C216.489 28.9039 216.644 28.5082 216.863 28.2597C217.064 28.0388 217.375 27.8732 217.923 27.8732M217.923 26.0325C216.653 26.0325 215.905 26.5755 215.503 27.0356C215.01 27.5878 214.709 28.3517 214.608 29.2997C214.471 30.5605 214.654 32.1435 215.22 34.6101C215.375 35.3003 215.558 36.0182 215.731 36.736L215.749 36.7913C216.033 37.9141 216.288 38.9725 216.471 39.8836C216.626 40.6751 216.699 41.2825 216.699 41.7335C216.699 42.0096 216.672 42.1568 216.653 42.2305C216.644 42.2305 216.626 42.2397 216.608 42.2489C216.507 42.2949 216.334 42.3685 216.023 42.4606C215.494 42.617 214.763 42.7643 213.85 42.9115C212.298 43.1508 210.243 43.3717 207.404 43.6018C205.988 43.7122 204.555 43.8135 203.212 43.9055C202.327 43.9699 201.477 44.0251 200.701 44.0804C199.587 44.1632 198.775 44.2368 198.126 44.3012C197.113 44.4117 196.702 44.4945 196.483 44.5497C196.391 44.5773 196.3 44.605 196.209 44.6418C194.574 45.3412 192.647 47.0531 192.748 51.1946C192.821 54.379 194.072 57.8855 195.113 60.2692C196.428 63.2879 198.154 66.2698 199.962 68.6627C200.875 69.8683 201.76 70.8531 202.591 71.5894C203.578 72.4637 204.463 72.9699 205.285 73.1263C205.979 73.2552 206.865 73.3288 207.906 73.3288C208.947 73.3288 210.143 73.2644 211.394 73.1263C213.366 72.9146 216.471 72.4269 220.059 71.3409C225.337 69.7395 232.487 66.5643 236.541 60.5177C236.569 60.4716 236.596 60.4348 236.623 60.3888C240.139 54.0753 238.724 46.0039 232.642 37.6564C230.396 34.5732 227.611 31.6558 224.808 29.4469C223.493 28.407 222.251 27.5878 221.119 26.9988C219.868 26.3546 218.799 26.0325 217.923 26.0325Z" fill="black"/>
<path d="M200.975 67.6118C201.075 73.5112 209.841 84.2792 215.411 83.5521C216.37 83.4233 219.338 81.2881 220.205 80.8279C218.936 76.2446 216.461 69.793 214.124 65.9092L200.975 67.621V67.6118Z" fill="#8A7CD8"/>
<path d="M199.148 65.3772C201.093 73.2461 208.754 79.7897 216.26 79.9922C223.766 80.1947 231.948 74.0744 230.003 66.2055L199.148 65.3772Z" fill="#B8AFE8" stroke="black" stroke-width="2"/>
<path d="M143.193 98.4985C141.978 102.428 138.015 106.358 132.509 106.358C127.003 106.358 123.57 102.428 123.25 98.4985" stroke="black" stroke-width="2" stroke-linecap="round" stroke-linejoin="round"/>
<path d="M127.886 77.7633C131.284 68.5489 127.708 58.7075 119.899 55.782C112.09 52.8564 103.005 57.9545 99.6069 67.1689C96.2088 76.3833 99.7846 86.2247 107.594 89.1502C115.403 92.0758 124.488 86.9777 127.886 77.7633Z" fill="white" stroke="black" stroke-width="2" stroke-linecap="round" stroke-linejoin="round"/>
<path d="M175.174 85.2966C182.868 78.7082 184.27 67.6299 178.305 60.5526C172.339 53.4754 161.266 53.0792 153.571 59.6677C145.877 66.2561 144.476 77.3344 150.441 84.4117C156.406 91.4889 167.48 91.8851 175.174 85.2966Z" fill="white" stroke="black" stroke-width="2" stroke-linecap="round" stroke-linejoin="round"/>
<path fill-rule="evenodd" clip-rule="evenodd" d="M133.906 79.1289C126.738 79.1289 120.611 82.5526 120.228 86.7677C120.027 89.0042 121.469 91.0105 123.944 92.4094C124.273 90.6056 125.916 89.179 127.779 89.179C129.742 89.179 131.194 90.762 131.012 92.7223C130.957 93.293 130.774 93.8268 130.491 94.3053C131.148 94.3698 131.824 94.3974 132.518 94.3974C133.212 94.3974 133.897 94.3606 134.564 94.3053C134.363 93.8268 134.28 93.293 134.326 92.7223C134.5 90.762 136.244 89.179 138.207 89.179C140.061 89.179 141.458 90.5964 141.458 92.4094C144.179 91.0105 145.996 89.0042 146.197 86.7677C146.58 82.5526 141.074 79.1289 133.906 79.1289Z" fill="black"/>
<path d="M119.992 81.1743C125.013 76.3545 125.568 68.7264 121.231 64.1363C116.895 59.5462 109.308 59.7324 104.287 64.5521C99.2651 69.3719 98.71 77 103.047 81.5901C107.384 86.1802 114.97 85.994 119.992 81.1743Z" fill="black"/>
<path d="M102.093 72.0959C106.914 72.1051 110.466 75.9613 110.183 80.7747C110.183 80.7747 110.192 80.7747 110.201 80.7747C110.21 80.7747 110.21 80.7747 110.22 80.7747C110.877 75.9521 115.169 72.1051 119.999 72.0959C115.059 72.0867 111.443 68.0464 111.927 63.0581C111.443 68.0464 107.042 72.0867 102.093 72.0959Z" fill="#FFCB27"/>
<path d="M168.677 82.2924C173.699 77.4727 174.254 69.8445 169.917 65.2544C165.58 60.6644 157.994 60.8505 152.972 65.6703C147.951 70.49 147.396 78.1182 151.732 82.7083C156.069 87.2984 163.656 87.1122 168.677 82.2924Z" fill="black"/>
<path d="M150.781 73.1996C155.603 73.2088 159.155 77.065 158.872 81.8784C158.872 81.8784 158.881 81.8784 158.89 81.8784C158.899 81.8784 158.899 81.8784 158.908 81.8784C159.565 77.0558 163.857 73.2088 168.688 73.1996C163.748 73.1904 160.132 69.1501 160.616 64.1619C160.132 69.1501 155.73 73.1904 150.781 73.1996Z" fill="#FFCB27"/>
<path d="M127.851 55.4391C127.851 55.4391 127.76 50.6902 122.254 49.6318C120.327 49.2636 118.665 49.825 117.433 50.5521" stroke="black" stroke-width="2" stroke-linecap="round" stroke-linejoin="round"/>
<path d="M148.991 56.2C148.991 56.2 149.521 50.3743 156.388 49.5644C158.789 49.2791 160.78 50.1258 162.241 51.1289" stroke="black" stroke-width="2" stroke-linecap="round" stroke-linejoin="round"/>
<path d="M223.607 114.713L226.895 115.578C233.816 116.922 240.537 112.201 241.906 105.031C243.276 97.8616 238.774 90.9591 231.853 89.6154L228.566 88.7502" fill="#FF833D"/>
<path d="M223.607 114.713L226.895 115.578C233.816 116.922 240.537 112.201 241.906 105.031C243.276 97.8616 238.774 90.9591 231.853 89.6154L228.566 88.7502" stroke="black" stroke-width="2" stroke-linecap="round" stroke-linejoin="round"/>
<path d="M237.031 103.794C238.401 96.6216 234.325 89.8006 227.927 88.5588C221.529 87.317 215.231 92.1246 213.861 99.297C212.491 106.469 216.567 113.29 222.965 114.532C229.363 115.774 235.66 110.966 237.031 103.794Z" fill="#FAFC7D" stroke="black" stroke-width="2" stroke-linecap="round" stroke-linejoin="round"/>
<path d="M219.335 103.221L222.622 104.086C229.544 105.429 236.264 100.708 237.634 93.5386C239.004 86.3692 234.502 79.4666 227.58 78.1229L224.293 77.2578" fill="#FF833D"/>
<path d="M219.335 103.221L222.622 104.086C229.544 105.429 236.264 100.708 237.634 93.5386C239.004 86.3692 234.502 79.4666 227.58 78.1229L224.293 77.2578" stroke="black" stroke-width="2" stroke-linecap="round" stroke-linejoin="round"/>
<path d="M232.767 92.2942C234.137 85.1219 230.061 78.3008 223.663 77.059C217.265 75.8172 210.968 80.6249 209.597 87.7972C208.227 94.9696 212.303 101.791 218.701 103.032C225.099 104.274 231.397 99.4666 232.767 92.2942Z" fill="#FAFC7D" stroke="black" stroke-width="2" stroke-linecap="round" stroke-linejoin="round"/>
<path d="M209.335 108.997L212.622 109.862C219.544 111.206 226.264 106.484 227.634 99.3148C229.004 92.1453 224.502 85.2428 217.58 83.8991L214.293 83.0339" fill="#FF833D"/>
<path d="M209.335 108.997L212.622 109.862C219.544 111.206 226.264 106.484 227.634 99.3148C229.004 92.1453 224.502 85.2428 217.58 83.8991L214.293 83.0339" stroke="black" stroke-width="2" stroke-linecap="round" stroke-linejoin="round"/>
<path d="M222.753 98.0813C224.124 90.909 220.048 84.0879 213.65 82.8461C207.252 81.6043 200.954 86.412 199.584 93.5843C198.213 100.757 202.289 107.578 208.687 108.82C215.085 110.061 221.383 105.254 222.753 98.0813Z" fill="#FAFC7D" stroke="black" stroke-width="2" stroke-linecap="round" stroke-linejoin="round"/>
<path d="M203.154 115.055C203.154 115.055 163.889 139.085 157.58 173.855C154.822 189.068 160.949 205.947 169.048 211.792C181.248 220.59 202.569 220.59 202.569 220.59C225.626 221.124 254.361 218.538 257.375 189.28C260.388 160.013 227.981 145.776 225.498 122.969C223.014 100.163 203.163 115.055 203.163 115.055H203.154Z" fill="#FF833D" stroke="black" stroke-width="2" stroke-linecap="round" stroke-linejoin="round"/>
<path d="M203.154 115.056L198.78 96.4375C198.78 96.4375 217.801 108.678 240.181 110.96L225.489 122.98C225.489 122.98 204.716 121.701 203.154 115.065V115.056Z" fill="#FF833D" stroke="black" stroke-width="2" stroke-linecap="round" stroke-linejoin="round"/>
<path d="M228.356 124.849C228.283 124.849 228.219 124.849 228.146 124.849C208.56 123.413 199.62 116.216 199.255 115.912C198.041 114.909 197.867 113.114 198.853 111.89C199.839 110.675 201.62 110.491 202.834 111.476C202.953 111.568 210.989 117.863 228.557 119.152C230.119 119.262 231.297 120.633 231.178 122.207C231.068 123.707 229.826 124.858 228.356 124.858V124.849Z" fill="#FAFC7D" stroke="black" stroke-width="2" stroke-linecap="round" stroke-linejoin="round"/>
<path d="M227.005 130.681C226.932 130.681 226.858 130.681 226.785 130.681C206.231 129.181 196.853 121.616 196.461 121.303C195.191 120.254 195 118.367 196.041 117.079C197.082 115.799 198.944 115.606 200.214 116.646C200.341 116.747 208.77 123.346 227.205 124.699C228.849 124.819 230.082 126.254 229.954 127.911C229.844 129.494 228.539 130.69 226.986 130.69L227.005 130.681Z" fill="#FAFC7D" stroke="black" stroke-width="2" stroke-linecap="round" stroke-linejoin="round"/>
<path d="M222.722 209.612L222.484 216.523C222.484 219.137 228.876 221.254 236.747 221.254C244.628 221.254 251.01 219.137 251.01 216.523L251.248 209.612" fill="#FF833D"/>
<path d="M222.722 209.612L222.484 216.523C222.484 219.137 228.876 221.254 236.747 221.254C244.628 221.254 251.01 219.137 251.01 216.523L251.248 209.612" stroke="black" stroke-width="2" stroke-linecap="round" stroke-linejoin="round"/>
<path d="M236.985 214.341C244.862 214.341 251.248 212.224 251.248 209.611C251.248 206.998 244.862 204.88 236.985 204.88C229.107 204.88 222.722 206.998 222.722 209.611C222.722 212.224 229.107 214.341 236.985 214.341Z" fill="#FAFC7D" stroke="black" stroke-width="2" stroke-linecap="round" stroke-linejoin="round"/>
<path d="M164.679 156.555C169.5 150.075 165.839 142.878 161.154 137.485C156.99 133.5 150.617 129.055 144.006 130.721C132.701 133.565 132.665 152.017 154.982 161.497C156.269 162.049 157.52 162.482 158.744 162.841C161.109 161.175 163.154 159.122 164.679 156.555Z" fill="#B8AFE8"/>
<path d="M170.468 133.308L159.337 134.964L162.971 139.327C164.843 141.352 165.957 142.916 165.957 142.916L162.971 139.327C162.423 138.738 161.82 138.112 161.154 137.477C165.838 142.87 169.509 150.067 164.678 156.546C163.144 159.114 161.108 161.167 158.743 162.832C178.668 168.649 188.94 149.874 170.477 133.299L170.468 133.308Z" fill="#8A7CD8"/>
<path d="M165.957 142.923C165.957 142.923 155.31 127.875 144.006 130.719C132.701 133.563 132.665 152.016 154.982 161.495C177.298 170.984 190.073 150.893 170.477 133.305L159.346 134.962" stroke="black" stroke-width="2" stroke-linecap="round" stroke-linejoin="round"/>
</g>
<defs>
<clipPath id="clip0_2_3052">
<rect width="286" height="221" fill="white" transform="translate(0.527344 0.253906)"/>
</clipPath>
</defs>
</svg>
