<svg width="24" height="26" viewBox="0 0 24 26" fill="none" xmlns="http://www.w3.org/2000/svg">
<g clip-path="url(#clip0_2_1085)">
<g clip-path="url(#clip1_2_1085)">
<path d="M16.7718 10.1429C16.7765 10.2483 16.7795 10.3542 16.7795 10.4613C16.7795 13.7142 14.3028 17.4659 9.77449 17.4659C8.38378 17.4659 7.09036 17.0587 6.00049 16.3602C6.19336 16.3829 6.38878 16.394 6.58762 16.394C7.74135 16.394 8.80249 16.001 9.64549 15.3402C9.13176 15.3306 8.63386 15.1608 8.22144 14.8543C7.80902 14.5479 7.5027 14.1202 7.34533 13.631C7.71452 13.701 8.09478 13.6864 8.45749 13.5882C7.90039 13.4756 7.39937 13.1738 7.03943 12.7339C6.67948 12.2941 6.48277 11.7433 6.48264 11.1749V11.1432C6.81435 11.3274 7.19449 11.4389 7.59778 11.4517C7.07606 11.1039 6.70675 10.57 6.56522 9.95918C6.42369 9.34831 6.52061 8.70645 6.8362 8.16461C7.4544 8.92514 8.22563 9.54717 9.09982 9.99032C9.97401 10.4335 10.9316 10.6878 11.9105 10.7369C11.7862 10.2087 11.8399 9.65435 12.0632 9.15986C12.2865 8.66538 12.6668 8.25849 13.1451 8.00242C13.6235 7.74635 14.173 7.65544 14.7083 7.74382C15.2436 7.8322 15.7347 8.09492 16.1053 8.49116C16.6569 8.38283 17.1858 8.18092 17.6692 7.89416C17.4851 8.46425 17.1005 8.9482 16.5866 9.25616C17.0746 9.19792 17.5511 9.0672 18.0005 8.86832C17.6698 9.36273 17.2537 9.79432 16.7718 10.1429ZM12.0005 0.590027C5.37262 0.590027 0.000488281 5.96216 0.000488281 12.59C0.000488281 19.217 5.37262 24.59 12.0005 24.59C18.6284 24.59 24.0005 19.217 24.0005 12.59C24.0005 5.96216 18.6284 0.590027 12.0005 0.590027Z" fill="black"/>
</g>
</g>
<defs>
<clipPath id="clip0_2_1085">
<rect width="24" height="25.41" fill="white" transform="translate(0.000488281 0.590027)"/>
</clipPath>
<clipPath id="clip1_2_1085">
<rect width="24" height="24" fill="white" transform="translate(0.000488281 0.590027)"/>
</clipPath>
</defs>
</svg>
