<svg width="280" height="169" viewBox="0 0 280 169" fill="none" xmlns="http://www.w3.org/2000/svg">
<path d="M39.072 43.6243L41.5786 47.8428C44.5623 53.3188 40.1555 61.5124 31.73 66.1285C23.3045 70.7445 14.0623 70.0549 11.0705 64.5709L8.98438 61.0257" fill="#FF833D"/>
<path d="M39.072 43.6243L41.5786 47.8428C44.5623 53.3188 40.1555 61.5124 31.73 66.1285C23.3045 70.7445 14.0623 70.0549 11.0705 64.5709L8.98438 61.0257" stroke="black" stroke-linecap="round" stroke-linejoin="round"/>
<mask id="mask0_2_2241" style="mask-type:luminance" maskUnits="userSpaceOnUse" x="8" y="43" width="35" height="27">
<path d="M39.1778 43.5675L41.6845 47.786C44.6682 53.262 40.2371 61.4638 31.7873 66.1042C23.3375 70.7445 14.063 70.055 11.0793 64.579L8.99316 61.0338L39.1778 43.5675Z" fill="white"/>
</mask>
<g mask="url(#mask0_2_2241)">
<path d="M12.4053 61.707L20.4831 74.4032" stroke="black" stroke-linecap="round" stroke-linejoin="round"/>
<path d="M15.0166 59.7195L23.1025 72.4156" stroke="black" stroke-linecap="round" stroke-linejoin="round"/>
<path d="M17.6367 57.7319L25.7145 70.42" stroke="black" stroke-linecap="round" stroke-linejoin="round"/>
<path d="M20.248 55.7363L28.3339 68.4325" stroke="black" stroke-linecap="round" stroke-linejoin="round"/>
<path d="M22.8682 53.7487L30.946 66.4367" stroke="black" stroke-linecap="round" stroke-linejoin="round"/>
<path d="M25.4805 51.7529L33.5664 64.4491" stroke="black" stroke-linecap="round" stroke-linejoin="round"/>
<path d="M28.0996 49.7655L36.1774 62.4616" stroke="black" stroke-linecap="round" stroke-linejoin="round"/>
<path d="M30.7197 47.7698L38.7975 60.4659" stroke="black" stroke-linecap="round" stroke-linejoin="round"/>
<path d="M33.332 45.7821L41.4098 58.4782" stroke="black" stroke-linecap="round" stroke-linejoin="round"/>
<path d="M35.9512 43.7946L44.029 56.4826" stroke="black" stroke-linecap="round" stroke-linejoin="round"/>
</g>
<path d="M29.6622 62.5853C38.0913 57.9622 42.5035 49.7716 39.5173 44.2909C36.5311 38.8103 27.2772 38.1151 18.8481 42.7382C10.419 47.3613 6.00676 55.5519 8.99299 61.0326C11.9792 66.5132 21.2331 67.2084 29.6622 62.5853Z" fill="#FAFC7D" stroke="black" stroke-linecap="round" stroke-linejoin="round"/>
<path d="M101.311 126.324C101.27 126.324 101.222 126.315 101.181 126.299L29.0553 101.199C28.8774 101.134 28.7642 100.964 28.7884 100.777L35.6695 32.9968C35.6776 32.8751 35.7504 32.7615 35.8555 32.6966C35.9202 32.656 35.993 32.6317 36.0738 32.6317C36.1142 32.6317 36.1628 32.6398 36.2032 32.6561L108.321 57.7563C108.499 57.8212 108.612 57.9915 108.588 58.1781L101.707 125.958C101.691 126.08 101.626 126.194 101.521 126.259C101.464 126.299 101.384 126.324 101.311 126.324Z" fill="#B8AFE8"/>
<path d="M36.0733 33.0373L108.191 58.1376L101.31 125.918L29.1922 100.818L36.0733 33.0373ZM36.0733 32.2261C35.9196 32.2261 35.766 32.2666 35.6366 32.3559C35.4264 32.4857 35.2889 32.7128 35.2647 32.9562L28.3836 100.737C28.3431 101.11 28.5695 101.459 28.9253 101.588L101.043 126.689C101.132 126.721 101.221 126.737 101.31 126.737C101.464 126.737 101.618 126.697 101.747 126.607C101.957 126.478 102.095 126.251 102.119 126.007L109 58.2268C109.04 57.8536 108.814 57.5048 108.458 57.375L36.332 32.2666C36.2511 32.2423 36.1622 32.2261 36.0733 32.2261Z" fill="black"/>
<path d="M97.6473 120.215C97.5988 120.215 97.5584 120.207 97.5099 120.19L33.1542 97.2562C32.9763 97.1913 32.8712 97.0209 32.8874 96.8344L38.2402 44.1109C38.2564 43.9892 38.3211 43.8756 38.4262 43.8107C38.4909 43.7702 38.5637 43.7458 38.6445 43.7458C38.693 43.7458 38.7335 43.754 38.782 43.7702L103.138 66.7044C103.316 66.7693 103.421 66.9396 103.405 67.1262L98.0516 119.85C98.0355 119.971 97.9708 120.085 97.8657 120.15C97.7929 120.198 97.7201 120.215 97.6473 120.215Z" fill="#BDB9EF"/>
<path d="M38.6365 44.1515L102.992 67.0856L97.6394 119.809L33.2837 96.8749L38.6365 44.1515ZM38.6365 43.3402C38.4829 43.3402 38.3374 43.3808 38.208 43.4619C37.9978 43.5917 37.8603 43.8188 37.836 44.0622L32.4832 96.7857C32.4427 97.1588 32.6692 97.5077 33.0168 97.6294L97.3725 120.564C97.4615 120.596 97.5504 120.612 97.6394 120.612C97.793 120.612 97.9385 120.572 98.0679 120.491C98.2781 120.361 98.4156 120.134 98.4399 119.89L103.793 67.1668C103.833 66.7936 103.607 66.4447 103.259 66.3231L38.9115 43.3889C38.8225 43.3564 38.7336 43.3402 38.6365 43.3402Z" fill="black"/>
<g opacity="0.8">
<path d="M78.4353 118.041L23.1035 98.611L25.4323 75.328C25.6182 73.4621 27.4942 72.2696 29.2569 72.8861L78.9852 90.3524C80.2466 90.7905 81.039 92.0399 80.9015 93.3703L78.4353 118.041Z" fill="#847DCC"/>
</g>
<path d="M44.8866 46.3826L39.5176 99.2683" stroke="black" stroke-linecap="round" stroke-linejoin="round"/>
<path d="M53.6034 49.4653L48.2344 102.359" stroke="black" stroke-linecap="round" stroke-linejoin="round"/>
<path d="M62.3202 52.5562L56.9512 105.45" stroke="black" stroke-linecap="round" stroke-linejoin="round"/>
<path d="M71.036 55.647L65.667 108.533" stroke="black" stroke-linecap="round" stroke-linejoin="round"/>
<path d="M79.7526 58.7299L74.3916 111.624" stroke="black" stroke-linecap="round" stroke-linejoin="round"/>
<path d="M88.4774 61.8208L83.1084 114.715" stroke="black" stroke-linecap="round" stroke-linejoin="round"/>
<path d="M97.1942 64.9116L91.8252 117.797" stroke="black" stroke-linecap="round" stroke-linejoin="round"/>
<path d="M38.0693 49.7167L102.433 72.6508" stroke="black" stroke-linecap="round" stroke-linejoin="round"/>
<path d="M37.4629 55.7201L101.819 78.6543" stroke="black" stroke-linecap="round" stroke-linejoin="round"/>
<path d="M36.8564 61.7231L101.212 84.6573" stroke="black" stroke-linecap="round" stroke-linejoin="round"/>
<path d="M36.2422 67.7266L100.606 90.6607" stroke="black" stroke-linecap="round" stroke-linejoin="round"/>
<path d="M35.6357 73.7299L99.9914 96.664" stroke="black" stroke-linecap="round" stroke-linejoin="round"/>
<path d="M35.0293 79.7332L99.385 102.667" stroke="black" stroke-linecap="round" stroke-linejoin="round"/>
<path d="M34.415 85.7283L98.7788 108.671" stroke="black" stroke-linecap="round" stroke-linejoin="round"/>
<path d="M33.8086 91.7316L98.1643 114.674" stroke="black" stroke-linecap="round" stroke-linejoin="round"/>
<path d="M91.3642 58.6893C89.3185 57.0263 88.146 54.1057 88.4776 50.7796C89.0031 45.6038 92.9895 41.4015 97.3882 41.4015C101.787 41.4015 104.924 45.5957 104.399 50.7796C104.31 51.672 104.116 52.5319 103.833 53.3513" stroke="black" stroke-width="5" stroke-linecap="round" stroke-linejoin="round"/>
<path d="M49.8916 44.1515C47.8458 42.4884 46.6734 39.5679 47.0049 36.2418C47.5305 31.0659 51.5168 26.8636 55.9156 26.8636C60.3143 26.8636 63.4516 31.0578 62.926 36.2418C62.8371 37.1341 62.643 37.9941 62.36 38.8134" stroke="black" stroke-width="5" stroke-linecap="round" stroke-linejoin="round"/>
<path d="M108.191 58.5432C108.142 58.5432 108.102 58.5351 108.062 58.5189L35.9354 33.4186C35.7656 33.3618 35.6524 33.1915 35.6685 33.013C35.6766 32.8345 35.806 32.6804 35.9839 32.6398L41.8057 31.2931C41.8381 31.285 41.8704 31.285 41.8947 31.285C41.9432 31.285 41.9836 31.2931 42.024 31.3094L114.142 56.4096C114.312 56.4664 114.425 56.6367 114.409 56.8152C114.401 56.9937 114.272 57.1478 114.094 57.1884L108.272 58.5351C108.248 58.5432 108.215 58.5432 108.191 58.5432Z" fill="#B8AFE8"/>
<path d="M41.8947 31.6906L114.013 56.7909L108.191 58.1376L36.0728 33.0373L41.8947 31.6906ZM41.8947 30.8794C41.83 30.8794 41.7734 30.8875 41.7168 30.9037L35.8949 32.2504C35.5472 32.3315 35.2885 32.6398 35.2723 32.9968C35.2562 33.3618 35.4745 33.6863 35.8141 33.808L107.932 58.9082C108.021 58.9407 108.11 58.9569 108.199 58.9569C108.264 58.9569 108.32 58.9488 108.377 58.9326L114.199 57.5859C114.546 57.5048 114.805 57.1965 114.821 56.8395C114.838 56.4745 114.619 56.15 114.28 56.0283L42.1534 30.9281C42.0726 30.8956 41.9836 30.8794 41.8947 30.8794Z" fill="black"/>
<path d="M49.8916 44.1515C47.8458 42.4884 46.6734 39.5679 47.0049 36.2418C47.5305 31.0659 51.5168 26.8636 55.9156 26.8636" stroke="black" stroke-width="5" stroke-linecap="round" stroke-linejoin="round"/>
<path d="M91.3642 58.6893C89.3185 57.0263 88.146 54.1057 88.4776 50.7796C89.0031 45.6038 92.9895 41.4015 97.3882 41.4015" stroke="black" stroke-width="5" stroke-linecap="round" stroke-linejoin="round"/>
<path d="M101.407 126.324C101.31 126.324 101.213 126.291 101.14 126.226C101.043 126.137 100.995 126.015 101.003 125.886L107.779 58.1052C107.795 57.9348 107.924 57.7888 108.086 57.7482L113.908 56.4015C113.94 56.3934 113.973 56.3934 113.997 56.3934C114.094 56.3934 114.191 56.4259 114.264 56.4908C114.361 56.58 114.409 56.7017 114.401 56.8315L107.625 124.612C107.609 124.782 107.48 124.928 107.318 124.969L101.496 126.315C101.472 126.324 101.439 126.324 101.407 126.324Z" fill="#7873D8"/>
<path d="M114.013 56.7907L107.237 124.571L101.415 125.918L108.191 58.1374L114.013 56.7907ZM114.013 55.9795C113.957 55.9795 113.892 55.9876 113.835 56.0038L108.014 57.3505C107.674 57.4316 107.423 57.7156 107.391 58.0563L100.615 125.837C100.591 126.096 100.688 126.356 100.882 126.526C101.027 126.656 101.221 126.729 101.415 126.729C101.472 126.729 101.537 126.721 101.593 126.705L107.415 125.358C107.755 125.277 108.006 124.993 108.038 124.652L114.814 56.8719C114.838 56.6123 114.741 56.3527 114.547 56.1823C114.393 56.0525 114.207 55.9795 114.013 55.9795Z" fill="black"/>
<path d="M65.392 123.151C65.109 123.151 64.8179 123.103 64.551 123.005L13.3835 105.036C12.2676 104.647 11.5641 103.543 11.6854 102.359L15.2917 66.8261C15.4211 65.5118 16.5127 64.5221 17.8307 64.5221C18.1137 64.5221 18.4048 64.5708 18.6716 64.6681L69.8311 82.6374C70.947 83.0268 71.6505 84.1301 71.5292 85.3146L67.9229 120.848C67.8016 122.162 66.71 123.151 65.392 123.151Z" fill="black"/>
<path d="M17.8382 64.9277C18.0727 64.9277 18.3152 64.9683 18.5497 65.0494L69.7092 83.0187C70.6472 83.3513 71.2375 84.2761 71.1404 85.274L67.5341 120.807C67.4209 121.943 66.4587 122.746 65.3994 122.746C65.165 122.746 64.9224 122.705 64.6879 122.624L13.5284 104.655C12.5904 104.322 12.0002 103.397 12.0972 102.4L15.7035 66.8666C15.8167 65.7309 16.7708 64.9277 17.8382 64.9277ZM17.8382 64.1165C16.318 64.1165 15.0485 65.2603 14.8949 66.7855L11.2886 102.318C11.1511 103.689 11.9597 104.963 13.2535 105.417L64.413 123.387C64.7283 123.5 65.0598 123.557 65.3914 123.557C66.9115 123.557 68.181 122.413 68.3346 120.888L71.9409 85.3551C72.0784 83.9841 71.2698 82.7104 69.9761 82.2561L18.8166 64.2868C18.4931 64.1732 18.1697 64.1165 17.8382 64.1165Z" fill="black"/>
<path d="M64.5108 123.151C64.2278 123.151 63.9367 123.103 63.6699 123.005L12.5104 105.036C11.3946 104.647 10.6911 103.543 10.8124 102.359L14.4187 66.8261C14.5481 65.5118 15.6397 64.5221 16.9577 64.5221C17.2407 64.5221 17.5318 64.5708 17.7986 64.6681L68.9581 82.6374C70.0739 83.0268 70.7774 84.1301 70.6561 85.3146L67.0498 120.848C66.9204 122.162 65.8288 123.151 64.5108 123.151Z" fill="#B8AFE8"/>
<path d="M16.9573 64.9277C17.1918 64.9277 17.4344 64.9683 17.6689 65.0494L68.8284 83.0187C69.7663 83.3513 70.3566 84.2761 70.2596 85.274L66.6533 120.807C66.5401 121.943 65.5778 122.746 64.5186 122.746C64.2841 122.746 64.0415 122.705 63.807 122.624L12.6394 104.655C11.7015 104.322 11.1112 103.397 11.2082 102.4L14.8146 66.8666C14.9358 65.7309 15.89 64.9277 16.9573 64.9277ZM16.9573 64.1165C15.4372 64.1165 14.1677 65.2603 14.0141 66.7855L10.4077 102.318C10.2703 103.689 11.0789 104.963 12.3726 105.417L63.5321 123.387C63.8475 123.5 64.179 123.557 64.5105 123.557C66.0306 123.557 67.3001 122.413 67.4538 120.888L71.0601 85.3551C71.1975 83.9841 70.3889 82.7104 69.0952 82.2561L17.9357 64.2868C17.6123 64.1732 17.2888 64.1165 16.9573 64.1165Z" fill="black"/>
<path d="M26.2403 88.665C26.1109 88.665 25.9816 88.6406 25.8603 88.6001L17.3135 85.5984C16.8041 85.42 16.4806 84.9007 16.5453 84.3572C16.6181 83.7812 17.1113 83.3431 17.6935 83.3431C17.8229 83.3431 17.9523 83.3675 18.0736 83.408L26.6203 86.4097C27.1298 86.5882 27.4532 87.1074 27.3804 87.6509C27.3157 88.2269 26.8225 88.665 26.2403 88.665Z" fill="#B8AFE8"/>
<path d="M17.6936 83.7488C17.7745 83.7488 17.8553 83.765 17.9443 83.7893L26.4911 86.791C26.8226 86.9045 27.0328 87.2453 26.9843 87.5941C26.9358 87.9835 26.6043 88.2512 26.2404 88.2512C26.1595 88.2512 26.0787 88.235 25.9897 88.2107L17.4429 85.209C17.1114 85.0954 16.9012 84.7547 16.9497 84.4059C16.9982 84.0165 17.3297 83.7488 17.6936 83.7488ZM17.6936 82.9375C16.9093 82.9375 16.2462 83.5216 16.1492 84.3004C16.0522 85.0305 16.4888 85.7363 17.1842 85.9797L25.731 88.9814C25.9008 89.0381 26.0706 89.0706 26.2485 89.0706C27.0328 89.0706 27.6959 88.4865 27.7929 87.7077C27.8899 86.9775 27.4533 86.2718 26.7579 86.0284L18.2111 83.0267C18.0413 82.97 17.8715 82.9375 17.6936 82.9375Z" fill="black"/>
<path d="M30.6953 95.1713C30.566 95.1713 30.4366 95.147 30.3153 95.1064L25.6982 93.4839C25.1888 93.3054 24.8654 92.7862 24.9301 92.2427C25.0029 91.6667 25.4961 91.2286 26.0783 91.2286C26.2077 91.2286 26.337 91.253 26.4583 91.2935L31.0754 92.916C31.5848 93.0945 31.9082 93.6137 31.8435 94.1573C31.7708 94.7333 31.2775 95.1713 30.6953 95.1713Z" fill="#B8AFE8"/>
<path d="M26.0862 91.6423C26.167 91.6423 26.2479 91.6585 26.3368 91.6829L30.9539 93.3054C31.2854 93.419 31.4956 93.7597 31.4471 94.1085C31.3986 94.4979 31.0671 94.7656 30.7032 94.7656C30.6224 94.7656 30.5415 94.7494 30.4526 94.7251L25.8355 93.1026C25.504 92.989 25.2938 92.6483 25.3423 92.2994C25.3908 91.91 25.7223 91.6423 26.0862 91.6423ZM26.0862 90.8311C25.3018 90.8311 24.6388 91.4152 24.5418 92.194C24.4447 92.9241 24.8814 93.6299 25.5768 93.8733L30.1938 95.4958C30.3636 95.5526 30.5334 95.585 30.7113 95.585C31.4956 95.585 32.1587 95.0009 32.2557 94.2221C32.3527 93.492 31.9161 92.7862 31.2207 92.5428L26.6037 90.9203C26.4339 90.8554 26.256 90.8311 26.0862 90.8311Z" fill="black"/>
<path d="M39.6056 102.067C39.4763 102.067 39.3469 102.043 39.2256 102.002L36.9939 101.215C36.4845 101.037 36.1611 100.509 36.2338 99.974C36.3066 99.398 36.7998 98.96 37.382 98.96C37.5114 98.96 37.6408 98.9843 37.7621 99.0249L39.9938 99.8118C40.5032 99.9903 40.8266 100.509 40.7538 101.053C40.673 101.637 40.1797 102.067 39.6056 102.067Z" fill="#B8AFE8"/>
<path d="M37.3664 99.3656C37.4473 99.3656 37.5282 99.3818 37.6171 99.4061L39.8569 100.193C40.1884 100.307 40.3987 100.647 40.3501 100.996C40.3016 101.386 39.9701 101.653 39.6062 101.653C39.5254 101.653 39.4445 101.637 39.3556 101.613L37.1158 100.826C36.7843 100.712 36.574 100.372 36.6225 100.023C36.6711 99.6414 37.0026 99.3656 37.3664 99.3656ZM37.3664 98.5543C36.5821 98.5543 35.9191 99.1384 35.822 99.9172C35.725 100.647 36.1616 101.353 36.857 101.597L39.0887 102.383C39.2585 102.44 39.4284 102.473 39.6062 102.473C40.3906 102.473 41.0536 101.889 41.1506 101.11C41.2477 100.38 40.811 99.6739 40.1157 99.4305L37.8839 98.6436C37.7141 98.5868 37.5443 98.5543 37.3664 98.5543Z" fill="black"/>
<path d="M16.2295 100.225L62.8528 116.24" stroke="black" stroke-linecap="round" stroke-linejoin="round"/>
<path d="M54.4189 115.785L62.7151 118.633" stroke="black" stroke-linecap="round" stroke-linejoin="round"/>
<path d="M16.0918 102.619L52.2843 115.055" stroke="black" stroke-linecap="round" stroke-linejoin="round"/>
<path d="M64.5593 109.344L55.2848 106.091C55.115 106.034 55.0099 105.864 55.026 105.685L55.681 99.2438C55.7053 98.9923 55.9559 98.8301 56.1985 98.9112L65.4649 102.164C65.6348 102.221 65.7399 102.391 65.7237 102.57L65.0687 109.011C65.0445 109.263 64.7938 109.425 64.5593 109.344Z" fill="#FAFC7D" stroke="black" stroke-linecap="round" stroke-linejoin="round"/>
<path d="M55.4629 101.434L58.9722 102.619L59.239 99.9821" stroke="black" stroke-miterlimit="10" stroke-linecap="round" stroke-linejoin="round"/>
<path d="M58.3086 106.943L58.5673 103.86L61.0497 104.785L61.2923 102.619L65.3272 103.973" stroke="black" stroke-miterlimit="10" stroke-linecap="round" stroke-linejoin="round"/>
<path d="M65.1412 107.648L56.3276 104.509L56.1982 106.326" stroke="black" stroke-miterlimit="10" stroke-linecap="round" stroke-linejoin="round"/>
<path d="M69.0467 97.8729L13.5693 78.3946L14.4507 69.3086L69.9281 88.7868L69.0467 97.8729Z" fill="black"/>
<path d="M217.594 63.5405C216.931 72.4237 211.513 78.6461 203.185 78.1187C194.322 77.559 187.474 70.8661 187.474 61.9586C187.474 53.051 196.732 43.1212 205.174 45.8795C214.78 49.019 218.006 58.0077 217.594 63.5405Z" fill="#D9FC7E" stroke="black" stroke-linecap="round" stroke-linejoin="round"/>
<path d="M201.082 77.8997C195.6 76.2366 192.632 61.9667 203.548 57.4236L188.339 52.475L185.97 74.6466L201.082 77.8997Z" fill="#FAFC7D" stroke="black" stroke-linecap="round" stroke-linejoin="round"/>
<path d="M168.561 167.868C168.561 167.868 186.107 166.505 188.444 120.872C190.409 82.5077 187.417 51.8423 205.182 45.8795L129.498 20.1871C97.9143 16.0821 102.596 46.0012 100.259 85.3146C97.9224 124.628 80.376 125.804 80.376 125.804" fill="#D9FC7E"/>
<path d="M168.561 167.868C168.561 167.868 186.107 166.505 188.444 120.872C190.409 82.5077 187.417 51.8423 205.182 45.8795L129.498 20.1871C97.9143 16.0821 102.596 46.0012 100.259 85.3146C97.9224 124.628 80.376 125.804 80.376 125.804" stroke="black" stroke-linecap="round" stroke-linejoin="round"/>
<g opacity="0.2">
<path d="M111.879 46.3014C110.577 57.2614 110.722 71.0284 109.817 86.1989C107.48 125.512 89.9336 126.689 89.9336 126.689" stroke="#89B500" stroke-linecap="round" stroke-linejoin="round"/>
<path d="M121.703 49.2299C120.401 60.1899 120.547 73.1294 119.641 88.2999C117.304 127.613 99.7578 128.79 99.7578 128.79" stroke="#89B500" stroke-linecap="round" stroke-linejoin="round"/>
<path d="M131.528 52.1586C130.226 63.1186 130.372 75.2307 129.466 90.4011C127.129 129.715 109.583 130.891 109.583 130.891" stroke="#89B500" stroke-linecap="round" stroke-linejoin="round"/>
<path d="M141.344 55.0873C140.042 66.0473 140.187 77.34 139.282 92.5024C136.945 131.816 119.398 132.992 119.398 132.992" stroke="#89B500" stroke-linecap="round" stroke-linejoin="round"/>
<path d="M151.169 58.0159C149.867 68.9759 150.012 79.4411 149.107 94.6035C146.77 133.917 129.224 135.093 129.224 135.093" stroke="#89B500" stroke-linecap="round" stroke-linejoin="round"/>
<path d="M160.993 60.9445C159.691 71.9045 159.837 81.5422 158.931 96.7127C156.594 136.026 139.048 137.202 139.048 137.202" stroke="#89B500" stroke-linecap="round" stroke-linejoin="round"/>
<path d="M170.817 63.873C169.515 74.8331 169.661 83.6433 168.755 98.8138C166.418 138.127 148.872 139.304 148.872 139.304" stroke="#89B500" stroke-linecap="round" stroke-linejoin="round"/>
<path d="M180.641 66.8018C179.34 77.7618 179.485 85.7527 178.58 100.915C176.243 140.228 158.696 141.405 158.696 141.405" stroke="#89B500" stroke-linecap="round" stroke-linejoin="round"/>
</g>
<path d="M174.763 125.455C171.246 122.162 171.715 97.5969 166.936 96.3475C162.157 95.0982 158.575 110.772 153.796 108.549C149.018 106.318 154.993 81.7206 145.654 77.2263C136.315 72.7319 127.525 114.674 123.951 114.942C120.377 115.209 119.779 106.837 112.299 103.706C106.243 101.175 102.047 115.006 95.8042 110.528C95.8042 110.528 92.1413 117.773 91.2842 118.909L174.763 147.035V125.455Z" fill="#FAFC7D"/>
<path d="M110.981 103.389C110.981 103.389 110.277 115.169 107.479 124.466" stroke="black" stroke-linecap="round" stroke-linejoin="round"/>
<path d="M144.861 77.4049C144.861 77.4049 141.667 109.044 135.684 133.844" stroke="black" stroke-linecap="round" stroke-linejoin="round"/>
<path d="M166.936 96.3475C166.936 96.3475 164.081 119.071 159.254 142.175" stroke="black" stroke-linecap="round" stroke-linejoin="round"/>
<path d="M90.8633 118.763L176.946 148.235" stroke="black" stroke-linecap="round" stroke-linejoin="round"/>
<path d="M95.6094 109.823C102.563 115.412 105.126 100.647 112.299 103.698C119.762 106.87 120.385 115.201 123.95 114.933C127.524 114.666 136.314 72.7239 145.653 77.2182C154.992 81.7126 149.017 106.31 153.796 108.541C158.574 110.772 162.156 95.0902 166.935 96.3395C171.714 97.5888 171.245 122.154 174.762 125.447" stroke="black" stroke-linecap="round" stroke-linejoin="round"/>
<path d="M144.861 79.4897C146.295 79.4897 147.457 78.3238 147.457 76.8856C147.457 75.4474 146.295 74.2815 144.861 74.2815C143.428 74.2815 142.266 75.4474 142.266 76.8856C142.266 78.3238 143.428 79.4897 144.861 79.4897Z" fill="#BDB9EF" stroke="black" stroke-linecap="round" stroke-linejoin="round"/>
<path d="M166.935 97.9051C167.793 97.9051 168.488 97.2078 168.488 96.3475C168.488 95.4873 167.793 94.7899 166.935 94.7899C166.078 94.7899 165.383 95.4873 165.383 96.3475C165.383 97.2078 166.078 97.9051 166.935 97.9051Z" fill="#BDB9EF" stroke="black" stroke-linecap="round" stroke-linejoin="round"/>
<path d="M110.981 104.947C111.839 104.947 112.534 104.25 112.534 103.389C112.534 102.529 111.839 101.832 110.981 101.832C110.124 101.832 109.429 102.529 109.429 103.389C109.429 104.25 110.124 104.947 110.981 104.947Z" fill="#BDB9EF" stroke="black" stroke-linecap="round" stroke-linejoin="round"/>
<path d="M120.086 26.9691L179.897 46.2932" stroke="#F6FFCF" stroke-width="3" stroke-linecap="round" stroke-linejoin="round"/>
<path d="M114.127 30.6683L187.442 53.8864" stroke="#F6FFCF" stroke-width="3" stroke-linecap="round" stroke-linejoin="round"/>
<path d="M184.627 47.9481L189.737 49.595" stroke="#F6FFCF" stroke-width="3" stroke-linecap="round" stroke-linejoin="round"/>
<path d="M85.2595 140.593L168.552 167.86C155.583 160.088 156.601 138.817 156.601 138.817L72.2169 111.624C72.2169 111.624 66.9126 130.307 85.2595 140.593Z" fill="#FAFC7D" stroke="black" stroke-linecap="round" stroke-linejoin="round"/>
<path d="M188.751 150.361C188.12 150.361 187.473 150.337 186.842 150.28C180.883 149.761 175.49 146.832 171.649 142.021C167.226 136.489 165.277 128.944 166.296 121.326C168.156 107.413 179.484 96.5099 192.082 96.5099C192.721 96.5099 193.36 96.5342 193.99 96.591C199.95 97.1102 205.343 100.039 209.184 104.85C213.607 110.382 215.555 117.927 214.537 125.545C212.677 139.458 201.349 150.361 188.751 150.361Z" fill="#7873D8"/>
<path d="M192.082 96.9155C192.705 96.9155 193.327 96.9398 193.958 96.9966C207.057 98.1324 216.097 110.893 214.14 125.496C212.281 139.401 201.122 149.963 188.751 149.963C188.128 149.963 187.505 149.939 186.875 149.882C173.776 148.747 164.735 135.986 166.692 121.383C168.552 107.478 179.711 96.9155 192.082 96.9155ZM192.082 96.1042C185.864 96.1042 179.759 98.6759 174.891 103.349C170.016 108.03 166.814 114.39 165.9 121.277C164.865 129.009 166.846 136.659 171.334 142.281C175.247 147.173 180.737 150.166 186.81 150.685C187.457 150.742 188.112 150.767 188.759 150.767C194.969 150.767 201.082 148.195 205.949 143.522C210.825 138.841 214.027 132.481 214.941 125.593C215.976 117.862 213.995 110.212 209.507 104.59C205.594 99.6981 200.103 96.7046 194.031 96.1854C193.384 96.1286 192.729 96.1042 192.082 96.1042Z" fill="black"/>
<path d="M207.057 130.338C211.605 116.26 205.204 101.567 192.761 97.5215C180.318 93.4756 166.544 101.608 161.997 115.687C157.449 129.765 163.85 144.457 176.293 148.503C188.736 152.549 202.51 144.416 207.057 130.338Z" fill="#BDB9EF" stroke="black" stroke-linecap="round" stroke-linejoin="round"/>
<path d="M177.617 132.513C176.897 132.335 176.267 131.913 175.846 131.264L171.076 123.784C170.081 122.251 170.647 120.028 172.337 118.828C174.027 117.627 176.202 117.895 177.197 119.428L180.253 124.263L193.263 115.81C195.002 114.682 197.144 115.055 198.058 116.645C198.972 118.235 198.301 120.442 196.562 121.57L180.552 131.962C179.606 132.578 178.539 132.749 177.617 132.513Z" fill="#D9FC7E" stroke="black" stroke-linecap="round" stroke-linejoin="round"/>
<path d="M95.4639 4.22974L101.949 10.6224" stroke="black" stroke-linecap="round" stroke-linejoin="round"/>
<path d="M127.443 1.03333L130.92 10.6224" stroke="black" stroke-linecap="round" stroke-linejoin="round"/>
<path d="M226.286 44.4516L233.741 40.1033" stroke="black" stroke-linecap="round" stroke-linejoin="round"/>
<path d="M243.605 74.2166L252.354 78.1511" stroke="black" stroke-linecap="round" stroke-linejoin="round"/>
<path d="M246.322 64.6276L250.389 66.7449C255.459 69.6249 255.977 78.3134 251.554 86.1583C247.131 94.0031 239.433 98.0188 234.363 95.1389L230.959 93.3541" fill="#FF833D"/>
<path d="M246.322 64.6276L250.389 66.7449C255.459 69.6249 255.977 78.3134 251.554 86.1583C247.131 94.0031 239.433 98.0188 234.363 95.1389L230.959 93.3541" stroke="black" stroke-linecap="round" stroke-linejoin="round"/>
<mask id="mask1_2_2241" style="mask-type:luminance" maskUnits="userSpaceOnUse" x="230" y="64" width="25" height="33">
<path d="M246.379 64.5303L250.446 66.6476C255.516 69.5276 256.017 78.2405 251.578 86.1097C247.139 93.9788 239.425 98.0189 234.363 95.147L230.959 93.3623L246.379 64.5303Z" fill="white"/>
</mask>
<g mask="url(#mask1_2_2241)">
<path d="M234.007 92.2103L246.677 98.3029" stroke="black" stroke-linecap="round" stroke-linejoin="round"/>
<path d="M235.106 89.3303L247.777 95.4228" stroke="black" stroke-linecap="round" stroke-linejoin="round"/>
<path d="M236.214 86.4503L248.876 92.5428" stroke="black" stroke-linecap="round" stroke-linejoin="round"/>
<path d="M237.314 83.5703L249.977 89.671" stroke="black" stroke-linecap="round" stroke-linejoin="round"/>
<path d="M238.413 80.6985L251.076 86.791" stroke="black" stroke-linecap="round" stroke-linejoin="round"/>
<path d="M239.513 77.8187L252.183 83.9112" stroke="black" stroke-linecap="round" stroke-linejoin="round"/>
<path d="M240.613 74.9387L253.284 81.0312" stroke="black" stroke-linecap="round" stroke-linejoin="round"/>
<path d="M241.721 72.0668L254.383 78.1593" stroke="black" stroke-linecap="round" stroke-linejoin="round"/>
<path d="M242.82 69.1869L255.483 75.2794" stroke="black" stroke-linecap="round" stroke-linejoin="round"/>
<path d="M243.92 66.3069L256.582 72.3994" stroke="black" stroke-linecap="round" stroke-linejoin="round"/>
</g>
<path d="M248.152 84.3708C252.582 76.5233 252.066 67.8275 246.999 64.9484C241.932 62.0692 234.234 66.0968 229.803 73.9444C225.373 81.7919 225.89 90.4876 230.957 93.3668C236.023 96.246 243.722 92.2183 248.152 84.3708Z" fill="#FAFC7D" stroke="black" stroke-linecap="round" stroke-linejoin="round"/>
<path d="M268.381 87.8701L273.055 93.8085C278.747 101.556 274.688 114.244 263.998 122.154C253.301 130.055 240.024 130.185 234.331 122.438L230.426 117.448" fill="#FF833D"/>
<path d="M268.381 87.8701L273.055 93.8085C278.747 101.556 274.688 114.244 263.998 122.154C253.301 130.055 240.024 130.185 234.331 122.438L230.426 117.448" stroke="black" stroke-linecap="round" stroke-linejoin="round"/>
<mask id="mask2_2_2241" style="mask-type:luminance" maskUnits="userSpaceOnUse" x="230" y="87" width="46" height="42">
<path d="M268.381 87.8701L273.055 93.8085C278.747 101.556 274.688 114.244 263.998 122.154C253.301 130.055 240.024 130.185 234.331 122.438L230.426 117.448L268.381 87.8701Z" fill="white"/>
</mask>
<g mask="url(#mask2_2_2241)">
<path d="M233.596 117.716L248.555 135.426" stroke="black" stroke-linecap="round" stroke-linejoin="round"/>
<path d="M237.242 114.844L252.209 132.554" stroke="black" stroke-linecap="round" stroke-linejoin="round"/>
<path d="M240.897 111.964L255.856 129.674" stroke="black" stroke-linecap="round" stroke-linejoin="round"/>
<path d="M244.544 109.093L259.511 126.802" stroke="black" stroke-linecap="round" stroke-linejoin="round"/>
<path d="M248.198 106.221L263.157 123.93" stroke="black" stroke-linecap="round" stroke-linejoin="round"/>
<path d="M251.846 103.349L266.813 121.05" stroke="black" stroke-linecap="round" stroke-linejoin="round"/>
<path d="M255.5 100.469L270.459 118.179" stroke="black" stroke-linecap="round" stroke-linejoin="round"/>
<path d="M259.147 97.597L274.114 115.307" stroke="black" stroke-linecap="round" stroke-linejoin="round"/>
<path d="M262.802 94.7252L277.761 112.427" stroke="black" stroke-linecap="round" stroke-linejoin="round"/>
<path d="M266.449 91.8452L281.416 109.555" stroke="black" stroke-linecap="round" stroke-linejoin="round"/>
</g>
<path d="M260.103 117.163C270.799 109.256 274.857 96.5651 269.167 88.8168C263.477 81.0685 250.193 81.1972 239.497 89.1041C228.801 97.0111 224.743 109.702 230.433 117.45C236.123 125.199 249.407 125.07 260.103 117.163Z" fill="#FAFC7D"/>
<path d="M235.148 115.201C229.456 107.454 233.515 94.7657 244.204 86.856C245.223 86.1015 246.266 85.4444 247.317 84.8359C244.649 85.8338 241.997 87.2454 239.482 89.1031C228.785 97.0048 224.734 109.701 230.426 117.448C235.577 124.458 246.937 125.001 256.98 119.184C248.296 122.429 239.498 121.131 235.148 115.201Z" fill="#FFFED4"/>
<path d="M260.103 117.163C270.799 109.256 274.857 96.5651 269.167 88.8168C263.477 81.0685 250.193 81.1972 239.497 89.1041C228.801 97.0111 224.743 109.702 230.433 117.45C236.123 125.199 249.407 125.07 260.103 117.163Z" stroke="black" stroke-linecap="round" stroke-linejoin="round"/>
<path d="M53.401 135.442L56.4493 139.287C60.1446 144.317 56.8698 153.022 49.1397 158.733C41.4096 164.444 32.1512 165.004 28.4641 159.974L25.917 156.746" fill="#FF833D"/>
<path d="M53.401 135.442L56.4493 139.287C60.1446 144.317 56.8698 153.022 49.1397 158.733C41.4096 164.444 32.1512 165.004 28.4641 159.974L25.917 156.746" stroke="black" stroke-linecap="round" stroke-linejoin="round"/>
<mask id="mask3_2_2241" style="mask-type:luminance" maskUnits="userSpaceOnUse" x="25" y="135" width="34" height="29">
<path d="M53.498 135.377L56.5464 139.222C60.2416 144.252 56.9426 152.973 49.1882 158.709C41.4338 164.444 32.1512 165.012 28.4641 159.982L25.917 156.754L53.498 135.377Z" fill="white"/>
</mask>
<g mask="url(#mask3_2_2241)">
<path d="M29.5723 157.062L39.2753 168.549" stroke="black" stroke-linecap="round" stroke-linejoin="round"/>
<path d="M31.877 154.725L41.58 166.213" stroke="black" stroke-linecap="round" stroke-linejoin="round"/>
<path d="M34.1807 152.389L43.8918 163.877" stroke="black" stroke-linecap="round" stroke-linejoin="round"/>
<path d="M36.4932 150.053L46.1962 161.54" stroke="black" stroke-linecap="round" stroke-linejoin="round"/>
<path d="M38.7979 147.716L48.5009 159.204" stroke="black" stroke-linecap="round" stroke-linejoin="round"/>
<path d="M41.1025 145.38L50.8137 156.867" stroke="black" stroke-linecap="round" stroke-linejoin="round"/>
<path d="M43.4072 143.043L53.1184 154.531" stroke="black" stroke-linecap="round" stroke-linejoin="round"/>
<path d="M45.7197 140.707L55.4228 152.194" stroke="black" stroke-linecap="round" stroke-linejoin="round"/>
<path d="M48.0234 138.371L57.7346 149.858" stroke="black" stroke-linecap="round" stroke-linejoin="round"/>
<path d="M50.3281 136.034L60.0393 147.522" stroke="black" stroke-linecap="round" stroke-linejoin="round"/>
</g>
<path d="M46.6199 155.51C54.3535 149.793 57.6292 141.082 53.9364 136.054C50.2436 131.026 40.9807 131.584 33.2471 137.301C25.5135 143.018 22.2377 151.728 25.9305 156.757C29.6233 161.785 38.8863 161.227 46.6199 155.51Z" fill="#FAFC7D"/>
<path d="M35.8622 141.535C42.7918 136.416 50.9262 135.442 55.2036 138.906C54.9691 137.868 54.5568 136.902 53.9261 136.05C50.2308 131.021 40.9725 131.58 33.2423 137.3C25.5122 143.019 22.2293 151.724 25.9246 156.754C26.3127 157.281 26.7655 157.727 27.2668 158.133C26.1106 153.079 29.442 146.28 35.8622 141.535Z" fill="#FFFED4"/>
<path d="M46.6199 155.51C54.3535 149.793 57.6292 141.082 53.9364 136.054C50.2436 131.026 40.9807 131.584 33.2471 137.301C25.5135 143.018 22.2377 151.728 25.9305 156.757C29.6233 161.785 38.8863 161.227 46.6199 155.51Z" stroke="black" stroke-linecap="round" stroke-linejoin="round"/>
<path d="M93.3768 128.376L94.6624 129.706C96.3686 132.027 91.4847 138.541 83.7546 144.252C76.0244 149.963 68.3833 152.714 66.6771 150.393L65.626 149.282" fill="#FF833D"/>
<path d="M93.3768 128.376L94.6624 129.706C96.3686 132.027 91.4847 138.541 83.7546 144.252C76.0244 149.963 68.3833 152.714 66.6771 150.393L65.626 149.282" stroke="black" stroke-linecap="round" stroke-linejoin="round"/>
<mask id="mask4_2_2241" style="mask-type:luminance" maskUnits="userSpaceOnUse" x="65" y="128" width="31" height="24">
<path d="M93.3768 128.376L94.7595 129.633C96.4656 131.954 91.5575 138.484 83.8031 144.22C76.0487 149.955 68.3833 152.714 66.6771 150.393L65.626 149.282L93.3768 128.376Z" fill="white"/>
</mask>
<g mask="url(#mask4_2_2241)">
<path d="M68.9736 149.168L79.0487 161.094" stroke="black" stroke-linecap="round" stroke-linejoin="round"/>
<path d="M71.3193 146.881L81.3539 158.758" stroke="black" stroke-linecap="round" stroke-linejoin="round"/>
<path d="M73.6631 144.593L83.6573 156.421" stroke="black" stroke-linecap="round" stroke-linejoin="round"/>
<path d="M76.0166 142.305L85.9623 154.085" stroke="black" stroke-linecap="round" stroke-linejoin="round"/>
<path d="M78.3613 140.017L88.2746 151.74" stroke="black" stroke-linecap="round" stroke-linejoin="round"/>
<path d="M80.7061 137.73L90.5789 149.404" stroke="black" stroke-linecap="round" stroke-linejoin="round"/>
<path d="M83.0596 135.442L92.8839 147.067" stroke="black" stroke-linecap="round" stroke-linejoin="round"/>
<path d="M85.4043 133.146L95.1963 144.731" stroke="black" stroke-linecap="round" stroke-linejoin="round"/>
<path d="M87.749 130.858L97.5006 142.394" stroke="black" stroke-linecap="round" stroke-linejoin="round"/>
<path d="M90.1016 128.571L99.8046 140.058" stroke="black" stroke-linecap="round" stroke-linejoin="round"/>
</g>
<path d="M77.7876 136.424C70.0575 142.143 64.6076 147.895 65.6264 149.274C66.5482 150.523 72.4671 147.749 79.3239 142.962C79.6392 139.677 80.4802 136.505 81.8548 133.576C80.5368 134.444 79.1703 135.393 77.7876 136.424Z" fill="#FFFED4"/>
<path d="M93.6275 128.571C92.7946 127.435 87.8622 129.601 81.8463 133.576C80.4798 136.497 79.6308 139.677 79.3154 142.962C80.0189 142.467 80.7385 141.964 81.4582 141.429C89.1964 135.71 94.6463 129.958 93.6275 128.571Z" fill="#FAFC7D"/>
<path d="M81.4632 141.432C89.1968 135.715 94.6436 129.961 93.6291 128.579C92.6145 127.197 85.5227 130.712 77.7891 136.429C70.0555 142.146 64.6086 147.9 65.6232 149.282C66.6378 150.663 73.7296 147.149 81.4632 141.432Z" stroke="black" stroke-linecap="round" stroke-linejoin="round"/>
<path d="M7.27148 92.7701L10.3603 91.4315C14.3547 89.8739 19.5216 93.6219 21.9151 99.8036C24.3004 105.977 23.0066 112.248 19.0122 113.798L16.4166 114.909" fill="#FF833D"/>
<path d="M7.27148 92.7701L10.3603 91.4315C14.3547 89.8739 19.5216 93.6219 21.9151 99.8036C24.3004 105.977 23.0066 112.248 19.0122 113.798L16.4166 114.909" stroke="black" stroke-linecap="round" stroke-linejoin="round"/>
<mask id="mask5_2_2241" style="mask-type:luminance" maskUnits="userSpaceOnUse" x="7" y="91" width="17" height="24">
<path d="M7.23828 92.697L10.3271 91.3584C14.3215 89.8008 19.4965 93.565 21.8899 99.763C24.2834 105.961 22.9977 112.24 19.0033 113.798L16.4077 114.909L7.23828 92.697Z" fill="white"/>
</mask>
<g mask="url(#mask5_2_2241)">
<path d="M16.9971 112.703L26.3525 108.306" stroke="black" stroke-linecap="round" stroke-linejoin="round"/>
<path d="M15.8975 110.723L25.2528 106.326" stroke="black" stroke-linecap="round" stroke-linejoin="round"/>
<path d="M14.7979 108.752L24.1532 104.355" stroke="black" stroke-linecap="round" stroke-linejoin="round"/>
<path d="M13.6982 106.772L23.0536 102.375" stroke="black" stroke-linecap="round" stroke-linejoin="round"/>
<path d="M12.5986 104.801L21.954 100.404" stroke="black" stroke-linecap="round" stroke-linejoin="round"/>
<path d="M11.5078 102.821L20.8551 98.4244" stroke="black" stroke-linecap="round" stroke-linejoin="round"/>
<path d="M10.4072 100.85L19.7545 96.453" stroke="black" stroke-linecap="round" stroke-linejoin="round"/>
<path d="M9.30859 98.8706L18.6559 94.4736" stroke="black" stroke-linecap="round" stroke-linejoin="round"/>
<path d="M8.20898 96.8993L17.5563 92.5023" stroke="black" stroke-linecap="round" stroke-linejoin="round"/>
<path d="M7.1084 94.9279L16.4557 90.5309" stroke="black" stroke-linecap="round" stroke-linejoin="round"/>
</g>
<path d="M16.4118 114.91C20.4045 113.356 21.7046 107.088 19.3157 100.91C16.9267 94.732 11.7533 90.9837 7.76066 92.5378C3.76797 94.0919 2.46788 100.36 4.85684 106.538C7.24579 112.716 12.4191 116.464 16.4118 114.91Z" fill="#FAFC7D" stroke="black" stroke-linecap="round" stroke-linejoin="round"/>
<path d="M13.5697 138.703C15.2667 138.703 16.6424 137.323 16.6424 135.62C16.6424 133.918 15.2667 132.538 13.5697 132.538C11.8727 132.538 10.4971 133.918 10.4971 135.62C10.4971 137.323 11.8727 138.703 13.5697 138.703Z" fill="#FF833D" stroke="black" stroke-linecap="round" stroke-linejoin="round"/>
<path d="M212.127 30.6685C213.824 30.6685 215.2 29.2883 215.2 27.5857C215.2 25.8831 213.824 24.5029 212.127 24.5029C210.43 24.5029 209.055 25.8831 209.055 27.5857C209.055 29.2883 210.43 30.6685 212.127 30.6685Z" fill="#E285F2" stroke="black" stroke-linecap="round" stroke-linejoin="round"/>
<path d="M227.854 139.279C229.047 139.279 230.013 138.31 230.013 137.113C230.013 135.917 229.047 134.947 227.854 134.947C226.662 134.947 225.695 135.917 225.695 137.113C225.695 138.31 226.662 139.279 227.854 139.279Z" fill="#00D889" stroke="black" stroke-linecap="round" stroke-linejoin="round"/>
</svg>
