<svg width="212" height="177" viewBox="0 0 212 177" fill="none" xmlns="http://www.w3.org/2000/svg">
<path d="M159.372 113.213L83.8439 161.365C82.3369 162.327 79.6356 162.598 77.7991 161.965L3.52326 136.499C1.69498 135.866 1.43144 134.575 2.93854 133.613L78.4662 85.4614C79.9733 84.4993 82.6745 84.228 84.511 84.8611L158.787 110.327C160.615 110.96 160.879 112.251 159.372 113.213Z" fill="#FAFC7D" stroke="black" stroke-linecap="round" stroke-linejoin="round"/>
<path d="M159.644 118.533L84.1164 166.685C82.6093 167.647 79.9081 167.918 78.0716 167.285L3.79572 141.82C1.96744 141.186 1.7039 139.895 3.211 138.933L78.7386 90.7814C80.2457 89.8194 82.947 89.548 84.7835 90.1812L159.059 115.647C160.888 116.28 161.151 117.571 159.644 118.533Z" fill="#D9FC7E" stroke="black" stroke-linecap="round" stroke-linejoin="round"/>
<path d="M151.911 34.2094L80.9702 9.80456C80.0725 9.50032 79.0266 9.5661 78.096 10.0019C78.0548 10.0266 76.3089 10.9064 75.4359 11.3422L75.0653 11.5313C74.9336 11.5971 74.843 11.7204 74.8265 11.8438C74.81 11.9753 74.8842 12.0905 74.9995 12.1562L76.0454 12.7072L51.3718 117.168C51.0177 118.673 51.866 120.103 53.4307 120.646L123.671 144.813L123.696 146.136L123.712 146.317L124.066 146.449L127.797 144.533C128.514 144.048 129.008 143.365 129.181 142.634L153.97 37.6876C154.324 36.1829 153.475 34.7521 151.911 34.2094Z" fill="#FF833D" stroke="black" stroke-linecap="round" stroke-linejoin="round"/>
<path d="M121.538 146.293L50.6059 121.88C49.1647 121.386 48.3988 120.087 48.72 118.706L73.5088 13.7514C73.9124 12.0575 76.0618 10.9722 77.8242 11.5806L148.756 35.9937C150.198 36.4871 150.964 37.7863 150.642 39.1677L125.854 144.114C125.458 145.816 123.301 146.901 121.538 146.293Z" fill="#FAFC7D" stroke="black" stroke-linecap="round" stroke-linejoin="round"/>
<path d="M47.8224 135.184L47.5918 130.702L38.8375 131.714L35.2962 130.456C34.6703 130.234 33.5997 130.406 32.8997 130.842L29.8443 132.758L21.543 133.72L21.7736 138.218C21.7818 138.407 21.93 138.563 22.21 138.662L34.2997 142.971C34.9256 143.193 35.9962 143.02 36.6963 142.584L47.2624 135.965C47.6659 135.702 47.8553 135.422 47.8224 135.184Z" fill="#BDB9EF"/>
<path d="M35.4034 143.316C34.9422 143.382 34.4892 143.357 34.1433 143.234L22.0536 138.925C21.6748 138.793 21.4607 138.555 21.436 138.251L21.2054 133.769C21.1972 133.597 21.3536 133.432 21.5595 133.416L29.7456 132.47L32.7186 130.604C33.5174 130.102 34.7198 129.913 35.4528 130.176L38.9117 131.41L47.6413 130.398C47.7895 130.382 47.9131 130.472 47.9213 130.595L48.1519 135.126C48.1931 135.488 47.9295 135.866 47.4354 136.179L36.8693 142.798C36.4575 143.069 35.9222 143.25 35.4034 143.316ZM21.9054 133.967L22.1195 138.16C22.1278 138.275 22.2842 138.349 22.3748 138.382L34.4645 142.691C34.7033 142.773 35.0245 142.79 35.3622 142.74L35.0657 137.215L44.3718 132.528L47.2625 131.04L38.7552 132.026L35.1316 130.735C34.6128 130.546 33.6739 130.711 33.081 131.081L29.9432 133.046L21.9054 133.967Z" fill="#140F0C"/>
<path d="M34.0693 138.448L21.9796 134.139C21.3537 133.917 21.4114 133.383 22.1032 132.947L32.6693 126.328C33.3693 125.892 34.4399 125.719 35.0658 125.941L47.1555 130.25C47.7814 130.472 47.7237 131.007 47.032 131.442L36.4658 138.062C35.7658 138.497 34.6952 138.67 34.0693 138.448Z" fill="#BDB9EF"/>
<path d="M35.1644 138.802C34.7032 138.868 34.2503 138.843 33.9044 138.72L21.8147 134.411C21.4276 134.271 21.2135 134.033 21.197 133.72C21.1805 133.375 21.4441 133.005 21.9217 132.709L32.4879 126.09C33.2867 125.588 34.4891 125.399 35.222 125.662L47.3117 129.971C47.6988 130.11 47.9129 130.349 47.9294 130.661C47.9459 131.007 47.6823 131.377 47.2047 131.673L36.6386 138.292C36.2268 138.555 35.6915 138.736 35.1644 138.802ZM34.2338 138.169C34.7526 138.35 35.6915 138.193 36.2844 137.823L46.8506 131.204C47.147 131.015 47.2541 130.842 47.2459 130.744C47.2376 130.62 47.0811 130.554 46.9906 130.522L34.9009 126.213C34.382 126.024 33.4432 126.188 32.8502 126.558L22.2841 133.177C21.9876 133.367 21.8806 133.539 21.8888 133.638C21.897 133.761 22.0453 133.827 22.1441 133.86L34.2338 138.169Z" fill="#140F0C"/>
<path d="M34.3242 135.907L26.9205 133.268C26.5334 133.128 26.5746 132.808 26.9946 132.536L33.4677 128.482C33.8959 128.219 34.5465 128.112 34.9336 128.244L42.3373 130.883C42.7244 131.023 42.6832 131.344 42.2632 131.615L35.7901 135.669C35.3618 135.94 34.703 136.047 34.3242 135.907Z" fill="#FAFC7D" stroke="black" stroke-linecap="round" stroke-linejoin="round"/>
<path d="M26.9123 133.284L28.1476 133.728L33.5583 130.341C33.9866 130.077 34.6372 129.971 35.0242 130.102L41.1926 132.298L42.255 131.632C42.6832 131.368 42.7162 131.04 42.3291 130.9L34.9254 128.26C34.5383 128.12 33.8877 128.227 33.4595 128.499L26.9864 132.553C26.5664 132.816 26.5335 133.145 26.9123 133.284Z" fill="#BDB9EF"/>
<path d="M41.2092 132.627L34.8597 130.365C34.5879 130.267 34.0608 130.357 33.7396 130.554L28.156 134.049L26.7477 133.547C26.4677 133.449 26.3112 133.26 26.303 133.038C26.2948 132.783 26.4759 132.52 26.8136 132.314L33.2867 128.26C33.822 127.923 34.6044 127.808 35.0985 127.981L42.5104 130.62C42.7822 130.719 42.9469 130.908 42.9552 131.13C42.9634 131.385 42.7822 131.648 42.4528 131.854L41.2092 132.627ZM34.3573 129.757C34.662 129.716 34.9585 129.74 35.1891 129.823L41.1845 131.96L42.0822 131.401C42.2304 131.311 42.2634 131.237 42.2634 131.22C42.2634 131.212 42.2387 131.196 42.181 131.171L34.7691 128.532C34.6455 128.491 34.4726 128.482 34.2914 128.507L34.3573 129.757Z" fill="#140F0C"/>
<path d="M113.731 100.55C112.331 100.065 111.582 98.8068 111.903 97.4583L112.356 95.5342C112.603 94.4817 113.945 93.8157 115.041 94.1939L131.594 99.9744L132.36 96.7347L115.905 91.0446C114.505 90.5595 113.756 89.3014 114.077 87.9529L114.53 86.0288C114.777 84.9763 116.12 84.3103 117.215 84.6885L133.834 90.4937L134.625 87.1471L118.17 81.4652C116.77 80.9801 116.021 79.722 116.342 78.3735L116.795 76.4494C117.042 75.3969 118.384 74.7309 119.48 75.1091L136.099 80.9143L136.865 77.6746L120.344 71.968C118.944 71.4829 118.195 70.2248 118.516 68.8763L118.969 66.9522C119.216 65.8997 120.558 65.2337 121.654 65.6119L138.347 71.4418L139.138 68.0952L115.42 59.9794C114.02 59.4942 113.27 58.2362 113.591 56.8876L114.044 54.9635C114.291 53.911 115.634 53.245 116.729 53.6232L140.612 61.8624L145.644 40.6068C145.825 39.8338 145.397 39.1102 144.598 38.8389L78.9034 16.2512C78.2857 16.0374 77.5281 16.4157 77.3881 17.0159L53.6369 117.267C53.4557 118.04 53.884 118.763 54.6828 119.035L120.394 141.631C121.011 141.844 121.769 141.466 121.909 140.866L130.12 106.207L113.731 100.55Z" fill="#BDB9EF" stroke="black" stroke-linecap="round" stroke-linejoin="round"/>
<path d="M40.7807 112.169L33.1464 101.841C33.1299 101.816 33.0723 101.833 33.0723 101.866L33.8299 116.617C33.8299 116.642 33.8629 116.65 33.8876 116.633L40.7642 112.21C40.7889 112.201 40.7889 112.185 40.7807 112.169Z" fill="#15100C"/>
<path d="M33.9207 117.168L33.336 116.987L33.303 116.699L32.7266 101.808L33.3607 101.273L33.616 101.569L41.3985 112.152L41.0691 112.571L33.9207 117.168ZM33.6984 103.485L34.3325 115.819L40.0809 112.119L33.6984 103.485Z" fill="#16110D"/>
<path d="M26.5247 114.093L32.9978 101.866C33.0143 101.833 33.0719 101.841 33.0719 101.874L33.8296 116.625C33.8296 116.65 33.7967 116.666 33.7719 116.658L26.5412 114.134C26.5247 114.126 26.5165 114.109 26.5247 114.093Z" fill="#BDB9EF"/>
<path d="M33.8381 117.176L33.5252 117.086L25.9238 114.274L26.0474 113.945L33.0228 100.78L33.6899 101.676L33.6158 101.8L34.3899 116.814L33.8381 117.176ZM27.2168 113.854L33.2616 115.967L32.6275 103.633L27.2168 113.854Z" fill="#16110D"/>
<path d="M40.7149 112.333L34.1924 122.348C34.176 122.381 34.1266 122.373 34.1183 122.34L33.8301 116.716C33.8301 116.707 33.8383 116.691 33.8465 116.683L40.6573 112.3C40.6985 112.267 40.7397 112.3 40.7149 112.333Z" fill="#15100C"/>
<path d="M34.1761 123.22L33.9291 122.192L33.5996 122.406L33.2949 116.527L33.5502 116.329L40.7316 111.7L41.3904 112.144L41.1845 112.514L34.1761 123.22ZM34.382 116.88L34.5879 120.852L39.1915 113.78L34.382 116.88Z" fill="#16110D"/>
<path d="M26.6071 114.232L34.0603 122.365C34.085 122.389 34.1344 122.373 34.1261 122.34L33.8379 116.716C33.8379 116.707 33.8297 116.691 33.8214 116.691L26.6566 114.191C26.6236 114.167 26.5824 114.208 26.6071 114.232Z" fill="#BDB9EF"/>
<path d="M34.1758 123.22L33.624 122.669L25.9238 114.274L26.4756 113.632L26.8956 113.747L34.3323 116.346L34.3652 116.633L34.4146 121.838L34.1758 123.22ZM28.2627 115.252L33.5252 120.991L33.3193 117.02L28.2627 115.252Z" fill="#16110D"/>
<path d="M34.1599 116.855L34.127 116.083L40.1306 112.218L40.1718 112.991L34.1599 116.855Z" fill="#BDB9EF"/>
<path d="M135.077 132.84L111.655 124.848C110.898 124.593 110.082 124.593 109.333 124.799C109.325 124.799 109.325 124.799 109.316 124.807C109.242 124.823 109.168 124.848 109.094 124.873C104.894 126.098 102.357 129.338 102.357 129.338L104.688 130.555L105.849 130.226L103.996 137.864C101.888 146.761 106.838 155.107 116.111 158.29C117.997 158.939 119.973 159.169 121.925 159.054L121.62 161.316C121.612 161.357 121.661 161.39 121.711 161.373C122.732 160.954 130.827 157.533 134.377 152.46C134.385 152.443 134.393 152.435 134.402 152.419C135.332 151.111 136.024 149.656 136.395 148.093L138.643 138.859C139.277 136.228 137.811 133.77 135.077 132.84Z" fill="#D9FC7E" stroke="black" stroke-linecap="round" stroke-linejoin="round"/>
<path d="M111.227 161.546C119.52 164.391 129.633 159.309 131.519 151.35L133.768 142.116C134.385 139.493 132.928 137.034 130.193 136.105L106.772 128.112C104.68 127.397 102.127 128.68 101.649 130.686L99.1127 141.121C97.0044 150.026 101.954 158.364 111.227 161.546Z" fill="#BDB9EF" stroke="black" stroke-linecap="round" stroke-linejoin="round"/>
<path d="M118.4 144.344L115.081 143.102C114.777 142.987 114.398 143.176 114.332 143.472L113.261 148.217C113.237 148.217 113.212 148.217 113.187 148.217C111.194 148.488 109.663 150.248 109.761 152.164C109.86 154.071 111.548 155.403 113.541 155.132C115.534 154.861 117.066 153.101 116.967 151.185C116.91 150.018 116.243 149.064 115.287 148.562L115.938 145.684C115.963 145.577 116.094 145.512 116.202 145.553L117.379 145.997C118.013 146.235 118.812 145.832 118.936 145.207C119.002 144.845 118.787 144.492 118.4 144.344Z" fill="#FAFC7D" stroke="black" stroke-linecap="round" stroke-linejoin="round"/>
<path d="M114.332 143.472L113.262 148.217C113.237 148.217 113.212 148.217 113.188 148.217C111.203 148.488 109.671 150.248 109.762 152.155C109.811 153.093 110.248 153.899 110.923 154.433C110.972 154.466 111.022 154.499 111.071 154.532C111.137 154.581 111.211 154.622 111.285 154.663C111.796 154.926 112.413 155.058 113.105 155.009C112.232 154.491 111.837 153.726 111.779 152.616C111.681 150.708 113.212 148.94 115.205 148.669C115.23 148.669 115.255 148.669 115.279 148.669L115.304 148.57C115.296 148.57 115.296 148.562 115.296 148.562V148.554L115.946 145.676C115.971 145.569 116.103 145.503 116.21 145.544L117.388 145.988C118.022 146.227 118.821 145.824 118.936 145.199C119.01 144.821 118.796 144.467 118.409 144.319L115.106 143.086L115.09 143.094C114.777 142.987 114.398 143.176 114.332 143.472Z" fill="#D9FC7E" stroke="black" stroke-linecap="round" stroke-linejoin="round"/>
<path d="M131.017 134.337C129.65 134.23 128.769 133.186 129.049 131.993L130.589 125.456C131.585 121.222 129.37 117.201 125.153 115.458C123.786 114.89 121.464 114.841 120.006 115.54C118.482 116.272 117.412 117.522 117.074 118.936L115.411 125.991C115.131 127.183 113.796 128.055 112.429 127.956C111.062 127.849 110.181 126.805 110.461 125.613L112.051 118.862C112.701 116.099 114.678 113.501 117.593 111.996C120.533 110.475 123.893 110.17 126.792 111.165C133.43 113.435 137.021 119.462 135.522 125.835L133.982 132.372C133.718 133.564 132.384 134.444 131.017 134.337Z" fill="#D9FC7E" stroke="black" stroke-linecap="round" stroke-linejoin="round"/>
<path d="M123.407 114.463C122.04 113.895 119.718 113.846 118.26 114.545C116.737 115.277 115.666 116.527 115.328 117.941L113.665 124.996C113.385 126.18 112.051 127.06 110.684 126.961C110.642 126.961 110.601 126.945 110.552 126.936C110.881 127.504 111.515 127.907 112.331 127.964C113.698 128.071 115.032 127.191 115.312 125.999L116.975 118.944C117.313 117.521 118.384 116.28 119.907 115.548C121.365 114.849 123.687 114.898 125.054 115.466C125.26 115.548 125.458 115.647 125.647 115.737C124.989 115.244 124.239 114.808 123.407 114.463Z" fill="#15100C"/>
<path d="M128.852 112.111C132.986 115.03 134.971 119.832 133.793 124.848L132.253 131.385C131.973 132.577 130.639 133.449 129.272 133.35C129.23 133.35 129.189 133.334 129.14 133.325C129.461 133.893 130.103 134.296 130.919 134.353C132.286 134.46 133.62 133.58 133.9 132.388L135.44 125.851C136.766 120.21 134.098 114.833 128.852 112.111Z" fill="#15100C"/>
<path d="M64.1127 104.127L68.8811 107.284C69.3505 107.597 70.067 107.12 69.8611 106.635L67.7528 101.718C67.621 101.413 67.1763 101.331 66.8469 101.545L64.1868 103.304C63.8574 103.518 63.8162 103.929 64.1127 104.127Z" fill="#FAFC7D" stroke="black" stroke-linecap="round" stroke-linejoin="round"/>
<path d="M66.2783 103.272C65.0182 104.102 63.3217 103.979 62.4817 102.992L22.4408 57.052C21.7243 56.205 22.0208 54.9388 23.0996 54.2234L23.7502 53.7958C24.8291 53.0804 26.2867 53.1873 27.0032 54.0343L67.0442 99.9743C67.8759 100.961 67.5383 102.441 66.2783 103.272Z" fill="#BDB9EF" stroke="black" stroke-linecap="round" stroke-linejoin="round"/>
<path d="M64.6637 101.372C63.4037 102.203 61.7072 102.079 60.8672 101.093L62.539 103.074C63.3708 104.061 65.0755 104.192 66.3355 103.354C67.5956 102.523 67.9415 101.043 67.1014 100.056L65.4296 98.0748C66.2697 99.0615 65.9238 100.533 64.6637 101.372Z" fill="#FAFC7D" stroke="black" stroke-linecap="round" stroke-linejoin="round"/>
<path d="M25.1417 53.4998C24.697 53.508 24.2358 53.6395 23.8322 53.9027L23.1816 54.3302C22.4404 54.8236 22.111 55.6541 22.391 56.353C22.4734 56.4764 22.5475 56.5997 22.5887 56.6573C22.844 56.9944 24.0052 56.8546 25.1829 56.1475C26.3029 55.4732 26.8794 54.6427 26.7311 54.2645L26.5994 54.1082C26.2617 53.7053 25.7182 53.4998 25.1417 53.4998Z" fill="#16110D"/>
<path d="M95.901 31.6686L88.6208 29.3005L89.8397 31.3068L86.1666 34.6206L84.5937 31.8824L85.5325 28.2973L81.6865 27.0475L77.8076 42.0045L81.6207 43.2461L83.2595 37.0051L85.549 40.9274L95.901 31.6686Z" fill="#16110D"/>
<path d="M89.3124 39.1101L87.6982 45.2688L91.4619 46.494L94.6078 34.2998L89.3124 39.1101Z" fill="#16110D"/>
<path d="M112.915 40.2037C111.441 36.4871 108.345 34.7603 105.75 36.0513C104.342 36.6351 103.741 37.7205 103.099 39.0854C102.786 39.809 102.563 40.6148 102.44 41.4782L102.39 41.84C102.275 42.9007 101.814 43.7806 101.147 44.2657C99.9115 45.1455 98.3385 44.4137 97.6303 42.6212C97.3009 41.7989 97.2103 40.8697 97.3668 39.9981C97.5315 39.069 97.9597 38.3125 98.5691 37.8767C99.7056 37.0626 101.147 37.63 101.913 39.1348C102.234 38.2632 103.189 36.4377 103.766 35.6566C101.97 33.0418 99.2033 32.1619 96.9797 33.7489C95.6455 34.7027 94.6985 36.3802 94.3279 38.4769C93.9655 40.5079 94.1879 42.687 94.9538 44.6111C95.8761 46.9381 97.4326 48.4839 99.1044 48.9937C100.142 49.3144 101.229 49.2322 102.234 48.6977C103.239 48.0893 104.12 47.3081 104.935 45.31C105.174 44.6686 105.347 43.9615 105.446 43.2132L105.479 42.9583C105.594 41.8976 106.047 41.0178 106.722 40.5326C107.958 39.6528 109.531 40.3846 110.239 42.1771C110.568 42.9994 110.659 43.9286 110.502 44.8002C110.338 45.7293 109.909 46.4858 109.3 46.9216C108.163 47.7357 106.739 47.1683 105.965 45.68C105.569 46.6914 104.878 48.007 103.972 48.9609C104.869 50.3423 106.03 51.2796 107.258 51.6579C108.476 52.0361 109.745 51.8635 110.881 51.0494C112.215 50.0956 113.162 48.4182 113.533 46.3214C113.904 44.315 113.681 42.1278 112.915 40.2037Z" fill="#16110D"/>
<path d="M76.3669 52.7186C86.5789 56.0406 96.7909 59.3625 106.995 62.6845C107.448 62.8325 107.645 62.1171 107.192 61.9691C96.9804 58.6472 86.7683 55.3252 76.5646 52.0032C76.1116 51.8635 75.914 52.5788 76.3669 52.7186Z" fill="#F6FFCF"/>
<path d="M75.2712 58.8034C87.328 62.7256 99.3765 66.6478 111.433 70.57C111.886 70.7181 112.084 70.0027 111.631 69.8547C99.5741 65.9325 87.5256 62.0103 75.4689 58.088C75.0159 57.94 74.8183 58.6554 75.2712 58.8034Z" fill="#F6FFCF"/>
<path d="M74.1765 64.8881C85.6815 68.6294 97.1864 72.3708 108.691 76.1121C109.144 76.2601 109.342 75.5447 108.889 75.3967C97.3841 71.6554 85.8791 67.9141 74.3742 64.1728C73.9212 64.0247 73.7236 64.7401 74.1765 64.8881Z" fill="#F6FFCF"/>
<path d="M73.0802 70.9647C84.1405 74.5662 95.2007 78.1595 106.261 81.761C106.714 81.909 106.912 81.1937 106.459 81.0457C95.3984 77.4441 84.3381 73.8508 73.2779 70.2493C72.8167 70.1013 72.6273 70.8167 73.0802 70.9647Z" fill="#F6FFCF"/>
<path d="M71.1453 76.9344C83.1032 80.8237 95.0611 84.713 107.019 88.6023C107.472 88.7503 107.67 88.035 107.217 87.887C95.2587 83.9976 83.3008 80.1083 71.3429 76.219C70.89 76.0792 70.6923 76.7864 71.1453 76.9344Z" fill="#F6FFCF"/>
<path d="M69.9425 81.868C80.1545 85.1899 90.3665 88.5119 100.57 91.8339C101.023 91.9819 101.221 91.2665 100.768 91.1185C90.5559 87.7965 80.3439 84.4746 70.1402 81.1526C69.679 81.0046 69.4896 81.72 69.9425 81.868Z" fill="#F6FFCF"/>
<path d="M68.3533 88.3475C79.8665 92.0888 91.3714 95.8383 102.885 99.5796C103.338 99.7276 103.535 99.0123 103.082 98.8643C91.5691 95.1229 80.0641 91.3734 68.5509 87.6321C68.098 87.4923 67.9003 88.1994 68.3533 88.3475Z" fill="#F6FFCF"/>
<path d="M66.4265 95.0159C78.4174 98.9135 90.4 102.811 102.391 106.717C102.844 106.865 103.041 106.149 102.589 106.001C90.5977 102.104 78.615 98.2063 66.6242 94.3006C66.1712 94.1526 65.9736 94.8679 66.4265 95.0159Z" fill="#F6FFCF"/>
<path d="M80.8304 111.93C81.9421 111.297 83.0622 110.68 84.1904 110.08C84.7669 109.735 85.541 109.62 86.2164 109.776C86.9081 109.924 87.5258 110.261 88.0611 110.689C89.1317 111.544 89.8976 112.703 90.3835 113.969C90.8694 115.236 91.0588 116.642 90.7871 118.048C90.6388 118.747 90.3423 119.47 89.7988 120.054C89.2635 120.646 88.4399 121.024 87.6329 121.041C86.8176 121.074 86.0599 120.802 85.4258 120.416C84.7834 120.038 84.2563 119.528 83.8116 118.993C82.2139 116.913 80.7562 114.882 79.2244 112.826C77.7091 110.795 76.2102 108.674 74.7361 106.668C74.0526 105.78 73.089 105.089 72.1666 105.064C71.2525 105.015 70.5031 105.763 70.2395 106.832C69.7042 108.986 70.536 111.601 72.2078 113.196C73.0396 113.994 74.1761 114.479 75.1973 114.01C76.4079 113.583 77.5938 113.106 78.8209 112.728C77.7503 113.451 76.6303 114.068 75.5432 114.751C74.9173 115.104 74.0855 115.186 73.3772 114.997C72.669 114.816 72.0349 114.446 71.4996 114.002C70.4207 113.106 69.6713 111.914 69.1936 110.631C68.7324 109.34 68.5348 107.917 68.856 106.495C69.0124 105.788 69.3501 105.056 69.9266 104.472C70.4948 103.888 71.3431 103.527 72.1666 103.535C72.9902 103.535 73.7643 103.806 74.3902 104.209C75.0243 104.612 75.5514 105.122 75.9879 105.673C77.5444 107.769 79.035 109.784 80.5339 111.864L84.981 118.04C85.6728 118.928 86.6446 119.635 87.5917 119.627C88.0611 119.627 88.4976 119.454 88.8435 119.117C89.1894 118.78 89.4364 118.295 89.5764 117.76C90.0953 115.556 89.2717 112.917 87.5505 111.281C86.7105 110.467 85.4834 109.932 84.3799 110.475C83.2104 110.985 82.0245 111.47 80.8304 111.93Z" fill="black"/>
<path d="M164.799 64.1564L167.903 65.0773C171.782 66.3765 172.449 71.7952 169.402 77.1811C166.347 82.5587 160.73 85.8724 156.851 84.565L154.249 83.7839" fill="#FF833D"/>
<path d="M164.799 64.1564L167.903 65.0773C171.782 66.3765 172.449 71.7952 169.402 77.1811C166.347 82.5587 160.73 85.8724 156.851 84.565L154.249 83.7839" stroke="black" stroke-linecap="round" stroke-linejoin="round"/>
<mask id="mask0_2_2569" style="mask-type:luminance" maskUnits="userSpaceOnUse" x="154" y="64" width="18" height="21">
<path d="M164.84 64.0824L167.945 65.0033C171.824 66.3025 172.482 71.7377 169.419 77.14C166.355 82.5423 160.73 85.8643 156.851 84.5569L154.249 83.7757L164.84 64.0824Z" fill="white"/>
</mask>
<g mask="url(#mask0_2_2569)">
<path d="M156.497 82.748L166.149 85.3135" stroke="black" stroke-linecap="round" stroke-linejoin="round"/>
<path d="M157.222 80.832L166.882 83.3893" stroke="black" stroke-linecap="round" stroke-linejoin="round"/>
<path d="M157.955 78.908L167.615 81.4652" stroke="black" stroke-linecap="round" stroke-linejoin="round"/>
<path d="M158.688 76.9839L168.339 79.5494" stroke="black" stroke-linecap="round" stroke-linejoin="round"/>
<path d="M159.412 75.0597L169.072 77.6252" stroke="black" stroke-linecap="round" stroke-linejoin="round"/>
<path d="M160.146 73.1439L169.797 75.7012" stroke="black" stroke-linecap="round" stroke-linejoin="round"/>
<path d="M160.87 71.2197L170.53 73.777" stroke="black" stroke-linecap="round" stroke-linejoin="round"/>
<path d="M161.604 69.2957L171.264 71.8529" stroke="black" stroke-linecap="round" stroke-linejoin="round"/>
<path d="M162.328 67.3716L171.988 69.9371" stroke="black" stroke-linecap="round" stroke-linejoin="round"/>
<path d="M163.062 65.4557L172.722 68.0129" stroke="black" stroke-linecap="round" stroke-linejoin="round"/>
</g>
<path d="M165.501 78.3595C169.294 73.3605 169.805 67.3697 166.644 64.9787C163.483 62.5877 157.845 64.7019 154.053 69.7008C150.26 74.6998 149.748 80.6906 152.91 83.0817C156.071 85.4727 161.709 83.3585 165.501 78.3595Z" fill="#FAFC7D" stroke="black" stroke-linecap="round" stroke-linejoin="round"/>
<path d="M182.028 76.5562L185.718 79.8288C190.215 84.1292 187.596 92.5328 179.871 98.5847C172.146 104.637 162.222 106.051 157.726 101.75L154.646 99.004" fill="#FF833D"/>
<path d="M182.028 76.5562L185.718 79.8288C190.215 84.1292 187.596 92.5328 179.871 98.5847C172.146 104.637 162.222 106.051 157.726 101.75L154.646 99.004" stroke="black" stroke-linecap="round" stroke-linejoin="round"/>
<mask id="mask1_2_2569" style="mask-type:luminance" maskUnits="userSpaceOnUse" x="154" y="76" width="34" height="29">
<path d="M182.028 76.5562L185.718 79.8288C190.215 84.1292 187.596 92.5328 179.871 98.5847C172.146 104.637 162.222 106.051 157.726 101.75L154.646 99.004L182.028 76.5562Z" fill="white"/>
</mask>
<g mask="url(#mask1_2_2569)">
<path d="M157.009 98.8478L168.761 108.493" stroke="black" stroke-linecap="round" stroke-linejoin="round"/>
<path d="M159.645 96.677L171.388 106.314" stroke="black" stroke-linecap="round" stroke-linejoin="round"/>
<path d="M162.279 94.498L174.023 104.135" stroke="black" stroke-linecap="round" stroke-linejoin="round"/>
<path d="M164.915 92.319L176.659 101.956" stroke="black" stroke-linecap="round" stroke-linejoin="round"/>
<path d="M167.542 90.14L179.294 99.7852" stroke="black" stroke-linecap="round" stroke-linejoin="round"/>
<path d="M170.178 87.9691L181.93 97.6061" stroke="black" stroke-linecap="round" stroke-linejoin="round"/>
<path d="M172.812 85.7902L184.565 95.4271" stroke="black" stroke-linecap="round" stroke-linejoin="round"/>
<path d="M175.448 83.6112L187.192 93.2564" stroke="black" stroke-linecap="round" stroke-linejoin="round"/>
<path d="M178.083 81.4321L189.827 91.0773" stroke="black" stroke-linecap="round" stroke-linejoin="round"/>
<path d="M180.719 79.2614L192.463 88.8983" stroke="black" stroke-linecap="round" stroke-linejoin="round"/>
</g>
<path d="M174.657 97.3498C182.959 91.988 186.99 83.4748 183.66 78.335C180.33 73.1953 170.901 73.3754 162.599 78.7373C154.297 84.0992 150.266 92.6124 153.596 97.7521C156.925 102.892 166.355 102.712 174.657 97.3498Z" fill="#FAFC7D"/>
<path d="M158.087 97.1128C153.582 92.8123 156.209 84.4088 163.934 78.3569C164.667 77.7813 165.425 77.2633 166.199 76.7699C164.239 77.6662 162.304 78.8256 160.484 80.2481C152.75 86.3 150.132 94.6953 154.636 99.004C158.713 102.902 167.212 102.096 174.525 97.4252C168.143 100.336 161.529 100.402 158.087 97.1128Z" fill="#FFFED4"/>
<path d="M174.657 97.3498C182.959 91.988 186.99 83.4748 183.66 78.335C180.33 73.1953 170.901 73.3754 162.599 78.7373C154.297 84.0992 150.266 92.6124 153.596 97.7521C156.925 102.892 166.355 102.712 174.657 97.3498Z" stroke="black" stroke-linecap="round" stroke-linejoin="round"/>
<path d="M7.50977 81.6624L10.8534 79.9603C15.1852 77.9211 21.0654 80.6346 23.989 86.0204C26.9208 91.4063 25.7843 97.4253 21.4524 99.4645L18.6441 100.887" fill="#FF833D"/>
<path d="M7.50977 81.6624L10.8534 79.9603C15.1852 77.9211 21.0654 80.6346 23.989 86.0204C26.9208 91.4063 25.7843 97.4253 21.4524 99.4645L18.6441 100.887" stroke="black" stroke-linecap="round" stroke-linejoin="round"/>
<mask id="mask2_2_2569" style="mask-type:luminance" maskUnits="userSpaceOnUse" x="7" y="79" width="19" height="22">
<path d="M7.46875 81.5966L10.8124 79.8946C15.1442 77.8553 21.0326 80.5853 23.9727 85.9875C26.9127 91.3898 25.7845 97.4253 21.4608 99.4645L18.6525 100.887L7.46875 81.5966Z" fill="white"/>
</mask>
<g mask="url(#mask2_2_2569)">
<path d="M19.1963 98.7409L29.3012 93.2646" stroke="black" stroke-linecap="round" stroke-linejoin="round"/>
<path d="M17.8867 97.0718L27.9917 91.5873" stroke="black" stroke-linecap="round" stroke-linejoin="round"/>
<path d="M16.5771 95.3943L26.6821 89.918" stroke="black" stroke-linecap="round" stroke-linejoin="round"/>
<path d="M15.2764 93.7251L25.3731 88.2488" stroke="black" stroke-linecap="round" stroke-linejoin="round"/>
<path d="M13.9668 92.0477L24.0717 86.5714" stroke="black" stroke-linecap="round" stroke-linejoin="round"/>
<path d="M12.6572 90.3785L22.7622 84.9022" stroke="black" stroke-linecap="round" stroke-linejoin="round"/>
<path d="M11.3564 88.7092L21.4532 83.2329" stroke="black" stroke-linecap="round" stroke-linejoin="round"/>
<path d="M10.0469 87.032L20.1518 81.5557" stroke="black" stroke-linecap="round" stroke-linejoin="round"/>
<path d="M8.7373 85.3627L18.8422 79.8864" stroke="black" stroke-linecap="round" stroke-linejoin="round"/>
<path d="M7.42773 83.6935L17.5327 78.2172" stroke="black" stroke-linecap="round" stroke-linejoin="round"/>
</g>
<path d="M19.487 100.418C23.4653 97.7965 23.9405 91.5113 20.5484 86.3795C17.1563 81.2476 11.1815 79.2125 7.20326 81.8339C3.22501 84.4553 2.74982 90.7405 6.14189 95.8723C9.53396 101.004 15.5088 103.039 19.487 100.418Z" fill="#FAFC7D" stroke="black" stroke-linecap="round" stroke-linejoin="round"/>
</svg>
