<svg width="318" height="162" viewBox="0 0 318 162" fill="none" xmlns="http://www.w3.org/2000/svg">
<g clip-path="url(#clip0_2_2466)">
<path d="M179.882 121.965L150.815 160.833H208.948L179.882 121.965Z" fill="#BDB9EF" stroke="black" stroke-linecap="round" stroke-linejoin="round"/>
<path d="M190.701 141.312H180.983L182.797 142.776L178.435 146.864L176.081 144.847L176.88 141.312H171.752L168.48 156.061H173.565L174.948 149.901L178.37 152.797L190.701 141.312Z" fill="black"/>
<path d="M181.674 156.115H186.684L189.33 144.088L183.035 150.031L181.674 156.115Z" fill="black"/>
<path d="M231.212 108.984L37.3368 161.006C33.5254 162.025 29.6168 159.759 28.6019 155.931C27.5869 152.102 29.8436 148.177 33.655 147.157L227.53 95.1354C231.341 94.116 235.25 96.3825 236.265 100.211C237.291 104.039 235.023 107.965 231.212 108.984Z" fill="#BDB9EF" stroke="black" stroke-linecap="round" stroke-linejoin="round"/>
<path d="M261.304 84.269H190.463V98.9419H261.304V84.269Z" fill="#BDB9EF" stroke="black" stroke-width="0.75" stroke-linecap="round" stroke-linejoin="round"/>
<path d="M196.304 26.7706H219.259L223.178 47.7442H192.763L196.304 26.7706Z" fill="#FAFC7D" stroke="black" stroke-linecap="round" stroke-linejoin="round"/>
<path d="M219.259 26.7706H252.504L256.261 47.7442H223.179L219.259 26.7706Z" fill="#FCF500" stroke="black" stroke-linecap="round" stroke-linejoin="round"/>
<path d="M179.763 47.8744H202.718L206.637 68.848H176.222L179.763 47.8744Z" fill="#FAFC7D" stroke="black" stroke-linecap="round" stroke-linejoin="round"/>
<path d="M202.718 47.8744H235.963L239.72 68.848H206.638L202.718 47.8744Z" fill="#FCF500" stroke="black" stroke-linecap="round" stroke-linejoin="round"/>
<path d="M222.801 47.8744H245.745L249.675 68.848H219.259L222.801 47.8744Z" fill="#FAFC7D" stroke="black" stroke-linecap="round" stroke-linejoin="round"/>
<path d="M245.745 47.8744H279.001L282.758 68.848H249.675L245.745 47.8744Z" fill="#FCF500" stroke="black" stroke-linecap="round" stroke-linejoin="round"/>
<path d="M155.674 68.9781H178.618L182.538 89.9517H152.133L155.674 68.9781Z" fill="#FAFC7D" stroke="black" stroke-linecap="round" stroke-linejoin="round"/>
<path d="M178.619 68.9781H211.874L215.621 89.9517H182.538L178.619 68.9781Z" fill="#FCF500" stroke="black" stroke-linecap="round" stroke-linejoin="round"/>
<path d="M198.701 68.9781H221.656L225.575 89.9517H195.16L198.701 68.9781Z" fill="#FAFC7D" stroke="black" stroke-linecap="round" stroke-linejoin="round"/>
<path d="M221.656 68.9781H254.901L258.658 89.9517H225.576L221.656 68.9781Z" fill="#FCF500" stroke="black" stroke-linecap="round" stroke-linejoin="round"/>
<path d="M244.762 68.9781H267.717L271.636 89.9517H241.221L244.762 68.9781Z" fill="#FAFC7D" stroke="black" stroke-linecap="round" stroke-linejoin="round"/>
<path d="M267.717 68.9781H300.962L304.719 89.9517H271.637L267.717 68.9781Z" fill="#FCF500" stroke="black" stroke-linecap="round" stroke-linejoin="round"/>
<path d="M157.1 49.512L163.902 57.331" stroke="black" stroke-linecap="round" stroke-linejoin="round"/>
<path d="M199.792 8.82275L203.755 19.7433" stroke="black" stroke-linecap="round" stroke-linejoin="round"/>
<path d="M299.126 58.3612L307.613 53.416" stroke="black" stroke-linecap="round" stroke-linejoin="round"/>
<path d="M267.156 29.8939L276.117 23.6473" stroke="black" stroke-linecap="round" stroke-linejoin="round"/>
<path d="M240.411 6.97911L237.107 10.341C237.032 10.4277 236.967 10.5253 236.945 10.6338L235.963 15.2536C235.866 15.7199 235.293 15.8934 234.959 15.5572L231.611 12.2388C231.525 12.1629 231.428 12.0978 231.32 12.0761L226.72 11.0892C226.256 10.9916 226.083 10.4169 226.418 10.0807L229.722 6.71884C229.797 6.63208 229.862 6.53448 229.884 6.42603L230.866 1.80621C230.964 1.33988 231.536 1.16637 231.871 1.50256L235.218 4.82102C235.304 4.89694 235.401 4.962 235.509 4.98369L240.109 5.97056C240.573 6.06816 240.746 6.64293 240.411 6.97911Z" fill="#FF833D" stroke="black" stroke-linecap="round" stroke-linejoin="round"/>
<path d="M145.622 50.976L144.478 55.5524C144.445 55.6609 144.456 55.7802 144.489 55.8886L145.989 60.3675C146.141 60.823 145.73 61.2567 145.277 61.1375L140.72 59.9879C140.612 59.9554 140.494 59.9662 140.386 59.9988L135.926 61.517C135.473 61.6688 135.041 61.2676 135.16 60.8013L136.304 56.2248C136.337 56.1164 136.326 55.9971 136.293 55.8886L134.793 51.4098C134.642 50.9543 135.052 50.5205 135.505 50.6398L140.062 51.7893C140.17 51.8219 140.288 51.811 140.396 51.7785L144.856 50.2711C145.298 50.1193 145.741 50.5205 145.622 50.976Z" fill="#FF833D" stroke="black" stroke-linecap="round" stroke-linejoin="round"/>
<path d="M297.042 44.7403L291.374 44.1222C291.233 44.1113 291.093 44.133 290.974 44.1981L285.867 46.7466C285.349 47.0068 284.755 46.5839 284.82 46.02L285.435 40.3265C285.446 40.1855 285.425 40.0446 285.36 39.9253L282.822 34.7957C282.563 34.2752 282.984 33.6787 283.546 33.7438L289.214 34.362C289.355 34.3728 289.495 34.3511 289.614 34.286L294.721 31.7375C295.239 31.4773 295.833 31.9002 295.768 32.4641L295.153 38.1576C295.142 38.2986 295.164 38.4396 295.228 38.5588L297.766 43.6884C298.036 44.2089 297.615 44.8054 297.042 44.7403Z" fill="#FF833D" stroke="black" stroke-linecap="round" stroke-linejoin="round"/>
<path d="M279.216 8.42151C277.942 8.80108 276.592 8.07448 276.214 6.79481C275.837 5.51514 276.56 4.15956 277.834 3.77999C279.108 3.40043 280.458 4.12702 280.836 5.40669C281.214 6.68637 280.501 8.04195 279.216 8.42151Z" fill="#D9FC7E" stroke="black" stroke-width="0.75" stroke-linecap="round" stroke-linejoin="round"/>
<path d="M161.192 30.9242C159.918 31.3038 158.568 30.5772 158.19 29.2975C157.812 28.0178 158.536 26.6622 159.81 26.2827C161.084 25.9031 162.433 26.6297 162.811 27.9094C163.2 29.1891 162.466 30.5446 161.192 30.9242Z" fill="#D9FC7E" stroke="black" stroke-width="0.75" stroke-linecap="round" stroke-linejoin="round"/>
<path d="M180.746 34.5789C179.137 35.0669 177.442 34.1451 176.967 32.5292C176.481 30.9134 177.398 29.2107 179.007 28.7336C180.616 28.2456 182.311 29.1674 182.786 30.7832C183.272 32.3991 182.354 34.0908 180.746 34.5789Z" fill="#FAFC7D" stroke="black" stroke-linecap="round" stroke-linejoin="round"/>
<path d="M262.211 16.3056C264.047 16.3056 265.536 14.8101 265.536 12.9654C265.536 11.1207 264.047 9.62524 262.211 9.62524C260.374 9.62524 258.885 11.1207 258.885 12.9654C258.885 14.8101 260.374 16.3056 262.211 16.3056Z" fill="#FAFC7D" stroke="black" stroke-linecap="round" stroke-linejoin="round"/>
<path d="M314.145 72.3183C315.982 72.3183 317.471 70.8228 317.471 68.9781C317.471 67.1334 315.982 65.6379 314.145 65.6379C312.309 65.6379 310.82 67.1334 310.82 68.9781C310.82 70.8228 312.309 72.3183 314.145 72.3183Z" fill="#FAFC7D" stroke="black" stroke-linecap="round" stroke-linejoin="round"/>
<path d="M65.647 130.825L61.1446 133.883C55.2817 137.56 45.9529 133.178 40.3167 124.102C34.6806 115.025 34.8533 104.679 40.7162 101.002L44.4953 98.4539" fill="#FF833D"/>
<path d="M65.647 130.825L61.1446 133.883C55.2817 137.56 45.9529 133.178 40.3167 124.102C34.6806 115.025 34.8533 104.679 40.7162 101.002L44.4953 98.4539" stroke="black" stroke-linecap="round" stroke-linejoin="round"/>
<mask id="mask0_2_2466" style="mask-type:luminance" maskUnits="userSpaceOnUse" x="36" y="98" width="30" height="38">
<path d="M65.7118 130.934L61.2093 133.992C55.3464 137.668 46.0068 133.265 40.3383 124.145C34.6697 115.024 34.8317 104.668 40.6946 100.991L44.4736 98.443L65.7118 130.934Z" fill="white"/>
</mask>
<g mask="url(#mask0_2_2466)">
<path d="M43.9448 102.293L30.4482 112.107" stroke="black" stroke-linecap="round" stroke-linejoin="round"/>
<path d="M46.3203 105.08L32.813 114.894" stroke="black" stroke-linecap="round" stroke-linejoin="round"/>
<path d="M48.6846 107.867L35.1772 117.671" stroke="black" stroke-linecap="round" stroke-linejoin="round"/>
<path d="M51.0493 110.643L37.542 120.458" stroke="black" stroke-linecap="round" stroke-linejoin="round"/>
<path d="M53.414 113.43L39.9175 123.245" stroke="black" stroke-linecap="round" stroke-linejoin="round"/>
<path d="M55.7896 116.217L42.2822 126.032" stroke="black" stroke-linecap="round" stroke-linejoin="round"/>
<path d="M58.1538 119.005L44.6465 128.808" stroke="black" stroke-linecap="round" stroke-linejoin="round"/>
<path d="M60.5186 121.781L47.0112 131.595" stroke="black" stroke-linecap="round" stroke-linejoin="round"/>
<path d="M62.8941 124.568L49.3867 134.382" stroke="black" stroke-linecap="round" stroke-linejoin="round"/>
<path d="M65.2583 127.355L51.751 137.169" stroke="black" stroke-linecap="round" stroke-linejoin="round"/>
</g>
<path d="M64.9307 131.357C70.7935 127.681 70.9697 117.337 65.3241 108.253C59.6785 99.1685 50.3491 94.7837 44.4862 98.4594C38.6234 102.135 38.4473 112.479 44.0928 121.563C49.7384 130.648 59.0678 135.032 64.9307 131.357Z" fill="#FAFC7D" stroke="black" stroke-linecap="round" stroke-linejoin="round"/>
<path d="M71.6072 135.011H0.766602V149.684H71.6072V135.011Z" fill="#BDB9EF" stroke="black" stroke-linecap="round" stroke-linejoin="round"/>
<path d="M56.3505 109.689L58.9634 114.547C62.073 120.826 57.5813 129.426 48.922 133.753C40.2626 138.08 30.7178 136.497 27.6082 130.218L25.438 126.14" fill="#FF833D"/>
<path d="M56.3505 109.689L58.9634 114.547C62.073 120.826 57.5813 129.426 48.922 133.753C40.2626 138.08 30.7178 136.497 27.6082 130.218L25.438 126.14" stroke="black" stroke-linecap="round" stroke-linejoin="round"/>
<mask id="mask1_2_2466" style="mask-type:luminance" maskUnits="userSpaceOnUse" x="25" y="109" width="35" height="28">
<path d="M56.3505 109.689L58.9634 114.547C62.073 120.826 57.5813 129.426 48.922 133.753C40.2626 138.08 30.7178 136.497 27.6082 130.218L25.438 126.14L56.3505 109.689Z" fill="white"/>
</mask>
<g mask="url(#mask1_2_2466)">
<path d="M27.6621 126.726L36.1811 141.334" stroke="black" stroke-linecap="round" stroke-linejoin="round"/>
<path d="M30.6421 125.132L39.1611 139.729" stroke="black" stroke-linecap="round" stroke-linejoin="round"/>
<path d="M33.6221 123.527L42.1303 138.124" stroke="black" stroke-linecap="round" stroke-linejoin="round"/>
<path d="M36.6021 121.922L45.1103 136.519" stroke="black" stroke-linecap="round" stroke-linejoin="round"/>
<path d="M39.582 120.317L48.0902 134.924" stroke="black" stroke-linecap="round" stroke-linejoin="round"/>
<path d="M42.5513 118.723L51.0703 133.319" stroke="black" stroke-linecap="round" stroke-linejoin="round"/>
<path d="M45.5317 117.118L54.0508 131.714" stroke="black" stroke-linecap="round" stroke-linejoin="round"/>
<path d="M48.5117 115.512L57.0199 130.109" stroke="black" stroke-linecap="round" stroke-linejoin="round"/>
<path d="M51.4917 113.907L59.9999 128.515" stroke="black" stroke-linecap="round" stroke-linejoin="round"/>
<path d="M54.4717 112.302L62.9799 126.91" stroke="black" stroke-linecap="round" stroke-linejoin="round"/>
</g>
<path d="M46.7449 129.686C55.4054 125.36 59.9049 116.761 56.7947 110.481C53.6845 104.201 44.1425 102.618 35.482 106.945C26.8215 111.272 22.3221 119.87 25.4322 126.15C28.5424 132.43 38.0844 134.013 46.7449 129.686Z" fill="#FAFC7D"/>
<path d="M29.0982 125.121C25.9886 118.842 30.4802 110.242 39.1396 105.915C39.9602 105.503 40.7916 105.167 41.623 104.863C39.5823 105.243 37.5092 105.926 35.4685 106.934C26.8092 111.262 22.3175 119.861 25.4271 126.14C28.2452 131.823 36.3215 133.645 44.2467 130.739C37.6172 131.975 31.4736 129.925 29.0982 125.121Z" fill="#FFFED4"/>
<path d="M46.7449 129.686C55.4054 125.36 59.9049 116.761 56.7947 110.481C53.6845 104.201 44.1425 102.618 35.482 106.945C26.8215 111.272 22.3221 119.87 25.4322 126.15C28.5424 132.43 38.0844 134.013 46.7449 129.686Z" stroke="black" stroke-linecap="round" stroke-linejoin="round"/>
<path d="M38.643 126.509L36.6131 131.346C33.8166 137.397 24.0127 138.774 14.7271 134.437C5.44147 130.099 0.183218 121.683 2.9905 115.632L4.69646 111.587" fill="#FF833D"/>
<path d="M38.643 126.509L36.6131 131.346C33.8166 137.397 24.0127 138.774 14.7271 134.437C5.44147 130.099 0.183218 121.683 2.9905 115.632L4.69646 111.587" stroke="black" stroke-linecap="round" stroke-linejoin="round"/>
<mask id="mask2_2_2466" style="mask-type:luminance" maskUnits="userSpaceOnUse" x="2" y="111" width="37" height="27">
<path d="M38.762 126.563L36.7321 131.4C33.9356 137.451 24.1101 138.818 14.7921 134.469C5.47413 130.12 0.205081 121.672 3.00156 115.632L4.70753 111.587L38.762 126.563Z" fill="white"/>
</mask>
<g mask="url(#mask2_2_2466)">
<path d="M6.29447 114.959L0.539551 129.979" stroke="black" stroke-linecap="round" stroke-linejoin="round"/>
<path d="M9.65238 115.957L3.89746 130.966" stroke="black" stroke-linecap="round" stroke-linejoin="round"/>
<path d="M13.0103 116.955L7.25537 131.964" stroke="black" stroke-linecap="round" stroke-linejoin="round"/>
<path d="M16.3682 117.953L10.6133 132.962" stroke="black" stroke-linecap="round" stroke-linejoin="round"/>
<path d="M19.7261 118.95L13.9819 133.959" stroke="black" stroke-linecap="round" stroke-linejoin="round"/>
<path d="M23.084 119.937L17.3398 134.957" stroke="black" stroke-linecap="round" stroke-linejoin="round"/>
<path d="M26.4527 120.935L20.6978 135.944" stroke="black" stroke-linecap="round" stroke-linejoin="round"/>
<path d="M29.8111 121.933L24.0562 136.942" stroke="black" stroke-linecap="round" stroke-linejoin="round"/>
<path d="M33.169 122.93L27.4141 137.939" stroke="black" stroke-linecap="round" stroke-linejoin="round"/>
<path d="M36.5269 123.917L30.772 138.937" stroke="black" stroke-linecap="round" stroke-linejoin="round"/>
</g>
<path d="M38.3584 127.316C41.1586 121.272 35.8984 112.853 26.6096 108.511C17.3207 104.17 7.52064 105.551 4.7205 111.595C1.92035 117.639 7.1805 126.058 16.4694 130.399C25.7582 134.741 35.5583 133.36 38.3584 127.316Z" fill="#FAFC7D" stroke="black" stroke-linecap="round" stroke-linejoin="round"/>
</g>
<defs>
<clipPath id="clip0_2_2466">
<rect width="318" height="161" fill="white" transform="translate(0 0.786865)"/>
</clipPath>
</defs>
</svg>
