<svg width="210" height="176" viewBox="0 0 210 176" fill="none" xmlns="http://www.w3.org/2000/svg">
<g clip-path="url(#clip0_2_2827)">
<path d="M188.058 113.29C185.36 108.468 191.735 78.1388 186.991 75.129C182.247 72.1193 173.124 88.0842 168.706 84.0074C164.288 79.9306 178.995 54.9967 170.416 46.8734C161.837 38.75 138.274 81.7123 134.32 80.7862C130.377 79.8601 132.532 70.4684 125.494 64.4791C119.801 59.6272 110.629 73.3574 105.391 66.3111C105.391 66.3111 99.0058 72.995 97.7012 73.9513L177.226 132.506L188.058 113.29Z" fill="#D9FC7E" stroke="black" stroke-width="0.75" stroke-linecap="round" stroke-linejoin="round"/>
<path d="M124.179 63.6738C124.179 63.6738 119.465 76.3471 113.327 85.5778" stroke="black" stroke-width="0.75" stroke-linecap="round" stroke-linejoin="round"/>
<path d="M169.497 46.793C169.497 46.793 155.433 80.3938 140.646 105.539" stroke="black" stroke-width="0.75" stroke-linecap="round" stroke-linejoin="round"/>
<path d="M186.991 75.1292C186.991 75.1292 176.712 98.2108 163.744 121.896" stroke="black" stroke-width="0.75" stroke-linecap="round" stroke-linejoin="round"/>
<path d="M169.665 49.2188C171.286 49.2188 172.6 47.8803 172.6 46.2291C172.6 44.578 171.286 43.2395 169.665 43.2395C168.044 43.2395 166.729 44.578 166.729 46.2291C166.729 47.8803 168.044 49.2188 169.665 49.2188Z" fill="#FAFC7D" stroke="black" stroke-linecap="round" stroke-linejoin="round"/>
<path d="M186.991 76.9209C187.962 76.9209 188.75 76.1187 188.75 75.1292C188.75 74.1396 187.962 73.3374 186.991 73.3374C186.019 73.3374 185.231 74.1396 185.231 75.1292C185.231 76.1187 186.019 76.9209 186.991 76.9209Z" fill="#FAFC7D" stroke="black" stroke-linecap="round" stroke-linejoin="round"/>
<path d="M124.18 65.4656C125.152 65.4656 125.94 64.6634 125.94 63.6739C125.94 62.6843 125.152 61.8821 124.18 61.8821C123.209 61.8821 122.421 62.6843 122.421 63.6739C122.421 64.6634 123.209 65.4656 124.18 65.4656Z" fill="#FAFC7D" stroke="black" stroke-linecap="round" stroke-linejoin="round"/>
<path d="M87.969 163.617C114.909 146.124 125.852 114.539 112.412 93.0693C98.9716 71.5997 66.2371 68.3761 39.2973 85.8691C12.3576 103.362 1.41408 134.947 14.8544 156.417C28.2947 177.887 61.0292 181.11 87.969 163.617Z" fill="#BDB9EF" stroke="black" stroke-linecap="round" stroke-linejoin="round"/>
<path d="M102.12 66.4319C101.309 66.3111 100.736 65.546 100.854 64.7106C100.973 63.8851 101.724 63.3013 102.545 63.4221C104.195 63.6637 105.964 62.9892 107.052 61.7108C107.536 61.1471 107.882 60.4727 108.079 59.7479C107.842 59.7479 107.595 59.7379 107.358 59.7177C106.024 59.5869 104.857 59.0534 104.077 58.1978C103.009 57.0401 102.732 55.3188 103.395 54.0102C104.235 52.3594 106.449 51.685 108.228 52.5406C109.374 53.0942 110.274 54.1612 110.788 55.5806C111.222 55.1779 111.578 54.6847 111.806 54.1411C112.468 52.5204 111.954 50.4468 110.629 49.3295C109.997 48.796 109.898 47.8397 110.422 47.1955C110.946 46.5512 111.885 46.4506 112.517 46.9841C114.86 48.947 115.72 52.4399 114.553 55.2987C113.911 56.8791 112.695 58.1575 111.232 58.9225C111.104 60.664 110.442 62.3651 109.295 63.7039C107.536 65.7776 104.778 66.8244 102.12 66.4319ZM106.715 55.2182C106.419 55.1779 106.103 55.2786 106.043 55.4094C105.964 55.5604 106.043 55.8926 106.251 56.1241C106.528 56.4261 107.032 56.6375 107.645 56.6979C107.773 56.708 107.902 56.718 108.03 56.718C107.793 56.0235 107.407 55.5 106.963 55.2886C106.874 55.2484 106.795 55.2282 106.715 55.2182Z" fill="#FAFC7D" stroke="black" stroke-linecap="round" stroke-linejoin="round"/>
<path d="M18.315 144.334C17.8604 142.129 17.4156 139.935 16.9609 137.73C17.2574 139.16 18.315 140.549 20.1435 141.666C24.5912 144.374 31.8953 144.445 36.4715 141.837C38.4284 140.72 39.5651 139.291 39.8813 137.801C39.4168 139.995 38.9523 142.2 38.4877 144.394C38.211 145.703 37.2127 146.961 35.4831 147.948C31.4604 150.253 25.0261 150.182 21.1121 147.797C19.5011 146.81 18.572 145.592 18.315 144.334Z" fill="#FF833D" stroke="black" stroke-linecap="round" stroke-linejoin="round"/>
<path d="M20.1432 141.656C19.8368 141.475 18.7892 140.821 18.0281 139.885C17.2374 138.908 17.0694 138.193 16.9508 137.73L14.4502 125.5C14.806 127.241 16.1008 128.943 18.3345 130.302C23.7607 133.603 32.6956 133.694 38.2799 130.503C40.6718 129.134 42.0654 127.382 42.441 125.57C41.6503 129.325 40.9782 134.429 39.802 138.073C39.6735 138.465 39.5055 139.009 38.9322 139.754C38.4084 140.448 37.7561 140.962 37.4101 141.203C36.3724 141.948 35.216 142.512 33.7927 142.955C31.5985 143.639 29.5031 143.7 29.4142 143.7C28.7223 143.72 27.7834 143.72 27.0915 143.679C26.4095 143.629 25.5002 143.528 24.838 143.388C24.2055 143.247 23.3555 143.065 22.7525 142.844C22.4659 142.743 22.0804 142.612 21.8037 142.492C21.2996 142.26 20.6177 141.938 20.1432 141.656Z" fill="#FAFC7D" stroke="black" stroke-linecap="round" stroke-linejoin="round"/>
<path d="M82.2037 141.606C81.749 139.401 81.3043 137.207 80.8496 135.002C81.1461 136.432 82.2037 137.821 84.0322 138.938C88.4799 141.646 95.784 141.717 100.36 139.109C102.317 137.992 103.454 136.563 103.77 135.073C103.305 137.267 102.841 139.472 102.376 141.666C102.1 142.975 101.101 144.233 99.3718 145.22C95.3491 147.525 88.9147 147.454 85.0008 145.069C83.3996 144.092 82.4607 142.864 82.2037 141.606Z" fill="#FF833D" stroke="black" stroke-linecap="round" stroke-linejoin="round"/>
<path d="M46.0982 157.259C45.6436 155.054 45.1988 152.86 44.7441 150.655C45.0407 152.085 46.0982 153.474 47.9267 154.591C52.3744 157.299 59.6785 157.369 64.2547 154.762C66.2116 153.645 67.3483 152.216 67.6646 150.726C67.2 152.92 66.7355 155.125 66.2709 157.319C65.9942 158.628 64.9959 159.886 63.2663 160.872C59.2436 163.178 52.8093 163.107 48.8953 160.721C47.2843 159.745 46.3552 158.517 46.0982 157.259Z" fill="#FF833D" stroke="black" stroke-linecap="round" stroke-linejoin="round"/>
<path d="M69.5621 126.869C70.9359 128.268 71.6179 129.838 71.6179 131.399C71.6179 131.55 71.608 131.691 71.5981 131.842C71.5882 131.993 71.5685 132.133 71.5388 132.284C71.519 132.395 71.4993 132.506 71.4696 132.617C71.4597 132.657 71.4499 132.697 71.44 132.727C71.0347 134.65 70.6394 136.573 70.2342 138.495C69.4435 142.25 68.7714 147.353 67.5952 150.997V151.007C67.5853 151.038 67.5754 151.068 67.5656 151.108C67.5656 151.118 67.5557 151.128 67.5557 151.128C67.5557 151.138 67.5458 151.148 67.5458 151.158C67.5458 151.158 67.5458 151.158 67.5458 151.169C67.526 151.209 67.5161 151.239 67.5063 151.279C67.4766 151.35 67.4469 151.42 67.4173 151.501C67.4173 151.511 67.4074 151.521 67.4074 151.531C67.3975 151.541 67.3975 151.551 67.3975 151.551C67.358 151.642 67.3185 151.732 67.269 151.823C67.2592 151.833 67.2592 151.843 67.2493 151.853C67.2394 151.873 67.2295 151.883 67.2196 151.893C67.2097 151.913 67.1999 151.924 67.1999 151.934C67.19 151.954 67.1801 151.964 67.1702 151.984C67.1307 152.044 67.101 152.105 67.0615 152.175C67.0516 152.185 67.0516 152.185 67.0516 152.195C67.0417 152.215 67.0219 152.236 67.0121 152.256C67.0121 152.256 67.0121 152.256 67.0121 152.266C67.0022 152.286 66.9923 152.296 66.9824 152.306C66.9824 152.316 66.9725 152.316 66.9725 152.316C66.9725 152.316 66.9725 152.326 66.9626 152.326C66.933 152.366 66.9132 152.397 66.8836 152.437C66.8539 152.487 66.8144 152.538 66.7847 152.588C66.7749 152.598 66.7749 152.608 66.7551 152.618C66.7057 152.699 66.6365 152.769 66.5772 152.85C66.5475 152.89 66.5278 152.92 66.4981 152.95C66.4882 152.96 66.4783 152.98 66.4685 152.991C66.4685 152.991 66.4685 152.991 66.4685 153.001C66.4487 153.021 66.4289 153.041 66.419 153.061C66.3894 153.101 66.3498 153.142 66.3103 153.182C66.3103 153.182 66.3103 153.182 66.3103 153.192C66.2905 153.212 66.2708 153.242 66.2411 153.262C66.2214 153.282 66.2016 153.303 66.1818 153.323C66.1719 153.333 66.1621 153.353 66.1522 153.363C66.1423 153.373 66.1324 153.383 66.1324 153.383C66.1225 153.393 66.1225 153.393 66.1126 153.393C66.0632 153.454 66.0039 153.504 65.9446 153.554C65.9051 153.594 65.8754 153.625 65.8359 153.655C65.826 153.665 65.8161 153.675 65.8062 153.685C65.7964 153.695 65.7964 153.695 65.7865 153.705C65.7667 153.725 65.7371 153.745 65.7173 153.766C65.7074 153.776 65.6876 153.786 65.6778 153.806C65.6382 153.836 65.6086 153.866 65.569 153.896C65.5295 153.927 65.4999 153.957 65.4603 153.987C65.4405 153.997 65.4307 154.007 65.4208 154.017C65.4109 154.017 65.4109 154.027 65.401 154.027C65.3911 154.047 65.3714 154.058 65.3615 154.058C65.3516 154.068 65.3516 154.078 65.3417 154.078C65.2923 154.108 65.2528 154.138 65.2132 154.168C65.144 154.229 65.0847 154.269 65.0155 154.319C64.9958 154.339 64.976 154.349 64.9562 154.36C64.9068 154.4 64.8673 154.43 64.8179 154.46C64.7882 154.48 64.7586 154.5 64.7289 154.521C64.7091 154.531 64.6993 154.541 64.6795 154.551C64.64 154.581 64.6004 154.611 64.5609 154.631C64.551 154.631 64.551 154.641 64.551 154.641C64.5411 154.651 64.5312 154.651 64.5312 154.661C64.4621 154.702 64.4027 154.742 64.3336 154.782C64.2841 154.823 64.2248 154.853 64.1754 154.883C63.9481 155.014 63.7109 155.145 63.4638 155.255C63.4341 155.265 63.4144 155.276 63.3847 155.296C63.3254 155.316 63.276 155.346 63.2167 155.376C63.1574 155.406 63.0981 155.427 63.0388 155.457C62.8708 155.527 62.7027 155.598 62.515 155.668C62.4853 155.678 62.4655 155.688 62.4359 155.698C62.3667 155.729 62.2876 155.759 62.2184 155.789C61.2795 156.141 60.2812 156.393 59.2434 156.554C58.769 156.634 58.2946 156.695 57.8103 156.735C57.7708 156.745 57.7411 156.745 57.7016 156.745C57.5434 156.755 57.3853 156.775 57.2272 156.775C57.0987 156.785 56.9603 156.796 56.8318 156.796H56.7824C56.5847 156.806 56.3969 156.806 56.2091 156.806C55.3295 156.816 54.4597 156.755 53.5998 156.634C53.412 156.614 53.2341 156.584 53.0562 156.554C52.9574 156.534 52.8684 156.524 52.7795 156.504C52.6905 156.483 52.6016 156.473 52.5126 156.453C52.4731 156.443 52.4434 156.433 52.4138 156.433C52.0678 156.363 51.7318 156.282 51.3859 156.192C51.376 156.181 51.376 156.181 51.3661 156.181C51.2079 156.141 51.0597 156.101 50.9114 156.061C49.7847 155.729 48.737 155.286 47.8079 154.712C47.63 154.601 47.4521 154.49 47.294 154.37C47.2446 154.339 47.205 154.309 47.1556 154.279C47.126 154.259 47.0963 154.229 47.0667 154.209C47.0568 154.209 47.0469 154.198 47.037 154.188C46.9481 154.118 46.8591 154.047 46.7701 153.987C46.701 153.927 46.6318 153.876 46.5725 153.816C46.4835 153.745 46.4044 153.675 46.3353 153.605C46.3254 153.594 46.3155 153.594 46.3056 153.584L46.2858 153.564C46.276 153.554 46.2661 153.544 46.2562 153.534C46.2068 153.484 46.1475 153.433 46.0981 153.383C46.0585 153.343 46.0289 153.313 45.9992 153.272C45.9893 153.262 45.9794 153.252 45.9696 153.232C45.9399 153.212 45.9201 153.192 45.9103 153.172C45.8806 153.142 45.851 153.111 45.8213 153.081C45.8015 153.071 45.7917 153.051 45.7818 153.041C45.7917 153.031 45.7917 153.031 45.7818 153.031C45.762 153.011 45.7422 152.98 45.7225 152.96C45.7027 152.94 45.6928 152.92 45.673 152.91C45.6632 152.9 45.6632 152.9 45.6632 152.89C45.6533 152.88 45.6533 152.88 45.6533 152.88C45.6236 152.85 45.6039 152.819 45.5742 152.789C45.5446 152.759 45.5248 152.729 45.505 152.699C45.4853 152.668 45.4754 152.648 45.4556 152.628C45.426 152.588 45.3963 152.548 45.3765 152.517C45.3568 152.497 45.3469 152.477 45.3271 152.457C45.2678 152.366 45.2085 152.276 45.1492 152.185C45.1393 152.165 45.1294 152.155 45.1196 152.135C45.1097 152.125 45.1097 152.125 45.1097 152.115C45.0899 152.085 45.0701 152.054 45.0603 152.024L45.0504 152.014C45.0306 151.984 45.0108 151.954 45.001 151.924C44.9911 151.913 44.9911 151.903 44.9911 151.893C44.9812 151.873 44.9713 151.853 44.9614 151.833C44.9417 151.803 44.9318 151.783 44.9219 151.752C44.9021 151.702 44.8725 151.662 44.8626 151.622C44.8428 151.591 44.8329 151.561 44.823 151.531C44.8132 151.511 44.8033 151.491 44.7934 151.471C44.7637 151.41 44.744 151.36 44.7341 151.309C44.7143 151.269 44.7044 151.239 44.6946 151.199C44.6847 151.169 44.6748 151.148 44.6649 151.118C44.655 151.098 44.655 151.078 44.6451 151.068C44.6451 151.048 44.6353 151.038 44.6353 151.028C44.6254 151.007 44.6254 150.997 44.6155 150.977C44.6056 150.957 44.5957 150.927 44.5957 150.907C44.576 150.856 44.5661 150.816 44.5562 150.776C44.5562 150.766 44.5562 150.756 44.5562 150.746C44.5463 150.726 44.5463 150.706 44.5364 150.685C44.5265 150.675 44.5265 150.665 44.5265 150.655C44.5167 150.645 44.5167 150.645 44.5167 150.645L44.0719 148.471L43.7062 146.669L43.5975 146.135L43.4294 145.34L43.1033 143.74L42.7771 142.149L42.4608 140.609L42.2039 139.321L42.0161 138.435C41.6207 136.502 41.2352 134.569 40.8399 132.637C40.8201 132.576 40.8102 132.516 40.8004 132.456C40.7905 132.395 40.7806 132.345 40.7707 132.295C40.7411 132.164 40.7213 132.033 40.7114 131.892C40.7015 131.831 40.6916 131.771 40.6916 131.711C40.6818 131.59 40.6719 131.469 40.6719 131.358C40.6719 129.003 42.2236 126.647 45.3271 124.876C51.4056 121.403 61.1312 121.504 67.0318 125.097C67.3975 125.319 67.7336 125.55 68.0499 125.782C68.3661 126.023 68.6626 126.265 68.9394 126.506C69.3051 126.617 69.4336 126.748 69.5621 126.869Z" fill="#FAFC7D" stroke="black" stroke-linecap="round" stroke-linejoin="round"/>
<path d="M107.723 115.756C107.723 115.887 107.723 116.008 107.703 116.138C107.703 116.169 107.693 116.189 107.693 116.219C107.683 116.34 107.674 116.461 107.644 116.591C107.634 116.682 107.614 116.773 107.595 116.863V116.883C107.585 116.914 107.575 116.944 107.575 116.974C107.565 117.014 107.555 117.054 107.545 117.085C107.14 119.007 106.745 120.93 106.329 122.853C105.549 126.587 104.876 131.65 103.71 135.294C103.7 135.335 103.69 135.365 103.681 135.395C103.671 135.415 103.661 135.435 103.661 135.465C103.671 135.476 103.661 135.486 103.651 135.486C103.641 135.516 103.641 135.536 103.621 135.566C103.601 135.616 103.582 135.677 103.562 135.737C103.532 135.828 103.493 135.918 103.453 136.009V136.019C103.433 136.059 103.414 136.11 103.384 136.15C103.364 136.18 103.354 136.2 103.345 136.23C103.345 136.241 103.325 136.251 103.325 136.271C103.285 136.331 103.256 136.402 103.216 136.472V136.482C103.206 136.492 103.206 136.502 103.196 136.512C103.176 136.543 103.157 136.573 103.137 136.613C103.127 136.623 103.127 136.633 103.117 136.643C103.068 136.724 103.018 136.804 102.959 136.875C102.949 136.895 102.929 136.915 102.91 136.935C102.88 136.985 102.84 137.036 102.801 137.076V137.086L102.791 137.096C102.771 137.126 102.751 137.157 102.722 137.187C102.712 137.197 102.702 137.207 102.692 137.217C102.663 137.257 102.643 137.287 102.603 137.318C102.583 137.338 102.564 137.358 102.554 137.378C102.504 137.438 102.465 137.489 102.406 137.539V137.549C102.366 137.589 102.326 137.63 102.277 137.68C102.257 137.7 102.247 137.71 102.228 137.73C102.198 137.761 102.168 137.801 102.139 137.821C102.069 137.891 102.01 137.952 101.941 138.002C101.921 138.022 101.901 138.042 101.892 138.052C101.892 138.052 101.882 138.052 101.882 138.063C101.862 138.093 101.842 138.103 101.822 138.123C101.565 138.354 101.269 138.576 100.953 138.777C100.943 138.787 100.943 138.787 100.933 138.787C100.923 138.787 100.923 138.797 100.923 138.797C100.854 138.848 100.795 138.888 100.725 138.938C100.636 138.999 100.547 139.049 100.449 139.099C100.389 139.14 100.34 139.17 100.281 139.2C100.231 139.23 100.182 139.26 100.122 139.281C100.014 139.341 99.8951 139.401 99.7864 139.462C99.7172 139.502 99.6381 139.542 99.5689 139.572C99.4305 139.643 99.2922 139.703 99.1538 139.764C99.0451 139.814 98.9265 139.864 98.8178 139.905C98.6596 139.975 98.5015 140.035 98.3334 140.096C98.2544 140.126 98.1852 140.156 98.1061 140.186C98.0271 140.217 97.948 140.247 97.8689 140.267C97.8294 140.277 97.78 140.297 97.7404 140.307C97.0189 140.539 96.2677 140.72 95.4968 140.851C95.4869 140.851 95.477 140.851 95.477 140.861C95.4375 140.871 95.398 140.871 95.3683 140.881C94.8939 140.962 94.4096 141.022 93.9253 141.062C93.8858 141.072 93.8363 141.072 93.7968 141.072C93.7573 141.082 93.7276 141.082 93.6881 141.082C93.609 141.092 93.5201 141.092 93.441 141.103C93.4113 141.103 93.3718 141.113 93.3422 141.113C93.2038 141.123 93.0753 141.133 92.9468 141.133H92.8974C92.6997 141.143 92.5119 141.143 92.3241 141.143C91.4445 141.153 90.5747 141.092 89.7148 140.972C89.527 140.941 89.3491 140.921 89.1712 140.891C89.0724 140.871 88.9834 140.861 88.8945 140.841C88.8055 140.821 88.7166 140.811 88.6375 140.79C88.6078 140.78 88.5782 140.77 88.5485 140.77C88.2026 140.7 87.8567 140.619 87.5206 140.529C87.5107 140.529 87.5009 140.529 87.491 140.519C87.3328 140.478 87.1846 140.438 87.0363 140.398C86.3543 140.197 85.7119 139.945 85.0892 139.663C85.0398 139.643 85.0003 139.623 84.9508 139.603C84.7532 139.502 84.5555 139.401 84.3677 139.301C84.3381 139.281 84.3084 139.27 84.2886 139.25C84.1601 139.18 84.0415 139.119 83.9229 139.049C83.8735 139.019 83.834 138.989 83.7846 138.958C83.6857 138.898 83.5572 138.807 83.3991 138.707C83.3694 138.687 83.3398 138.666 83.3101 138.646C83.2904 138.626 83.2805 138.616 83.2607 138.616C83.2311 138.586 83.1915 138.566 83.1619 138.546C83.152 138.536 83.1421 138.536 83.1421 138.526C83.1026 138.495 83.0631 138.455 83.0136 138.425C82.9543 138.385 82.895 138.334 82.8456 138.294C82.8061 138.264 82.7764 138.244 82.7468 138.214C82.7369 138.193 82.7171 138.193 82.7072 138.183C82.5985 138.093 82.4997 138.012 82.4107 137.922C82.3415 137.861 82.2822 137.801 82.2131 137.73C82.1933 137.71 82.1834 137.7 82.1636 137.68C82.134 137.65 82.1043 137.62 82.0747 137.589L82.0648 137.579C82.0055 137.519 81.9462 137.459 81.8968 137.398C81.8474 137.348 81.8078 137.297 81.7782 137.247C81.7386 137.207 81.709 137.167 81.6793 137.126C81.6694 137.106 81.6596 137.096 81.6497 137.086C81.5706 136.985 81.5014 136.885 81.4322 136.784C81.3532 136.683 81.2939 136.583 81.2346 136.482C81.1851 136.402 81.1456 136.321 81.1061 136.251C81.0863 136.22 81.0764 136.2 81.0665 136.17C81.0665 136.16 81.0567 136.15 81.0567 136.15L81.0468 136.14C81.0369 136.12 81.0369 136.11 81.027 136.09C80.9974 136.039 80.9776 135.999 80.9677 135.949C80.8886 135.788 80.8392 135.637 80.7898 135.476C80.7601 135.395 80.7404 135.314 80.7206 135.244C80.7107 135.234 80.7107 135.214 80.7107 135.204C80.7107 135.194 80.7008 135.184 80.7008 135.174C80.7008 135.163 80.7008 135.163 80.691 135.163C80.6811 135.123 80.6712 135.093 80.6613 135.063C80.6613 135.053 80.6613 135.053 80.6613 135.053L80.6514 134.992L80.6415 134.962L80.4735 134.167C80.3944 133.744 80.3055 133.311 80.2165 132.878L79.0799 127.342C78.9119 126.547 78.7537 125.762 78.6055 125.007L78.1607 122.832C77.7555 120.87 77.3601 118.907 76.9549 116.944C76.945 116.914 76.945 116.883 76.9351 116.853C76.9252 116.813 76.9252 116.783 76.9154 116.742C76.9055 116.732 76.9055 116.722 76.9055 116.712C76.8857 116.642 76.8758 116.571 76.8659 116.511C76.8462 116.4 76.8363 116.3 76.8264 116.189C76.8363 116.179 76.8264 116.169 76.8264 116.149C76.8165 116.018 76.8066 115.877 76.8066 115.746C76.8066 113.39 78.3584 111.025 81.452 109.253C87.5305 105.78 97.2561 105.881 103.167 109.475C106.28 111.196 107.723 113.481 107.723 115.756Z" fill="#FAFC7D" stroke="black" stroke-linecap="round" stroke-linejoin="round"/>
<path d="M121.482 94.0332C121.442 95.2613 121.116 97.8684 120.869 99.0361C120.711 99.7709 120.543 100.778 120.345 101.502C119.969 102.922 119.436 104.794 118.971 106.183C118.427 107.784 117.469 110.079 117.113 110.793C116.787 111.458 116.391 112.364 116.036 113.018C115.68 113.672 115.235 114.548 114.859 115.202C114.494 115.847 113.97 116.682 113.594 117.326C112.932 118.434 112.724 118.705 110.797 121.373C110.372 121.967 109.73 122.712 109.275 123.285C108.267 124.554 106.715 126.114 105.984 126.859C105.569 127.282 103.987 128.782 102.287 130.1C101.289 130.865 100.024 131.811 98.1855 132.899L95.339 134.57L92.4925 136.241L89.6459 137.912L86.7994 139.583L83.9529 141.254L81.1064 142.924L78.2599 144.595L75.4134 146.266L72.5668 147.937L69.7796 149.568C69.7598 149.588 69.7401 149.598 69.7203 149.608C68.5343 150.253 66.9331 151.098 65.6976 151.622C64.5017 152.125 62.861 152.699 61.5959 153.001C60.39 153.283 58.7592 153.625 57.5336 153.736C56.4662 153.836 55.0331 153.907 53.9656 153.927C53.3429 153.937 52.5226 153.887 51.8999 153.846C48.8162 153.655 45.3272 152.96 42.0854 151.893C39.5551 151.058 37.8749 150.303 37.697 150.222C37.0842 149.941 36.2539 149.588 35.651 149.276C34.5243 148.702 33.0318 147.897 31.9347 147.263L27.1115 144.404C26.9533 144.304 26.7952 144.213 26.637 144.112C26.133 143.8 25.5795 143.468 25.1347 143.176C24.5022 142.753 23.6423 142.19 23.0295 141.727C21.9522 140.921 20.5487 139.804 19.5109 138.948C18.9376 138.475 18.2161 137.801 17.6824 137.277C17.1487 136.764 16.4469 136.069 15.9527 135.516C15.1027 134.57 14.0056 133.271 13.2149 132.275C12.7405 131.681 12.1771 130.845 11.7521 130.211C11.4062 129.698 10.9911 128.983 10.6748 128.459C10.655 128.429 9.34049 126.144 8.56956 124.111C8.21374 123.165 7.79862 121.886 7.512 120.91C7.32421 120.276 7.15618 119.4 7.00793 118.756C6.71141 117.437 6.53351 115.645 6.45444 114.296C6.37537 113.018 6.4149 111.297 6.4742 110.008C6.52362 108.82 6.84978 106.133 7.09688 104.965C7.25502 104.22 7.43293 103.203 7.6306 102.479C8.00618 101.049 8.54979 99.1569 9.02421 97.7577C9.56782 96.1471 10.5463 93.8218 10.8922 93.0971C11.2184 92.4226 11.6236 91.5167 11.9795 90.8523C12.3353 90.198 12.7899 89.3021 13.1655 88.6579C13.5411 88.0036 14.0649 87.158 14.4405 86.5138C15.1126 85.3965 15.3202 85.1146 17.2673 82.4269C17.7021 81.823 18.3446 81.068 18.8091 80.4942C19.8271 79.2158 21.3888 77.6455 22.1399 76.8805C22.5551 76.4577 24.1463 74.9377 25.876 73.609C26.8841 72.8339 28.1591 71.8877 30.0173 70.7905C30.0371 70.7804 30.0568 70.7703 30.0766 70.7603L32.8243 69.1497L35.6313 67.5089L38.4284 65.8581L41.2353 64.2173L44.0324 62.5765L46.8394 60.9256L49.6365 59.2849L52.4435 57.6441L55.2505 55.9932L58.0476 54.3525C59.2337 53.7082 60.8348 52.8526 62.0802 52.3292C63.2563 51.8057 64.9366 51.2319 66.2215 50.9199C67.4174 50.628 69.0383 50.2958 70.2639 50.1851C70.8866 50.1247 71.7069 50.0441 72.3296 50.024C73.3081 49.9938 74.593 49.9837 75.5616 50.0542C77.3604 50.1649 78.675 50.3361 80.3256 50.638C82.7076 51.0709 84.8523 51.7453 84.8721 51.7554C85.5936 51.9869 86.5622 52.2788 87.264 52.5506C88.5093 53.0338 90.1599 53.7183 91.3756 54.2619C91.3954 54.2719 93.3029 55.1275 95.9419 56.6777L100.765 59.5365C101.358 59.909 102.159 60.372 102.742 60.7646C103.75 61.4491 105.074 62.3752 106.043 63.11C107.585 64.2575 109.641 66.15 109.661 66.16C110.599 67.0559 111.795 68.3041 112.675 69.2504C113.179 69.7939 113.792 70.5791 114.266 71.1529C114.286 71.173 115.571 72.7534 116.925 74.9981C118.25 77.2026 118.961 78.9441 119.149 79.4272C119.544 80.4439 120.019 81.8129 120.335 82.8598C120.533 83.4939 120.701 84.3697 120.849 85.024C121.165 86.3427 121.353 88.1546 121.442 89.5135C121.57 90.8523 121.531 92.6743 121.482 94.0332Z" fill="#FAFC7D" stroke="black" stroke-linecap="round" stroke-linejoin="round"/>
<path d="M80.415 61.5497L52.3946 78.0179L47.5713 75.1591L75.5917 58.6909L80.415 61.5497Z" fill="#FF833D" stroke="black" stroke-linecap="round" stroke-linejoin="round"/>
<path d="M57.5929 90.7214C58.0772 91.0033 58.5318 91.3958 58.9766 91.9193C63.0882 96.8114 60.39 107.945 60.3702 108.005L48.3516 93.6809C48.3911 93.6406 53.5603 88.3559 57.5929 90.7214Z" fill="#D9FC7E" stroke="black" stroke-width="0.75" stroke-linecap="round" stroke-linejoin="round"/>
<path d="M61.9719 89.2417C61.3096 88.4565 60.6277 87.8828 59.9259 87.47C57.1881 85.8595 54.3416 86.7453 52.1771 88.0237L51.0898 88.6377C53.1852 87.5103 55.8242 86.8459 58.3742 88.3458C59.0759 88.7585 59.7579 89.3323 60.4201 90.1174C66.0736 96.8517 62.2486 109.032 62.0509 109.666L69.098 105.499C69.3056 104.854 67.6155 95.9759 61.9719 89.2417Z" fill="#FF833D" stroke="black" stroke-linecap="round" stroke-linejoin="round"/>
<path d="M58.3144 87.9733C59.0359 88.3961 59.7475 89.0001 60.4295 89.8154C66.2906 96.8013 62.3272 109.434 62.1196 110.099L60.3603 108.005C60.3801 107.945 63.0685 96.8215 58.9667 91.9192C58.5318 91.3958 58.0673 91.0133 57.583 90.7214C53.5504 88.3458 48.3812 93.6406 48.3417 93.6708L46.5527 91.5468C46.8789 91.2046 52.819 84.7421 58.3144 87.9733Z" fill="#FAFC7D" stroke="black" stroke-linecap="round" stroke-linejoin="round"/>
<path d="M29.4146 86.4737C29.3652 86.4737 29.3158 86.4636 29.2663 86.4536C29.1378 86.4133 29.0291 86.3126 28.9698 86.1818C28.9204 86.071 23.8402 74.8875 19.9756 72.6126C19.8274 72.522 19.7285 72.3609 19.7285 72.1798C19.7285 71.9986 19.8175 71.8375 19.9756 71.7469L22.4268 70.2772C22.5059 70.2269 22.5948 70.2068 22.6739 70.2068C22.7628 70.2068 22.8419 70.2269 22.921 70.2772C26.489 72.3811 36.946 80.9373 37.1733 81.4406C37.2821 81.6721 37.1931 81.954 36.9757 82.0848L29.6617 86.4133C29.5826 86.4535 29.5035 86.4737 29.4146 86.4737Z" fill="#7873D8"/>
<path d="M22.6739 70.71C26.6966 73.0755 36.6495 81.4908 36.7286 81.6418L29.4146 85.9703C29.3455 85.8092 24.2356 74.5351 20.2227 72.1796L22.6739 70.71ZM22.6739 69.7034C22.496 69.7034 22.328 69.7537 22.1698 69.8443L19.7187 71.314C19.4123 71.4951 19.2344 71.8273 19.2344 72.1897C19.2344 72.5521 19.4222 72.8742 19.7286 73.0554C22.8123 74.8673 27.1216 83.3027 28.5152 86.393C28.6338 86.6548 28.8513 86.846 29.1181 86.9366C29.217 86.9668 29.3158 86.9869 29.4146 86.9869C29.5827 86.9869 29.7606 86.9366 29.9088 86.846L37.2228 82.5176C37.6676 82.2559 37.8356 81.7022 37.628 81.2291C37.1833 80.2426 25.6687 71.314 23.178 69.8443C23.0199 69.7537 22.8419 69.7034 22.6739 69.7034Z" fill="black"/>
<path d="M20.2223 72.1797C24.245 74.5452 29.345 85.8193 29.4142 85.9703L17.3561 86.1414C17.3363 86.0307 14.7171 71.8072 18.8386 71.7468C19.2735 71.7468 19.738 71.8978 20.2223 72.1797Z" fill="#D9FC7E" stroke="black" stroke-width="0.75" stroke-linecap="round" stroke-linejoin="round"/>
<path d="M21.4278 67.8009C20.736 67.3882 20.0441 67.1668 19.3918 67.1768C18.9371 67.1869 18.5517 67.2976 18.2057 67.499L16.5156 68.5156C16.8517 68.3143 17.247 68.2036 17.7017 68.1935C18.3639 68.1835 19.0459 68.415 19.7377 68.8176C25.0156 71.918 30.6593 84.8127 30.9657 85.4872L37.9831 81.3299C37.6866 80.6554 26.7058 70.9114 21.4278 67.8009Z" fill="#FF833D" stroke="black" stroke-linecap="round" stroke-linejoin="round"/>
<path d="M19.5109 68.586C25.0062 71.8172 30.8871 85.2455 31.2034 85.9501L29.4144 85.9702C29.3452 85.8092 24.2353 74.5351 20.2225 72.1796C19.7382 71.8978 19.2836 71.7468 18.8388 71.7468C14.7173 71.8072 17.3365 86.0306 17.3562 86.1414L15.587 86.1615C15.3795 85.2555 11.505 68.0122 17.3859 67.9317C18.0777 67.9216 18.7894 68.1632 19.5109 68.586Z" fill="#FAFC7D" stroke="black" stroke-linecap="round" stroke-linejoin="round"/>
<path d="M22.2682 116.279C18.3444 113.974 14.8752 113.531 12.8095 114.749L8.64844 117.477C10.7141 116.259 14.3118 116.36 18.2357 118.665C24.5514 122.38 29.6514 129.506 29.6415 134.6C29.6316 136.522 28.9002 137.881 27.645 138.616L31.6776 136.231C32.9328 135.486 33.6642 134.137 33.6741 132.214C33.684 127.131 28.5741 119.994 22.2682 116.279Z" fill="#FF833D" stroke="black" stroke-linecap="round" stroke-linejoin="round"/>
<path d="M11.7919 122.077C12.7803 122.651 13.571 124.061 13.571 125.208C13.571 126.356 12.7704 126.819 11.782 126.245C10.7936 125.671 10.0029 124.262 10.0029 123.114C10.0128 121.967 10.8134 121.504 11.7919 122.077Z" fill="#FF833D" stroke="black" stroke-linecap="round" stroke-linejoin="round"/>
<path d="M23.2167 128.751C24.1952 129.325 24.9958 130.734 24.9859 131.882C24.9859 133.03 24.1853 133.493 23.2068 132.919C22.2184 132.345 21.4277 130.936 21.4277 129.788C21.4376 128.631 22.2382 128.168 23.2167 128.751Z" fill="#FF833D" stroke="black" stroke-linecap="round" stroke-linejoin="round"/>
<path d="M18.2258 118.675C24.5415 122.39 29.6415 129.516 29.6316 134.61C29.6217 139.703 24.4921 140.811 18.1764 137.096C11.8607 133.382 6.76064 126.255 6.77052 121.162C6.79029 116.078 11.9101 114.961 18.2258 118.675ZM11.7816 126.255C12.77 126.829 13.5607 126.366 13.5705 125.218C13.5705 124.071 12.7798 122.661 11.7915 122.088C10.8031 121.514 10.0124 121.977 10.0025 123.124C10.0025 124.272 10.7932 125.671 11.7816 126.255ZM23.2072 132.919C24.1857 133.493 24.9863 133.029 24.9863 131.882C24.9863 130.734 24.1956 129.325 23.2171 128.751C22.2287 128.178 21.438 128.641 21.4281 129.788C21.4281 130.936 22.2287 132.335 23.2072 132.919Z" fill="#FAFC7D" stroke="black" stroke-linecap="round" stroke-linejoin="round"/>
<path d="M37.2718 118.091C37.9637 118.494 38.5172 119.48 38.5172 120.286C38.5172 121.091 37.9538 121.423 37.262 121.011C36.5701 120.608 36.0166 119.621 36.0166 118.816C36.0265 118.011 36.58 117.679 37.2718 118.091Z" fill="white"/>
<path d="M38.527 117.336C40.395 118.434 41.9171 121.111 41.9073 123.306C41.8974 125.5 40.3753 126.386 38.5072 125.289C36.6293 124.181 35.1171 121.514 35.127 119.319C35.127 117.125 36.6491 116.229 38.527 117.336ZM37.2619 121.011C37.9538 121.413 38.5171 121.091 38.5171 120.286C38.5171 119.481 37.9636 118.494 37.2718 118.091C36.5799 117.689 36.0264 118.011 36.0165 118.816C36.0165 119.621 36.5799 120.608 37.2619 121.011Z" fill="black"/>
<path d="M12.306 103.526C12.9979 103.928 13.5514 104.915 13.5514 105.72C13.5514 106.525 12.988 106.847 12.2961 106.445C11.6043 106.042 11.0508 105.056 11.0508 104.25C11.0607 103.445 11.624 103.123 12.306 103.526Z" fill="white"/>
<path d="M13.5612 102.771C15.4391 103.878 16.9513 106.546 16.9513 108.74C16.9414 110.934 15.4193 111.82 13.5414 110.713C11.6734 109.616 10.1513 106.938 10.1612 104.744C10.1612 102.559 11.6932 101.674 13.5612 102.771ZM12.306 106.445C12.9978 106.848 13.5513 106.525 13.5612 105.72C13.5612 104.915 13.0077 103.928 12.3158 103.526C11.624 103.123 11.0705 103.445 11.0606 104.261C11.0507 105.066 11.6141 106.042 12.306 106.445Z" fill="black"/>
<path d="M56.8019 18.6478L60.5281 23.4192C65.0449 29.6602 61.042 40.4612 51.5932 47.5477C42.1443 54.6343 30.8274 55.3289 26.3204 49.0879L23.207 45.0815" fill="#FF833D"/>
<path d="M56.8019 18.6478L60.5281 23.4192C65.0449 29.6602 61.042 40.4612 51.5932 47.5477C42.1443 54.6343 30.8274 55.3289 26.3204 49.0879L23.207 45.0815" stroke="black" stroke-linecap="round" stroke-linejoin="round"/>
<mask id="mask0_2_2827" style="mask-type:luminance" maskUnits="userSpaceOnUse" x="23" y="18" width="40" height="36">
<path d="M56.9205 18.5573L60.6467 23.3286C65.1635 29.5696 61.131 40.3907 51.6525 47.5075C42.1739 54.6243 30.8274 55.3289 26.3204 49.0879L23.207 45.0815L56.9205 18.5573Z" fill="white"/>
</mask>
<g mask="url(#mask0_2_2827)">
<path d="M27.665 45.4641L39.5354 59.7178" stroke="black" stroke-linecap="round" stroke-linejoin="round"/>
<path d="M30.4814 42.5649L42.3518 56.8186" stroke="black" stroke-linecap="round" stroke-linejoin="round"/>
<path d="M33.3086 39.6659L45.1691 53.9196" stroke="black" stroke-linecap="round" stroke-linejoin="round"/>
<path d="M36.126 36.7668L47.9865 51.0205" stroke="black" stroke-linecap="round" stroke-linejoin="round"/>
<path d="M38.9424 33.8678L50.8128 48.1215" stroke="black" stroke-linecap="round" stroke-linejoin="round"/>
<path d="M41.7695 30.9688L53.63 45.2224" stroke="black" stroke-linecap="round" stroke-linejoin="round"/>
<path d="M44.5859 28.0697L56.4464 42.3234" stroke="black" stroke-linecap="round" stroke-linejoin="round"/>
<path d="M47.4033 25.1707L59.2737 39.4243" stroke="black" stroke-linecap="round" stroke-linejoin="round"/>
<path d="M50.2197 22.2716L62.0901 36.5253" stroke="black" stroke-linecap="round" stroke-linejoin="round"/>
<path d="M53.0469 19.3726L64.9074 33.6262" stroke="black" stroke-linecap="round" stroke-linejoin="round"/>
</g>
<path d="M48.5016 43.5347C57.9547 36.4411 61.9588 25.6326 57.4449 19.3932C52.931 13.1539 41.6086 13.8464 32.1554 20.94C22.7023 28.0337 18.6983 38.8422 23.2121 45.0815C27.726 51.3209 39.0485 50.6283 48.5016 43.5347Z" fill="#FAFC7D"/>
<path d="M35.3536 26.1975C43.824 19.8457 53.7671 18.6378 58.9956 22.936C58.7089 21.6476 58.2049 20.4497 57.4339 19.3928C52.9171 13.1518 41.6002 13.8463 32.1513 20.9429C22.7024 28.0396 18.6896 38.8406 23.2065 45.0816C23.6809 45.7359 24.2344 46.2895 24.8472 46.7928C23.4338 40.5216 27.506 32.0862 35.3536 26.1975Z" fill="#FFFED4"/>
<path d="M48.5016 43.5347C57.9547 36.4411 61.9588 25.6326 57.4449 19.3932C52.931 13.1539 41.6086 13.8464 32.1554 20.94C22.7023 28.0337 18.6983 38.8422 23.2121 45.0815C27.726 51.3209 39.0485 50.6283 48.5016 43.5347Z" stroke="black" stroke-linecap="round" stroke-linejoin="round"/>
<path d="M105.657 9.87024L107.229 11.5211C109.314 14.4 103.345 22.4831 93.8957 29.5697C84.4468 36.6563 75.1067 40.0687 73.0212 37.1898L71.7363 35.8107" fill="#FF833D"/>
<path d="M105.657 9.87024L107.229 11.5211C109.314 14.4 103.345 22.4831 93.8957 29.5697C84.4468 36.6563 75.1067 40.0687 73.0212 37.1898L71.7363 35.8107" stroke="black" stroke-linecap="round" stroke-linejoin="round"/>
<mask id="mask1_2_2827" style="mask-type:luminance" maskUnits="userSpaceOnUse" x="71" y="9" width="37" height="30">
<path d="M105.657 9.87024L107.347 11.4305C109.433 14.3094 103.434 22.4127 93.955 29.5294C84.4765 36.6462 75.1067 40.0687 73.0212 37.1898L71.7363 35.8107L105.657 9.87024Z" fill="white"/>
</mask>
<g mask="url(#mask1_2_2827)">
<path d="M75.8281 35.6698L88.1433 50.467" stroke="black" stroke-linecap="round" stroke-linejoin="round"/>
<path d="M78.7041 32.8311L90.96 47.5679" stroke="black" stroke-linecap="round" stroke-linejoin="round"/>
<path d="M81.5703 29.9924L93.7866 44.6689" stroke="black" stroke-linecap="round" stroke-linejoin="round"/>
<path d="M84.4365 27.1538L96.6034 41.7699" stroke="black" stroke-linecap="round" stroke-linejoin="round"/>
<path d="M87.3135 24.3152L99.4211 38.8708" stroke="black" stroke-linecap="round" stroke-linejoin="round"/>
<path d="M90.1797 21.4764L102.238 35.9717" stroke="black" stroke-linecap="round" stroke-linejoin="round"/>
<path d="M93.0459 18.6378L105.065 33.0727" stroke="black" stroke-linecap="round" stroke-linejoin="round"/>
<path d="M95.9219 15.7992L107.881 30.1737" stroke="black" stroke-linecap="round" stroke-linejoin="round"/>
<path d="M98.7881 12.9606L110.698 27.2746" stroke="black" stroke-linecap="round" stroke-linejoin="round"/>
<path d="M101.654 10.1118L113.525 24.3755" stroke="black" stroke-linecap="round" stroke-linejoin="round"/>
</g>
<path d="M86.6008 19.8558C77.1519 26.9525 70.4903 34.0894 71.7356 35.8006C72.8624 37.3508 80.0973 33.9082 88.4787 27.9692C88.8642 23.8924 89.8921 19.9565 91.5723 16.3226C89.9613 17.4098 88.3008 18.5875 86.6008 19.8558Z" fill="#FFFED4"/>
<path d="M105.964 10.1117C104.946 8.70249 98.9168 11.3901 91.5633 16.3226C89.893 19.9464 88.8552 23.8923 88.4697 27.9691C89.3296 27.3551 90.2093 26.731 91.0889 26.0666C100.558 18.97 107.209 11.8331 105.964 10.1117Z" fill="#FAFC7D"/>
<path d="M91.1016 26.0604C100.555 18.9668 107.213 11.8266 105.972 10.1123C104.732 8.39805 96.0636 12.7589 86.6105 19.8525C77.1574 26.9461 70.4995 34.0863 71.7397 35.8006C72.9799 37.5148 81.6485 33.154 91.1016 26.0604Z" stroke="black" stroke-linecap="round" stroke-linejoin="round"/>
<path d="M163.171 146.589L147.762 153.424L143.255 98.3718L158.664 91.5369L163.171 146.589Z" fill="#BDB9EF" stroke="black" stroke-width="0.75" stroke-linecap="round" stroke-linejoin="round"/>
<path d="M131.454 149.286L147.762 153.424L143.255 98.3719L126.947 94.2246L131.454 149.286Z" fill="#D9FC7E" stroke="black" stroke-width="0.75" stroke-linecap="round" stroke-linejoin="round"/>
<path d="M127.352 94.3353L143.206 98.3618C143.236 98.3718 143.265 98.3618 143.295 98.3517L158.289 91.698C158.407 91.6476 158.397 91.4665 158.269 91.4363L143.117 87.5205C143.087 87.5105 143.058 87.5105 143.028 87.5306L127.323 94.0736C127.214 94.1139 127.224 94.295 127.352 94.3353Z" fill="white" stroke="black" stroke-width="0.75" stroke-miterlimit="10"/>
<path d="M144.748 156.152L129.349 162.997L126.69 130.553L142.089 123.719L144.748 156.152Z" fill="#BDB9EF" stroke="black" stroke-width="0.75" stroke-linecap="round" stroke-linejoin="round"/>
<path d="M113.041 158.849L129.349 162.996L126.69 130.553L110.382 126.416L113.041 158.849Z" fill="#D9FC7E" stroke="black" stroke-width="0.75" stroke-linecap="round" stroke-linejoin="round"/>
<path d="M110.58 126.466L126.661 130.553C126.67 130.553 126.69 130.553 126.7 130.553L141.901 123.799C141.961 123.769 141.951 123.688 141.891 123.668L126.522 119.692C126.512 119.692 126.493 119.692 126.483 119.692L110.56 126.325C110.511 126.366 110.52 126.446 110.58 126.466Z" fill="white" stroke="black" stroke-width="0.75" stroke-miterlimit="10"/>
<path d="M125.613 165.422L110.204 172.267L109.117 159.091L124.526 152.246L125.613 165.422Z" fill="#BDB9EF" stroke="black" stroke-width="0.75" stroke-linecap="round" stroke-linejoin="round"/>
<path d="M93.8958 168.12L110.204 172.267L109.117 159.091L92.8086 154.944L93.8958 168.12Z" fill="#D9FC7E" stroke="black" stroke-width="0.75" stroke-linecap="round" stroke-linejoin="round"/>
<path d="M93.0454 155.004L109.087 159.081C109.106 159.081 109.126 159.081 109.136 159.081L124.308 152.347C124.377 152.316 124.367 152.216 124.298 152.196L108.968 148.229C108.948 148.229 108.938 148.229 108.919 148.229L93.0355 154.843C92.9663 154.883 92.9762 154.984 93.0454 155.004Z" fill="white" stroke="black" stroke-width="0.75" stroke-miterlimit="10"/>
<path d="M145.776 43.7126C145.874 43.934 145.983 44.1555 146.072 44.377C146.299 44.9306 146.418 45.5245 146.438 46.1385C146.477 47.1955 146.26 48.1719 145.855 49.0778C145.697 49.4402 145.509 49.7825 145.291 50.0945C144.619 51.0709 143.799 51.7655 142.781 52.0776C141.753 52.3896 140.765 52.1983 139.826 51.5541C139.47 51.3125 139.153 51.0206 138.847 50.6985C138.778 50.628 138.778 50.628 138.728 50.7086C138.383 51.2521 138.037 51.7856 137.691 52.3292C137.631 52.4198 137.631 52.4198 137.552 52.3493C137.187 51.987 136.831 51.6246 136.465 51.2622C136.396 51.1917 136.396 51.1817 136.445 51.0911C136.791 50.5475 137.137 50.014 137.483 49.4704C137.533 49.3899 137.533 49.3899 137.473 49.3194C136.9 48.7356 136.317 48.1618 135.744 47.578C135.684 47.5176 135.684 47.5176 135.635 47.5981C135.289 48.1417 134.943 48.6853 134.597 49.2288C134.548 49.3094 134.538 49.3094 134.469 49.2389C134.103 48.8765 133.737 48.5041 133.371 48.1417C133.302 48.0712 133.302 48.0712 133.352 47.9907C133.698 47.4471 134.044 46.9036 134.39 46.36C134.439 46.2795 134.439 46.2795 134.38 46.209C133.589 45.4138 132.808 44.6185 132.017 43.8334C131.998 43.8132 131.988 43.8032 131.968 43.783C131.938 43.7528 131.938 43.7227 131.958 43.6925C131.968 43.6824 131.968 43.6723 131.978 43.6623C132.492 42.867 132.996 42.0718 133.51 41.2766C133.559 41.196 133.569 41.196 133.638 41.2665C134.152 41.7799 134.656 42.2933 135.17 42.8066C135.23 42.867 135.24 42.867 135.289 42.7966C137.295 39.6559 139.302 36.5254 141.308 33.3847C141.358 33.3042 141.358 33.3042 141.288 33.2438C140.784 32.7304 140.27 32.217 139.766 31.7137C139.687 31.6332 139.687 31.6332 139.747 31.5325C140.251 30.7373 140.765 29.9421 141.269 29.1569C141.328 29.0764 141.328 29.0764 141.387 29.1368C142.178 29.9421 142.979 30.7373 143.769 31.5426C143.838 31.6131 143.838 31.6131 143.888 31.5325C144.244 30.9789 144.59 30.4353 144.945 29.8817C144.995 29.8012 144.995 29.8012 145.064 29.8716C145.43 30.2441 145.795 30.6165 146.171 30.9789C146.24 31.0494 146.24 31.0494 146.181 31.1299C145.825 31.6835 145.479 32.2271 145.123 32.7807C145.074 32.8613 145.074 32.8613 145.133 32.9217C145.687 33.4854 146.25 34.0491 146.804 34.6128C146.813 34.6229 146.833 34.6329 146.843 34.6531C146.932 34.7738 146.922 34.7336 146.991 34.643C147.337 34.0994 147.683 33.5659 148.029 33.0223C148.088 32.9317 148.088 32.9317 148.167 33.0022C148.533 33.3747 148.899 33.737 149.265 34.1095C149.324 34.1699 149.324 34.1699 149.274 34.2504C148.859 34.8946 148.454 35.5389 148.039 36.1831C147.999 36.2435 147.999 36.2938 148.029 36.3643C148.405 37.0991 148.642 37.9044 148.711 38.7701C148.78 39.7163 148.642 40.6021 148.276 41.4175C147.871 42.3335 147.288 42.9878 146.527 43.4207C146.299 43.5515 146.052 43.6321 145.815 43.7327C145.815 43.7025 145.795 43.7126 145.776 43.7126ZM138.679 43.3099C138.303 43.8938 137.938 44.4776 137.562 45.0614C137.513 45.142 137.513 45.142 137.582 45.2124C137.809 45.4339 138.027 45.6654 138.254 45.8869C138.659 46.2996 139.074 46.7022 139.48 47.125C139.677 47.3364 139.885 47.5377 140.112 47.6988C140.527 47.9907 140.972 48.1518 141.447 48.0813C142.03 48.0008 142.474 47.6384 142.761 47.0143C143.067 46.3701 143.067 45.6856 142.84 44.9809C142.672 44.4776 142.405 44.075 142.069 43.7227C141.97 43.622 141.862 43.5415 141.763 43.4408C141.278 42.9576 140.804 42.4644 140.32 41.9812C140.181 41.8403 140.053 41.7094 139.915 41.5685C139.845 41.498 139.845 41.498 139.796 41.5786C139.42 42.1423 139.045 42.7261 138.679 43.3099ZM142.465 37.391C142.415 37.4716 142.366 37.5521 142.316 37.6326C142.049 38.0453 141.783 38.4581 141.516 38.8708C141.486 38.9211 141.476 38.9513 141.526 38.9916C141.605 39.062 141.674 39.1526 141.743 39.2231C142.217 39.7063 142.692 40.1995 143.206 40.6323C143.423 40.8135 143.66 40.9545 143.917 41.0048C144.718 41.1558 145.44 40.5619 145.608 39.6056C145.716 38.9614 145.578 38.3876 145.272 37.8642C145.064 37.4917 144.787 37.1998 144.51 36.9179C144.184 36.5757 143.838 36.2536 143.512 35.9214C143.453 35.861 143.453 35.861 143.403 35.9415C143.087 36.4146 142.771 36.8978 142.465 37.391Z" fill="#FF833D" stroke="black" stroke-width="0.75" stroke-linecap="round" stroke-linejoin="round"/>
<path d="M126.196 26.3888L126.68 21.3054L128.776 19.9867L129.003 17.1178L126.957 18.3962L127.738 10.2225L122.529 11.0178L121.501 21.8288L119.742 22.9361L119.436 25.8553L121.225 24.7279L120.612 31.1803L121.719 31.0091L125.82 30.375L133.648 29.167L133.945 25.201L126.196 26.3888Z" fill="#BDB9EF" stroke="black" stroke-width="0.75" stroke-linecap="round" stroke-linejoin="round"/>
<path d="M0.494141 37.9447L11.3761 40.2197" stroke="black" stroke-linecap="round" stroke-linejoin="round"/>
<path d="M68.8105 0.901245L66.5273 13.3531" stroke="black" stroke-linecap="round" stroke-linejoin="round"/>
<path d="M184.243 47.0546L193.366 41.6692" stroke="black" stroke-linecap="round" stroke-linejoin="round"/>
<path d="M198.812 91.7886L209.506 96.6707" stroke="black" stroke-linecap="round" stroke-linejoin="round"/>
</g>
<defs>
<clipPath id="clip0_2_2827">
<rect width="210" height="175" fill="white" transform="translate(0 0.397949)"/>
</clipPath>
</defs>
</svg>
