<svg width="268" height="156" viewBox="0 0 268 156" fill="none" xmlns="http://www.w3.org/2000/svg">
<g clip-path="url(#clip0_2_2729)">
<path d="M28.7452 148.519C28.7452 148.519 8.83522 99.6891 17.7752 77.0791C26.7152 54.4691 79.2252 55.8391 90.3052 77.0791C101.385 98.3191 85.5952 149.899 85.5952 149.899L28.7452 148.519Z" fill="url(#paint0_radial_2_2729)"/>
<path d="M158.415 77.089C154.515 68.119 144.455 62.709 133.585 61.139C133.585 61.139 91.745 51.319 37.825 62.399C37.825 62.399 16.905 67.499 15.475 87.709C14.055 107.919 28.755 149.909 28.755 149.909H117.525L117.605 149.439L148.835 148.529C148.845 148.519 167.645 98.319 158.415 77.089Z" fill="#BDB9EF" stroke="black" stroke-linecap="round" stroke-linejoin="round"/>
<path d="M150.145 149.939V149.949C149.915 150.649 149.715 151.269 149.535 151.749C149.525 151.759 149.535 151.759 149.535 151.759C149.225 152.629 149.045 153.139 149.005 153.249C148.995 153.259 148.995 153.279 148.995 153.279L142.485 153.089C142.485 153.089 142.485 153.079 142.495 153.049C142.545 152.929 142.725 152.469 143.025 151.719C143.685 150.009 144.905 146.779 146.365 142.579C151.535 127.729 159.675 100.649 156.665 84.949C152.935 65.479 129.955 55.729 113.305 61.299C113.165 61.339 113.045 61.389 112.935 61.439C109.195 62.729 105.805 64.829 103.035 67.759C102.995 67.799 102.955 67.839 102.895 67.899C117.035 52.099 157.225 50.169 160.955 80.329C164.085 105.569 153.725 139.329 150.145 149.939Z" fill="#D9FC7E" stroke="black" stroke-linecap="round" stroke-linejoin="round"/>
<path d="M95.3753 153.479H84.3353C84.3353 153.479 75.2453 108.249 78.9853 83.2491C83.3453 54.0991 110.185 46.9991 133.575 51.3391C133.575 51.3391 107.895 49.7691 98.3853 67.2391C88.8953 84.7091 95.3753 153.479 95.3753 153.479Z" fill="#FAFC7D" stroke="black" stroke-linecap="round" stroke-linejoin="round"/>
<path d="M27.7351 153.299C27.7351 153.299 5.64511 112.839 10.9651 81.8891C15.3751 56.2391 46.8651 56.6491 46.8651 56.6491C46.8651 56.6491 29.6851 60.0391 22.3651 77.5091C15.0451 94.9791 36.2451 153.289 36.2451 153.289H27.7351V153.299Z" fill="#FAFC7D" stroke="black" stroke-linecap="round" stroke-linejoin="round"/>
<path d="M68.3452 58.019C68.3452 58.019 57.6752 54.699 41.5552 57.119C25.4352 59.529 17.9852 78.009 20.0452 101.139C22.1052 124.269 36.2352 153.299 36.2352 153.299H42.3952L49.3352 148.529L40.8552 148.419C40.8552 148.419 21.9052 112.759 26.4652 83.679C30.2652 59.529 68.3452 58.019 68.3452 58.019Z" fill="#D9FC7E" stroke="black" stroke-linecap="round" stroke-linejoin="round"/>
<path d="M166.215 82.569C163.735 48.229 103.445 35.169 91.7452 76.479C82.3752 109.529 95.3752 153.489 95.3752 153.489L103.105 153.079L103.895 153.109L142.505 153.059L148.995 153.289H155.675C155.675 153.289 160.595 136.499 163.765 117.119C163.765 117.109 163.765 117.109 163.765 117.109C165.685 105.509 166.975 92.999 166.215 82.569ZM150.145 149.939V149.949C149.905 150.659 149.695 151.269 149.535 151.749C149.525 151.759 149.535 151.759 149.535 151.759C149.225 152.629 149.045 153.139 149.005 153.249C149.015 153.099 149.095 152.529 149.195 151.719C149.565 148.859 150.225 143.039 149.645 142.759C149.525 142.709 148.315 142.639 146.365 142.579C136.035 142.279 104.605 142.019 100.605 141.979C97.1352 127.079 91.8152 98.229 97.0252 78.239C98.0952 74.119 100.155 70.669 102.905 67.879C102.955 67.829 102.995 67.789 103.045 67.739C105.785 64.999 109.175 62.899 112.945 61.419C113.055 61.379 113.175 61.329 113.315 61.279C131.655 54.279 158.545 61.769 160.975 82.009C163.825 106.059 153.665 139.379 150.145 149.939Z" fill="#D9FC7E" stroke="black" stroke-linecap="round" stroke-linejoin="round"/>
<path d="M31.9653 143.639C33.4053 143.029 82.7653 143.639 82.7653 143.639L84.3453 153.489L36.2453 153.299L31.9653 143.639Z" fill="#FAFC7D" stroke="black" stroke-linecap="round" stroke-linejoin="round"/>
<path d="M31.9653 143.639L37.3353 140.969C37.3353 140.969 60.3853 144.579 82.0053 139.089L82.7653 143.639H31.9653Z" fill="#D9FC7E" stroke="black" stroke-linecap="round" stroke-linejoin="round"/>
<path d="M110.985 62.229C110.985 62.229 116.095 134.099 115.305 142.139" stroke="black" stroke-miterlimit="10"/>
<path d="M142.475 65.0891C142.475 65.0891 136.415 134.339 135.625 142.379" stroke="black" stroke-miterlimit="10"/>
<path d="M94.8853 100.629C94.8853 100.629 132.125 101.829 159.285 101.749C159.285 101.749 158.315 110.129 157.935 112.229C157.555 114.329 95.3853 112.229 95.3853 112.229L94.8853 100.629Z" fill="#D9FC7E" stroke="black" stroke-linecap="round" stroke-linejoin="round"/>
<path d="M84.335 57.0391C84.335 57.0391 65.675 58.8891 63.675 81.1291C61.675 103.369 68.235 136.309 70.725 141.189" stroke="black" stroke-miterlimit="10"/>
<path d="M59.595 59.349C59.595 59.349 40.935 61.199 38.935 83.439C36.935 105.679 45.425 137.069 47.915 141.949" stroke="black" stroke-miterlimit="10"/>
<path d="M23.8753 110.849C23.8753 110.849 21.5953 104.009 21.9753 101.029C22.3553 98.0491 78.0853 97.8091 78.0853 97.8091L78.6053 110.849C78.6053 110.849 40.0453 113.969 23.8753 110.849Z" fill="#FAFC7D" stroke="black" stroke-linecap="round" stroke-linejoin="round"/>
<path d="M46.6453 109.619L47.0953 106.799C47.0953 106.799 45.0153 104.359 45.6753 102.789C46.3353 101.219 48.5753 101.109 49.2653 101.909C49.9553 102.709 48.7653 106.579 48.7653 106.579L50.2653 109.659L46.6453 109.619Z" fill="#D9FC7E" stroke="black" stroke-linecap="round" stroke-linejoin="round"/>
<path d="M136.425 85.619H161.805L166.135 108.709H132.515L136.425 85.619Z" fill="#FAFC7D" stroke="black" stroke-linecap="round" stroke-linejoin="round"/>
<path d="M161.805 85.619H198.565L202.715 108.709H166.135L161.805 85.619Z" fill="#FCF500" stroke="black" stroke-linecap="round" stroke-linejoin="round"/>
<path d="M118.145 108.849H143.515L147.845 131.939H114.225L118.145 108.849Z" fill="#FAFC7D" stroke="black" stroke-linecap="round" stroke-linejoin="round"/>
<path d="M143.515 108.849H180.275L184.425 131.939H147.845L143.515 108.849Z" fill="#FCF500" stroke="black" stroke-linecap="round" stroke-linejoin="round"/>
<path d="M165.725 108.849H191.095L195.425 131.939H161.805L165.725 108.849Z" fill="#FAFC7D" stroke="black" stroke-linecap="round" stroke-linejoin="round"/>
<path d="M191.095 108.849H227.855L232.005 131.939H195.425L191.095 108.849Z" fill="#FCF500" stroke="black" stroke-linecap="round" stroke-linejoin="round"/>
<path d="M91.505 132.079H116.875L121.205 155.169H87.585L91.505 132.079Z" fill="#FAFC7D" stroke="black" stroke-linecap="round" stroke-linejoin="round"/>
<path d="M116.875 132.079H153.635L157.785 155.169H121.205L116.875 132.079Z" fill="#FCF500" stroke="black" stroke-linecap="round" stroke-linejoin="round"/>
<path d="M139.085 132.079H164.455L168.785 155.169H135.165L139.085 132.079Z" fill="#FAFC7D" stroke="black" stroke-linecap="round" stroke-linejoin="round"/>
<path d="M164.455 132.079H201.215L205.365 155.169H168.785L164.455 132.079Z" fill="#FCF500" stroke="black" stroke-linecap="round" stroke-linejoin="round"/>
<path d="M190.005 132.079H215.375L219.705 155.169H186.085L190.005 132.079Z" fill="#FAFC7D" stroke="black" stroke-linecap="round" stroke-linejoin="round"/>
<path d="M215.375 132.079H252.135L256.285 155.169H219.705L215.375 132.079Z" fill="#FCF500" stroke="black" stroke-linecap="round" stroke-linejoin="round"/>
<path d="M191.865 60.549L186.545 65.929C186.415 66.059 186.325 66.229 186.285 66.409L184.705 73.809C184.545 74.549 183.625 74.829 183.085 74.289L177.705 68.969C177.575 68.839 177.405 68.749 177.225 68.709L169.825 67.129C169.085 66.969 168.805 66.049 169.345 65.509L174.665 60.129C174.795 59.999 174.885 59.829 174.925 59.649L176.505 52.249C176.665 51.509 177.585 51.229 178.125 51.769L183.505 57.089C183.635 57.219 183.805 57.309 183.985 57.349L191.385 58.929C192.125 59.089 192.395 60.009 191.865 60.549Z" fill="#FF833D" stroke="black" stroke-linecap="round" stroke-linejoin="round"/>
<path d="M250.535 95.6289L244.265 94.9489C244.115 94.9289 243.955 94.9589 243.825 95.0289L238.175 97.8389C237.605 98.1189 236.955 97.6689 237.015 97.0289L237.695 90.7589C237.715 90.6089 237.685 90.4489 237.615 90.3189L234.805 84.6689C234.525 84.0989 234.975 83.4489 235.615 83.5089L241.885 84.1889C242.035 84.2089 242.195 84.1789 242.325 84.1089L247.975 81.2989C248.545 81.0189 249.195 81.4689 249.135 82.1089L248.455 88.3789C248.435 88.5289 248.465 88.6889 248.535 88.8189L251.345 94.4689C251.625 95.0389 251.165 95.6889 250.535 95.6289Z" fill="#FF833D" stroke="black" stroke-linecap="round" stroke-linejoin="round"/>
<path d="M192.957 37.662C196.666 36.5528 198.774 32.6466 197.665 28.9373C196.556 25.228 192.65 23.1202 188.94 24.2294C185.231 25.3386 183.123 29.2448 184.232 32.9541C185.342 36.6634 189.248 38.7712 192.957 37.662Z" fill="#D9FC7E" stroke="black" stroke-linecap="round" stroke-linejoin="round"/>
<path d="M221.545 53.969C220.135 54.389 218.645 53.589 218.225 52.179C217.805 50.769 218.605 49.279 220.015 48.859C221.425 48.439 222.915 49.239 223.335 50.649C223.755 52.059 222.955 53.549 221.545 53.969Z" fill="#FF833D" stroke="black" stroke-linecap="round" stroke-linejoin="round"/>
<path d="M162.705 37.519C160.925 38.049 159.055 37.039 158.525 35.259C157.995 33.479 159.005 31.609 160.785 31.079C162.565 30.549 164.435 31.559 164.965 33.339C165.495 35.119 164.485 36.989 162.705 37.519Z" fill="#FAFC7D" stroke="black" stroke-linecap="round" stroke-linejoin="round"/>
<path d="M255.085 114.759C256.742 114.759 258.085 113.416 258.085 111.759C258.085 110.102 256.742 108.759 255.085 108.759C253.428 108.759 252.085 110.102 252.085 111.759C252.085 113.416 253.428 114.759 255.085 114.759Z" fill="#D9FC7E" stroke="black" stroke-linecap="round" stroke-linejoin="round"/>
<path d="M122.235 38.939C123.892 38.939 125.235 37.5958 125.235 35.939C125.235 34.2821 123.892 32.939 122.235 32.939C120.578 32.939 119.235 34.2821 119.235 35.939C119.235 37.5958 120.578 38.939 122.235 38.939Z" fill="#FF833D" stroke="black" stroke-linecap="round" stroke-linejoin="round"/>
<path d="M241.205 65.319C243.784 65.319 245.875 63.2282 245.875 60.649C245.875 58.0698 243.784 55.979 241.205 55.979C238.625 55.979 236.535 58.0698 236.535 60.649C236.535 63.2282 238.625 65.319 241.205 65.319Z" fill="#FAFC7D" stroke="black" stroke-linecap="round" stroke-linejoin="round"/>
<path d="M208.835 72.669C210.862 72.669 212.505 71.0259 212.505 68.999C212.505 66.9721 210.862 65.329 208.835 65.329C206.808 65.329 205.165 66.9721 205.165 68.999C205.165 71.0259 206.808 72.669 208.835 72.669Z" fill="#FAFC7D" stroke="black" stroke-linecap="round" stroke-linejoin="round"/>
<path d="M0.774902 47.589L11.9749 49.899" stroke="black" stroke-linecap="round" stroke-linejoin="round"/>
<path d="M91.8148 1.33899L89.4648 13.919" stroke="black" stroke-linecap="round" stroke-linejoin="round"/>
<path d="M217.665 37.369L223.895 28.489" stroke="black" stroke-linecap="round" stroke-linejoin="round"/>
<path d="M255.185 75.099L267.225 74.499" stroke="black" stroke-linecap="round" stroke-linejoin="round"/>
<path d="M67.7349 21.249L69.5449 27.139C71.5649 34.699 63.7449 43.359 52.0849 46.469C40.4249 49.589 29.3349 45.979 27.3149 38.419L25.8149 33.479" fill="#FF833D"/>
<path d="M67.7349 21.249L69.5449 27.139C71.5649 34.699 63.7449 43.359 52.0849 46.469C40.4249 49.589 29.3349 45.979 27.3149 38.419L25.8149 33.479" stroke="black" stroke-linecap="round" stroke-linejoin="round"/>
<mask id="mask0_2_2729" style="mask-type:luminance" maskUnits="userSpaceOnUse" x="25" y="21" width="46" height="27">
<path d="M67.8849 21.209L69.6949 27.099C71.7149 34.659 63.8649 43.329 52.1649 46.449C40.4649 49.569 29.3349 45.979 27.3149 38.419L25.8149 33.479L67.8849 21.209Z" fill="white"/>
</mask>
<g mask="url(#mask0_2_2729)">
<path d="M29.9351 35.5189L36.0351 53.3889" stroke="black" stroke-linecap="round" stroke-linejoin="round"/>
<path d="M33.7051 33.8589L39.8051 51.7189" stroke="black" stroke-linecap="round" stroke-linejoin="round"/>
<path d="M37.4751 32.189L43.5751 50.059" stroke="black" stroke-linecap="round" stroke-linejoin="round"/>
<path d="M41.2451 30.5289L47.3451 48.3889" stroke="black" stroke-linecap="round" stroke-linejoin="round"/>
<path d="M45.0151 28.8589L51.1251 46.7289" stroke="black" stroke-linecap="round" stroke-linejoin="round"/>
<path d="M48.7852 27.189L54.8952 45.059" stroke="black" stroke-linecap="round" stroke-linejoin="round"/>
<path d="M52.5552 25.5289L58.6652 43.3889" stroke="black" stroke-linecap="round" stroke-linejoin="round"/>
<path d="M56.3252 23.8589L62.4352 41.7289" stroke="black" stroke-linecap="round" stroke-linejoin="round"/>
<path d="M60.105 22.199L66.205 40.059" stroke="black" stroke-linecap="round" stroke-linejoin="round"/>
<path d="M63.875 20.5289L69.975 38.3889" stroke="black" stroke-linecap="round" stroke-linejoin="round"/>
</g>
<path d="M50.6019 41.5256C62.2709 38.4082 70.093 29.7519 68.0732 22.1914C66.0533 14.6308 54.9563 11.0289 43.2873 14.1464C31.6183 17.2638 23.7961 25.9201 25.816 33.4807C27.8358 41.0412 38.9328 44.6431 50.6019 41.5256Z" fill="#FAFC7D"/>
<path d="M44.4151 20.299C54.8651 17.509 64.8451 20.119 68.2651 26.119C68.4651 24.799 68.4251 23.479 68.0851 22.199C66.0651 14.639 54.9651 11.029 43.2951 14.149C31.6251 17.269 23.8051 25.9191 25.8251 33.489C26.0351 34.2791 26.3651 35.009 26.7651 35.709C27.7151 29.279 34.7251 22.879 44.4151 20.299Z" fill="#FFFED4"/>
<path d="M50.6019 41.5256C62.2709 38.4082 70.093 29.7519 68.0732 22.1914C66.0533 14.6308 54.9563 11.0289 43.2873 14.1464C31.6183 17.2638 23.7961 25.9201 25.816 33.4807C27.8358 41.0412 38.9328 44.6431 50.6019 41.5256Z" stroke="black" stroke-linecap="round" stroke-linejoin="round"/>
<path d="M113.435 17.109L114.985 18.839C117.015 21.829 110.555 29.749 100.565 36.519C90.5749 43.289 80.8249 46.359 78.7949 43.369L77.5249 41.919" fill="#FF833D"/>
<path d="M113.435 17.109L114.985 18.839C117.015 21.829 110.555 29.749 100.565 36.519C90.5749 43.289 80.8249 46.359 78.7949 43.369L77.5249 41.919" stroke="black" stroke-linecap="round" stroke-linejoin="round"/>
<mask id="mask1_2_2729" style="mask-type:luminance" maskUnits="userSpaceOnUse" x="77" y="17" width="39" height="28">
<path d="M113.435 17.109L115.105 18.749C117.135 21.739 110.655 29.679 100.625 36.479C90.5949 43.279 80.8249 46.359 78.7949 43.369L77.5249 41.919L113.435 17.109Z" fill="white"/>
</mask>
<g mask="url(#mask1_2_2729)">
<path d="M81.7451 41.949L93.8151 57.379" stroke="black" stroke-linecap="round" stroke-linejoin="round"/>
<path d="M84.8052 39.199L96.8252 54.569" stroke="black" stroke-linecap="round" stroke-linejoin="round"/>
<path d="M87.8652 36.449L99.8452 51.759" stroke="black" stroke-linecap="round" stroke-linejoin="round"/>
<path d="M90.9351 33.699L102.855 48.939" stroke="black" stroke-linecap="round" stroke-linejoin="round"/>
<path d="M93.9951 30.949L105.875 46.129" stroke="black" stroke-linecap="round" stroke-linejoin="round"/>
<path d="M97.0552 28.199L108.885 43.319" stroke="black" stroke-linecap="round" stroke-linejoin="round"/>
<path d="M100.115 25.449L111.895 40.509" stroke="black" stroke-linecap="round" stroke-linejoin="round"/>
<path d="M103.185 22.699L114.915 37.689" stroke="black" stroke-linecap="round" stroke-linejoin="round"/>
<path d="M106.245 19.949L117.925 34.879" stroke="black" stroke-linecap="round" stroke-linejoin="round"/>
<path d="M109.305 17.199L120.945 32.069" stroke="black" stroke-linecap="round" stroke-linejoin="round"/>
</g>
<path d="M93.4449 26.4191C83.4449 33.1991 76.3149 40.1391 77.5249 41.9191C78.6149 43.5391 86.1949 40.3491 95.0449 34.6891C95.5949 30.5891 96.8149 26.6591 98.6849 23.0591C96.9949 24.0891 95.2449 25.2091 93.4449 26.4191Z" fill="#FFFED4"/>
<path d="M113.745 17.369C112.755 15.909 106.455 18.379 98.6947 23.059C96.8347 26.649 95.6147 30.589 95.0547 34.689C95.9647 34.109 96.8847 33.509 97.8247 32.869C107.825 26.099 114.945 19.159 113.745 17.369Z" fill="#FAFC7D"/>
<path d="M97.8212 32.881C107.819 26.1037 114.943 19.1645 113.735 17.3817C112.526 15.5989 103.442 19.6477 93.4446 26.4249C83.4472 33.2021 76.3225 40.1414 77.5311 41.9242C78.7396 43.707 87.8238 39.6582 97.8212 32.881Z" stroke="black" stroke-linecap="round" stroke-linejoin="round"/>
</g>
<defs>
<radialGradient id="paint0_radial_2_2729" cx="0" cy="0" r="1" gradientUnits="userSpaceOnUse" gradientTransform="translate(40.5324 87.9758) scale(62.1121)">
<stop stop-color="#CE5411"/>
<stop offset="1" stop-color="#B42B00"/>
</radialGradient>
<clipPath id="clip0_2_2729">
<rect width="267.45" height="154.83" fill="white" transform="translate(0.274902 0.838989)"/>
</clipPath>
</defs>
</svg>
