<svg width="248" height="148" viewBox="0 0 248 148" fill="none" xmlns="http://www.w3.org/2000/svg">
<g clip-path="url(#clip0_2_2964)">
<path d="M85.4548 50.2167L83.1457 55.7037C79.9463 62.5717 68.7718 64.1381 58.1815 59.2165C47.5912 54.2949 41.5913 44.7389 44.7907 37.8709L46.7381 33.2737" fill="#FF833D"/>
<path d="M85.4548 50.2167L83.1457 55.7037C79.9463 62.5717 68.7718 64.1381 58.1815 59.2165C47.5912 54.2949 41.5913 44.7389 44.7907 37.8709L46.7381 33.2737" stroke="black" stroke-linecap="round" stroke-linejoin="round"/>
<mask id="mask0_2_2964" style="mask-type:luminance" maskUnits="userSpaceOnUse" x="43" y="33" width="43" height="30">
<path d="M85.5844 50.2816L83.2753 55.7686C80.0759 62.6366 68.8736 64.1937 58.2462 59.2443C47.6188 54.2949 41.5911 44.7389 44.7904 37.8709L46.7379 33.2737L85.5844 50.2816Z" fill="white"/>
</mask>
<g mask="url(#mask0_2_2964)">
<path d="M48.5368 37.1108L41.9805 54.1558" stroke="black" stroke-linecap="round" stroke-linejoin="round"/>
<path d="M52.3762 38.2417L45.8105 55.2867" stroke="black" stroke-linecap="round" stroke-linejoin="round"/>
<path d="M56.2057 39.3723L49.6401 56.4173" stroke="black" stroke-linecap="round" stroke-linejoin="round"/>
<path d="M60.0358 40.5032L53.4795 57.5481" stroke="black" stroke-linecap="round" stroke-linejoin="round"/>
<path d="M63.8752 41.634L57.3096 58.679" stroke="black" stroke-linecap="round" stroke-linejoin="round"/>
<path d="M67.7053 42.7646L61.1396 59.8096" stroke="black" stroke-linecap="round" stroke-linejoin="round"/>
<path d="M71.5348 43.8955L64.9785 60.9405" stroke="black" stroke-linecap="round" stroke-linejoin="round"/>
<path d="M75.3742 45.0261L68.8086 62.0618" stroke="black" stroke-linecap="round" stroke-linejoin="round"/>
<path d="M79.2043 46.157L72.6387 63.1927" stroke="black" stroke-linecap="round" stroke-linejoin="round"/>
<path d="M83.0339 47.2786L76.4775 64.3235" stroke="black" stroke-linecap="round" stroke-linejoin="round"/>
</g>
<path d="M85.1283 51.1254C88.3241 44.2609 82.3205 34.6992 71.7188 29.7686C61.1171 24.8381 49.9321 26.4059 46.7363 33.2704C43.5404 40.1349 49.5441 49.6967 60.1457 54.6272C70.7474 59.5577 81.9325 57.9899 85.1283 51.1254Z" fill="#FAFC7D" stroke="black" stroke-linecap="round" stroke-linejoin="round"/>
<path d="M68.6324 37.6021C68.8179 37.5094 68.9848 37.4167 69.1702 37.3333C69.6246 37.1386 70.1069 37.0459 70.6262 37.0459C71.5164 37.0459 72.3418 37.3055 73.1393 37.7503C73.4546 37.9265 73.7513 38.1211 74.0388 38.3435C74.9105 39.0572 75.5597 39.8914 75.9028 40.9109C76.2459 41.9398 76.1624 42.9037 75.6988 43.812C75.5226 44.1457 75.3 44.4515 75.0589 44.7389C75.0033 44.8038 75.0033 44.8038 75.0774 44.8594C75.5597 45.2208 76.0419 45.5823 76.5148 45.9531C76.5983 46.0179 76.5983 46.0179 76.5426 46.0921C76.2644 46.435 75.9862 46.778 75.708 47.1209C75.6524 47.1858 75.6524 47.1858 75.5689 47.1302C75.0867 46.7687 74.6045 46.4072 74.1316 46.0365C74.0574 45.9809 74.0574 45.9809 74.011 46.0457C73.5659 46.5926 73.13 47.1394 72.6849 47.677C72.6385 47.7326 72.6385 47.7326 72.7034 47.7882C73.1857 48.159 73.6679 48.5205 74.1501 48.8912C74.2243 48.9468 74.2243 48.9468 74.1686 49.0117C73.8904 49.3546 73.6122 49.6976 73.334 50.0498C73.2784 50.1147 73.2784 50.1147 73.2135 50.0591C72.7313 49.6883 72.249 49.3268 71.7668 48.9561C71.6926 48.9005 71.6926 48.9005 71.6463 48.9654C71.0435 49.7068 70.4407 50.4576 69.8287 51.1991C69.8194 51.2176 69.8008 51.2269 69.7916 51.2454C69.773 51.2732 69.7452 51.2732 69.7174 51.2454C69.7081 51.2362 69.6988 51.2269 69.6896 51.2269C68.9848 50.6893 68.2707 50.1517 67.5659 49.6142C67.4918 49.5585 67.4918 49.5585 67.5474 49.4937C67.9369 49.0117 68.3356 48.5297 68.7251 48.0478C68.7715 47.9829 68.7715 47.9829 68.7066 47.9365C65.9153 45.8233 63.124 43.7008 60.3234 41.5875C60.2585 41.5319 60.2585 41.5319 60.2028 41.5968C59.8133 42.0788 59.4238 42.5608 59.0344 43.0335C58.9787 43.1076 58.9694 43.1076 58.886 43.0427C58.1812 42.5051 57.4764 41.9768 56.7716 41.4393C56.6975 41.3836 56.6975 41.3836 56.7438 41.3188C57.3559 40.568 57.9679 39.8172 58.5707 39.0665C58.6171 39.0016 58.6171 39.0016 58.5521 38.946C58.0606 38.5753 57.5784 38.2045 57.0869 37.8338C57.0128 37.7782 57.0128 37.7782 57.0684 37.7225C57.3466 37.3796 57.6341 37.0274 57.9123 36.6845C57.9586 36.6196 57.9586 36.6196 58.0328 36.6752C58.5243 37.0459 59.0065 37.4167 59.498 37.7874C59.563 37.843 59.563 37.843 59.6186 37.7782C60.0452 37.2498 60.4717 36.7215 60.9076 36.2025C60.9169 36.1932 60.9261 36.1747 60.9354 36.1654C61.0282 36.082 61.0003 36.0913 60.9076 36.0171C60.4254 35.6556 59.9432 35.2849 59.4702 34.9234C59.3868 34.8585 59.3868 34.8585 59.4424 34.7844C59.7206 34.4415 60.0081 34.0893 60.2863 33.7463C60.3326 33.6907 60.3326 33.6907 60.3976 33.737C60.9725 34.1727 61.5475 34.6083 62.1224 35.0439C62.1781 35.0903 62.2152 35.0903 62.2708 35.0625C62.8643 34.7195 63.5134 34.5156 64.2368 34.4971C65.025 34.4693 65.7762 34.6454 66.4995 35.0346C67.297 35.4703 67.8998 36.082 68.3171 36.842C68.4469 37.0737 68.5304 37.3147 68.6324 37.5557C68.6231 37.565 68.6231 37.5835 68.6324 37.6021ZM68.8457 44.5998C69.365 44.9891 69.8843 45.3877 70.4036 45.777C70.4778 45.8326 70.4778 45.8326 70.5242 45.7677C70.7004 45.5545 70.8673 45.3413 71.0435 45.1282C71.3588 44.7389 71.6648 44.3496 71.9801 43.9696C72.1378 43.7749 72.2954 43.5896 72.416 43.3671C72.6292 42.9686 72.7313 42.5422 72.6292 42.0603C72.5087 41.4763 72.1748 41.0314 71.6277 40.7163C71.062 40.3919 70.4871 40.3548 69.9121 40.5495C69.5041 40.6885 69.1888 40.948 68.9199 41.2539C68.8364 41.3466 68.7808 41.4578 68.7066 41.5505C68.3356 42.0046 67.9647 42.4588 67.5938 42.913C67.4918 43.0427 67.3805 43.1725 67.2785 43.3022C67.2321 43.3671 67.2321 43.3671 67.297 43.4227C67.8163 43.812 68.3264 44.2013 68.8457 44.5998ZM63.5784 40.6051C63.6525 40.6607 63.7175 40.7163 63.7916 40.7626C64.1626 41.0407 64.5335 41.3188 64.8952 41.6061C64.9416 41.6339 64.9601 41.6432 64.9972 41.6061C65.0528 41.5319 65.1178 41.4671 65.1827 41.3929C65.5536 40.9387 65.9245 40.4939 66.2491 40.0026C66.3882 39.7894 66.4809 39.567 66.5088 39.3167C66.5737 38.5382 66.0173 37.7967 65.2012 37.5928C64.6541 37.4538 64.1811 37.5742 63.7638 37.8523C63.4671 38.0469 63.2445 38.3065 63.0219 38.566C62.7623 38.8719 62.5119 39.1963 62.2615 39.5114C62.2152 39.567 62.2152 39.567 62.2893 39.6226C62.7066 39.947 63.1425 40.2714 63.5784 40.6051Z" fill="#FF833D" stroke="black" stroke-width="0.75" stroke-linecap="round" stroke-linejoin="round"/>
<path d="M158.446 142.671C158.437 142.671 158.418 142.671 158.409 142.671C147.874 143.097 136.783 143.338 125.46 143.385C125.108 143.385 124.774 143.579 124.57 143.894L123.847 144.988C123.606 145.359 123.569 145.85 123.754 146.258C123.939 146.666 124.32 146.925 124.737 146.925C136.106 146.888 147.244 146.656 157.825 146.249C158.186 146.239 158.511 146.026 158.706 145.692C158.938 145.303 159.16 144.914 159.383 144.525C159.596 144.145 159.605 143.663 159.401 143.273C159.197 142.903 158.835 142.671 158.446 142.671Z" fill="#B3FFFD" stroke="black" stroke-linecap="round" stroke-linejoin="round"/>
<path d="M208.17 127.443C207.855 127.294 207.521 127.174 207.196 127.09C205.907 126.747 204.544 126.766 203.265 126.34C201.428 125.737 199.806 124.254 197.895 124.189C196.393 124.134 194.872 124.949 193.407 125.533C191.932 125.385 190.402 125.237 188.835 125.088C187.333 123.439 187.184 120.287 185.293 119.082C182.056 117.034 178.504 122.845 174.869 121.937C172.152 121.251 171.373 117.507 170.372 114.624C169.296 111.519 167.246 108.711 164.464 107.478C161.673 106.236 158.14 106.885 156.239 109.452C154.152 112.288 154.44 116.487 152.789 119.648C150.842 123.392 146.029 124.875 142.607 122.79C141.67 122.215 140.836 121.427 139.834 121.029C137.247 119.981 134.548 121.789 132.323 123.698C131.85 123.698 131.358 123.689 130.894 123.689C127.751 123.661 124.551 123.652 121.306 123.652C110.567 123.652 100.162 123.791 90.3788 124.069C89.7018 124.087 88.9692 124.106 88.1809 124.134C86.0851 122.567 83.9708 120.908 81.5504 120.806C79.2228 120.704 76.8952 122.261 75.8843 124.588C76.0513 122.966 73.4083 122.252 71.9524 122.493C70.4872 122.734 69.1518 123.652 67.6866 123.707C66.7314 123.744 65.8041 123.42 64.9138 123.012C61.6589 121.492 58.9325 118.906 55.9835 116.774C53.0346 114.633 49.5941 112.872 46.0887 113.373C45.0965 113.512 44.1042 113.846 43.2974 114.504C40.7936 116.571 41.0162 120.779 41.8879 124.097C39.8662 121.752 36.9266 122.234 34.1909 123.392C32.2156 124.236 30.6484 126.089 29.8973 128.268C20.086 130.26 17.8232 132.318 17.8232 134.709C17.8232 137.573 21.0597 139.974 36.8524 142.347C46.9326 143.867 60.7222 145.09 76.7282 145.887C76.7468 145.887 76.7653 145.887 76.7746 145.887C77.2012 145.887 77.5907 145.618 77.7669 145.183C77.9523 144.738 77.8874 144.21 77.5814 143.848C77.1919 143.375 76.8302 142.968 76.4686 142.615C76.2831 142.421 76.0327 142.319 75.7823 142.3C60.3328 141.503 47.0161 140.307 37.2697 138.843C25.6686 137.101 22.256 135.395 21.2915 134.709C21.987 134.209 23.9901 133.171 29.4707 131.975C29.5078 132.16 29.5542 132.336 29.6284 132.503C29.8695 133.032 30.2775 133.421 30.7226 133.764C32.9575 135.525 35.8972 136.118 38.5401 135.358C39.6808 135.59 41.0162 135.821 42.5926 136.053C43.724 136.433 44.9203 136.591 46.1073 136.517C46.9419 136.619 47.8321 136.72 48.7688 136.813C65.1642 138.556 92.2705 139.603 121.269 139.603C165.132 139.603 201.771 137.277 208.393 134.07C209.626 133.476 210.247 132.661 210.247 131.641C210.247 131.558 210.247 131.484 210.238 131.4C218 132.837 220.495 134.116 221.283 134.709C221.246 134.737 221.209 134.765 221.172 134.783C217.082 137.592 199.991 140.215 175.463 141.8C175.222 141.818 174.98 141.92 174.804 142.106C174.396 142.504 173.979 142.903 173.552 143.292C173.191 143.626 173.061 144.182 173.228 144.673C173.395 145.136 173.803 145.442 174.248 145.442C174.266 145.442 174.285 145.442 174.313 145.442C189.67 144.488 216.386 142.226 222.85 137.796C224.417 136.73 224.751 135.534 224.751 134.718C224.76 133.041 224.76 130.186 208.17 127.443ZM90.4344 127.304C100.19 127.026 110.567 126.887 121.287 126.887C124.524 126.887 127.714 126.905 130.857 126.924C177.354 127.285 199.806 129.927 205.917 131.586C204.776 131.929 203.209 132.262 201.261 132.577C200.084 131.743 198.544 131.502 197.237 132.068C196.523 132.374 195.892 132.883 195.187 133.198C194.77 133.384 194.353 133.476 193.917 133.532C193.75 133.551 193.574 133.569 193.398 133.588C189.382 133.708 184.94 129.398 181.351 131.706C180.285 132.392 179.534 133.569 178.458 134.218C174.174 136.813 168.749 129.713 164.464 132.309C163.268 133.032 162.526 134.357 161.729 135.608C149.469 136.081 135.642 136.35 121.287 136.35C92.3818 136.35 65.3868 135.312 49.0655 133.578C42.0733 132.837 38.5216 132.114 36.7318 131.604C41.4242 130.372 56.0021 128.24 90.4344 127.304Z" fill="#B3FFFD" stroke="black" stroke-linecap="round" stroke-linejoin="round"/>
<path d="M190.94 111.111C194.492 111.111 197.376 108.229 197.376 104.679C197.376 101.129 194.492 98.2466 190.94 98.2466C187.379 98.2466 184.504 101.129 184.504 104.679C184.504 108.229 187.388 111.111 190.94 111.111Z" fill="#FAFC7D" stroke="black" stroke-linecap="round" stroke-linejoin="round"/>
<path d="M204.183 75.1864C205.666 75.1864 206.863 73.9814 206.863 72.5077C206.863 71.0248 205.657 69.8291 204.183 69.8291C202.699 69.8291 201.502 71.034 201.502 72.5077C201.493 73.9814 202.699 75.1864 204.183 75.1864Z" fill="#B3FFFD" stroke="black" stroke-linecap="round" stroke-linejoin="round"/>
<path d="M41.4798 68.6334C42.9636 68.6334 44.1599 67.4285 44.1599 65.9548C44.1599 64.4718 42.9543 63.2761 41.4798 63.2761C39.9961 63.2761 38.7998 64.481 38.7998 65.9548C38.7998 67.4285 39.9961 68.6334 41.4798 68.6334Z" fill="#FAFC7D" stroke="black" stroke-linecap="round" stroke-linejoin="round"/>
<path d="M212.77 89.7565C214.3 89.7565 215.543 88.5145 215.543 86.9852C215.543 85.4559 214.3 84.2139 212.77 84.2139C211.24 84.2139 209.997 85.4559 209.997 86.9852C209.997 88.5145 211.23 89.7565 212.77 89.7565Z" fill="#B3FFFD" stroke="black" stroke-linecap="round" stroke-linejoin="round"/>
<path d="M57.6159 112.251C60.5813 112.251 62.9852 109.849 62.9852 106.885C62.9852 103.921 60.5813 101.518 57.6159 101.518C54.6505 101.518 52.2466 103.921 52.2466 106.885C52.2466 109.849 54.6505 112.251 57.6159 112.251Z" fill="#FAFC7D" stroke="black" stroke-linecap="round" stroke-linejoin="round"/>
<path d="M45.6254 92.4351C47.1091 92.4351 48.3054 91.2302 48.3054 89.7565C48.3054 88.2735 47.1091 87.0779 45.6254 87.0779C44.1416 87.0779 42.9454 88.2735 42.9454 89.7565C42.9361 91.2302 44.1416 92.4351 45.6254 92.4351Z" fill="#B3FFFD" stroke="black" stroke-linecap="round" stroke-linejoin="round"/>
<path d="M235.852 98.0428C237.632 98.0428 239.07 96.6061 239.07 94.8265C239.07 93.047 237.632 91.6104 235.852 91.6104C234.071 91.6104 232.634 93.047 232.634 94.8265C232.634 96.5969 234.071 98.0428 235.852 98.0428Z" fill="#D9FC7E" stroke="black" stroke-width="0.75" stroke-linecap="round" stroke-linejoin="round"/>
<path d="M22.6363 86.0398C25.0752 86.0398 27.0505 84.0655 27.0505 81.6186C27.0505 79.1717 25.0752 77.1975 22.6363 77.1975C20.1974 77.1975 18.2129 79.1717 18.2129 81.6186C18.2129 84.0655 20.1974 86.0398 22.6363 86.0398Z" fill="#D9FC7E" stroke="black" stroke-width="0.75" stroke-linecap="round" stroke-linejoin="round"/>
<path d="M73.5845 86.3549C75.5412 86.3549 77.1176 84.77 77.1176 82.8236C77.1176 80.8772 75.5319 79.2922 73.5845 79.2922C71.6278 79.2922 70.0513 80.8772 70.0513 82.8236C70.0513 84.77 71.637 86.3549 73.5845 86.3549Z" fill="#D9FC7E" stroke="black" stroke-width="0.75" stroke-linecap="round" stroke-linejoin="round"/>
<path d="M177.892 82.8236C179.358 82.8236 180.545 81.6372 180.545 80.1728C180.545 78.7084 179.358 77.522 177.892 77.522C176.427 77.522 175.24 78.7084 175.24 80.1728C175.24 81.6372 176.427 82.8236 177.892 82.8236Z" fill="#D9FC7E" stroke="black" stroke-width="0.75" stroke-linecap="round" stroke-linejoin="round"/>
<path d="M27.7831 115.857C27.7831 115.857 12.2222 101.824 3.79264 107.293C-4.63694 112.761 5.13729 118.869 9.04141 117.711C12.9455 116.543 18.8064 110.259 27.7831 115.857Z" fill="#B3FFFD" stroke="black" stroke-linecap="round" stroke-linejoin="round"/>
<path d="M39.2729 107.089C39.2729 107.089 31.9376 96.6802 26.2066 98.7934C20.4756 100.907 25.4462 105.838 27.9129 105.671C30.3797 105.504 34.7011 102.566 39.2729 107.089Z" fill="#B3FFFD" stroke="black" stroke-linecap="round" stroke-linejoin="round"/>
<path d="M220.003 120.704C220.003 120.704 238.652 111.148 245.394 118.6C252.136 126.052 241.11 129.445 237.642 127.313C234.164 125.19 230.121 117.609 220.003 120.704Z" fill="#B3FFFD" stroke="black" stroke-linecap="round" stroke-linejoin="round"/>
<path d="M209.673 112.696C209.673 112.696 215.895 101.592 221.812 103.094C227.728 104.595 223.296 110.027 220.82 110.11C218.353 110.203 213.753 107.728 209.673 112.696Z" fill="#B3FFFD" stroke="black" stroke-linecap="round" stroke-linejoin="round"/>
<path d="M65.9435 135.099C65.9435 135.099 54.4444 133.968 76.7378 101.398C99.0311 68.8281 152.891 28.4819 165.633 34.3396C171.8 38.5661 166.097 45.601 162.962 55.9262C159.828 66.2514 152.836 115.004 155.395 135.692C155.395 135.692 146.214 136.359 108.889 136.359C71.5632 136.359 65.9435 135.099 65.9435 135.099Z" fill="#BDB9EF" stroke="black" stroke-linecap="round" stroke-linejoin="round"/>
<path d="M109.093 82.5084C93.4393 98.1538 81.8753 111.964 80.7532 110.852C79.6404 109.74 89.6464 95.3361 105.309 79.6815C120.972 64.0268 136.338 53.062 137.451 54.1835C138.573 55.2958 124.746 66.8537 109.093 82.5084Z" fill="white"/>
<path d="M111.782 1.86243L118.413 5.29181C126.666 9.96318 127.51 24.0607 120.304 36.7865C113.099 49.5123 100.561 56.0374 92.3077 51.366L86.7622 48.4742" fill="#FF833D"/>
<path d="M111.782 1.86243L118.413 5.29181C126.666 9.96318 127.51 24.0607 120.304 36.7865C113.099 49.5123 100.561 56.0374 92.3077 51.366L86.7622 48.4742" stroke="black" stroke-linecap="round" stroke-linejoin="round"/>
<mask id="mask1_2_2964" style="mask-type:luminance" maskUnits="userSpaceOnUse" x="86" y="1" width="40" height="52">
<path d="M111.875 1.70483L118.505 5.13422C126.759 9.80559 127.584 23.9402 120.351 36.7123C113.117 49.4752 100.561 56.0374 92.3077 51.366L86.7622 48.4742L111.875 1.70483Z" fill="white"/>
</mask>
<g mask="url(#mask1_2_2964)">
<path d="M91.7329 46.6113L112.357 56.5009" stroke="black" stroke-linecap="round" stroke-linejoin="round"/>
<path d="M93.5225 41.9399L114.156 51.8295" stroke="black" stroke-linecap="round" stroke-linejoin="round"/>
<path d="M95.3125 37.2778L115.946 47.1582" stroke="black" stroke-linecap="round" stroke-linejoin="round"/>
<path d="M97.1113 32.6064L117.735 42.496" stroke="black" stroke-linecap="round" stroke-linejoin="round"/>
<path d="M98.9014 27.9351L119.535 37.8247" stroke="black" stroke-linecap="round" stroke-linejoin="round"/>
<path d="M100.7 23.2637L121.324 33.1533" stroke="black" stroke-linecap="round" stroke-linejoin="round"/>
<path d="M102.49 18.6016L123.124 28.4819" stroke="black" stroke-linecap="round" stroke-linejoin="round"/>
<path d="M104.28 13.9302L124.913 23.8198" stroke="black" stroke-linecap="round" stroke-linejoin="round"/>
<path d="M106.079 9.25879L126.713 19.1484" stroke="black" stroke-linecap="round" stroke-linejoin="round"/>
<path d="M107.869 4.5874L128.502 14.477" stroke="black" stroke-linecap="round" stroke-linejoin="round"/>
</g>
<path d="M114.762 33.8889C121.976 21.1595 121.133 7.05296 112.88 2.38111C104.627 -2.29074 92.0888 4.24121 84.8754 16.9706C77.662 29.7001 78.5049 43.8066 86.7579 48.4784C95.011 53.1503 107.549 46.6183 114.762 33.8889Z" fill="#FAFC7D" stroke="black" stroke-linecap="round" stroke-linejoin="round"/>
<path d="M209.802 31.3088L213.289 35.73C217.536 41.495 214.513 50.9305 206.529 56.8068C198.544 62.6831 188.631 62.7757 184.384 57.0199L181.472 53.3125" fill="#FF833D"/>
<path d="M209.802 31.3088L213.289 35.73C217.536 41.495 214.513 50.9305 206.529 56.8068C198.544 62.6831 188.631 62.7757 184.384 57.0199L181.472 53.3125" stroke="black" stroke-linecap="round" stroke-linejoin="round"/>
<mask id="mask2_2_2964" style="mask-type:luminance" maskUnits="userSpaceOnUse" x="181" y="31" width="35" height="31">
<path d="M209.802 31.3088L213.289 35.73C217.536 41.495 214.513 50.9305 206.529 56.8068C198.544 62.6831 188.631 62.7757 184.384 57.0199L181.472 53.3125L209.802 31.3088Z" fill="white"/>
</mask>
<g mask="url(#mask2_2_2964)">
<path d="M183.836 53.5073L195.002 66.678" stroke="black" stroke-linecap="round" stroke-linejoin="round"/>
<path d="M186.563 51.3755L197.728 64.5369" stroke="black" stroke-linecap="round" stroke-linejoin="round"/>
<path d="M189.28 49.2344L200.454 62.4051" stroke="black" stroke-linecap="round" stroke-linejoin="round"/>
<path d="M192.006 47.0933L203.181 60.2639" stroke="black" stroke-linecap="round" stroke-linejoin="round"/>
<path d="M194.733 44.9617L205.907 58.1231" stroke="black" stroke-linecap="round" stroke-linejoin="round"/>
<path d="M197.459 42.8206L208.624 55.9912" stroke="black" stroke-linecap="round" stroke-linejoin="round"/>
<path d="M200.186 40.6887L211.351 53.8501" stroke="black" stroke-linecap="round" stroke-linejoin="round"/>
<path d="M202.912 38.5476L214.077 51.7183" stroke="black" stroke-linecap="round" stroke-linejoin="round"/>
<path d="M205.638 36.4067L216.803 49.5774" stroke="black" stroke-linecap="round" stroke-linejoin="round"/>
<path d="M208.365 34.2749L219.53 47.4363" stroke="black" stroke-linecap="round" stroke-linejoin="round"/>
</g>
<path d="M203.618 53.0992C211.601 47.2204 214.629 37.7842 210.382 32.0227C206.135 26.2612 196.22 26.3563 188.237 32.235C180.255 38.1137 177.226 47.55 181.474 53.3115C185.721 59.073 195.635 58.9779 203.618 53.0992Z" fill="#FAFC7D"/>
<path d="M184.996 51.6347C180.748 45.8696 183.771 36.4342 191.756 30.5579C192.516 30.0018 193.295 29.5106 194.084 29.0564C192.09 29.7979 190.115 30.8452 188.232 32.2263C180.248 38.1026 177.224 47.538 181.472 53.3031C185.32 58.5213 193.796 58.9198 201.289 54.5914C194.807 57.0105 188.241 56.0466 184.996 51.6347Z" fill="#FFFED4"/>
<path d="M203.618 53.0992C211.601 47.2204 214.629 37.7842 210.382 32.0227C206.135 26.2612 196.22 26.3563 188.237 32.235C180.255 38.1137 177.226 47.55 181.474 53.3115C185.721 59.073 195.635 58.9779 203.618 53.0992Z" stroke="black" stroke-linecap="round" stroke-linejoin="round"/>
<path d="M198.535 45.4434C198.572 45.6843 198.61 45.9253 198.628 46.1663C198.684 46.7595 198.628 47.362 198.47 47.9551C198.202 48.9747 197.701 49.8274 197.042 50.5689C196.783 50.8655 196.505 51.1343 196.198 51.366C195.262 52.0889 194.26 52.506 193.185 52.4968C192.1 52.4875 191.2 52.0148 190.477 51.125C190.208 50.7913 189.985 50.4113 189.781 50.022C189.735 49.9386 189.735 49.9386 189.661 50.0035C189.169 50.4113 188.678 50.8191 188.186 51.227C188.103 51.3011 188.103 51.3011 188.047 51.1992C187.806 50.745 187.565 50.2908 187.315 49.8367C187.268 49.744 187.268 49.744 187.352 49.6698C187.843 49.262 188.335 48.8542 188.826 48.4464C188.9 48.3815 188.9 48.3815 188.854 48.2981C188.464 47.5751 188.075 46.8522 187.695 46.1292C187.648 46.0551 187.648 46.0551 187.583 46.1107C187.092 46.5185 186.591 46.9356 186.1 47.3434C186.025 47.4083 186.025 47.4083 185.979 47.3156C185.738 46.8614 185.488 46.398 185.247 45.9439C185.2 45.8604 185.2 45.8604 185.274 45.7956C185.766 45.3877 186.267 44.9707 186.758 44.5628C186.832 44.498 186.832 44.498 186.786 44.4145C186.257 43.4228 185.729 42.4403 185.2 41.4486C185.191 41.4301 185.182 41.4022 185.163 41.3837C185.145 41.3466 185.145 41.3188 185.182 41.291C185.191 41.2818 185.2 41.2725 185.209 41.2632C185.933 40.6608 186.665 40.0583 187.389 39.4466C187.463 39.3817 187.463 39.3817 187.509 39.4744C187.852 40.1139 188.195 40.7534 188.539 41.393C188.585 41.4764 188.585 41.4764 188.65 41.4115C191.506 39.0295 194.372 36.6475 197.228 34.2747C197.302 34.2191 197.302 34.2191 197.256 34.1357C196.913 33.4961 196.569 32.8659 196.226 32.2263C196.171 32.1244 196.171 32.1244 196.263 32.0502C196.987 31.4478 197.71 30.8453 198.433 30.2428C198.508 30.178 198.508 30.178 198.554 30.2614C199.092 31.2624 199.62 32.2541 200.158 33.2551C200.205 33.3386 200.205 33.3386 200.279 33.2737C200.78 32.8566 201.28 32.4395 201.781 32.0224C201.855 31.9668 201.855 31.9668 201.892 32.041C202.143 32.5044 202.384 32.9585 202.634 33.422C202.681 33.5054 202.681 33.5054 202.606 33.5703C202.106 33.9874 201.605 34.4044 201.104 34.8215C201.03 34.8771 201.03 34.8772 201.076 34.9606C201.447 35.6557 201.827 36.3601 202.198 37.0553C202.208 37.0738 202.217 37.0831 202.226 37.1016C202.273 37.2406 202.282 37.2036 202.375 37.1294C202.866 36.7216 203.358 36.3138 203.849 35.906C203.933 35.8318 203.933 35.8318 203.988 35.9338C204.239 36.3972 204.48 36.8514 204.73 37.3148C204.767 37.3889 204.767 37.3982 204.702 37.4538C204.118 37.9451 203.524 38.4363 202.94 38.9183C202.885 38.9646 202.866 39.0109 202.885 39.0851C203.033 39.9007 203.033 40.7256 202.838 41.5691C202.625 42.4867 202.235 43.2838 201.642 43.9604C200.984 44.7111 200.223 45.156 199.37 45.3414C199.11 45.397 198.851 45.397 198.591 45.4248C198.572 45.4526 198.554 45.4434 198.535 45.4434ZM191.794 42.9408C191.265 43.3857 190.727 43.8214 190.199 44.2662C190.124 44.3311 190.124 44.3311 190.171 44.4145C190.319 44.6926 190.467 44.9799 190.625 45.258C190.903 45.7678 191.182 46.2775 191.441 46.7966C191.571 47.0561 191.71 47.3063 191.886 47.5288C192.202 47.9273 192.582 48.2147 193.064 48.2888C193.648 48.3815 194.186 48.1683 194.65 47.6678C195.132 47.1395 195.336 46.4907 195.317 45.7585C195.308 45.2302 195.16 44.7667 194.947 44.3404C194.882 44.2106 194.798 44.0994 194.733 43.9789C194.409 43.3765 194.093 42.7647 193.769 42.1623C193.676 41.9954 193.583 41.8193 193.491 41.6525C193.444 41.5691 193.444 41.5691 193.37 41.634C192.851 42.0603 192.322 42.5052 191.794 42.9408ZM197.191 38.4548C197.117 38.5197 197.042 38.5753 196.977 38.6402C196.597 38.9553 196.226 39.2705 195.846 39.5856C195.8 39.6227 195.79 39.6505 195.818 39.6968C195.874 39.7895 195.911 39.8915 195.967 39.9841C196.291 40.5866 196.607 41.1983 196.977 41.7544C197.135 41.9954 197.321 42.1901 197.562 42.3198C198.285 42.7091 199.166 42.3569 199.611 41.4949C199.908 40.9203 199.936 40.3271 199.797 39.7339C199.704 39.3168 199.518 38.9646 199.333 38.6031C199.12 38.1768 198.879 37.769 198.656 37.3611C198.61 37.287 198.61 37.287 198.545 37.3426C198.081 37.7133 197.636 38.0841 197.191 38.4548Z" fill="#FF833D" stroke="black" stroke-width="0.75" stroke-linecap="round" stroke-linejoin="round"/>
<path d="M95.9893 33.4405L97.9924 26.6837L101.22 25.4603L102.277 21.6323L99.133 22.828L102.342 11.9744L94.96 11.6686L90.7127 26.0071L87.9863 27.0359L86.8086 30.9102L89.5721 29.8628L87.0312 38.427L88.5984 38.4919L94.4221 38.7236L105.532 39.1778L106.978 33.8854L95.9893 33.4405Z" fill="#FF833D" stroke="black" stroke-width="0.75" stroke-linecap="round" stroke-linejoin="round"/>
</g>
<defs>
<clipPath id="clip0_2_2964">
<rect width="248" height="147" fill="white" transform="translate(0 0.397949)"/>
</clipPath>
</defs>
</svg>
